# Sancta editable mesh extracted from the approved reference, cm, Z up
v 34.9999994 -5.00000007 0.0
v 0.0 30.0000012 77.9999971
v 0.0 100.0 0.0
v 0.0 100.0 0.0
v 0.0 30.0000012 77.9999971
v -30.0000012 80.0000012 0.0
v 0.0 30.0000012 77.9999971
v -30.0000012 23.9999995 54.6000004
v -30.0000012 80.0000012 0.0
v -30.0000012 80.0000012 0.0
v -30.0000012 23.9999995 54.6000004
v -100.0 11.9999997 0.0
v 34.9999994 -5.00000007 0.0
v 0.0 -60.0000024 0.0
v 0.0 30.0000012 77.9999971
v 0.0 30.0000012 77.9999971
v 0.0 -60.0000024 0.0
v -30.0000012 23.9999995 54.6000004
v 0.0 -60.0000024 0.0
v -30.0000012 -47.9999989 0.0
v -30.0000012 23.9999995 54.6000004
v -30.0000012 23.9999995 54.6000004
v -30.0000012 -47.9999989 0.0
v -100.0 11.9999997 0.0
v 34.9999994 -5.00000007 0.0
v 0.0 30.0000012 -77.9999971
v 0.0 -60.0000024 0.0
v 0.0 -60.0000024 0.0
v 0.0 30.0000012 -77.9999971
v -30.0000012 -47.9999989 0.0
v 0.0 30.0000012 -77.9999971
v -30.0000012 23.9999995 -54.6000004
v -30.0000012 -47.9999989 0.0
v -30.0000012 -47.9999989 0.0
v -30.0000012 23.9999995 -54.6000004
v -100.0 11.9999997 0.0
v 34.9999994 -5.00000007 0.0
v 0.0 100.0 0.0
v 0.0 30.0000012 -77.9999971
v 0.0 30.0000012 -77.9999971
v 0.0 100.0 0.0
v -30.0000012 23.9999995 -54.6000004
v 0.0 100.0 0.0
v -30.0000012 80.0000012 0.0
v -30.0000012 23.9999995 -54.6000004
v -30.0000012 23.9999995 -54.6000004
v -30.0000012 80.0000012 0.0
v -100.0 11.9999997 0.0
vt 1.0 1.0
vn 0.912643194 0.304214388 0.273012906
vt 0.0 0.0
vn 0.912643194 0.304214388 0.273012906
vt 0.0 1.0
vn 0.912643194 0.304214388 0.273012906
vt 1.0 1.0
vn -0.44446066 0.666691005 0.598312497
vt 0.0 0.0
vn -0.44446066 0.666691005 0.598312497
vt 0.0 1.0
vn -0.44446066 0.666691005 0.598312497
vt 1.0 1.0
vn -0.572416365 0.572416365 0.587093711
vt 0.0 0.0
vn -0.572416365 0.572416365 0.587093711
vt 0.0 1.0
vn -0.572416365 0.572416365 0.587093711
vt 1.0 1.0
vn -0.561265051 0.577772856 0.59258759
vt 0.0 0.0
vn -0.561265051 0.577772856 0.59258759
vt 0.0 1.0
vn -0.561265051 0.577772856 0.59258759
vt 1.0 1.0
vn 0.717199802 -0.456399828 0.526615262
vt 0.0 0.0
vn 0.717199802 -0.456399828 0.526615262
vt 0.0 1.0
vn 0.717199802 -0.456399828 0.526615262
vt 1.0 1.0
vn -0.416743308 -0.595347703 0.686939657
vt 0.0 0.0
vn -0.416743308 -0.595347703 0.686939657
vt 0.0 1.0
vn -0.416743308 -0.595347703 0.686939657
vt 1.0 1.0
vn -0.234931871 -0.587329507 0.774500489
vt 0.0 0.0
vn -0.234931871 -0.587329507 0.774500489
vt 0.0 1.0
vn -0.234931871 -0.587329507 0.774500489
vt 1.0 1.0
vn -0.459898949 -0.536548793 0.707536817
vt 0.0 0.0
vn -0.459898949 -0.536548793 0.707536817
vt 0.0 1.0
vn -0.459898949 -0.536548793 0.707536817
vt 1.0 1.0
vn 0.717199802 -0.456399828 -0.526615262
vt 0.0 0.0
vn 0.717199802 -0.456399828 -0.526615262
vt 0.0 1.0
vn 0.717199802 -0.456399828 -0.526615262
vt 1.0 1.0
vn -0.253420502 -0.633551121 -0.73102057
vt 0.0 0.0
vn -0.253420502 -0.633551121 -0.73102057
vt 0.0 1.0
vn -0.253420502 -0.633551121 -0.73102057
vt 1.0 1.0
vn -0.447683394 -0.540307701 -0.712493658
vt 0.0 0.0
vn -0.447683394 -0.540307701 -0.712493658
vt 0.0 1.0
vn -0.447683394 -0.540307701 -0.712493658
vt 1.0 1.0
vn -0.459898949 -0.536548793 -0.707536817
vt 0.0 0.0
vn -0.459898949 -0.536548793 -0.707536817
vt 0.0 1.0
vn -0.459898949 -0.536548793 -0.707536817
vt 1.0 1.0
vn 0.912643194 0.304214388 -0.273012906
vt 0.0 0.0
vn 0.912643194 0.304214388 -0.273012906
vt 0.0 1.0
vn 0.912643194 0.304214388 -0.273012906
vt 1.0 1.0
vn -0.556511521 0.618346155 -0.554926097
vt 0.0 0.0
vn -0.556511521 0.618346155 -0.554926097
vt 0.0 1.0
vn -0.556511521 0.618346155 -0.554926097
vt 1.0 1.0
vn -0.421942234 0.632913411 -0.649142027
vt 0.0 0.0
vn -0.421942234 0.632913411 -0.649142027
vt 0.0 1.0
vn -0.421942234 0.632913411 -0.649142027
vt 1.0 1.0
vn -0.561265051 0.577772856 -0.59258759
vt 0.0 0.0
vn -0.561265051 0.577772856 -0.59258759
vt 0.0 1.0
vn -0.561265051 0.577772856 -0.59258759
f 1/1/1 3/3/3 2/2/2
f 4/4/4 6/6/6 5/5/5
f 7/7/7 9/9/9 8/8/8
f 10/10/10 12/12/12 11/11/11
f 13/13/13 15/15/15 14/14/14
f 16/16/16 18/18/18 17/17/17
f 19/19/19 21/21/21 20/20/20
f 22/22/22 24/24/24 23/23/23
f 25/25/25 27/27/27 26/26/26
f 28/28/28 30/30/30 29/29/29
f 31/31/31 33/33/33 32/32/32
f 34/34/34 36/36/36 35/35/35
f 37/37/37 39/39/39 38/38/38
f 40/40/40 42/42/42 41/41/41
f 43/43/43 45/45/45 44/44/44
f 46/46/46 48/48/48 47/47/47
