# Sancta editable mesh extracted from the approved reference, cm, Z up
v 0.0 -100.0 -100.0
v 0.0 -93.75 -100.0
v 0.0 -87.5 -100.0
v 0.0 -81.25 -100.0
v 0.0 -75.0 -100.0
v 0.0 -68.75 -100.0
v 0.0 -62.5 -100.0
v 0.0 -56.25 -100.0
v 0.0 -50.0 -100.0
v 0.0 -43.75 -100.0
v 0.0 -37.5 -100.0
v 0.0 -31.25 -100.0
v 0.0 -25.0 -100.0
v 0.0 -18.75 -100.0
v 0.0 -12.5 -100.0
v 0.0 -6.25 -100.0
v 0.0 0.0 -100.0
v 0.0 6.25 -100.0
v 0.0 12.5 -100.0
v 0.0 18.75 -100.0
v 0.0 25.0 -100.0
v 0.0 31.25 -100.0
v 0.0 37.5 -100.0
v 0.0 43.75 -100.0
v 0.0 50.0 -100.0
v 0.0 56.25 -100.0
v 0.0 62.5 -100.0
v 0.0 68.75 -100.0
v 0.0 75.0 -100.0
v 0.0 81.25 -100.0
v 0.0 87.5 -100.0
v 0.0 93.75 -100.0
v 0.0 100.0 -100.0
v 0.0 -100.0 -50.0
v 0.0 -93.75 -50.0
v 0.0 -87.5 -50.0
v 0.0 -81.25 -50.0
v 0.0 -75.0 -50.0
v 0.0 -68.75 -50.0
v 0.0 -62.5 -50.0
v 0.0 -56.25 -50.0
v 0.0 -50.0 -50.0
v 0.0 -43.75 -50.0
v 0.0 -37.5 -50.0
v 0.0 -31.25 -50.0
v 0.0 -25.0 -50.0
v 0.0 -18.75 -50.0
v 0.0 -12.5 -50.0
v 0.0 -6.25 -50.0
v 0.0 0.0 -50.0
v 0.0 6.25 -50.0
v 0.0 12.5 -50.0
v 0.0 18.75 -50.0
v 0.0 25.0 -50.0
v 0.0 31.25 -50.0
v 0.0 37.5 -50.0
v 0.0 43.75 -50.0
v 0.0 50.0 -50.0
v 0.0 56.25 -50.0
v 0.0 62.5 -50.0
v 0.0 68.75 -50.0
v 0.0 75.0 -50.0
v 0.0 81.25 -50.0
v 0.0 87.5 -50.0
v 0.0 93.75 -50.0
v 0.0 100.0 -50.0
v 0.0 -100.0 0.0
v 0.0 -93.75 0.0
v 0.0 -87.5 0.0
v 0.0 -81.25 0.0
v 0.0 -75.0 0.0
v 0.0 -68.75 0.0
v 0.0 -62.5 0.0
v 0.0 -56.25 0.0
v 0.0 -50.0 0.0
v 0.0 -43.75 0.0
v 0.0 -37.5 0.0
v 0.0 -31.25 0.0
v 0.0 -25.0 0.0
v 0.0 -18.75 0.0
v 0.0 -12.5 0.0
v 0.0 -6.25 0.0
v 0.0 0.0 0.0
v 0.0 6.25 0.0
v 0.0 12.5 0.0
v 0.0 18.75 0.0
v 0.0 25.0 0.0
v 0.0 31.25 0.0
v 0.0 37.5 0.0
v 0.0 43.75 0.0
v 0.0 50.0 0.0
v 0.0 56.25 0.0
v 0.0 62.5 0.0
v 0.0 68.75 0.0
v 0.0 75.0 0.0
v 0.0 81.25 0.0
v 0.0 87.5 0.0
v 0.0 93.75 0.0
v 0.0 100.0 0.0
v 0.0 -100.0 50.0
v 0.0 -93.75 50.0
v 0.0 -87.5 50.0
v 0.0 -81.25 50.0
v 0.0 -75.0 50.0
v 0.0 -68.75 50.0
v 0.0 -62.5 50.0
v 0.0 -56.25 50.0
v 0.0 -50.0 50.0
v 0.0 -43.75 50.0
v 0.0 -37.5 50.0
v 0.0 -31.25 50.0
v 0.0 -25.0 50.0
v 0.0 -18.75 50.0
v 0.0 -12.5 50.0
v 0.0 -6.25 50.0
v 0.0 0.0 50.0
v 0.0 6.25 50.0
v 0.0 12.5 50.0
v 0.0 18.75 50.0
v 0.0 25.0 50.0
v 0.0 31.25 50.0
v 0.0 37.5 50.0
v 0.0 43.75 50.0
v 0.0 50.0 50.0
v 0.0 56.25 50.0
v 0.0 62.5 50.0
v 0.0 68.75 50.0
v 0.0 75.0 50.0
v 0.0 81.25 50.0
v 0.0 87.5 50.0
v 0.0 93.75 50.0
v 0.0 100.0 50.0
v 0.0 -100.0 100.0
v 0.0 -93.75 100.0
v 0.0 -87.5 100.0
v 0.0 -81.25 100.0
v 0.0 -75.0 100.0
v 0.0 -68.75 100.0
v 0.0 -62.5 100.0
v 0.0 -56.25 100.0
v 0.0 -50.0 100.0
v 0.0 -43.75 100.0
v 0.0 -37.5 100.0
v 0.0 -31.25 100.0
v 0.0 -25.0 100.0
v 0.0 -18.75 100.0
v 0.0 -12.5 100.0
v 0.0 -6.25 100.0
v 0.0 0.0 100.0
v 0.0 6.25 100.0
v 0.0 12.5 100.0
v 0.0 18.75 100.0
v 0.0 25.0 100.0
v 0.0 31.25 100.0
v 0.0 37.5 100.0
v 0.0 43.75 100.0
v 0.0 50.0 100.0
v 0.0 56.25 100.0
v 0.0 62.5 100.0
v 0.0 68.75 100.0
v 0.0 75.0 100.0
v 0.0 81.25 100.0
v 0.0 87.5 100.0
v 0.0 93.75 100.0
v 0.0 100.0 100.0
vt 0.0 1.0
vn -1.0 0.0 0.0
vt 0.03125 1.0
vn -1.0 0.0 0.0
vt 0.0625 1.0
vn -1.0 0.0 0.0
vt 0.09375 1.0
vn -1.0 0.0 0.0
vt 0.125 1.0
vn -1.0 0.0 0.0
vt 0.15625 1.0
vn -1.0 0.0 0.0
vt 0.1875 1.0
vn -1.0 0.0 0.0
vt 0.21875 1.0
vn -1.0 0.0 0.0
vt 0.25 1.0
vn -1.0 0.0 0.0
vt 0.28125 1.0
vn -1.0 0.0 0.0
vt 0.3125 1.0
vn -1.0 0.0 0.0
vt 0.34375 1.0
vn -1.0 0.0 0.0
vt 0.375 1.0
vn -1.0 0.0 0.0
vt 0.40625 1.0
vn -1.0 0.0 0.0
vt 0.4375 1.0
vn -1.0 0.0 0.0
vt 0.46875 1.0
vn -1.0 0.0 0.0
vt 0.5 1.0
vn -1.0 0.0 0.0
vt 0.53125 1.0
vn -1.0 0.0 0.0
vt 0.5625 1.0
vn -1.0 0.0 0.0
vt 0.59375 1.0
vn -1.0 0.0 0.0
vt 0.625 1.0
vn -1.0 0.0 0.0
vt 0.65625 1.0
vn -1.0 0.0 0.0
vt 0.6875 1.0
vn -1.0 0.0 0.0
vt 0.71875 1.0
vn -1.0 0.0 0.0
vt 0.75 1.0
vn -1.0 0.0 0.0
vt 0.78125 1.0
vn -1.0 0.0 0.0
vt 0.8125 1.0
vn -1.0 0.0 0.0
vt 0.84375 1.0
vn -1.0 0.0 0.0
vt 0.875 1.0
vn -1.0 0.0 0.0
vt 0.90625 1.0
vn -1.0 0.0 0.0
vt 0.9375 1.0
vn -1.0 0.0 0.0
vt 0.96875 1.0
vn -1.0 0.0 0.0
vt 1.0 1.0
vn -1.0 0.0 0.0
vt 0.0 0.75
vn -1.0 0.0 0.0
vt 0.03125 0.75
vn -1.0 0.0 0.0
vt 0.0625 0.75
vn -1.0 0.0 0.0
vt 0.09375 0.75
vn -1.0 0.0 0.0
vt 0.125 0.75
vn -1.0 0.0 0.0
vt 0.15625 0.75
vn -1.0 0.0 0.0
vt 0.1875 0.75
vn -1.0 0.0 0.0
vt 0.21875 0.75
vn -1.0 0.0 0.0
vt 0.25 0.75
vn -1.0 0.0 0.0
vt 0.28125 0.75
vn -1.0 0.0 0.0
vt 0.3125 0.75
vn -1.0 0.0 0.0
vt 0.34375 0.75
vn -1.0 0.0 0.0
vt 0.375 0.75
vn -1.0 0.0 0.0
vt 0.40625 0.75
vn -1.0 0.0 0.0
vt 0.4375 0.75
vn -1.0 0.0 0.0
vt 0.46875 0.75
vn -1.0 0.0 0.0
vt 0.5 0.75
vn -1.0 0.0 0.0
vt 0.53125 0.75
vn -1.0 0.0 0.0
vt 0.5625 0.75
vn -1.0 0.0 0.0
vt 0.59375 0.75
vn -1.0 0.0 0.0
vt 0.625 0.75
vn -1.0 0.0 0.0
vt 0.65625 0.75
vn -1.0 0.0 0.0
vt 0.6875 0.75
vn -1.0 0.0 0.0
vt 0.71875 0.75
vn -1.0 0.0 0.0
vt 0.75 0.75
vn -1.0 0.0 0.0
vt 0.78125 0.75
vn -1.0 0.0 0.0
vt 0.8125 0.75
vn -1.0 0.0 0.0
vt 0.84375 0.75
vn -1.0 0.0 0.0
vt 0.875 0.75
vn -1.0 0.0 0.0
vt 0.90625 0.75
vn -1.0 0.0 0.0
vt 0.9375 0.75
vn -1.0 0.0 0.0
vt 0.96875 0.75
vn -1.0 0.0 0.0
vt 1.0 0.75
vn -1.0 0.0 0.0
vt 0.0 0.5
vn -1.0 0.0 0.0
vt 0.03125 0.5
vn -1.0 0.0 0.0
vt 0.0625 0.5
vn -1.0 0.0 0.0
vt 0.09375 0.5
vn -1.0 0.0 0.0
vt 0.125 0.5
vn -1.0 0.0 0.0
vt 0.15625 0.5
vn -1.0 0.0 0.0
vt 0.1875 0.5
vn -1.0 0.0 0.0
vt 0.21875 0.5
vn -1.0 0.0 0.0
vt 0.25 0.5
vn -1.0 0.0 0.0
vt 0.28125 0.5
vn -1.0 0.0 0.0
vt 0.3125 0.5
vn -1.0 0.0 0.0
vt 0.34375 0.5
vn -1.0 0.0 0.0
vt 0.375 0.5
vn -1.0 0.0 0.0
vt 0.40625 0.5
vn -1.0 0.0 0.0
vt 0.4375 0.5
vn -1.0 0.0 0.0
vt 0.46875 0.5
vn -1.0 0.0 0.0
vt 0.5 0.5
vn -1.0 0.0 0.0
vt 0.53125 0.5
vn -1.0 0.0 0.0
vt 0.5625 0.5
vn -1.0 0.0 0.0
vt 0.59375 0.5
vn -1.0 0.0 0.0
vt 0.625 0.5
vn -1.0 0.0 0.0
vt 0.65625 0.5
vn -1.0 0.0 0.0
vt 0.6875 0.5
vn -1.0 0.0 0.0
vt 0.71875 0.5
vn -1.0 0.0 0.0
vt 0.75 0.5
vn -1.0 0.0 0.0
vt 0.78125 0.5
vn -1.0 0.0 0.0
vt 0.8125 0.5
vn -1.0 0.0 0.0
vt 0.84375 0.5
vn -1.0 0.0 0.0
vt 0.875 0.5
vn -1.0 0.0 0.0
vt 0.90625 0.5
vn -1.0 0.0 0.0
vt 0.9375 0.5
vn -1.0 0.0 0.0
vt 0.96875 0.5
vn -1.0 0.0 0.0
vt 1.0 0.5
vn -1.0 0.0 0.0
vt 0.0 0.25
vn -1.0 0.0 0.0
vt 0.03125 0.25
vn -1.0 0.0 0.0
vt 0.0625 0.25
vn -1.0 0.0 0.0
vt 0.09375 0.25
vn -1.0 0.0 0.0
vt 0.125 0.25
vn -1.0 0.0 0.0
vt 0.15625 0.25
vn -1.0 0.0 0.0
vt 0.1875 0.25
vn -1.0 0.0 0.0
vt 0.21875 0.25
vn -1.0 0.0 0.0
vt 0.25 0.25
vn -1.0 0.0 0.0
vt 0.28125 0.25
vn -1.0 0.0 0.0
vt 0.3125 0.25
vn -1.0 0.0 0.0
vt 0.34375 0.25
vn -1.0 0.0 0.0
vt 0.375 0.25
vn -1.0 0.0 0.0
vt 0.40625 0.25
vn -1.0 0.0 0.0
vt 0.4375 0.25
vn -1.0 0.0 0.0
vt 0.46875 0.25
vn -1.0 0.0 0.0
vt 0.5 0.25
vn -1.0 0.0 0.0
vt 0.53125 0.25
vn -1.0 0.0 0.0
vt 0.5625 0.25
vn -1.0 0.0 0.0
vt 0.59375 0.25
vn -1.0 0.0 0.0
vt 0.625 0.25
vn -1.0 0.0 0.0
vt 0.65625 0.25
vn -1.0 0.0 0.0
vt 0.6875 0.25
vn -1.0 0.0 0.0
vt 0.71875 0.25
vn -1.0 0.0 0.0
vt 0.75 0.25
vn -1.0 0.0 0.0
vt 0.78125 0.25
vn -1.0 0.0 0.0
vt 0.8125 0.25
vn -1.0 0.0 0.0
vt 0.84375 0.25
vn -1.0 0.0 0.0
vt 0.875 0.25
vn -1.0 0.0 0.0
vt 0.90625 0.25
vn -1.0 0.0 0.0
vt 0.9375 0.25
vn -1.0 0.0 0.0
vt 0.96875 0.25
vn -1.0 0.0 0.0
vt 1.0 0.25
vn -1.0 0.0 0.0
vt 0.0 0.0
vn -1.0 0.0 0.0
vt 0.03125 0.0
vn -1.0 0.0 0.0
vt 0.0625 0.0
vn -1.0 0.0 0.0
vt 0.09375 0.0
vn -1.0 0.0 0.0
vt 0.125 0.0
vn -1.0 0.0 0.0
vt 0.15625 0.0
vn -1.0 0.0 0.0
vt 0.1875 0.0
vn -1.0 0.0 0.0
vt 0.21875 0.0
vn -1.0 0.0 0.0
vt 0.25 0.0
vn -1.0 0.0 0.0
vt 0.28125 0.0
vn -1.0 0.0 0.0
vt 0.3125 0.0
vn -1.0 0.0 0.0
vt 0.34375 0.0
vn -1.0 0.0 0.0
vt 0.375 0.0
vn -1.0 0.0 0.0
vt 0.40625 0.0
vn -1.0 0.0 0.0
vt 0.4375 0.0
vn -1.0 0.0 0.0
vt 0.46875 0.0
vn -1.0 0.0 0.0
vt 0.5 0.0
vn -1.0 0.0 0.0
vt 0.53125 0.0
vn -1.0 0.0 0.0
vt 0.5625 0.0
vn -1.0 0.0 0.0
vt 0.59375 0.0
vn -1.0 0.0 0.0
vt 0.625 0.0
vn -1.0 0.0 0.0
vt 0.65625 0.0
vn -1.0 0.0 0.0
vt 0.6875 0.0
vn -1.0 0.0 0.0
vt 0.71875 0.0
vn -1.0 0.0 0.0
vt 0.75 0.0
vn -1.0 0.0 0.0
vt 0.78125 0.0
vn -1.0 0.0 0.0
vt 0.8125 0.0
vn -1.0 0.0 0.0
vt 0.84375 0.0
vn -1.0 0.0 0.0
vt 0.875 0.0
vn -1.0 0.0 0.0
vt 0.90625 0.0
vn -1.0 0.0 0.0
vt 0.9375 0.0
vn -1.0 0.0 0.0
vt 0.96875 0.0
vn -1.0 0.0 0.0
vt 1.0 0.0
vn -1.0 0.0 0.0
f 1/1/1 35/35/35 2/2/2
f 1/1/1 34/34/34 35/35/35
f 2/2/2 36/36/36 3/3/3
f 2/2/2 35/35/35 36/36/36
f 3/3/3 37/37/37 4/4/4
f 3/3/3 36/36/36 37/37/37
f 4/4/4 38/38/38 5/5/5
f 4/4/4 37/37/37 38/38/38
f 5/5/5 39/39/39 6/6/6
f 5/5/5 38/38/38 39/39/39
f 6/6/6 40/40/40 7/7/7
f 6/6/6 39/39/39 40/40/40
f 7/7/7 41/41/41 8/8/8
f 7/7/7 40/40/40 41/41/41
f 8/8/8 42/42/42 9/9/9
f 8/8/8 41/41/41 42/42/42
f 9/9/9 43/43/43 10/10/10
f 9/9/9 42/42/42 43/43/43
f 10/10/10 44/44/44 11/11/11
f 10/10/10 43/43/43 44/44/44
f 11/11/11 45/45/45 12/12/12
f 11/11/11 44/44/44 45/45/45
f 12/12/12 46/46/46 13/13/13
f 12/12/12 45/45/45 46/46/46
f 13/13/13 47/47/47 14/14/14
f 13/13/13 46/46/46 47/47/47
f 14/14/14 48/48/48 15/15/15
f 14/14/14 47/47/47 48/48/48
f 15/15/15 49/49/49 16/16/16
f 15/15/15 48/48/48 49/49/49
f 16/16/16 50/50/50 17/17/17
f 16/16/16 49/49/49 50/50/50
f 17/17/17 51/51/51 18/18/18
f 17/17/17 50/50/50 51/51/51
f 18/18/18 52/52/52 19/19/19
f 18/18/18 51/51/51 52/52/52
f 19/19/19 53/53/53 20/20/20
f 19/19/19 52/52/52 53/53/53
f 20/20/20 54/54/54 21/21/21
f 20/20/20 53/53/53 54/54/54
f 21/21/21 55/55/55 22/22/22
f 21/21/21 54/54/54 55/55/55
f 22/22/22 56/56/56 23/23/23
f 22/22/22 55/55/55 56/56/56
f 23/23/23 57/57/57 24/24/24
f 23/23/23 56/56/56 57/57/57
f 24/24/24 58/58/58 25/25/25
f 24/24/24 57/57/57 58/58/58
f 25/25/25 59/59/59 26/26/26
f 25/25/25 58/58/58 59/59/59
f 26/26/26 60/60/60 27/27/27
f 26/26/26 59/59/59 60/60/60
f 27/27/27 61/61/61 28/28/28
f 27/27/27 60/60/60 61/61/61
f 28/28/28 62/62/62 29/29/29
f 28/28/28 61/61/61 62/62/62
f 29/29/29 63/63/63 30/30/30
f 29/29/29 62/62/62 63/63/63
f 30/30/30 64/64/64 31/31/31
f 30/30/30 63/63/63 64/64/64
f 31/31/31 65/65/65 32/32/32
f 31/31/31 64/64/64 65/65/65
f 32/32/32 66/66/66 33/33/33
f 32/32/32 65/65/65 66/66/66
f 34/34/34 68/68/68 35/35/35
f 34/34/34 67/67/67 68/68/68
f 35/35/35 69/69/69 36/36/36
f 35/35/35 68/68/68 69/69/69
f 36/36/36 70/70/70 37/37/37
f 36/36/36 69/69/69 70/70/70
f 37/37/37 71/71/71 38/38/38
f 37/37/37 70/70/70 71/71/71
f 38/38/38 72/72/72 39/39/39
f 38/38/38 71/71/71 72/72/72
f 39/39/39 73/73/73 40/40/40
f 39/39/39 72/72/72 73/73/73
f 40/40/40 74/74/74 41/41/41
f 40/40/40 73/73/73 74/74/74
f 41/41/41 75/75/75 42/42/42
f 41/41/41 74/74/74 75/75/75
f 42/42/42 76/76/76 43/43/43
f 42/42/42 75/75/75 76/76/76
f 43/43/43 77/77/77 44/44/44
f 43/43/43 76/76/76 77/77/77
f 44/44/44 78/78/78 45/45/45
f 44/44/44 77/77/77 78/78/78
f 45/45/45 79/79/79 46/46/46
f 45/45/45 78/78/78 79/79/79
f 46/46/46 80/80/80 47/47/47
f 46/46/46 79/79/79 80/80/80
f 47/47/47 81/81/81 48/48/48
f 47/47/47 80/80/80 81/81/81
f 48/48/48 82/82/82 49/49/49
f 48/48/48 81/81/81 82/82/82
f 49/49/49 83/83/83 50/50/50
f 49/49/49 82/82/82 83/83/83
f 50/50/50 84/84/84 51/51/51
f 50/50/50 83/83/83 84/84/84
f 51/51/51 85/85/85 52/52/52
f 51/51/51 84/84/84 85/85/85
f 52/52/52 86/86/86 53/53/53
f 52/52/52 85/85/85 86/86/86
f 53/53/53 87/87/87 54/54/54
f 53/53/53 86/86/86 87/87/87
f 54/54/54 88/88/88 55/55/55
f 54/54/54 87/87/87 88/88/88
f 55/55/55 89/89/89 56/56/56
f 55/55/55 88/88/88 89/89/89
f 56/56/56 90/90/90 57/57/57
f 56/56/56 89/89/89 90/90/90
f 57/57/57 91/91/91 58/58/58
f 57/57/57 90/90/90 91/91/91
f 58/58/58 92/92/92 59/59/59
f 58/58/58 91/91/91 92/92/92
f 59/59/59 93/93/93 60/60/60
f 59/59/59 92/92/92 93/93/93
f 60/60/60 94/94/94 61/61/61
f 60/60/60 93/93/93 94/94/94
f 61/61/61 95/95/95 62/62/62
f 61/61/61 94/94/94 95/95/95
f 62/62/62 96/96/96 63/63/63
f 62/62/62 95/95/95 96/96/96
f 63/63/63 97/97/97 64/64/64
f 63/63/63 96/96/96 97/97/97
f 64/64/64 98/98/98 65/65/65
f 64/64/64 97/97/97 98/98/98
f 65/65/65 99/99/99 66/66/66
f 65/65/65 98/98/98 99/99/99
f 67/67/67 101/101/101 68/68/68
f 67/67/67 100/100/100 101/101/101
f 68/68/68 102/102/102 69/69/69
f 68/68/68 101/101/101 102/102/102
f 69/69/69 103/103/103 70/70/70
f 69/69/69 102/102/102 103/103/103
f 70/70/70 104/104/104 71/71/71
f 70/70/70 103/103/103 104/104/104
f 71/71/71 105/105/105 72/72/72
f 71/71/71 104/104/104 105/105/105
f 72/72/72 106/106/106 73/73/73
f 72/72/72 105/105/105 106/106/106
f 73/73/73 107/107/107 74/74/74
f 73/73/73 106/106/106 107/107/107
f 74/74/74 108/108/108 75/75/75
f 74/74/74 107/107/107 108/108/108
f 75/75/75 109/109/109 76/76/76
f 75/75/75 108/108/108 109/109/109
f 76/76/76 110/110/110 77/77/77
f 76/76/76 109/109/109 110/110/110
f 77/77/77 111/111/111 78/78/78
f 77/77/77 110/110/110 111/111/111
f 78/78/78 112/112/112 79/79/79
f 78/78/78 111/111/111 112/112/112
f 79/79/79 113/113/113 80/80/80
f 79/79/79 112/112/112 113/113/113
f 80/80/80 114/114/114 81/81/81
f 80/80/80 113/113/113 114/114/114
f 81/81/81 115/115/115 82/82/82
f 81/81/81 114/114/114 115/115/115
f 82/82/82 116/116/116 83/83/83
f 82/82/82 115/115/115 116/116/116
f 83/83/83 117/117/117 84/84/84
f 83/83/83 116/116/116 117/117/117
f 84/84/84 118/118/118 85/85/85
f 84/84/84 117/117/117 118/118/118
f 85/85/85 119/119/119 86/86/86
f 85/85/85 118/118/118 119/119/119
f 86/86/86 120/120/120 87/87/87
f 86/86/86 119/119/119 120/120/120
f 87/87/87 121/121/121 88/88/88
f 87/87/87 120/120/120 121/121/121
f 88/88/88 122/122/122 89/89/89
f 88/88/88 121/121/121 122/122/122
f 89/89/89 123/123/123 90/90/90
f 89/89/89 122/122/122 123/123/123
f 90/90/90 124/124/124 91/91/91
f 90/90/90 123/123/123 124/124/124
f 91/91/91 125/125/125 92/92/92
f 91/91/91 124/124/124 125/125/125
f 92/92/92 126/126/126 93/93/93
f 92/92/92 125/125/125 126/126/126
f 93/93/93 127/127/127 94/94/94
f 93/93/93 126/126/126 127/127/127
f 94/94/94 128/128/128 95/95/95
f 94/94/94 127/127/127 128/128/128
f 95/95/95 129/129/129 96/96/96
f 95/95/95 128/128/128 129/129/129
f 96/96/96 130/130/130 97/97/97
f 96/96/96 129/129/129 130/130/130
f 97/97/97 131/131/131 98/98/98
f 97/97/97 130/130/130 131/131/131
f 98/98/98 132/132/132 99/99/99
f 98/98/98 131/131/131 132/132/132
f 100/100/100 134/134/134 101/101/101
f 100/100/100 133/133/133 134/134/134
f 101/101/101 135/135/135 102/102/102
f 101/101/101 134/134/134 135/135/135
f 102/102/102 136/136/136 103/103/103
f 102/102/102 135/135/135 136/136/136
f 103/103/103 137/137/137 104/104/104
f 103/103/103 136/136/136 137/137/137
f 104/104/104 138/138/138 105/105/105
f 104/104/104 137/137/137 138/138/138
f 105/105/105 139/139/139 106/106/106
f 105/105/105 138/138/138 139/139/139
f 106/106/106 140/140/140 107/107/107
f 106/106/106 139/139/139 140/140/140
f 107/107/107 141/141/141 108/108/108
f 107/107/107 140/140/140 141/141/141
f 108/108/108 142/142/142 109/109/109
f 108/108/108 141/141/141 142/142/142
f 109/109/109 143/143/143 110/110/110
f 109/109/109 142/142/142 143/143/143
f 110/110/110 144/144/144 111/111/111
f 110/110/110 143/143/143 144/144/144
f 111/111/111 145/145/145 112/112/112
f 111/111/111 144/144/144 145/145/145
f 112/112/112 146/146/146 113/113/113
f 112/112/112 145/145/145 146/146/146
f 113/113/113 147/147/147 114/114/114
f 113/113/113 146/146/146 147/147/147
f 114/114/114 148/148/148 115/115/115
f 114/114/114 147/147/147 148/148/148
f 115/115/115 149/149/149 116/116/116
f 115/115/115 148/148/148 149/149/149
f 116/116/116 150/150/150 117/117/117
f 116/116/116 149/149/149 150/150/150
f 117/117/117 151/151/151 118/118/118
f 117/117/117 150/150/150 151/151/151
f 118/118/118 152/152/152 119/119/119
f 118/118/118 151/151/151 152/152/152
f 119/119/119 153/153/153 120/120/120
f 119/119/119 152/152/152 153/153/153
f 120/120/120 154/154/154 121/121/121
f 120/120/120 153/153/153 154/154/154
f 121/121/121 155/155/155 122/122/122
f 121/121/121 154/154/154 155/155/155
f 122/122/122 156/156/156 123/123/123
f 122/122/122 155/155/155 156/156/156
f 123/123/123 157/157/157 124/124/124
f 123/123/123 156/156/156 157/157/157
f 124/124/124 158/158/158 125/125/125
f 124/124/124 157/157/157 158/158/158
f 125/125/125 159/159/159 126/126/126
f 125/125/125 158/158/158 159/159/159
f 126/126/126 160/160/160 127/127/127
f 126/126/126 159/159/159 160/160/160
f 127/127/127 161/161/161 128/128/128
f 127/127/127 160/160/160 161/161/161
f 128/128/128 162/162/162 129/129/129
f 128/128/128 161/161/161 162/162/162
f 129/129/129 163/163/163 130/130/130
f 129/129/129 162/162/162 163/163/163
f 130/130/130 164/164/164 131/131/131
f 130/130/130 163/163/163 164/164/164
f 131/131/131 165/165/165 132/132/132
f 131/131/131 164/164/164 165/165/165
