# Sancta editable mesh extracted from the approved reference, cm, Z up
v -0.0 -20.3902538 -19.0627933
v -0.293892626 -20.3302685 -18.9884939
v -0.475528258 -20.1732251 -18.7939756
v -0.475528258 -19.9791088 -18.5535378
v -0.293892626 -19.8220654 -18.3590195
v -6.123234e-17 -19.7620801 -18.2847201
v 0.293892626 -19.8220654 -18.3590195
v 0.475528258 -19.9791088 -18.5535378
v 0.475528258 -20.1732251 -18.7939756
v 0.293892626 -20.3302685 -18.9884939
v 1.2246468e-16 -20.3902538 -19.0627933
v -0.0 -19.3773144 -21.685531
v -1.18652453 -19.1642818 -21.3642106
v -1.91983702 -18.6065553 -20.5229829
v -1.91983702 -17.9171675 -19.4831682
v -1.18652453 -17.359441 -18.6419405
v -2.47211624e-16 -17.1464084 -18.3206201
v 1.18652453 -17.359441 -18.6419405
v 1.91983702 -17.9171675 -19.4831682
v 1.91983702 -18.6065553 -20.5229829
v 1.18652453 -19.1642818 -21.3642106
v 4.94423248e-16 -19.3773144 -21.685531
v -0.0 -17.6525049 -23.6239965
v -1.64513075 -17.4001356 -23.1527876
v -2.66187747 -16.739424 -21.9191468
v -2.66187747 -15.9227397 -20.3942829
v -1.64513075 -15.2620282 -19.1606421
v -3.42761935e-16 -15.0096588 -18.6894332
v 1.64513075 -15.2620282 -19.1606421
v 2.66187747 -15.9227397 -20.3942829
v 2.66187747 -16.739424 -21.9191468
v 1.64513075 -17.4001356 -23.1527876
v 6.8552387e-16 -17.6525049 -23.6239965
v -0.0 -15.6283729 -25.2825833
v -2.01360067 -15.3748263 -24.6794512
v -3.25807433 -14.7110327 -23.1004309
v -3.25807433 -13.8905387 -21.1486544
v -2.01360067 -13.2267451 -19.569634
v -4.19532407e-16 -12.9731985 -18.9665019
v 2.01360067 -13.2267451 -19.569634
v 3.25807433 -13.8905387 -21.1486544
v 3.25807433 -14.7110327 -23.1004309
v 2.01360067 -15.3748263 -24.6794512
v 8.39064815e-16 -15.6283729 -25.2825833
v -0.0 -13.3769065 -26.6824487
v -2.33145554 -13.1499992 -25.9596945
v -3.7723743 -12.555948 -24.0674996
v -3.7723743 -11.8216603 -21.728618
v -2.33145554 -11.2276091 -19.836423
v -4.85757264e-16 -11.0007018 -19.1136689
v 2.33145554 -11.2276091 -19.836423
v 3.7723743 -11.8216603 -21.728618
v 3.7723743 -12.555948 -24.0674996
v 2.33145554 -13.1499992 -25.9596945
v 9.71514528e-16 -13.3769065 -26.6824487
v -0.0 -10.9428455 -27.8201255
v -2.61434579 -10.7653918 -26.9894152
v -4.23010034 -10.3008121 -24.8145873
v -4.23010034 -9.72655998 -22.1263523
v -2.61434579 -9.26198027 -19.9515244
v -5.44697266e-16 -9.08452661 -19.1208141
v 2.61434579 -9.26198027 -19.9515244
v 4.23010034 -9.72655998 -22.1263523
v 4.23010034 -10.3008121 -24.8145873
v 2.61434579 -10.7653918 -26.9894152
v 1.08939453e-15 -10.9428455 -27.8201255
v -0.0 -8.36313758 -28.6868035
v -2.87031513 -8.25454407 -27.7605254
v -4.64426744 -7.97024258 -25.3354979
v -4.64426744 -7.6188266 -22.337999
v -2.87031513 -7.3345251 -19.9129715
v -5.98028315e-16 -7.22593159 -18.9866934
v 2.87031513 -7.3345251 -19.9129715
v 4.64426744 -7.6188266 -22.337999
v 4.64426744 -7.97024258 -25.3354979
v 2.87031513 -8.25454407 -27.7605254
v 1.19605663e-15 -8.36313758 -28.6868035
v -0.0 -5.67204733 -29.2732796
v -3.10408977 -5.64889875 -28.2649654
v -5.02252276 -5.58829497 -25.6251645
v -5.02252276 -5.51338459 -22.3621911
v -3.10408977 -5.45278082 -19.7223902
v -6.46735111e-16 -5.42963224 -18.714076
v 3.10408977 -5.45278082 -19.7223902
v 5.02252276 -5.51338459 -22.3621911
v 5.02252276 -5.58829497 -25.6251645
v 3.10408977 -5.64889875 -28.2649654
v 1.29347022e-15 -5.67204733 -29.2732796
v -0.0 -2.9029192 -29.571817
v -3.31868306 -2.97919551 -28.4962127
v -5.36974199 -3.17888949 -25.680244
v -5.36974199 -3.42572483 -22.1995153
v -3.31868306 -3.62541881 -19.3835467
v -6.91445484e-16 -3.70169512 -18.3079423
v 3.31868306 -3.62541881 -19.3835467
v 5.36974199 -3.42572483 -22.1995153
v 5.36974199 -3.17888949 -25.680244
v 3.31868306 -2.97919551 -28.4962127
v 1.38289097e-15 -2.9029192 -29.571817
v -0.0 -0.0888065763 -29.5770132
v -3.51612361 -0.275946653 -28.4499868
v -5.68920751 -0.765885735 -25.4993935
v -5.68920751 -1.37148374 -21.8522595
v -3.51612361 -1.86142283 -18.9016662
v -7.32582096e-16 -2.0485629 -17.7746398
v 3.51612361 -1.86142283 -18.9016662
v 5.68920751 -1.37148374 -21.8522595
v 5.68920751 -0.765885735 -25.4993935
v 3.51612361 -0.275946653 -28.4499868
v 1.46516419e-15 -0.0888065763 -29.5770132
v -0.0 2.73737596 -29.2862633
v -3.69783003 2.43047285 -28.1246233
v -5.98321467 1.62699007 -25.0834103
v -5.98321467 0.63383074 -21.3242644
v -3.69783003 -0.169652036 -18.2830514
v -7.70440512e-16 -0.476555148 -17.1214114
v 3.69783003 -0.169652036 -18.2830514
v 5.98321467 0.63383074 -21.3242644
v 5.98321467 1.62699007 -25.0834103
v 3.69783003 2.43047285 -28.1246233
v 1.54088102e-15 2.73737596 -29.2862633
v -0.0 5.54293017 -28.7000204
v -3.86482183 5.10992095 -27.5212803
v -6.25341309 3.97628808 -24.435299
v -6.25341309 2.5750408 -20.6208162
v -3.86482183 1.44140794 -17.5348348
v -8.05233147e-16 1.00839871 -16.3560948
v 3.86482183 1.44140794 -17.5348348
v 6.25341309 2.5750408 -20.6208162
v 6.25341309 3.97628808 -24.435299
v 3.86482183 5.10992095 -27.5212803
v 1.61046629e-15 5.54293017 -28.7000204
v -0.0 8.2955731 -27.8219344
v -4.01784647 7.73268188 -26.6440444
v -6.50101215 6.25901353 -23.5602883
v -6.50101215 4.43745928 -19.7485562
v -4.01784647 2.96379093 -16.6648001
v -8.37115732e-16 2.4008997 -15.4869101
v 4.01784647 2.96379093 -16.6648001
v 6.50101215 4.43745928 -19.7485562
v 6.50101215 6.25901353 -23.5602883
v 4.01784647 7.73268188 -26.6440444
v 1.67423146e-15 8.2955731 -27.8219344
v -0.0 10.9637028 -26.6589069
v -4.15745989 10.2697128 -25.4999642
v -6.72691141 8.45282318 -22.4658129
v -6.72691141 6.20702415 -18.7153956
v -4.15745989 4.39013458 -15.6812443
v -8.66204099e-16 3.69614451 -14.5223016
v 4.15745989 4.39013458 -15.6812443
v 6.72691141 6.20702415 -18.7153956
v 6.72691141 8.45282318 -22.4658129
v 4.15745989 10.2697128 -25.4999642
v 1.7324082e-15 10.9637028 -26.6589069
v -0.0 13.5167002 -25.2210785
v -4.28407991 12.6929183 -24.0990281
v -6.93178691 10.536229 -21.1614622
v -6.93178691 7.87041456 -17.530431
v -4.28407991 5.71372534 -14.592865
v -8.925853e-16 4.88994336 -13.4708147
v 4.28407991 5.71372534 -14.592865
v 6.93178691 7.87041456 -17.530431
v 6.93178691 10.536229 -21.1614622
v 4.28407991 12.6929183 -24.0990281
v 1.7851706e-15 13.5167002 -25.2210785
v -0.0 15.9252478 -23.52176
v -4.3980227 14.9754377 -22.4540926
v -7.11615022 12.4888025 -19.6589029
v -7.11615022 9.41515241 -16.2038585
v -4.3980227 6.92851724 -13.4086689
v -9.16325207e-16 5.97870712 -12.3410015
v 4.3980227 6.92851724 -13.4086689
v 7.11615022 9.41515241 -16.2038585
v 7.11615022 12.4888025 -19.6589029
v 4.3980227 14.9754377 -22.4540926
v 1.83265041e-15 15.9252478 -23.52176
v -0.0 18.1616515 -21.5773125
v -4.49952849 17.091933 -20.5807666
v -7.28039002 14.2913737 -17.9717754
v -7.28039002 10.829692 -14.746885
v -4.49952849 8.02913272 -12.1378939
v -9.37473871e-16 6.95941426 -11.141348
v 4.49952849 8.02913272 -12.1378939
v 7.28039002 10.829692 -14.746885
v 7.28039002 14.2913737 -17.9717754
v 4.49952849 17.091933 -20.5807666
v 1.87494774e-15 18.1616515 -21.5773125
v -0.0 20.2001562 -19.4069818
v -4.58878003 19.0188699 -18.4972572
v -7.42480206 15.9262221 -16.1155672
v -7.42480206 12.1034992 -13.1716365
v -4.58878003 9.01085138 -10.7899465
v -9.56069373e-16 7.82956504 -9.88022189
v 4.58878003 9.01085138 -10.7899465
v 7.42480206 12.1034992 -13.1716365
v 7.42480206 15.9262221 -16.1155672
v 4.58878003 19.0188699 -18.4972572
v 1.91213875e-15 20.2001562 -19.4069818
v -0.0 22.0172473 -17.0326905
v -4.66591621 20.7347851 -16.224178
v -7.54961101 17.3772554 -14.1074649
v -7.54961101 13.2271205 -11.4910635
v -4.66591621 9.86959088 -9.37435029
v -9.72140646e-16 8.58712867 -8.56583779
v 4.66591621 9.86959088 -9.37435029
v 7.54961101 13.2271205 -11.4910635
v 7.54961101 17.3772554 -14.1074649
v 4.66591621 20.7347851 -16.224178
v 1.94428129e-15 22.0172473 -17.0326905
v -0.0 23.5919299 -14.478792
v -4.731042 22.2205342 -13.7843249
v -7.65498676 18.6301737 -11.9661866
v -7.65498676 14.1922439 -9.71884403
v -4.731042 10.6018833 -7.90070569
v -9.85709563e-16 9.23048762 -7.20623864
v 4.731042 10.6018833 -7.90070569
v 7.65498676 14.1922439 -9.71884403
v 7.65498676 18.6301737 -11.9661866
v 4.731042 22.2205342 -13.7843249
v 1.97141913e-15 23.5919299 -14.478792
v -0.0 24.9059832 -11.7717898
v -4.78423602 23.459516 -11.2024218
v -7.7410565 19.6726159 -9.71179732
v -7.7410565 14.9917499 -7.86928408
v -4.78423602 11.2048498 -6.37865955
v -9.96792504e-16 9.75838268 -5.80929164
v 4.78423602 11.2048498 -6.37865955
v 7.7410565 14.9917499 -7.86928408
v 7.7410565 19.6726159 -9.71179732
v 4.78423602 23.459516 -11.2024218
v 1.99358501e-15 24.9059832 -11.7717898
v -0.0 25.9441819 -8.94002703
v -4.8255561 24.4378683 -8.50484074
v -7.80791379 20.4942883 -7.36550825
v -7.80791379 15.6197553 -5.95721583
v -4.8255561 11.6761753 -4.81788334
v -1.00540152e-15 10.1698618 -4.38269705
v 4.8255561 11.6761753 -4.81788334
v 7.80791379 15.6197553 -5.95721583
v 7.80791379 20.4942883 -7.36550825
v 4.8255561 24.4378683 -8.50484074
v 2.01080303e-15 25.9441819 -8.94002703
v -0.0 26.6944841 -6.01335044
v -4.85504339 25.1446332 -5.71929938
v -7.85562522 21.0870709 -4.94946373
v -7.85562522 16.0716481 -3.99789452
v -4.85504339 12.0140858 -3.22805886
v -1.01154517e-15 10.4642349 -2.9340078
v 4.85504339 12.0140858 -3.22805886
v 7.85562522 16.0716481 -3.99789452
v 7.85562522 21.0870709 -4.94946373
v 4.85504339 25.1446332 -5.71929938
v 2.02309035e-15 26.6944841 -6.01335044
v -0.0 27.1481801 -3.02275279
v -4.87272532 25.5718882 -2.87454096
v -7.88423519 21.4451024 -2.48651734
v -7.88423519 16.3441146 -2.00689376
v -4.87272532 12.2173288 -1.61887014
v -1.01522919e-15 10.6410369 -1.4706583
v 4.87272532 12.2173288 -1.61887014
v 7.88423519 16.3441146 -2.00689376
v 7.88423519 21.4451024 -2.48651734
v 4.87272532 25.5718882 -2.87454096
v 2.03045838e-15 27.1481801 -3.02275279
v -0.0 27.3 0.0
v -4.87861759 25.7148411 0.0
v -7.89376909 21.5648411 0.0
v -7.89376909 16.4351589 0.0
v -4.87861759 12.2851589 0.0
v -1.01645684e-15 10.7 0.0
v 4.87861759 12.2851589 0.0
v 7.89376909 16.4351589 0.0
v 7.89376909 21.5648411 0.0
v 4.87861759 25.7148411 0.0
v 2.03291369e-15 27.3 0.0
v -0.0 27.1481801 3.02275279
v -4.87272532 25.5718882 2.87454096
v -7.88423519 21.4451024 2.48651734
v -7.88423519 16.3441146 2.00689376
v -4.87272532 12.2173288 1.61887014
v -1.01522919e-15 10.6410369 1.4706583
v 4.87272532 12.2173288 1.61887014
v 7.88423519 16.3441146 2.00689376
v 7.88423519 21.4451024 2.48651734
v 4.87272532 25.5718882 2.87454096
v 2.03045838e-15 27.1481801 3.02275279
v -0.0 26.6944841 6.01335044
v -4.85504339 25.1446332 5.71929938
v -7.85562522 21.0870709 4.94946373
v -7.85562522 16.0716481 3.99789452
v -4.85504339 12.0140858 3.22805886
v -1.01154517e-15 10.4642349 2.9340078
v 4.85504339 12.0140858 3.22805886
v 7.85562522 16.0716481 3.99789452
v 7.85562522 21.0870709 4.94946373
v 4.85504339 25.1446332 5.71929938
v 2.02309035e-15 26.6944841 6.01335044
v -0.0 25.9441819 8.94002703
v -4.8255561 24.4378683 8.50484074
v -7.80791379 20.4942883 7.36550825
v -7.80791379 15.6197553 5.95721583
v -4.8255561 11.6761753 4.81788334
v -1.00540152e-15 10.1698618 4.38269705
v 4.8255561 11.6761753 4.81788334
v 7.80791379 15.6197553 5.95721583
v 7.80791379 20.4942883 7.36550825
v 4.8255561 24.4378683 8.50484074
v 2.01080303e-15 25.9441819 8.94002703
v -0.0 24.9059832 11.7717898
v -4.78423602 23.459516 11.2024218
v -7.7410565 19.6726159 9.71179732
v -7.7410565 14.9917499 7.86928408
v -4.78423602 11.2048498 6.37865955
v -9.96792504e-16 9.75838268 5.80929164
v 4.78423602 11.2048498 6.37865955
v 7.7410565 14.9917499 7.86928408
v 7.7410565 19.6726159 9.71179732
v 4.78423602 23.459516 11.2024218
v 1.99358501e-15 24.9059832 11.7717898
v -0.0 23.5919299 14.478792
v -4.731042 22.2205342 13.7843249
v -7.65498676 18.6301737 11.9661866
v -7.65498676 14.1922439 9.71884403
v -4.731042 10.6018833 7.90070569
v -9.85709563e-16 9.23048762 7.20623864
v 4.731042 10.6018833 7.90070569
v 7.65498676 14.1922439 9.71884403
v 7.65498676 18.6301737 11.9661866
v 4.731042 22.2205342 13.7843249
v 1.97141913e-15 23.5919299 14.478792
v -0.0 22.0172473 17.0326905
v -4.66591621 20.7347851 16.224178
v -7.54961101 17.3772554 14.1074649
v -7.54961101 13.2271205 11.4910635
v -4.66591621 9.86959088 9.37435029
v -9.72140646e-16 8.58712867 8.56583779
v 4.66591621 9.86959088 9.37435029
v 7.54961101 13.2271205 11.4910635
v 7.54961101 17.3772554 14.1074649
v 4.66591621 20.7347851 16.224178
v 1.94428129e-15 22.0172473 17.0326905
v -0.0 20.2001562 19.4069818
v -4.58878003 19.0188699 18.4972572
v -7.42480206 15.9262221 16.1155672
v -7.42480206 12.1034992 13.1716365
v -4.58878003 9.01085138 10.7899465
v -9.56069373e-16 7.82956504 9.88022189
v 4.58878003 9.01085138 10.7899465
v 7.42480206 12.1034992 13.1716365
v 7.42480206 15.9262221 16.1155672
v 4.58878003 19.0188699 18.4972572
v 1.91213875e-15 20.2001562 19.4069818
v -0.0 18.1616515 21.5773125
v -4.49952849 17.091933 20.5807666
v -7.28039002 14.2913737 17.9717754
v -7.28039002 10.829692 14.746885
v -4.49952849 8.02913272 12.1378939
v -9.37473871e-16 6.95941426 11.141348
v 4.49952849 8.02913272 12.1378939
v 7.28039002 10.829692 14.746885
v 7.28039002 14.2913737 17.9717754
v 4.49952849 17.091933 20.5807666
v 1.87494774e-15 18.1616515 21.5773125
v -0.0 15.9252478 23.52176
v -4.3980227 14.9754377 22.4540926
v -7.11615022 12.4888025 19.6589029
v -7.11615022 9.41515241 16.2038585
v -4.3980227 6.92851724 13.4086689
v -9.16325207e-16 5.97870712 12.3410015
v 4.3980227 6.92851724 13.4086689
v 7.11615022 9.41515241 16.2038585
v 7.11615022 12.4888025 19.6589029
v 4.3980227 14.9754377 22.4540926
v 1.83265041e-15 15.9252478 23.52176
v -0.0 13.5167002 25.2210785
v -4.28407991 12.6929183 24.0990281
v -6.93178691 10.536229 21.1614622
v -6.93178691 7.87041456 17.530431
v -4.28407991 5.71372534 14.592865
v -8.925853e-16 4.88994336 13.4708147
v 4.28407991 5.71372534 14.592865
v 6.93178691 7.87041456 17.530431
v 6.93178691 10.536229 21.1614622
v 4.28407991 12.6929183 24.0990281
v 1.7851706e-15 13.5167002 25.2210785
v -0.0 10.9637028 26.6589069
v -4.15745989 10.2697128 25.4999642
v -6.72691141 8.45282318 22.4658129
v -6.72691141 6.20702415 18.7153956
v -4.15745989 4.39013458 15.6812443
v -8.66204099e-16 3.69614451 14.5223016
v 4.15745989 4.39013458 15.6812443
v 6.72691141 6.20702415 18.7153956
v 6.72691141 8.45282318 22.4658129
v 4.15745989 10.2697128 25.4999642
v 1.7324082e-15 10.9637028 26.6589069
v -0.0 8.2955731 27.8219344
v -4.01784647 7.73268188 26.6440444
v -6.50101215 6.25901353 23.5602883
v -6.50101215 4.43745928 19.7485562
v -4.01784647 2.96379093 16.6648001
v -8.37115732e-16 2.4008997 15.4869101
v 4.01784647 2.96379093 16.6648001
v 6.50101215 4.43745928 19.7485562
v 6.50101215 6.25901353 23.5602883
v 4.01784647 7.73268188 26.6440444
v 1.67423146e-15 8.2955731 27.8219344
v -0.0 5.54293017 28.7000204
v -3.86482183 5.10992095 27.5212803
v -6.25341309 3.97628808 24.435299
v -6.25341309 2.5750408 20.6208162
v -3.86482183 1.44140794 17.5348348
v -8.05233147e-16 1.00839871 16.3560948
v 3.86482183 1.44140794 17.5348348
v 6.25341309 2.5750408 20.6208162
v 6.25341309 3.97628808 24.435299
v 3.86482183 5.10992095 27.5212803
v 1.61046629e-15 5.54293017 28.7000204
v -0.0 2.73737596 29.2862633
v -3.69783003 2.43047285 28.1246233
v -5.98321467 1.62699007 25.0834103
v -5.98321467 0.63383074 21.3242644
v -3.69783003 -0.169652036 18.2830514
v -7.70440512e-16 -0.476555148 17.1214114
v 3.69783003 -0.169652036 18.2830514
v 5.98321467 0.63383074 21.3242644
v 5.98321467 1.62699007 25.0834103
v 3.69783003 2.43047285 28.1246233
v 1.54088102e-15 2.73737596 29.2862633
v -0.0 -0.0888065763 29.5770132
v -3.51612361 -0.275946653 28.4499868
v -5.68920751 -0.765885735 25.4993935
v -5.68920751 -1.37148374 21.8522595
v -3.51612361 -1.86142283 18.9016662
v -7.32582096e-16 -2.0485629 17.7746398
v 3.51612361 -1.86142283 18.9016662
v 5.68920751 -1.37148374 21.8522595
v 5.68920751 -0.765885735 25.4993935
v 3.51612361 -0.275946653 28.4499868
v 1.46516419e-15 -0.0888065763 29.5770132
v -0.0 -2.9029192 29.571817
v -3.31868306 -2.97919551 28.4962127
v -5.36974199 -3.17888949 25.680244
v -5.36974199 -3.42572483 22.1995153
v -3.31868306 -3.62541881 19.3835467
v -6.91445484e-16 -3.70169512 18.3079423
v 3.31868306 -3.62541881 19.3835467
v 5.36974199 -3.42572483 22.1995153
v 5.36974199 -3.17888949 25.680244
v 3.31868306 -2.97919551 28.4962127
v 1.38289097e-15 -2.9029192 29.571817
v -0.0 -5.67204733 29.2732796
v -3.10408977 -5.64889875 28.2649654
v -5.02252276 -5.58829497 25.6251645
v -5.02252276 -5.51338459 22.3621911
v -3.10408977 -5.45278082 19.7223902
v -6.46735111e-16 -5.42963224 18.714076
v 3.10408977 -5.45278082 19.7223902
v 5.02252276 -5.51338459 22.3621911
v 5.02252276 -5.58829497 25.6251645
v 3.10408977 -5.64889875 28.2649654
v 1.29347022e-15 -5.67204733 29.2732796
v -0.0 -8.36313758 28.6868035
v -2.87031513 -8.25454407 27.7605254
v -4.64426744 -7.97024258 25.3354979
v -4.64426744 -7.6188266 22.337999
v -2.87031513 -7.3345251 19.9129715
v -5.98028315e-16 -7.22593159 18.9866934
v 2.87031513 -7.3345251 19.9129715
v 4.64426744 -7.6188266 22.337999
v 4.64426744 -7.97024258 25.3354979
v 2.87031513 -8.25454407 27.7605254
v 1.19605663e-15 -8.36313758 28.6868035
v -0.0 -10.9428455 27.8201255
v -2.61434579 -10.7653918 26.9894152
v -4.23010034 -10.3008121 24.8145873
v -4.23010034 -9.72655998 22.1263523
v -2.61434579 -9.26198027 19.9515244
v -5.44697266e-16 -9.08452661 19.1208141
v 2.61434579 -9.26198027 19.9515244
v 4.23010034 -9.72655998 22.1263523
v 4.23010034 -10.3008121 24.8145873
v 2.61434579 -10.7653918 26.9894152
v 1.08939453e-15 -10.9428455 27.8201255
v -0.0 -13.3769065 26.6824487
v -2.33145554 -13.1499992 25.9596945
v -3.7723743 -12.555948 24.0674996
v -3.7723743 -11.8216603 21.728618
v -2.33145554 -11.2276091 19.836423
v -4.85757264e-16 -11.0007018 19.1136689
v 2.33145554 -11.2276091 19.836423
v 3.7723743 -11.8216603 21.728618
v 3.7723743 -12.555948 24.0674996
v 2.33145554 -13.1499992 25.9596945
v 9.71514528e-16 -13.3769065 26.6824487
v -0.0 -15.6283729 25.2825833
v -2.01360067 -15.3748263 24.6794512
v -3.25807433 -14.7110327 23.1004309
v -3.25807433 -13.8905387 21.1486544
v -2.01360067 -13.2267451 19.569634
v -4.19532407e-16 -12.9731985 18.9665019
v 2.01360067 -13.2267451 19.569634
v 3.25807433 -13.8905387 21.1486544
v 3.25807433 -14.7110327 23.1004309
v 2.01360067 -15.3748263 24.6794512
v 8.39064815e-16 -15.6283729 25.2825833
v -0.0 -17.6525049 23.6239965
v -1.64513075 -17.4001356 23.1527876
v -2.66187747 -16.739424 21.9191468
v -2.66187747 -15.9227397 20.3942829
v -1.64513075 -15.2620282 19.1606421
v -3.42761935e-16 -15.0096588 18.6894332
v 1.64513075 -15.2620282 19.1606421
v 2.66187747 -15.9227397 20.3942829
v 2.66187747 -16.739424 21.9191468
v 1.64513075 -17.4001356 23.1527876
v 6.8552387e-16 -17.6525049 23.6239965
v -0.0 -19.3773144 21.685531
v -1.18652453 -19.1642818 21.3642106
v -1.91983702 -18.6065553 20.5229829
v -1.91983702 -17.9171675 19.4831682
v -1.18652453 -17.359441 18.6419405
v -2.47211624e-16 -17.1464084 18.3206201
v 1.18652453 -17.359441 18.6419405
v 1.91983702 -17.9171675 19.4831682
v 1.91983702 -18.6065553 20.5229829
v 1.18652453 -19.1642818 21.3642106
v 4.94423248e-16 -19.3773144 21.685531
v -0.0 -20.3902538 19.0627933
v -0.293892627 -20.3302685 18.9884939
v -0.47552826 -20.1732251 18.7939756
v -0.47552826 -19.9791088 18.5535378
v -0.293892627 -19.8220654 18.3590195
v -6.12323402e-17 -19.7620801 18.2847201
v 0.293892627 -19.8220654 18.3590195
v 0.47552826 -19.9791088 18.5535378
v 0.47552826 -20.1732251 18.7939756
v 0.293892627 -20.3302685 18.9884939
v 1.2246468e-16 -20.3902538 19.0627933
vt 0.0 1.0
vn -0.0 -0.628173623 -0.778073197
vt 0.0 0.9
vn -0.587785252 -0.508203136 -0.629474439
vt 0.0 0.8
vn -0.951056516 -0.194116325 -0.240437841
vt 0.0 0.7
vn -0.951056516 0.194116325 0.240437841
vt 0.0 0.6
vn -0.587785252 0.508203136 0.629474439
vt 0.0 0.5
vn -1.2246468e-16 0.628173623 0.778073197
vt 0.0 0.4
vn 0.587785252 0.508203136 0.629474439
vt 0.0 0.3
vn 0.951056516 0.194116325 0.240437841
vt 0.0 0.2
vn 0.951056516 -0.194116325 -0.240437841
vt 0.0 0.1
vn 0.587785252 -0.508203136 -0.629474439
vt 0.0 0.0
vn 2.4492936e-16 -0.628173623 -0.778073197
vt 0.0208333333 1.0
vn -0.0 -0.552577558 -0.833461482
vt 0.0208333333 0.9
vn -0.587785252 -0.447044635 -0.674284503
vt 0.0208333333 0.8
vn -0.951056516 -0.170755856 -0.257553762
vt 0.0208333333 0.7
vn -0.951056516 0.170755856 0.257553762
vt 0.0208333333 0.6
vn -0.587785252 0.447044635 0.674284503
vt 0.0208333333 0.5
vn -1.2246468e-16 0.552577558 0.833461482
vt 0.0208333333 0.4
vn 0.587785252 0.447044635 0.674284503
vt 0.0208333333 0.3
vn 0.951056516 0.170755856 0.257553762
vt 0.0208333333 0.2
vn 0.951056516 -0.170755856 -0.257553762
vt 0.0208333333 0.1
vn 0.587785252 -0.447044635 -0.674284503
vt 0.0208333333 0.0
vn 2.4492936e-16 -0.552577558 -0.833461482
vt 0.0416666667 1.0
vn -0.0 -0.472128411 -0.881529786
vt 0.0416666667 0.9
vn -0.587785252 -0.381959908 -0.713172578
vt 0.0416666667 0.8
vn -0.951056516 -0.145895703 -0.272407685
vt 0.0416666667 0.7
vn -0.951056516 0.145895703 0.272407685
vt 0.0416666667 0.6
vn -0.587785252 0.381959908 0.713172578
vt 0.0416666667 0.5
vn -1.2246468e-16 0.472128411 0.881529786
vt 0.0416666667 0.4
vn 0.587785252 0.381959908 0.713172578
vt 0.0416666667 0.3
vn 0.951056516 0.145895703 0.272407685
vt 0.0416666667 0.2
vn 0.951056516 -0.145895703 -0.272407685
vt 0.0416666667 0.1
vn 0.587785252 -0.381959908 -0.713172578
vt 0.0416666667 0.0
vn 2.4492936e-16 -0.472128411 -0.881529786
vt 0.0625 1.0
vn -0.0 -0.387532736 -0.921855942
vt 0.0625 0.9
vn -0.587785252 -0.31352057 -0.745797124
vt 0.0625 0.8
vn -0.951056516 -0.119754201 -0.284869153
vt 0.0625 0.7
vn -0.951056516 0.119754201 0.284869153
vt 0.0625 0.6
vn -0.587785252 0.31352057 0.745797124
vt 0.0625 0.5
vn -1.2246468e-16 0.387532736 0.921855942
vt 0.0625 0.4
vn 0.587785252 0.31352057 0.745797124
vt 0.0625 0.3
vn 0.951056516 0.119754201 0.284869153
vt 0.0625 0.2
vn 0.951056516 -0.119754201 -0.284869153
vt 0.0625 0.1
vn 0.587785252 -0.31352057 -0.745797124
vt 0.0625 0.0
vn 2.4492936e-16 -0.387532736 -0.921855942
vt 0.0833333333 1.0
vn -0.0 -0.299533506 -0.954085782
vt 0.0833333333 0.9
vn -0.587785252 -0.242327697 -0.771871611
vt 0.0833333333 0.8
vn -0.951056516 -0.0925609438 -0.294828721
vt 0.0833333333 0.7
vn -0.951056516 0.0925609438 0.294828721
vt 0.0833333333 0.6
vn -0.587785252 0.242327697 0.771871611
vt 0.0833333333 0.5
vn -1.2246468e-16 0.299533506 0.954085782
vt 0.0833333333 0.4
vn 0.587785252 0.242327697 0.771871611
vt 0.0833333333 0.3
vn 0.951056516 0.0925609438 0.294828721
vt 0.0833333333 0.2
vn 0.951056516 -0.0925609438 -0.294828721
vt 0.0833333333 0.1
vn 0.587785252 -0.242327697 -0.771871611
vt 0.0833333333 0.0
vn 2.4492936e-16 -0.299533506 -0.954085782
vt 0.104166667 1.0
vn -0.0 -0.208903585 -0.977936241
vt 0.104166667 0.9
vn -0.587785252 -0.16900655 -0.791167039
vt 0.104166667 0.8
vn -0.951056516 -0.0645547579 -0.302198918
vt 0.104166667 0.7
vn -0.951056516 0.0645547579 0.302198918
vt 0.104166667 0.6
vn -0.587785252 0.16900655 0.791167039
vt 0.104166667 0.5
vn -1.2246468e-16 0.208903585 0.977936241
vt 0.104166667 0.4
vn 0.587785252 0.16900655 0.791167039
vt 0.104166667 0.3
vn 0.951056516 0.0645547579 0.302198918
vt 0.104166667 0.2
vn 0.951056516 -0.0645547579 -0.302198918
vt 0.104166667 0.1
vn 0.587785252 -0.16900655 -0.791167039
vt 0.104166667 0.0
vn 2.4492936e-16 -0.208903585 -0.977936241
vt 0.125 1.0
vn -0.0 -0.116438941 -0.993197852
vt 0.125 0.9
vn -0.587785252 -0.0942010822 -0.803513941
vt 0.125 0.8
vn -0.951056516 -0.0359816116 -0.306915015
vt 0.125 0.7
vn -0.951056516 0.0359816116 0.306915015
vt 0.125 0.6
vn -0.587785252 0.0942010822 0.803513941
vt 0.125 0.5
vn -1.2246468e-16 0.116438941 0.993197852
vt 0.125 0.4
vn 0.587785252 0.0942010822 0.803513941
vt 0.125 0.3
vn 0.951056516 0.0359816116 0.306915015
vt 0.125 0.2
vn 0.951056516 -0.0359816116 -0.306915015
vt 0.125 0.1
vn 0.587785252 -0.0942010822 -0.803513941
vt 0.125 0.0
vn 2.4492936e-16 -0.116438941 -0.993197852
vt 0.145833333 1.0
vn -0.0 -0.0229516577 -0.999736576
vt 0.145833333 0.9
vn -0.587785252 -0.0185682811 -0.80880388
vt 0.145833333 0.8
vn -0.951056516 -0.00709245226 -0.308935592
vt 0.145833333 0.7
vn -0.951056516 0.00709245226 0.308935592
vt 0.145833333 0.6
vn -0.587785252 0.0185682811 0.80880388
vt 0.145833333 0.5
vn -1.2246468e-16 0.0229516577 0.999736576
vt 0.145833333 0.4
vn 0.587785252 0.0185682811 0.80880388
vt 0.145833333 0.3
vn 0.951056516 0.00709245226 0.308935592
vt 0.145833333 0.2
vn 0.951056516 -0.00709245226 -0.308935592
vt 0.145833333 0.1
vn 0.587785252 -0.0185682811 -0.80880388
vt 0.145833333 0.0
vn 2.4492936e-16 -0.0229516577 -0.999736576
vt 0.166666667 1.0
vn -0.0 0.0707372017 -0.997494987
vt 0.166666667 0.9
vn -0.587785252 0.0572275983 -0.806990396
vt 0.166666667 0.8
vn -0.951056516 0.0218589974 -0.308242903
vt 0.166666667 0.7
vn -0.951056516 -0.0218589974 0.308242903
vt 0.166666667 0.6
vn -0.587785252 -0.0572275983 0.806990396
vt 0.166666667 0.5
vn -1.2246468e-16 -0.0707372017 0.997494987
vt 0.166666667 0.4
vn 0.587785252 -0.0572275983 0.806990396
vt 0.166666667 0.3
vn 0.951056516 -0.0218589974 0.308242903
vt 0.166666667 0.2
vn 0.951056516 0.0218589974 -0.308242903
vt 0.166666667 0.1
vn 0.587785252 0.0572275983 -0.806990396
vt 0.166666667 0.0
vn 2.4492936e-16 0.0707372017 -0.997494987
vt 0.1875 1.0
vn -0.0 0.163804803 -0.986492771
vt 0.1875 0.9
vn -0.587785252 0.132520869 -0.798089416
vt 0.1875 0.8
vn -0.951056516 0.0506184677 -0.304843031
vt 0.1875 0.7
vn -0.951056516 -0.0506184677 0.304843031
vt 0.1875 0.6
vn -0.587785252 -0.132520869 0.798089416
vt 0.1875 0.5
vn -1.2246468e-16 -0.163804803 0.986492771
vt 0.1875 0.4
vn 0.587785252 -0.132520869 0.798089416
vt 0.1875 0.3
vn 0.951056516 -0.0506184677 0.304843031
vt 0.1875 0.2
vn 0.951056516 0.0506184677 -0.304843031
vt 0.1875 0.1
vn 0.587785252 0.132520869 -0.798089416
vt 0.1875 0.0
vn 2.4492936e-16 0.163804803 -0.986492771
vt 0.208333333 1.0
vn -0.0 0.255433767 -0.966826557
vt 0.208333333 0.9
vn -0.587785252 0.206650258 -0.782179115
vt 0.208333333 0.8
vn -0.951056516 0.0789333749 -0.298765837
vt 0.208333333 0.7
vn -0.951056516 -0.0789333749 0.298765837
vt 0.208333333 0.6
vn -0.587785252 -0.206650258 0.782179115
vt 0.208333333 0.5
vn -1.2246468e-16 -0.255433767 0.966826557
vt 0.208333333 0.4
vn 0.587785252 -0.206650258 0.782179115
vt 0.208333333 0.3
vn 0.951056516 -0.0789333749 0.298765837
vt 0.208333333 0.2
vn 0.951056516 0.0789333749 -0.298765837
vt 0.208333333 0.1
vn 0.587785252 0.206650258 -0.782179115
vt 0.208333333 0.0
vn 2.4492936e-16 0.255433767 -0.966826557
vt 0.229166667 1.0
vn -0.0 0.344819352 -0.938669066
vt 0.229166667 0.9
vn -0.587785252 0.278964716 -0.759399226
vt 0.229166667 0.8
vn -0.951056516 0.10655504 -0.290064693
vt 0.229166667 0.7
vn -0.951056516 -0.10655504 0.290064693
vt 0.229166667 0.6
vn -0.587785252 -0.278964716 0.759399226
vt 0.229166667 0.5
vn -1.2246468e-16 -0.344819352 0.938669066
vt 0.229166667 0.4
vn 0.587785252 -0.278964716 0.759399226
vt 0.229166667 0.3
vn 0.951056516 -0.10655504 0.290064693
vt 0.229166667 0.2
vn 0.951056516 0.10655504 -0.290064693
vt 0.229166667 0.1
vn 0.587785252 0.278964716 -0.759399226
vt 0.229166667 0.0
vn 2.4492936e-16 0.344819352 -0.938669066
vt 0.25 1.0
vn -0.0 0.431176517 -0.902267594
vt 0.25 0.9
vn -0.587785252 0.34882913 -0.729949817
vt 0.25 0.8
vn -0.951056516 0.133240871 -0.27881602
vt 0.25 0.7
vn -0.951056516 -0.133240871 0.27881602
vt 0.25 0.6
vn -0.587785252 -0.34882913 0.729949817
vt 0.25 0.5
vn -1.2246468e-16 -0.431176517 0.902267594
vt 0.25 0.4
vn 0.587785252 -0.34882913 0.729949817
vt 0.25 0.3
vn 0.951056516 -0.133240871 0.27881602
vt 0.25 0.2
vn 0.951056516 0.133240871 -0.27881602
vt 0.25 0.1
vn 0.587785252 0.34882913 -0.729949817
vt 0.25 0.0
vn 2.4492936e-16 0.431176517 -0.902267594
vt 0.270833333 1.0
vn -0.0 0.513746819 -0.857941843
vt 0.270833333 0.9
vn -0.587785252 0.415629908 -0.694089531
vt 0.270833333 0.8
vn -0.951056516 0.158756498 -0.26511861
vt 0.270833333 0.7
vn -0.951056516 -0.158756498 0.26511861
vt 0.270833333 0.6
vn -0.587785252 -0.415629908 0.694089531
vt 0.270833333 0.5
vn -1.2246468e-16 -0.513746819 0.857941843
vt 0.270833333 0.4
vn 0.587785252 -0.415629908 0.694089531
vt 0.270833333 0.3
vn 0.951056516 -0.158756498 0.26511861
vt 0.270833333 0.2
vn 0.951056516 0.158756498 -0.26511861
vt 0.270833333 0.1
vn 0.587785252 0.415629908 -0.694089531
vt 0.270833333 0.0
vn 2.4492936e-16 0.513746819 -0.857941843
vt 0.291666667 1.0
vn -0.0 0.591805075 -0.806081108
vt 0.291666667 0.9
vn -0.587785252 0.478780363 -0.652133315
vt 0.291666667 0.8
vn -0.951056516 0.182877826 -0.249092761
vt 0.291666667 0.7
vn -0.951056516 -0.182877826 0.249092761
vt 0.291666667 0.6
vn -0.587785252 -0.478780363 0.652133315
vt 0.291666667 0.5
vn -1.2246468e-16 -0.591805075 0.806081108
vt 0.291666667 0.4
vn 0.587785252 -0.478780363 0.652133315
vt 0.291666667 0.3
vn 0.951056516 -0.182877826 0.249092761
vt 0.291666667 0.2
vn 0.951056516 0.182877826 -0.249092761
vt 0.291666667 0.1
vn 0.587785252 0.478780363 -0.652133315
vt 0.291666667 0.0
vn 2.4492936e-16 0.591805075 -0.806081108
vt 0.3125 1.0
vn -0.0 0.664665728 -0.747140864
vt 0.3125 0.9
vn -0.587785252 0.537725869 -0.604449656
vt 0.3125 0.8
vn -0.951056516 0.205393005 -0.230879224
vt 0.3125 0.7
vn -0.951056516 -0.205393005 0.230879224
vt 0.3125 0.6
vn -0.587785252 -0.537725869 0.604449656
vt 0.3125 0.5
vn -1.2246468e-16 -0.664665728 0.747140864
vt 0.3125 0.4
vn 0.587785252 -0.537725869 0.604449656
vt 0.3125 0.3
vn 0.951056516 -0.205393005 0.230879224
vt 0.3125 0.2
vn 0.951056516 0.205393005 -0.230879224
vt 0.3125 0.1
vn 0.587785252 0.537725869 -0.604449656
vt 0.3125 0.0
vn 2.4492936e-16 0.664665728 -0.747140864
vt 0.333333333 1.0
vn -0.0 0.731688869 -0.68163876
vt 0.333333333 0.9
vn -0.587785252 0.59194873 -0.551457341
vt 0.333333333 0.8
vn -0.951056516 0.226104295 -0.210637961
vt 0.333333333 0.7
vn -0.951056516 -0.226104295 0.210637961
vt 0.333333333 0.6
vn -0.587785252 -0.59194873 0.551457341
vt 0.333333333 0.5
vn -1.2246468e-16 -0.731688869 0.68163876
vt 0.333333333 0.4
vn 0.587785252 -0.59194873 0.551457341
vt 0.333333333 0.3
vn 0.951056516 -0.226104295 0.210637961
vt 0.333333333 0.2
vn 0.951056516 0.226104295 -0.210637961
vt 0.333333333 0.1
vn 0.587785252 0.59194873 -0.551457341
vt 0.333333333 0.0
vn 2.4492936e-16 0.731688869 -0.68163876
vt 0.354166667 1.0
vn -0.0 0.79228586 -0.610150077
vt 0.354166667 0.9
vn -0.587785252 0.640972725 -0.493621781
vt 0.354166667 0.8
vn -0.951056516 0.244829795 -0.188546743
vt 0.354166667 0.7
vn -0.951056516 -0.244829795 0.188546743
vt 0.354166667 0.6
vn -0.587785252 -0.640972725 0.493621781
vt 0.354166667 0.5
vn -1.2246468e-16 -0.79228586 0.610150077
vt 0.354166667 0.4
vn 0.587785252 -0.640972725 0.493621781
vt 0.354166667 0.3
vn 0.951056516 -0.244829795 0.188546743
vt 0.354166667 0.2
vn 0.951056516 0.244829795 -0.188546743
vt 0.354166667 0.1
vn 0.587785252 0.640972725 -0.493621781
vt 0.354166667 0.0
vn 2.4492936e-16 0.79228586 -0.610150077
vt 0.375 1.0
vn -0.0 0.845924499 -0.533302674
vt 0.375 0.9
vn -0.587785252 0.684367296 -0.431450926
vt 0.375 0.8
vn -0.951056516 0.261405046 -0.164799589
vt 0.375 0.7
vn -0.951056516 -0.261405046 0.164799589
vt 0.375 0.6
vn -0.587785252 -0.684367296 0.431450926
vt 0.375 0.5
vn -1.2246468e-16 -0.845924499 0.533302674
vt 0.375 0.4
vn 0.587785252 -0.684367296 0.431450926
vt 0.375 0.3
vn 0.951056516 -0.261405046 0.164799589
vt 0.375 0.2
vn 0.951056516 0.261405046 -0.164799589
vt 0.375 0.1
vn 0.587785252 0.684367296 -0.431450926
vt 0.375 0.0
vn 2.4492936e-16 0.845924499 -0.533302674
vt 0.395833333 1.0
vn -0.0 0.892133699 -0.451771471
vt 0.395833333 0.9
vn -0.587785252 0.721751324 -0.365490798
vt 0.395833333 0.8
vn -0.951056516 0.275684474 -0.139605062
vt 0.395833333 0.7
vn -0.951056516 -0.275684474 0.139605062
vt 0.395833333 0.6
vn -0.587785252 -0.721751324 0.365490798
vt 0.395833333 0.5
vn -1.2246468e-16 -0.892133699 0.451771471
vt 0.395833333 0.4
vn 0.587785252 -0.721751324 0.365490798
vt 0.395833333 0.3
vn 0.951056516 -0.275684474 0.139605062
vt 0.395833333 0.2
vn 0.951056516 0.275684474 -0.139605062
vt 0.395833333 0.1
vn 0.587785252 0.721751324 -0.365490798
vt 0.395833333 0.0
vn 2.4492936e-16 0.892133699 -0.451771471
vt 0.416666667 1.0
vn -0.0 0.930507622 -0.366272529
vt 0.416666667 0.9
vn -0.587785252 0.75279648 -0.296320701
vt 0.416666667 0.8
vn -0.951056516 0.287542669 -0.113184436
vt 0.416666667 0.7
vn -0.951056516 -0.287542669 0.113184436
vt 0.416666667 0.6
vn -0.587785252 -0.75279648 0.296320701
vt 0.416666667 0.5
vn -1.2246468e-16 -0.930507622 0.366272529
vt 0.416666667 0.4
vn 0.587785252 -0.75279648 0.296320701
vt 0.416666667 0.3
vn 0.951056516 -0.287542669 0.113184436
vt 0.416666667 0.2
vn 0.951056516 0.287542669 -0.113184436
vt 0.416666667 0.1
vn 0.587785252 0.75279648 -0.296320701
vt 0.416666667 0.0
vn 2.4492936e-16 0.930507622 -0.366272529
vt 0.4375 1.0
vn -0.0 0.960709243 -0.277556752
vt 0.4375 0.9
vn -0.587785252 0.777230104 -0.224548129
vt 0.4375 0.8
vn -0.951056516 0.296875483 -0.0857697532
vt 0.4375 0.7
vn -0.951056516 -0.296875483 0.0857697532
vt 0.4375 0.6
vn -0.587785252 -0.777230104 0.224548129
vt 0.4375 0.5
vn -1.2246468e-16 -0.960709243 0.277556752
vt 0.4375 0.4
vn 0.587785252 -0.777230104 0.224548129
vt 0.4375 0.3
vn 0.951056516 -0.296875483 0.0857697532
vt 0.4375 0.2
vn 0.951056516 0.296875483 -0.0857697532
vt 0.4375 0.1
vn 0.587785252 0.777230104 -0.224548129
vt 0.4375 0.0
vn 2.4492936e-16 0.960709243 -0.277556752
vt 0.458333333 1.0
vn -0.0 0.982473313 -0.186403297
vt 0.458333333 0.9
vn -0.587785252 0.794837607 -0.150803435
vt 0.458333333 0.8
vn -0.951056516 0.30360095 -0.0576017865
vt 0.458333333 0.7
vn -0.951056516 -0.30360095 0.0576017865
vt 0.458333333 0.6
vn -0.587785252 -0.794837607 0.150803435
vt 0.458333333 0.5
vn -1.2246468e-16 -0.982473313 0.186403297
vt 0.458333333 0.4
vn 0.587785252 -0.794837607 0.150803435
vt 0.458333333 0.3
vn 0.951056516 -0.30360095 0.0576017865
vt 0.458333333 0.2
vn 0.951056516 0.30360095 -0.0576017865
vt 0.458333333 0.1
vn 0.587785252 0.794837607 -0.150803435
vt 0.458333333 0.0
vn 2.4492936e-16 0.982473313 -0.186403297
vt 0.479166667 1.0
vn -0.0 0.995608686 -0.0936127312
vt 0.479166667 0.9
vn -0.587785252 0.805464347 -0.0757342905
vt 0.479166667 0.8
vn -0.951056516 0.307660004 -0.0289279248
vt 0.479166667 0.7
vn -0.951056516 -0.307660004 0.0289279248
vt 0.479166667 0.6
vn -0.587785252 -0.805464347 0.0757342905
vt 0.479166667 0.5
vn -1.2246468e-16 -0.995608686 0.0936127312
vt 0.479166667 0.4
vn 0.587785252 -0.805464347 0.0757342905
vt 0.479166667 0.3
vn 0.951056516 -0.307660004 0.0289279248
vt 0.479166667 0.2
vn 0.951056516 0.307660004 -0.0289279248
vt 0.479166667 0.1
vn 0.587785252 0.805464347 -0.0757342905
vt 0.479166667 0.0
vn 2.4492936e-16 0.995608686 -0.0936127312
vt 0.5 1.0
vn -0.0 1.0 0.0
vt 0.5 0.9
vn -0.587785252 0.809016994 0.0
vt 0.5 0.8
vn -0.951056516 0.309016994 0.0
vt 0.5 0.7
vn -0.951056516 -0.309016994 -0.0
vt 0.5 0.6
vn -0.587785252 -0.809016994 -0.0
vt 0.5 0.5
vn -1.2246468e-16 -1.0 -0.0
vt 0.5 0.4
vn 0.587785252 -0.809016994 -0.0
vt 0.5 0.3
vn 0.951056516 -0.309016994 -0.0
vt 0.5 0.2
vn 0.951056516 0.309016994 0.0
vt 0.5 0.1
vn 0.587785252 0.809016994 0.0
vt 0.5 0.0
vn 2.4492936e-16 1.0 0.0
vt 0.520833333 1.0
vn -0.0 0.995608686 0.0936127312
vt 0.520833333 0.9
vn -0.587785252 0.805464347 0.0757342905
vt 0.520833333 0.8
vn -0.951056516 0.307660004 0.0289279248
vt 0.520833333 0.7
vn -0.951056516 -0.307660004 -0.0289279248
vt 0.520833333 0.6
vn -0.587785252 -0.805464347 -0.0757342905
vt 0.520833333 0.5
vn -1.2246468e-16 -0.995608686 -0.0936127312
vt 0.520833333 0.4
vn 0.587785252 -0.805464347 -0.0757342905
vt 0.520833333 0.3
vn 0.951056516 -0.307660004 -0.0289279248
vt 0.520833333 0.2
vn 0.951056516 0.307660004 0.0289279248
vt 0.520833333 0.1
vn 0.587785252 0.805464347 0.0757342905
vt 0.520833333 0.0
vn 2.4492936e-16 0.995608686 0.0936127312
vt 0.541666667 1.0
vn -0.0 0.982473313 0.186403297
vt 0.541666667 0.9
vn -0.587785252 0.794837607 0.150803435
vt 0.541666667 0.8
vn -0.951056516 0.30360095 0.0576017865
vt 0.541666667 0.7
vn -0.951056516 -0.30360095 -0.0576017865
vt 0.541666667 0.6
vn -0.587785252 -0.794837607 -0.150803435
vt 0.541666667 0.5
vn -1.2246468e-16 -0.982473313 -0.186403297
vt 0.541666667 0.4
vn 0.587785252 -0.794837607 -0.150803435
vt 0.541666667 0.3
vn 0.951056516 -0.30360095 -0.0576017865
vt 0.541666667 0.2
vn 0.951056516 0.30360095 0.0576017865
vt 0.541666667 0.1
vn 0.587785252 0.794837607 0.150803435
vt 0.541666667 0.0
vn 2.4492936e-16 0.982473313 0.186403297
vt 0.5625 1.0
vn -0.0 0.960709243 0.277556752
vt 0.5625 0.9
vn -0.587785252 0.777230104 0.224548129
vt 0.5625 0.8
vn -0.951056516 0.296875483 0.0857697532
vt 0.5625 0.7
vn -0.951056516 -0.296875483 -0.0857697532
vt 0.5625 0.6
vn -0.587785252 -0.777230104 -0.224548129
vt 0.5625 0.5
vn -1.2246468e-16 -0.960709243 -0.277556752
vt 0.5625 0.4
vn 0.587785252 -0.777230104 -0.224548129
vt 0.5625 0.3
vn 0.951056516 -0.296875483 -0.0857697532
vt 0.5625 0.2
vn 0.951056516 0.296875483 0.0857697532
vt 0.5625 0.1
vn 0.587785252 0.777230104 0.224548129
vt 0.5625 0.0
vn 2.4492936e-16 0.960709243 0.277556752
vt 0.583333333 1.0
vn -0.0 0.930507622 0.366272529
vt 0.583333333 0.9
vn -0.587785252 0.75279648 0.296320701
vt 0.583333333 0.8
vn -0.951056516 0.287542669 0.113184436
vt 0.583333333 0.7
vn -0.951056516 -0.287542669 -0.113184436
vt 0.583333333 0.6
vn -0.587785252 -0.75279648 -0.296320701
vt 0.583333333 0.5
vn -1.2246468e-16 -0.930507622 -0.366272529
vt 0.583333333 0.4
vn 0.587785252 -0.75279648 -0.296320701
vt 0.583333333 0.3
vn 0.951056516 -0.287542669 -0.113184436
vt 0.583333333 0.2
vn 0.951056516 0.287542669 0.113184436
vt 0.583333333 0.1
vn 0.587785252 0.75279648 0.296320701
vt 0.583333333 0.0
vn 2.4492936e-16 0.930507622 0.366272529
vt 0.604166667 1.0
vn -0.0 0.892133699 0.451771471
vt 0.604166667 0.9
vn -0.587785252 0.721751324 0.365490798
vt 0.604166667 0.8
vn -0.951056516 0.275684474 0.139605062
vt 0.604166667 0.7
vn -0.951056516 -0.275684474 -0.139605062
vt 0.604166667 0.6
vn -0.587785252 -0.721751324 -0.365490798
vt 0.604166667 0.5
vn -1.2246468e-16 -0.892133699 -0.451771471
vt 0.604166667 0.4
vn 0.587785252 -0.721751324 -0.365490798
vt 0.604166667 0.3
vn 0.951056516 -0.275684474 -0.139605062
vt 0.604166667 0.2
vn 0.951056516 0.275684474 0.139605062
vt 0.604166667 0.1
vn 0.587785252 0.721751324 0.365490798
vt 0.604166667 0.0
vn 2.4492936e-16 0.892133699 0.451771471
vt 0.625 1.0
vn -0.0 0.845924499 0.533302674
vt 0.625 0.9
vn -0.587785252 0.684367296 0.431450926
vt 0.625 0.8
vn -0.951056516 0.261405046 0.164799589
vt 0.625 0.7
vn -0.951056516 -0.261405046 -0.164799589
vt 0.625 0.6
vn -0.587785252 -0.684367296 -0.431450926
vt 0.625 0.5
vn -1.2246468e-16 -0.845924499 -0.533302674
vt 0.625 0.4
vn 0.587785252 -0.684367296 -0.431450926
vt 0.625 0.3
vn 0.951056516 -0.261405046 -0.164799589
vt 0.625 0.2
vn 0.951056516 0.261405046 0.164799589
vt 0.625 0.1
vn 0.587785252 0.684367296 0.431450926
vt 0.625 0.0
vn 2.4492936e-16 0.845924499 0.533302674
vt 0.645833333 1.0
vn -0.0 0.79228586 0.610150077
vt 0.645833333 0.9
vn -0.587785252 0.640972725 0.493621781
vt 0.645833333 0.8
vn -0.951056516 0.244829795 0.188546743
vt 0.645833333 0.7
vn -0.951056516 -0.244829795 -0.188546743
vt 0.645833333 0.6
vn -0.587785252 -0.640972725 -0.493621781
vt 0.645833333 0.5
vn -1.2246468e-16 -0.79228586 -0.610150077
vt 0.645833333 0.4
vn 0.587785252 -0.640972725 -0.493621781
vt 0.645833333 0.3
vn 0.951056516 -0.244829795 -0.188546743
vt 0.645833333 0.2
vn 0.951056516 0.244829795 0.188546743
vt 0.645833333 0.1
vn 0.587785252 0.640972725 0.493621781
vt 0.645833333 0.0
vn 2.4492936e-16 0.79228586 0.610150077
vt 0.666666667 1.0
vn -0.0 0.731688869 0.68163876
vt 0.666666667 0.9
vn -0.587785252 0.59194873 0.551457341
vt 0.666666667 0.8
vn -0.951056516 0.226104295 0.210637961
vt 0.666666667 0.7
vn -0.951056516 -0.226104295 -0.210637961
vt 0.666666667 0.6
vn -0.587785252 -0.59194873 -0.551457341
vt 0.666666667 0.5
vn -1.2246468e-16 -0.731688869 -0.68163876
vt 0.666666667 0.4
vn 0.587785252 -0.59194873 -0.551457341
vt 0.666666667 0.3
vn 0.951056516 -0.226104295 -0.210637961
vt 0.666666667 0.2
vn 0.951056516 0.226104295 0.210637961
vt 0.666666667 0.1
vn 0.587785252 0.59194873 0.551457341
vt 0.666666667 0.0
vn 2.4492936e-16 0.731688869 0.68163876
vt 0.6875 1.0
vn -0.0 0.664665728 0.747140864
vt 0.6875 0.9
vn -0.587785252 0.537725869 0.604449656
vt 0.6875 0.8
vn -0.951056516 0.205393005 0.230879224
vt 0.6875 0.7
vn -0.951056516 -0.205393005 -0.230879224
vt 0.6875 0.6
vn -0.587785252 -0.537725869 -0.604449656
vt 0.6875 0.5
vn -1.2246468e-16 -0.664665728 -0.747140864
vt 0.6875 0.4
vn 0.587785252 -0.537725869 -0.604449656
vt 0.6875 0.3
vn 0.951056516 -0.205393005 -0.230879224
vt 0.6875 0.2
vn 0.951056516 0.205393005 0.230879224
vt 0.6875 0.1
vn 0.587785252 0.537725869 0.604449656
vt 0.6875 0.0
vn 2.4492936e-16 0.664665728 0.747140864
vt 0.708333333 1.0
vn -0.0 0.591805075 0.806081108
vt 0.708333333 0.9
vn -0.587785252 0.478780363 0.652133315
vt 0.708333333 0.8
vn -0.951056516 0.182877826 0.249092761
vt 0.708333333 0.7
vn -0.951056516 -0.182877826 -0.249092761
vt 0.708333333 0.6
vn -0.587785252 -0.478780363 -0.652133315
vt 0.708333333 0.5
vn -1.2246468e-16 -0.591805075 -0.806081108
vt 0.708333333 0.4
vn 0.587785252 -0.478780363 -0.652133315
vt 0.708333333 0.3
vn 0.951056516 -0.182877826 -0.249092761
vt 0.708333333 0.2
vn 0.951056516 0.182877826 0.249092761
vt 0.708333333 0.1
vn 0.587785252 0.478780363 0.652133315
vt 0.708333333 0.0
vn 2.4492936e-16 0.591805075 0.806081108
vt 0.729166667 1.0
vn -0.0 0.513746819 0.857941843
vt 0.729166667 0.9
vn -0.587785252 0.415629908 0.694089531
vt 0.729166667 0.8
vn -0.951056516 0.158756498 0.26511861
vt 0.729166667 0.7
vn -0.951056516 -0.158756498 -0.26511861
vt 0.729166667 0.6
vn -0.587785252 -0.415629908 -0.694089531
vt 0.729166667 0.5
vn -1.2246468e-16 -0.513746819 -0.857941843
vt 0.729166667 0.4
vn 0.587785252 -0.415629908 -0.694089531
vt 0.729166667 0.3
vn 0.951056516 -0.158756498 -0.26511861
vt 0.729166667 0.2
vn 0.951056516 0.158756498 0.26511861
vt 0.729166667 0.1
vn 0.587785252 0.415629908 0.694089531
vt 0.729166667 0.0
vn 2.4492936e-16 0.513746819 0.857941843
vt 0.75 1.0
vn -0.0 0.431176517 0.902267594
vt 0.75 0.9
vn -0.587785252 0.34882913 0.729949817
vt 0.75 0.8
vn -0.951056516 0.133240871 0.27881602
vt 0.75 0.7
vn -0.951056516 -0.133240871 -0.27881602
vt 0.75 0.6
vn -0.587785252 -0.34882913 -0.729949817
vt 0.75 0.5
vn -1.2246468e-16 -0.431176517 -0.902267594
vt 0.75 0.4
vn 0.587785252 -0.34882913 -0.729949817
vt 0.75 0.3
vn 0.951056516 -0.133240871 -0.27881602
vt 0.75 0.2
vn 0.951056516 0.133240871 0.27881602
vt 0.75 0.1
vn 0.587785252 0.34882913 0.729949817
vt 0.75 0.0
vn 2.4492936e-16 0.431176517 0.902267594
vt 0.770833333 1.0
vn -0.0 0.344819352 0.938669066
vt 0.770833333 0.9
vn -0.587785252 0.278964716 0.759399226
vt 0.770833333 0.8
vn -0.951056516 0.10655504 0.290064693
vt 0.770833333 0.7
vn -0.951056516 -0.10655504 -0.290064693
vt 0.770833333 0.6
vn -0.587785252 -0.278964716 -0.759399226
vt 0.770833333 0.5
vn -1.2246468e-16 -0.344819352 -0.938669066
vt 0.770833333 0.4
vn 0.587785252 -0.278964716 -0.759399226
vt 0.770833333 0.3
vn 0.951056516 -0.10655504 -0.290064693
vt 0.770833333 0.2
vn 0.951056516 0.10655504 0.290064693
vt 0.770833333 0.1
vn 0.587785252 0.278964716 0.759399226
vt 0.770833333 0.0
vn 2.4492936e-16 0.344819352 0.938669066
vt 0.791666667 1.0
vn -0.0 0.255433767 0.966826557
vt 0.791666667 0.9
vn -0.587785252 0.206650258 0.782179115
vt 0.791666667 0.8
vn -0.951056516 0.0789333749 0.298765837
vt 0.791666667 0.7
vn -0.951056516 -0.0789333749 -0.298765837
vt 0.791666667 0.6
vn -0.587785252 -0.206650258 -0.782179115
vt 0.791666667 0.5
vn -1.2246468e-16 -0.255433767 -0.966826557
vt 0.791666667 0.4
vn 0.587785252 -0.206650258 -0.782179115
vt 0.791666667 0.3
vn 0.951056516 -0.0789333749 -0.298765837
vt 0.791666667 0.2
vn 0.951056516 0.0789333749 0.298765837
vt 0.791666667 0.1
vn 0.587785252 0.206650258 0.782179115
vt 0.791666667 0.0
vn 2.4492936e-16 0.255433767 0.966826557
vt 0.8125 1.0
vn -0.0 0.163804803 0.986492771
vt 0.8125 0.9
vn -0.587785252 0.132520869 0.798089416
vt 0.8125 0.8
vn -0.951056516 0.0506184677 0.304843031
vt 0.8125 0.7
vn -0.951056516 -0.0506184677 -0.304843031
vt 0.8125 0.6
vn -0.587785252 -0.132520869 -0.798089416
vt 0.8125 0.5
vn -1.2246468e-16 -0.163804803 -0.986492771
vt 0.8125 0.4
vn 0.587785252 -0.132520869 -0.798089416
vt 0.8125 0.3
vn 0.951056516 -0.0506184677 -0.304843031
vt 0.8125 0.2
vn 0.951056516 0.0506184677 0.304843031
vt 0.8125 0.1
vn 0.587785252 0.132520869 0.798089416
vt 0.8125 0.0
vn 2.4492936e-16 0.163804803 0.986492771
vt 0.833333333 1.0
vn -0.0 0.0707372017 0.997494987
vt 0.833333333 0.9
vn -0.587785252 0.0572275983 0.806990396
vt 0.833333333 0.8
vn -0.951056516 0.0218589974 0.308242903
vt 0.833333333 0.7
vn -0.951056516 -0.0218589974 -0.308242903
vt 0.833333333 0.6
vn -0.587785252 -0.0572275983 -0.806990396
vt 0.833333333 0.5
vn -1.2246468e-16 -0.0707372017 -0.997494987
vt 0.833333333 0.4
vn 0.587785252 -0.0572275983 -0.806990396
vt 0.833333333 0.3
vn 0.951056516 -0.0218589974 -0.308242903
vt 0.833333333 0.2
vn 0.951056516 0.0218589974 0.308242903
vt 0.833333333 0.1
vn 0.587785252 0.0572275983 0.806990396
vt 0.833333333 0.0
vn 2.4492936e-16 0.0707372017 0.997494987
vt 0.854166667 1.0
vn -0.0 -0.0229516577 0.999736576
vt 0.854166667 0.9
vn -0.587785252 -0.0185682811 0.80880388
vt 0.854166667 0.8
vn -0.951056516 -0.00709245226 0.308935592
vt 0.854166667 0.7
vn -0.951056516 0.00709245226 -0.308935592
vt 0.854166667 0.6
vn -0.587785252 0.0185682811 -0.80880388
vt 0.854166667 0.5
vn -1.2246468e-16 0.0229516577 -0.999736576
vt 0.854166667 0.4
vn 0.587785252 0.0185682811 -0.80880388
vt 0.854166667 0.3
vn 0.951056516 0.00709245226 -0.308935592
vt 0.854166667 0.2
vn 0.951056516 -0.00709245226 0.308935592
vt 0.854166667 0.1
vn 0.587785252 -0.0185682811 0.80880388
vt 0.854166667 0.0
vn 2.4492936e-16 -0.0229516577 0.999736576
vt 0.875 1.0
vn -0.0 -0.116438941 0.993197852
vt 0.875 0.9
vn -0.587785252 -0.0942010822 0.803513941
vt 0.875 0.8
vn -0.951056516 -0.0359816116 0.306915015
vt 0.875 0.7
vn -0.951056516 0.0359816116 -0.306915015
vt 0.875 0.6
vn -0.587785252 0.0942010822 -0.803513941
vt 0.875 0.5
vn -1.2246468e-16 0.116438941 -0.993197852
vt 0.875 0.4
vn 0.587785252 0.0942010822 -0.803513941
vt 0.875 0.3
vn 0.951056516 0.0359816116 -0.306915015
vt 0.875 0.2
vn 0.951056516 -0.0359816116 0.306915015
vt 0.875 0.1
vn 0.587785252 -0.0942010822 0.803513941
vt 0.875 0.0
vn 2.4492936e-16 -0.116438941 0.993197852
vt 0.895833333 1.0
vn -0.0 -0.208903585 0.977936241
vt 0.895833333 0.9
vn -0.587785252 -0.16900655 0.791167039
vt 0.895833333 0.8
vn -0.951056516 -0.0645547579 0.302198918
vt 0.895833333 0.7
vn -0.951056516 0.0645547579 -0.302198918
vt 0.895833333 0.6
vn -0.587785252 0.16900655 -0.791167039
vt 0.895833333 0.5
vn -1.2246468e-16 0.208903585 -0.977936241
vt 0.895833333 0.4
vn 0.587785252 0.16900655 -0.791167039
vt 0.895833333 0.3
vn 0.951056516 0.0645547579 -0.302198918
vt 0.895833333 0.2
vn 0.951056516 -0.0645547579 0.302198918
vt 0.895833333 0.1
vn 0.587785252 -0.16900655 0.791167039
vt 0.895833333 0.0
vn 2.4492936e-16 -0.208903585 0.977936241
vt 0.916666667 1.0
vn -0.0 -0.299533506 0.954085782
vt 0.916666667 0.9
vn -0.587785252 -0.242327697 0.771871611
vt 0.916666667 0.8
vn -0.951056516 -0.0925609438 0.294828721
vt 0.916666667 0.7
vn -0.951056516 0.0925609438 -0.294828721
vt 0.916666667 0.6
vn -0.587785252 0.242327697 -0.771871611
vt 0.916666667 0.5
vn -1.2246468e-16 0.299533506 -0.954085782
vt 0.916666667 0.4
vn 0.587785252 0.242327697 -0.771871611
vt 0.916666667 0.3
vn 0.951056516 0.0925609438 -0.294828721
vt 0.916666667 0.2
vn 0.951056516 -0.0925609438 0.294828721
vt 0.916666667 0.1
vn 0.587785252 -0.242327697 0.771871611
vt 0.916666667 0.0
vn 2.4492936e-16 -0.299533506 0.954085782
vt 0.9375 1.0
vn -0.0 -0.387532736 0.921855942
vt 0.9375 0.9
vn -0.587785252 -0.31352057 0.745797124
vt 0.9375 0.8
vn -0.951056516 -0.119754201 0.284869153
vt 0.9375 0.7
vn -0.951056516 0.119754201 -0.284869153
vt 0.9375 0.6
vn -0.587785252 0.31352057 -0.745797124
vt 0.9375 0.5
vn -1.2246468e-16 0.387532736 -0.921855942
vt 0.9375 0.4
vn 0.587785252 0.31352057 -0.745797124
vt 0.9375 0.3
vn 0.951056516 0.119754201 -0.284869153
vt 0.9375 0.2
vn 0.951056516 -0.119754201 0.284869153
vt 0.9375 0.1
vn 0.587785252 -0.31352057 0.745797124
vt 0.9375 0.0
vn 2.4492936e-16 -0.387532736 0.921855942
vt 0.958333333 1.0
vn -0.0 -0.472128411 0.881529786
vt 0.958333333 0.9
vn -0.587785252 -0.381959908 0.713172578
vt 0.958333333 0.8
vn -0.951056516 -0.145895703 0.272407685
vt 0.958333333 0.7
vn -0.951056516 0.145895703 -0.272407685
vt 0.958333333 0.6
vn -0.587785252 0.381959908 -0.713172578
vt 0.958333333 0.5
vn -1.2246468e-16 0.472128411 -0.881529786
vt 0.958333333 0.4
vn 0.587785252 0.381959908 -0.713172578
vt 0.958333333 0.3
vn 0.951056516 0.145895703 -0.272407685
vt 0.958333333 0.2
vn 0.951056516 -0.145895703 0.272407685
vt 0.958333333 0.1
vn 0.587785252 -0.381959908 0.713172578
vt 0.958333333 0.0
vn 2.4492936e-16 -0.472128411 0.881529786
vt 0.979166667 1.0
vn -0.0 -0.552577558 0.833461482
vt 0.979166667 0.9
vn -0.587785252 -0.447044635 0.674284503
vt 0.979166667 0.8
vn -0.951056516 -0.170755856 0.257553762
vt 0.979166667 0.7
vn -0.951056516 0.170755856 -0.257553762
vt 0.979166667 0.6
vn -0.587785252 0.447044635 -0.674284503
vt 0.979166667 0.5
vn -1.2246468e-16 0.552577558 -0.833461482
vt 0.979166667 0.4
vn 0.587785252 0.447044635 -0.674284503
vt 0.979166667 0.3
vn 0.951056516 0.170755856 -0.257553762
vt 0.979166667 0.2
vn 0.951056516 -0.170755856 0.257553762
vt 0.979166667 0.1
vn 0.587785252 -0.447044635 0.674284503
vt 0.979166667 0.0
vn 2.4492936e-16 -0.552577558 0.833461482
vt 1.0 1.0
vn -0.0 -0.628173623 0.778073197
vt 1.0 0.9
vn -0.587785252 -0.508203136 0.629474439
vt 1.0 0.8
vn -0.951056516 -0.194116325 0.240437841
vt 1.0 0.7
vn -0.951056516 0.194116325 -0.240437841
vt 1.0 0.6
vn -0.587785252 0.508203136 -0.629474439
vt 1.0 0.5
vn -1.2246468e-16 0.628173623 -0.778073197
vt 1.0 0.4
vn 0.587785252 0.508203136 -0.629474439
vt 1.0 0.3
vn 0.951056516 0.194116325 -0.240437841
vt 1.0 0.2
vn 0.951056516 -0.194116325 0.240437841
vt 1.0 0.1
vn 0.587785252 -0.508203136 0.629474439
vt 1.0 0.0
vn 2.4492936e-16 -0.628173623 0.778073197
f 1/1/1 2/2/2 12/12/12
f 2/2/2 13/13/13 12/12/12
f 2/2/2 3/3/3 13/13/13
f 3/3/3 14/14/14 13/13/13
f 3/3/3 4/4/4 14/14/14
f 4/4/4 15/15/15 14/14/14
f 4/4/4 5/5/5 15/15/15
f 5/5/5 16/16/16 15/15/15
f 5/5/5 6/6/6 16/16/16
f 6/6/6 17/17/17 16/16/16
f 6/6/6 7/7/7 17/17/17
f 7/7/7 18/18/18 17/17/17
f 7/7/7 8/8/8 18/18/18
f 8/8/8 19/19/19 18/18/18
f 8/8/8 9/9/9 19/19/19
f 9/9/9 20/20/20 19/19/19
f 9/9/9 10/10/10 20/20/20
f 10/10/10 21/21/21 20/20/20
f 10/10/10 11/11/11 21/21/21
f 11/11/11 22/22/22 21/21/21
f 12/12/12 13/13/13 23/23/23
f 13/13/13 24/24/24 23/23/23
f 13/13/13 14/14/14 24/24/24
f 14/14/14 25/25/25 24/24/24
f 14/14/14 15/15/15 25/25/25
f 15/15/15 26/26/26 25/25/25
f 15/15/15 16/16/16 26/26/26
f 16/16/16 27/27/27 26/26/26
f 16/16/16 17/17/17 27/27/27
f 17/17/17 28/28/28 27/27/27
f 17/17/17 18/18/18 28/28/28
f 18/18/18 29/29/29 28/28/28
f 18/18/18 19/19/19 29/29/29
f 19/19/19 30/30/30 29/29/29
f 19/19/19 20/20/20 30/30/30
f 20/20/20 31/31/31 30/30/30
f 20/20/20 21/21/21 31/31/31
f 21/21/21 32/32/32 31/31/31
f 21/21/21 22/22/22 32/32/32
f 22/22/22 33/33/33 32/32/32
f 23/23/23 24/24/24 34/34/34
f 24/24/24 35/35/35 34/34/34
f 24/24/24 25/25/25 35/35/35
f 25/25/25 36/36/36 35/35/35
f 25/25/25 26/26/26 36/36/36
f 26/26/26 37/37/37 36/36/36
f 26/26/26 27/27/27 37/37/37
f 27/27/27 38/38/38 37/37/37
f 27/27/27 28/28/28 38/38/38
f 28/28/28 39/39/39 38/38/38
f 28/28/28 29/29/29 39/39/39
f 29/29/29 40/40/40 39/39/39
f 29/29/29 30/30/30 40/40/40
f 30/30/30 41/41/41 40/40/40
f 30/30/30 31/31/31 41/41/41
f 31/31/31 42/42/42 41/41/41
f 31/31/31 32/32/32 42/42/42
f 32/32/32 43/43/43 42/42/42
f 32/32/32 33/33/33 43/43/43
f 33/33/33 44/44/44 43/43/43
f 34/34/34 35/35/35 45/45/45
f 35/35/35 46/46/46 45/45/45
f 35/35/35 36/36/36 46/46/46
f 36/36/36 47/47/47 46/46/46
f 36/36/36 37/37/37 47/47/47
f 37/37/37 48/48/48 47/47/47
f 37/37/37 38/38/38 48/48/48
f 38/38/38 49/49/49 48/48/48
f 38/38/38 39/39/39 49/49/49
f 39/39/39 50/50/50 49/49/49
f 39/39/39 40/40/40 50/50/50
f 40/40/40 51/51/51 50/50/50
f 40/40/40 41/41/41 51/51/51
f 41/41/41 52/52/52 51/51/51
f 41/41/41 42/42/42 52/52/52
f 42/42/42 53/53/53 52/52/52
f 42/42/42 43/43/43 53/53/53
f 43/43/43 54/54/54 53/53/53
f 43/43/43 44/44/44 54/54/54
f 44/44/44 55/55/55 54/54/54
f 45/45/45 46/46/46 56/56/56
f 46/46/46 57/57/57 56/56/56
f 46/46/46 47/47/47 57/57/57
f 47/47/47 58/58/58 57/57/57
f 47/47/47 48/48/48 58/58/58
f 48/48/48 59/59/59 58/58/58
f 48/48/48 49/49/49 59/59/59
f 49/49/49 60/60/60 59/59/59
f 49/49/49 50/50/50 60/60/60
f 50/50/50 61/61/61 60/60/60
f 50/50/50 51/51/51 61/61/61
f 51/51/51 62/62/62 61/61/61
f 51/51/51 52/52/52 62/62/62
f 52/52/52 63/63/63 62/62/62
f 52/52/52 53/53/53 63/63/63
f 53/53/53 64/64/64 63/63/63
f 53/53/53 54/54/54 64/64/64
f 54/54/54 65/65/65 64/64/64
f 54/54/54 55/55/55 65/65/65
f 55/55/55 66/66/66 65/65/65
f 56/56/56 57/57/57 67/67/67
f 57/57/57 68/68/68 67/67/67
f 57/57/57 58/58/58 68/68/68
f 58/58/58 69/69/69 68/68/68
f 58/58/58 59/59/59 69/69/69
f 59/59/59 70/70/70 69/69/69
f 59/59/59 60/60/60 70/70/70
f 60/60/60 71/71/71 70/70/70
f 60/60/60 61/61/61 71/71/71
f 61/61/61 72/72/72 71/71/71
f 61/61/61 62/62/62 72/72/72
f 62/62/62 73/73/73 72/72/72
f 62/62/62 63/63/63 73/73/73
f 63/63/63 74/74/74 73/73/73
f 63/63/63 64/64/64 74/74/74
f 64/64/64 75/75/75 74/74/74
f 64/64/64 65/65/65 75/75/75
f 65/65/65 76/76/76 75/75/75
f 65/65/65 66/66/66 76/76/76
f 66/66/66 77/77/77 76/76/76
f 67/67/67 68/68/68 78/78/78
f 68/68/68 79/79/79 78/78/78
f 68/68/68 69/69/69 79/79/79
f 69/69/69 80/80/80 79/79/79
f 69/69/69 70/70/70 80/80/80
f 70/70/70 81/81/81 80/80/80
f 70/70/70 71/71/71 81/81/81
f 71/71/71 82/82/82 81/81/81
f 71/71/71 72/72/72 82/82/82
f 72/72/72 83/83/83 82/82/82
f 72/72/72 73/73/73 83/83/83
f 73/73/73 84/84/84 83/83/83
f 73/73/73 74/74/74 84/84/84
f 74/74/74 85/85/85 84/84/84
f 74/74/74 75/75/75 85/85/85
f 75/75/75 86/86/86 85/85/85
f 75/75/75 76/76/76 86/86/86
f 76/76/76 87/87/87 86/86/86
f 76/76/76 77/77/77 87/87/87
f 77/77/77 88/88/88 87/87/87
f 78/78/78 79/79/79 89/89/89
f 79/79/79 90/90/90 89/89/89
f 79/79/79 80/80/80 90/90/90
f 80/80/80 91/91/91 90/90/90
f 80/80/80 81/81/81 91/91/91
f 81/81/81 92/92/92 91/91/91
f 81/81/81 82/82/82 92/92/92
f 82/82/82 93/93/93 92/92/92
f 82/82/82 83/83/83 93/93/93
f 83/83/83 94/94/94 93/93/93
f 83/83/83 84/84/84 94/94/94
f 84/84/84 95/95/95 94/94/94
f 84/84/84 85/85/85 95/95/95
f 85/85/85 96/96/96 95/95/95
f 85/85/85 86/86/86 96/96/96
f 86/86/86 97/97/97 96/96/96
f 86/86/86 87/87/87 97/97/97
f 87/87/87 98/98/98 97/97/97
f 87/87/87 88/88/88 98/98/98
f 88/88/88 99/99/99 98/98/98
f 89/89/89 90/90/90 100/100/100
f 90/90/90 101/101/101 100/100/100
f 90/90/90 91/91/91 101/101/101
f 91/91/91 102/102/102 101/101/101
f 91/91/91 92/92/92 102/102/102
f 92/92/92 103/103/103 102/102/102
f 92/92/92 93/93/93 103/103/103
f 93/93/93 104/104/104 103/103/103
f 93/93/93 94/94/94 104/104/104
f 94/94/94 105/105/105 104/104/104
f 94/94/94 95/95/95 105/105/105
f 95/95/95 106/106/106 105/105/105
f 95/95/95 96/96/96 106/106/106
f 96/96/96 107/107/107 106/106/106
f 96/96/96 97/97/97 107/107/107
f 97/97/97 108/108/108 107/107/107
f 97/97/97 98/98/98 108/108/108
f 98/98/98 109/109/109 108/108/108
f 98/98/98 99/99/99 109/109/109
f 99/99/99 110/110/110 109/109/109
f 100/100/100 101/101/101 111/111/111
f 101/101/101 112/112/112 111/111/111
f 101/101/101 102/102/102 112/112/112
f 102/102/102 113/113/113 112/112/112
f 102/102/102 103/103/103 113/113/113
f 103/103/103 114/114/114 113/113/113
f 103/103/103 104/104/104 114/114/114
f 104/104/104 115/115/115 114/114/114
f 104/104/104 105/105/105 115/115/115
f 105/105/105 116/116/116 115/115/115
f 105/105/105 106/106/106 116/116/116
f 106/106/106 117/117/117 116/116/116
f 106/106/106 107/107/107 117/117/117
f 107/107/107 118/118/118 117/117/117
f 107/107/107 108/108/108 118/118/118
f 108/108/108 119/119/119 118/118/118
f 108/108/108 109/109/109 119/119/119
f 109/109/109 120/120/120 119/119/119
f 109/109/109 110/110/110 120/120/120
f 110/110/110 121/121/121 120/120/120
f 111/111/111 112/112/112 122/122/122
f 112/112/112 123/123/123 122/122/122
f 112/112/112 113/113/113 123/123/123
f 113/113/113 124/124/124 123/123/123
f 113/113/113 114/114/114 124/124/124
f 114/114/114 125/125/125 124/124/124
f 114/114/114 115/115/115 125/125/125
f 115/115/115 126/126/126 125/125/125
f 115/115/115 116/116/116 126/126/126
f 116/116/116 127/127/127 126/126/126
f 116/116/116 117/117/117 127/127/127
f 117/117/117 128/128/128 127/127/127
f 117/117/117 118/118/118 128/128/128
f 118/118/118 129/129/129 128/128/128
f 118/118/118 119/119/119 129/129/129
f 119/119/119 130/130/130 129/129/129
f 119/119/119 120/120/120 130/130/130
f 120/120/120 131/131/131 130/130/130
f 120/120/120 121/121/121 131/131/131
f 121/121/121 132/132/132 131/131/131
f 122/122/122 123/123/123 133/133/133
f 123/123/123 134/134/134 133/133/133
f 123/123/123 124/124/124 134/134/134
f 124/124/124 135/135/135 134/134/134
f 124/124/124 125/125/125 135/135/135
f 125/125/125 136/136/136 135/135/135
f 125/125/125 126/126/126 136/136/136
f 126/126/126 137/137/137 136/136/136
f 126/126/126 127/127/127 137/137/137
f 127/127/127 138/138/138 137/137/137
f 127/127/127 128/128/128 138/138/138
f 128/128/128 139/139/139 138/138/138
f 128/128/128 129/129/129 139/139/139
f 129/129/129 140/140/140 139/139/139
f 129/129/129 130/130/130 140/140/140
f 130/130/130 141/141/141 140/140/140
f 130/130/130 131/131/131 141/141/141
f 131/131/131 142/142/142 141/141/141
f 131/131/131 132/132/132 142/142/142
f 132/132/132 143/143/143 142/142/142
f 133/133/133 134/134/134 144/144/144
f 134/134/134 145/145/145 144/144/144
f 134/134/134 135/135/135 145/145/145
f 135/135/135 146/146/146 145/145/145
f 135/135/135 136/136/136 146/146/146
f 136/136/136 147/147/147 146/146/146
f 136/136/136 137/137/137 147/147/147
f 137/137/137 148/148/148 147/147/147
f 137/137/137 138/138/138 148/148/148
f 138/138/138 149/149/149 148/148/148
f 138/138/138 139/139/139 149/149/149
f 139/139/139 150/150/150 149/149/149
f 139/139/139 140/140/140 150/150/150
f 140/140/140 151/151/151 150/150/150
f 140/140/140 141/141/141 151/151/151
f 141/141/141 152/152/152 151/151/151
f 141/141/141 142/142/142 152/152/152
f 142/142/142 153/153/153 152/152/152
f 142/142/142 143/143/143 153/153/153
f 143/143/143 154/154/154 153/153/153
f 144/144/144 145/145/145 155/155/155
f 145/145/145 156/156/156 155/155/155
f 145/145/145 146/146/146 156/156/156
f 146/146/146 157/157/157 156/156/156
f 146/146/146 147/147/147 157/157/157
f 147/147/147 158/158/158 157/157/157
f 147/147/147 148/148/148 158/158/158
f 148/148/148 159/159/159 158/158/158
f 148/148/148 149/149/149 159/159/159
f 149/149/149 160/160/160 159/159/159
f 149/149/149 150/150/150 160/160/160
f 150/150/150 161/161/161 160/160/160
f 150/150/150 151/151/151 161/161/161
f 151/151/151 162/162/162 161/161/161
f 151/151/151 152/152/152 162/162/162
f 152/152/152 163/163/163 162/162/162
f 152/152/152 153/153/153 163/163/163
f 153/153/153 164/164/164 163/163/163
f 153/153/153 154/154/154 164/164/164
f 154/154/154 165/165/165 164/164/164
f 155/155/155 156/156/156 166/166/166
f 156/156/156 167/167/167 166/166/166
f 156/156/156 157/157/157 167/167/167
f 157/157/157 168/168/168 167/167/167
f 157/157/157 158/158/158 168/168/168
f 158/158/158 169/169/169 168/168/168
f 158/158/158 159/159/159 169/169/169
f 159/159/159 170/170/170 169/169/169
f 159/159/159 160/160/160 170/170/170
f 160/160/160 171/171/171 170/170/170
f 160/160/160 161/161/161 171/171/171
f 161/161/161 172/172/172 171/171/171
f 161/161/161 162/162/162 172/172/172
f 162/162/162 173/173/173 172/172/172
f 162/162/162 163/163/163 173/173/173
f 163/163/163 174/174/174 173/173/173
f 163/163/163 164/164/164 174/174/174
f 164/164/164 175/175/175 174/174/174
f 164/164/164 165/165/165 175/175/175
f 165/165/165 176/176/176 175/175/175
f 166/166/166 167/167/167 177/177/177
f 167/167/167 178/178/178 177/177/177
f 167/167/167 168/168/168 178/178/178
f 168/168/168 179/179/179 178/178/178
f 168/168/168 169/169/169 179/179/179
f 169/169/169 180/180/180 179/179/179
f 169/169/169 170/170/170 180/180/180
f 170/170/170 181/181/181 180/180/180
f 170/170/170 171/171/171 181/181/181
f 171/171/171 182/182/182 181/181/181
f 171/171/171 172/172/172 182/182/182
f 172/172/172 183/183/183 182/182/182
f 172/172/172 173/173/173 183/183/183
f 173/173/173 184/184/184 183/183/183
f 173/173/173 174/174/174 184/184/184
f 174/174/174 185/185/185 184/184/184
f 174/174/174 175/175/175 185/185/185
f 175/175/175 186/186/186 185/185/185
f 175/175/175 176/176/176 186/186/186
f 176/176/176 187/187/187 186/186/186
f 177/177/177 178/178/178 188/188/188
f 178/178/178 189/189/189 188/188/188
f 178/178/178 179/179/179 189/189/189
f 179/179/179 190/190/190 189/189/189
f 179/179/179 180/180/180 190/190/190
f 180/180/180 191/191/191 190/190/190
f 180/180/180 181/181/181 191/191/191
f 181/181/181 192/192/192 191/191/191
f 181/181/181 182/182/182 192/192/192
f 182/182/182 193/193/193 192/192/192
f 182/182/182 183/183/183 193/193/193
f 183/183/183 194/194/194 193/193/193
f 183/183/183 184/184/184 194/194/194
f 184/184/184 195/195/195 194/194/194
f 184/184/184 185/185/185 195/195/195
f 185/185/185 196/196/196 195/195/195
f 185/185/185 186/186/186 196/196/196
f 186/186/186 197/197/197 196/196/196
f 186/186/186 187/187/187 197/197/197
f 187/187/187 198/198/198 197/197/197
f 188/188/188 189/189/189 199/199/199
f 189/189/189 200/200/200 199/199/199
f 189/189/189 190/190/190 200/200/200
f 190/190/190 201/201/201 200/200/200
f 190/190/190 191/191/191 201/201/201
f 191/191/191 202/202/202 201/201/201
f 191/191/191 192/192/192 202/202/202
f 192/192/192 203/203/203 202/202/202
f 192/192/192 193/193/193 203/203/203
f 193/193/193 204/204/204 203/203/203
f 193/193/193 194/194/194 204/204/204
f 194/194/194 205/205/205 204/204/204
f 194/194/194 195/195/195 205/205/205
f 195/195/195 206/206/206 205/205/205
f 195/195/195 196/196/196 206/206/206
f 196/196/196 207/207/207 206/206/206
f 196/196/196 197/197/197 207/207/207
f 197/197/197 208/208/208 207/207/207
f 197/197/197 198/198/198 208/208/208
f 198/198/198 209/209/209 208/208/208
f 199/199/199 200/200/200 210/210/210
f 200/200/200 211/211/211 210/210/210
f 200/200/200 201/201/201 211/211/211
f 201/201/201 212/212/212 211/211/211
f 201/201/201 202/202/202 212/212/212
f 202/202/202 213/213/213 212/212/212
f 202/202/202 203/203/203 213/213/213
f 203/203/203 214/214/214 213/213/213
f 203/203/203 204/204/204 214/214/214
f 204/204/204 215/215/215 214/214/214
f 204/204/204 205/205/205 215/215/215
f 205/205/205 216/216/216 215/215/215
f 205/205/205 206/206/206 216/216/216
f 206/206/206 217/217/217 216/216/216
f 206/206/206 207/207/207 217/217/217
f 207/207/207 218/218/218 217/217/217
f 207/207/207 208/208/208 218/218/218
f 208/208/208 219/219/219 218/218/218
f 208/208/208 209/209/209 219/219/219
f 209/209/209 220/220/220 219/219/219
f 210/210/210 211/211/211 221/221/221
f 211/211/211 222/222/222 221/221/221
f 211/211/211 212/212/212 222/222/222
f 212/212/212 223/223/223 222/222/222
f 212/212/212 213/213/213 223/223/223
f 213/213/213 224/224/224 223/223/223
f 213/213/213 214/214/214 224/224/224
f 214/214/214 225/225/225 224/224/224
f 214/214/214 215/215/215 225/225/225
f 215/215/215 226/226/226 225/225/225
f 215/215/215 216/216/216 226/226/226
f 216/216/216 227/227/227 226/226/226
f 216/216/216 217/217/217 227/227/227
f 217/217/217 228/228/228 227/227/227
f 217/217/217 218/218/218 228/228/228
f 218/218/218 229/229/229 228/228/228
f 218/218/218 219/219/219 229/229/229
f 219/219/219 230/230/230 229/229/229
f 219/219/219 220/220/220 230/230/230
f 220/220/220 231/231/231 230/230/230
f 221/221/221 222/222/222 232/232/232
f 222/222/222 233/233/233 232/232/232
f 222/222/222 223/223/223 233/233/233
f 223/223/223 234/234/234 233/233/233
f 223/223/223 224/224/224 234/234/234
f 224/224/224 235/235/235 234/234/234
f 224/224/224 225/225/225 235/235/235
f 225/225/225 236/236/236 235/235/235
f 225/225/225 226/226/226 236/236/236
f 226/226/226 237/237/237 236/236/236
f 226/226/226 227/227/227 237/237/237
f 227/227/227 238/238/238 237/237/237
f 227/227/227 228/228/228 238/238/238
f 228/228/228 239/239/239 238/238/238
f 228/228/228 229/229/229 239/239/239
f 229/229/229 240/240/240 239/239/239
f 229/229/229 230/230/230 240/240/240
f 230/230/230 241/241/241 240/240/240
f 230/230/230 231/231/231 241/241/241
f 231/231/231 242/242/242 241/241/241
f 232/232/232 233/233/233 243/243/243
f 233/233/233 244/244/244 243/243/243
f 233/233/233 234/234/234 244/244/244
f 234/234/234 245/245/245 244/244/244
f 234/234/234 235/235/235 245/245/245
f 235/235/235 246/246/246 245/245/245
f 235/235/235 236/236/236 246/246/246
f 236/236/236 247/247/247 246/246/246
f 236/236/236 237/237/237 247/247/247
f 237/237/237 248/248/248 247/247/247
f 237/237/237 238/238/238 248/248/248
f 238/238/238 249/249/249 248/248/248
f 238/238/238 239/239/239 249/249/249
f 239/239/239 250/250/250 249/249/249
f 239/239/239 240/240/240 250/250/250
f 240/240/240 251/251/251 250/250/250
f 240/240/240 241/241/241 251/251/251
f 241/241/241 252/252/252 251/251/251
f 241/241/241 242/242/242 252/252/252
f 242/242/242 253/253/253 252/252/252
f 243/243/243 244/244/244 254/254/254
f 244/244/244 255/255/255 254/254/254
f 244/244/244 245/245/245 255/255/255
f 245/245/245 256/256/256 255/255/255
f 245/245/245 246/246/246 256/256/256
f 246/246/246 257/257/257 256/256/256
f 246/246/246 247/247/247 257/257/257
f 247/247/247 258/258/258 257/257/257
f 247/247/247 248/248/248 258/258/258
f 248/248/248 259/259/259 258/258/258
f 248/248/248 249/249/249 259/259/259
f 249/249/249 260/260/260 259/259/259
f 249/249/249 250/250/250 260/260/260
f 250/250/250 261/261/261 260/260/260
f 250/250/250 251/251/251 261/261/261
f 251/251/251 262/262/262 261/261/261
f 251/251/251 252/252/252 262/262/262
f 252/252/252 263/263/263 262/262/262
f 252/252/252 253/253/253 263/263/263
f 253/253/253 264/264/264 263/263/263
f 254/254/254 255/255/255 265/265/265
f 255/255/255 266/266/266 265/265/265
f 255/255/255 256/256/256 266/266/266
f 256/256/256 267/267/267 266/266/266
f 256/256/256 257/257/257 267/267/267
f 257/257/257 268/268/268 267/267/267
f 257/257/257 258/258/258 268/268/268
f 258/258/258 269/269/269 268/268/268
f 258/258/258 259/259/259 269/269/269
f 259/259/259 270/270/270 269/269/269
f 259/259/259 260/260/260 270/270/270
f 260/260/260 271/271/271 270/270/270
f 260/260/260 261/261/261 271/271/271
f 261/261/261 272/272/272 271/271/271
f 261/261/261 262/262/262 272/272/272
f 262/262/262 273/273/273 272/272/272
f 262/262/262 263/263/263 273/273/273
f 263/263/263 274/274/274 273/273/273
f 263/263/263 264/264/264 274/274/274
f 264/264/264 275/275/275 274/274/274
f 265/265/265 266/266/266 276/276/276
f 266/266/266 277/277/277 276/276/276
f 266/266/266 267/267/267 277/277/277
f 267/267/267 278/278/278 277/277/277
f 267/267/267 268/268/268 278/278/278
f 268/268/268 279/279/279 278/278/278
f 268/268/268 269/269/269 279/279/279
f 269/269/269 280/280/280 279/279/279
f 269/269/269 270/270/270 280/280/280
f 270/270/270 281/281/281 280/280/280
f 270/270/270 271/271/271 281/281/281
f 271/271/271 282/282/282 281/281/281
f 271/271/271 272/272/272 282/282/282
f 272/272/272 283/283/283 282/282/282
f 272/272/272 273/273/273 283/283/283
f 273/273/273 284/284/284 283/283/283
f 273/273/273 274/274/274 284/284/284
f 274/274/274 285/285/285 284/284/284
f 274/274/274 275/275/275 285/285/285
f 275/275/275 286/286/286 285/285/285
f 276/276/276 277/277/277 287/287/287
f 277/277/277 288/288/288 287/287/287
f 277/277/277 278/278/278 288/288/288
f 278/278/278 289/289/289 288/288/288
f 278/278/278 279/279/279 289/289/289
f 279/279/279 290/290/290 289/289/289
f 279/279/279 280/280/280 290/290/290
f 280/280/280 291/291/291 290/290/290
f 280/280/280 281/281/281 291/291/291
f 281/281/281 292/292/292 291/291/291
f 281/281/281 282/282/282 292/292/292
f 282/282/282 293/293/293 292/292/292
f 282/282/282 283/283/283 293/293/293
f 283/283/283 294/294/294 293/293/293
f 283/283/283 284/284/284 294/294/294
f 284/284/284 295/295/295 294/294/294
f 284/284/284 285/285/285 295/295/295
f 285/285/285 296/296/296 295/295/295
f 285/285/285 286/286/286 296/296/296
f 286/286/286 297/297/297 296/296/296
f 287/287/287 288/288/288 298/298/298
f 288/288/288 299/299/299 298/298/298
f 288/288/288 289/289/289 299/299/299
f 289/289/289 300/300/300 299/299/299
f 289/289/289 290/290/290 300/300/300
f 290/290/290 301/301/301 300/300/300
f 290/290/290 291/291/291 301/301/301
f 291/291/291 302/302/302 301/301/301
f 291/291/291 292/292/292 302/302/302
f 292/292/292 303/303/303 302/302/302
f 292/292/292 293/293/293 303/303/303
f 293/293/293 304/304/304 303/303/303
f 293/293/293 294/294/294 304/304/304
f 294/294/294 305/305/305 304/304/304
f 294/294/294 295/295/295 305/305/305
f 295/295/295 306/306/306 305/305/305
f 295/295/295 296/296/296 306/306/306
f 296/296/296 307/307/307 306/306/306
f 296/296/296 297/297/297 307/307/307
f 297/297/297 308/308/308 307/307/307
f 298/298/298 299/299/299 309/309/309
f 299/299/299 310/310/310 309/309/309
f 299/299/299 300/300/300 310/310/310
f 300/300/300 311/311/311 310/310/310
f 300/300/300 301/301/301 311/311/311
f 301/301/301 312/312/312 311/311/311
f 301/301/301 302/302/302 312/312/312
f 302/302/302 313/313/313 312/312/312
f 302/302/302 303/303/303 313/313/313
f 303/303/303 314/314/314 313/313/313
f 303/303/303 304/304/304 314/314/314
f 304/304/304 315/315/315 314/314/314
f 304/304/304 305/305/305 315/315/315
f 305/305/305 316/316/316 315/315/315
f 305/305/305 306/306/306 316/316/316
f 306/306/306 317/317/317 316/316/316
f 306/306/306 307/307/307 317/317/317
f 307/307/307 318/318/318 317/317/317
f 307/307/307 308/308/308 318/318/318
f 308/308/308 319/319/319 318/318/318
f 309/309/309 310/310/310 320/320/320
f 310/310/310 321/321/321 320/320/320
f 310/310/310 311/311/311 321/321/321
f 311/311/311 322/322/322 321/321/321
f 311/311/311 312/312/312 322/322/322
f 312/312/312 323/323/323 322/322/322
f 312/312/312 313/313/313 323/323/323
f 313/313/313 324/324/324 323/323/323
f 313/313/313 314/314/314 324/324/324
f 314/314/314 325/325/325 324/324/324
f 314/314/314 315/315/315 325/325/325
f 315/315/315 326/326/326 325/325/325
f 315/315/315 316/316/316 326/326/326
f 316/316/316 327/327/327 326/326/326
f 316/316/316 317/317/317 327/327/327
f 317/317/317 328/328/328 327/327/327
f 317/317/317 318/318/318 328/328/328
f 318/318/318 329/329/329 328/328/328
f 318/318/318 319/319/319 329/329/329
f 319/319/319 330/330/330 329/329/329
f 320/320/320 321/321/321 331/331/331
f 321/321/321 332/332/332 331/331/331
f 321/321/321 322/322/322 332/332/332
f 322/322/322 333/333/333 332/332/332
f 322/322/322 323/323/323 333/333/333
f 323/323/323 334/334/334 333/333/333
f 323/323/323 324/324/324 334/334/334
f 324/324/324 335/335/335 334/334/334
f 324/324/324 325/325/325 335/335/335
f 325/325/325 336/336/336 335/335/335
f 325/325/325 326/326/326 336/336/336
f 326/326/326 337/337/337 336/336/336
f 326/326/326 327/327/327 337/337/337
f 327/327/327 338/338/338 337/337/337
f 327/327/327 328/328/328 338/338/338
f 328/328/328 339/339/339 338/338/338
f 328/328/328 329/329/329 339/339/339
f 329/329/329 340/340/340 339/339/339
f 329/329/329 330/330/330 340/340/340
f 330/330/330 341/341/341 340/340/340
f 331/331/331 332/332/332 342/342/342
f 332/332/332 343/343/343 342/342/342
f 332/332/332 333/333/333 343/343/343
f 333/333/333 344/344/344 343/343/343
f 333/333/333 334/334/334 344/344/344
f 334/334/334 345/345/345 344/344/344
f 334/334/334 335/335/335 345/345/345
f 335/335/335 346/346/346 345/345/345
f 335/335/335 336/336/336 346/346/346
f 336/336/336 347/347/347 346/346/346
f 336/336/336 337/337/337 347/347/347
f 337/337/337 348/348/348 347/347/347
f 337/337/337 338/338/338 348/348/348
f 338/338/338 349/349/349 348/348/348
f 338/338/338 339/339/339 349/349/349
f 339/339/339 350/350/350 349/349/349
f 339/339/339 340/340/340 350/350/350
f 340/340/340 351/351/351 350/350/350
f 340/340/340 341/341/341 351/351/351
f 341/341/341 352/352/352 351/351/351
f 342/342/342 343/343/343 353/353/353
f 343/343/343 354/354/354 353/353/353
f 343/343/343 344/344/344 354/354/354
f 344/344/344 355/355/355 354/354/354
f 344/344/344 345/345/345 355/355/355
f 345/345/345 356/356/356 355/355/355
f 345/345/345 346/346/346 356/356/356
f 346/346/346 357/357/357 356/356/356
f 346/346/346 347/347/347 357/357/357
f 347/347/347 358/358/358 357/357/357
f 347/347/347 348/348/348 358/358/358
f 348/348/348 359/359/359 358/358/358
f 348/348/348 349/349/349 359/359/359
f 349/349/349 360/360/360 359/359/359
f 349/349/349 350/350/350 360/360/360
f 350/350/350 361/361/361 360/360/360
f 350/350/350 351/351/351 361/361/361
f 351/351/351 362/362/362 361/361/361
f 351/351/351 352/352/352 362/362/362
f 352/352/352 363/363/363 362/362/362
f 353/353/353 354/354/354 364/364/364
f 354/354/354 365/365/365 364/364/364
f 354/354/354 355/355/355 365/365/365
f 355/355/355 366/366/366 365/365/365
f 355/355/355 356/356/356 366/366/366
f 356/356/356 367/367/367 366/366/366
f 356/356/356 357/357/357 367/367/367
f 357/357/357 368/368/368 367/367/367
f 357/357/357 358/358/358 368/368/368
f 358/358/358 369/369/369 368/368/368
f 358/358/358 359/359/359 369/369/369
f 359/359/359 370/370/370 369/369/369
f 359/359/359 360/360/360 370/370/370
f 360/360/360 371/371/371 370/370/370
f 360/360/360 361/361/361 371/371/371
f 361/361/361 372/372/372 371/371/371
f 361/361/361 362/362/362 372/372/372
f 362/362/362 373/373/373 372/372/372
f 362/362/362 363/363/363 373/373/373
f 363/363/363 374/374/374 373/373/373
f 364/364/364 365/365/365 375/375/375
f 365/365/365 376/376/376 375/375/375
f 365/365/365 366/366/366 376/376/376
f 366/366/366 377/377/377 376/376/376
f 366/366/366 367/367/367 377/377/377
f 367/367/367 378/378/378 377/377/377
f 367/367/367 368/368/368 378/378/378
f 368/368/368 379/379/379 378/378/378
f 368/368/368 369/369/369 379/379/379
f 369/369/369 380/380/380 379/379/379
f 369/369/369 370/370/370 380/380/380
f 370/370/370 381/381/381 380/380/380
f 370/370/370 371/371/371 381/381/381
f 371/371/371 382/382/382 381/381/381
f 371/371/371 372/372/372 382/382/382
f 372/372/372 383/383/383 382/382/382
f 372/372/372 373/373/373 383/383/383
f 373/373/373 384/384/384 383/383/383
f 373/373/373 374/374/374 384/384/384
f 374/374/374 385/385/385 384/384/384
f 375/375/375 376/376/376 386/386/386
f 376/376/376 387/387/387 386/386/386
f 376/376/376 377/377/377 387/387/387
f 377/377/377 388/388/388 387/387/387
f 377/377/377 378/378/378 388/388/388
f 378/378/378 389/389/389 388/388/388
f 378/378/378 379/379/379 389/389/389
f 379/379/379 390/390/390 389/389/389
f 379/379/379 380/380/380 390/390/390
f 380/380/380 391/391/391 390/390/390
f 380/380/380 381/381/381 391/391/391
f 381/381/381 392/392/392 391/391/391
f 381/381/381 382/382/382 392/392/392
f 382/382/382 393/393/393 392/392/392
f 382/382/382 383/383/383 393/393/393
f 383/383/383 394/394/394 393/393/393
f 383/383/383 384/384/384 394/394/394
f 384/384/384 395/395/395 394/394/394
f 384/384/384 385/385/385 395/395/395
f 385/385/385 396/396/396 395/395/395
f 386/386/386 387/387/387 397/397/397
f 387/387/387 398/398/398 397/397/397
f 387/387/387 388/388/388 398/398/398
f 388/388/388 399/399/399 398/398/398
f 388/388/388 389/389/389 399/399/399
f 389/389/389 400/400/400 399/399/399
f 389/389/389 390/390/390 400/400/400
f 390/390/390 401/401/401 400/400/400
f 390/390/390 391/391/391 401/401/401
f 391/391/391 402/402/402 401/401/401
f 391/391/391 392/392/392 402/402/402
f 392/392/392 403/403/403 402/402/402
f 392/392/392 393/393/393 403/403/403
f 393/393/393 404/404/404 403/403/403
f 393/393/393 394/394/394 404/404/404
f 394/394/394 405/405/405 404/404/404
f 394/394/394 395/395/395 405/405/405
f 395/395/395 406/406/406 405/405/405
f 395/395/395 396/396/396 406/406/406
f 396/396/396 407/407/407 406/406/406
f 397/397/397 398/398/398 408/408/408
f 398/398/398 409/409/409 408/408/408
f 398/398/398 399/399/399 409/409/409
f 399/399/399 410/410/410 409/409/409
f 399/399/399 400/400/400 410/410/410
f 400/400/400 411/411/411 410/410/410
f 400/400/400 401/401/401 411/411/411
f 401/401/401 412/412/412 411/411/411
f 401/401/401 402/402/402 412/412/412
f 402/402/402 413/413/413 412/412/412
f 402/402/402 403/403/403 413/413/413
f 403/403/403 414/414/414 413/413/413
f 403/403/403 404/404/404 414/414/414
f 404/404/404 415/415/415 414/414/414
f 404/404/404 405/405/405 415/415/415
f 405/405/405 416/416/416 415/415/415
f 405/405/405 406/406/406 416/416/416
f 406/406/406 417/417/417 416/416/416
f 406/406/406 407/407/407 417/417/417
f 407/407/407 418/418/418 417/417/417
f 408/408/408 409/409/409 419/419/419
f 409/409/409 420/420/420 419/419/419
f 409/409/409 410/410/410 420/420/420
f 410/410/410 421/421/421 420/420/420
f 410/410/410 411/411/411 421/421/421
f 411/411/411 422/422/422 421/421/421
f 411/411/411 412/412/412 422/422/422
f 412/412/412 423/423/423 422/422/422
f 412/412/412 413/413/413 423/423/423
f 413/413/413 424/424/424 423/423/423
f 413/413/413 414/414/414 424/424/424
f 414/414/414 425/425/425 424/424/424
f 414/414/414 415/415/415 425/425/425
f 415/415/415 426/426/426 425/425/425
f 415/415/415 416/416/416 426/426/426
f 416/416/416 427/427/427 426/426/426
f 416/416/416 417/417/417 427/427/427
f 417/417/417 428/428/428 427/427/427
f 417/417/417 418/418/418 428/428/428
f 418/418/418 429/429/429 428/428/428
f 419/419/419 420/420/420 430/430/430
f 420/420/420 431/431/431 430/430/430
f 420/420/420 421/421/421 431/431/431
f 421/421/421 432/432/432 431/431/431
f 421/421/421 422/422/422 432/432/432
f 422/422/422 433/433/433 432/432/432
f 422/422/422 423/423/423 433/433/433
f 423/423/423 434/434/434 433/433/433
f 423/423/423 424/424/424 434/434/434
f 424/424/424 435/435/435 434/434/434
f 424/424/424 425/425/425 435/435/435
f 425/425/425 436/436/436 435/435/435
f 425/425/425 426/426/426 436/436/436
f 426/426/426 437/437/437 436/436/436
f 426/426/426 427/427/427 437/437/437
f 427/427/427 438/438/438 437/437/437
f 427/427/427 428/428/428 438/438/438
f 428/428/428 439/439/439 438/438/438
f 428/428/428 429/429/429 439/439/439
f 429/429/429 440/440/440 439/439/439
f 430/430/430 431/431/431 441/441/441
f 431/431/431 442/442/442 441/441/441
f 431/431/431 432/432/432 442/442/442
f 432/432/432 443/443/443 442/442/442
f 432/432/432 433/433/433 443/443/443
f 433/433/433 444/444/444 443/443/443
f 433/433/433 434/434/434 444/444/444
f 434/434/434 445/445/445 444/444/444
f 434/434/434 435/435/435 445/445/445
f 435/435/435 446/446/446 445/445/445
f 435/435/435 436/436/436 446/446/446
f 436/436/436 447/447/447 446/446/446
f 436/436/436 437/437/437 447/447/447
f 437/437/437 448/448/448 447/447/447
f 437/437/437 438/438/438 448/448/448
f 438/438/438 449/449/449 448/448/448
f 438/438/438 439/439/439 449/449/449
f 439/439/439 450/450/450 449/449/449
f 439/439/439 440/440/440 450/450/450
f 440/440/440 451/451/451 450/450/450
f 441/441/441 442/442/442 452/452/452
f 442/442/442 453/453/453 452/452/452
f 442/442/442 443/443/443 453/453/453
f 443/443/443 454/454/454 453/453/453
f 443/443/443 444/444/444 454/454/454
f 444/444/444 455/455/455 454/454/454
f 444/444/444 445/445/445 455/455/455
f 445/445/445 456/456/456 455/455/455
f 445/445/445 446/446/446 456/456/456
f 446/446/446 457/457/457 456/456/456
f 446/446/446 447/447/447 457/457/457
f 447/447/447 458/458/458 457/457/457
f 447/447/447 448/448/448 458/458/458
f 448/448/448 459/459/459 458/458/458
f 448/448/448 449/449/449 459/459/459
f 449/449/449 460/460/460 459/459/459
f 449/449/449 450/450/450 460/460/460
f 450/450/450 461/461/461 460/460/460
f 450/450/450 451/451/451 461/461/461
f 451/451/451 462/462/462 461/461/461
f 452/452/452 453/453/453 463/463/463
f 453/453/453 464/464/464 463/463/463
f 453/453/453 454/454/454 464/464/464
f 454/454/454 465/465/465 464/464/464
f 454/454/454 455/455/455 465/465/465
f 455/455/455 466/466/466 465/465/465
f 455/455/455 456/456/456 466/466/466
f 456/456/456 467/467/467 466/466/466
f 456/456/456 457/457/457 467/467/467
f 457/457/457 468/468/468 467/467/467
f 457/457/457 458/458/458 468/468/468
f 458/458/458 469/469/469 468/468/468
f 458/458/458 459/459/459 469/469/469
f 459/459/459 470/470/470 469/469/469
f 459/459/459 460/460/460 470/470/470
f 460/460/460 471/471/471 470/470/470
f 460/460/460 461/461/461 471/471/471
f 461/461/461 472/472/472 471/471/471
f 461/461/461 462/462/462 472/472/472
f 462/462/462 473/473/473 472/472/472
f 463/463/463 464/464/464 474/474/474
f 464/464/464 475/475/475 474/474/474
f 464/464/464 465/465/465 475/475/475
f 465/465/465 476/476/476 475/475/475
f 465/465/465 466/466/466 476/476/476
f 466/466/466 477/477/477 476/476/476
f 466/466/466 467/467/467 477/477/477
f 467/467/467 478/478/478 477/477/477
f 467/467/467 468/468/468 478/478/478
f 468/468/468 479/479/479 478/478/478
f 468/468/468 469/469/469 479/479/479
f 469/469/469 480/480/480 479/479/479
f 469/469/469 470/470/470 480/480/480
f 470/470/470 481/481/481 480/480/480
f 470/470/470 471/471/471 481/481/481
f 471/471/471 482/482/482 481/481/481
f 471/471/471 472/472/472 482/482/482
f 472/472/472 483/483/483 482/482/482
f 472/472/472 473/473/473 483/483/483
f 473/473/473 484/484/484 483/483/483
f 474/474/474 475/475/475 485/485/485
f 475/475/475 486/486/486 485/485/485
f 475/475/475 476/476/476 486/486/486
f 476/476/476 487/487/487 486/486/486
f 476/476/476 477/477/477 487/487/487
f 477/477/477 488/488/488 487/487/487
f 477/477/477 478/478/478 488/488/488
f 478/478/478 489/489/489 488/488/488
f 478/478/478 479/479/479 489/489/489
f 479/479/479 490/490/490 489/489/489
f 479/479/479 480/480/480 490/490/490
f 480/480/480 491/491/491 490/490/490
f 480/480/480 481/481/481 491/491/491
f 481/481/481 492/492/492 491/491/491
f 481/481/481 482/482/482 492/492/492
f 482/482/482 493/493/493 492/492/492
f 482/482/482 483/483/483 493/493/493
f 483/483/483 494/494/494 493/493/493
f 483/483/483 484/484/484 494/494/494
f 484/484/484 495/495/495 494/494/494
f 485/485/485 486/486/486 496/496/496
f 486/486/486 497/497/497 496/496/496
f 486/486/486 487/487/487 497/497/497
f 487/487/487 498/498/498 497/497/497
f 487/487/487 488/488/488 498/498/498
f 488/488/488 499/499/499 498/498/498
f 488/488/488 489/489/489 499/499/499
f 489/489/489 500/500/500 499/499/499
f 489/489/489 490/490/490 500/500/500
f 490/490/490 501/501/501 500/500/500
f 490/490/490 491/491/491 501/501/501
f 491/491/491 502/502/502 501/501/501
f 491/491/491 492/492/492 502/502/502
f 492/492/492 503/503/503 502/502/502
f 492/492/492 493/493/493 503/503/503
f 493/493/493 504/504/504 503/503/503
f 493/493/493 494/494/494 504/504/504
f 494/494/494 505/505/505 504/504/504
f 494/494/494 495/495/495 505/505/505
f 495/495/495 506/506/506 505/505/505
f 496/496/496 497/497/497 507/507/507
f 497/497/497 508/508/508 507/507/507
f 497/497/497 498/498/498 508/508/508
f 498/498/498 509/509/509 508/508/508
f 498/498/498 499/499/499 509/509/509
f 499/499/499 510/510/510 509/509/509
f 499/499/499 500/500/500 510/510/510
f 500/500/500 511/511/511 510/510/510
f 500/500/500 501/501/501 511/511/511
f 501/501/501 512/512/512 511/511/511
f 501/501/501 502/502/502 512/512/512
f 502/502/502 513/513/513 512/512/512
f 502/502/502 503/503/503 513/513/513
f 503/503/503 514/514/514 513/513/513
f 503/503/503 504/504/504 514/514/514
f 504/504/504 515/515/515 514/514/514
f 504/504/504 505/505/505 515/515/515
f 505/505/505 516/516/516 515/515/515
f 505/505/505 506/506/506 516/516/516
f 506/506/506 517/517/517 516/516/516
f 507/507/507 508/508/508 518/518/518
f 508/508/508 519/519/519 518/518/518
f 508/508/508 509/509/509 519/519/519
f 509/509/509 520/520/520 519/519/519
f 509/509/509 510/510/510 520/520/520
f 510/510/510 521/521/521 520/520/520
f 510/510/510 511/511/511 521/521/521
f 511/511/511 522/522/522 521/521/521
f 511/511/511 512/512/512 522/522/522
f 512/512/512 523/523/523 522/522/522
f 512/512/512 513/513/513 523/523/523
f 513/513/513 524/524/524 523/523/523
f 513/513/513 514/514/514 524/524/524
f 514/514/514 525/525/525 524/524/524
f 514/514/514 515/515/515 525/525/525
f 515/515/515 526/526/526 525/525/525
f 515/515/515 516/516/516 526/526/526
f 516/516/516 527/527/527 526/526/526
f 516/516/516 517/517/517 527/527/527
f 517/517/517 528/528/528 527/527/527
f 518/518/518 519/519/519 529/529/529
f 519/519/519 530/530/530 529/529/529
f 519/519/519 520/520/520 530/530/530
f 520/520/520 531/531/531 530/530/530
f 520/520/520 521/521/521 531/531/531
f 521/521/521 532/532/532 531/531/531
f 521/521/521 522/522/522 532/532/532
f 522/522/522 533/533/533 532/532/532
f 522/522/522 523/523/523 533/533/533
f 523/523/523 534/534/534 533/533/533
f 523/523/523 524/524/524 534/534/534
f 524/524/524 535/535/535 534/534/534
f 524/524/524 525/525/525 535/535/535
f 525/525/525 536/536/536 535/535/535
f 525/525/525 526/526/526 536/536/536
f 526/526/526 537/537/537 536/536/536
f 526/526/526 527/527/527 537/537/537
f 527/527/527 538/538/538 537/537/537
f 527/527/527 528/528/528 538/538/538
f 528/528/528 539/539/539 538/538/538
