# Sancta editable mesh extracted from the approved reference, cm, Z up
v 0.0 113.0 0.0
v 0.0 104.398382 43.2432264
v 0.0 79.9030662 79.9030662
v 0.0 43.2432264 104.398382
v 0.0 6.91925465e-15 113.0
v 0.0 -43.2432264 104.398382
v 0.0 -79.9030662 79.9030662
v 0.0 -104.398382 43.2432264
v 0.0 -113.0 1.38385093e-14
v 0.0 -104.398382 -43.2432264
v 0.0 -79.9030662 -79.9030662
v 0.0 -43.2432264 -104.398382
v 0.0 -2.07577626e-14 -113.0
v 0.0 43.2432264 -104.398382
v 0.0 79.9030662 -79.9030662
v 0.0 104.398382 -43.2432264
v 0.0 113.0 -2.76770186e-14
v -11.2583302 106.500006 0.0
v -11.2583302 98.393172 40.7557845
v -11.2583302 75.3068745 75.3068745
v -11.2583302 40.7557845 98.393172
v -11.2583302 6.52124446e-15 106.500006
v -11.2583302 -40.7557845 98.393172
v -11.2583302 -75.3068745 75.3068745
v -11.2583302 -98.393172 40.7557845
v -11.2583302 -106.500006 1.30424889e-14
v -11.2583302 -98.393172 -40.7557845
v -11.2583302 -75.3068745 -75.3068745
v -11.2583302 -40.7557845 -98.393172
v -11.2583302 -1.9563732e-14 -106.500006
v -11.2583302 40.7557845 -98.393172
v -11.2583302 75.3068745 -75.3068745
v -11.2583302 98.393172 -40.7557845
v -11.2583302 106.500006 -2.60849778e-14
v -11.2583302 93.5000002 0.0
v -11.2583302 86.3827348 35.7809007
v -11.2583302 66.1144853 66.1144853
v -11.2583302 35.7809007 86.3827348
v -11.2583302 5.72522407e-15 93.5000002
v -11.2583302 -35.7809007 86.3827348
v -11.2583302 -66.1144853 66.1144853
v -11.2583302 -86.3827348 35.7809007
v -11.2583302 -93.5000002 1.14504481e-14
v -11.2583302 -86.3827348 -35.7809007
v -11.2583302 -66.1144853 -66.1144853
v -11.2583302 -35.7809007 -86.3827348
v -11.2583302 -1.71756709e-14 -93.5000002
v -11.2583302 35.7809007 -86.3827348
v -11.2583302 66.1144853 -66.1144853
v -11.2583302 86.3827348 -35.7809007
v -11.2583302 93.5000002 -2.29008963e-14
v -1.59204078e-15 87.0000005 0.0
v -1.59204078e-15 80.3775191 33.2934588
v -1.59204078e-15 61.5182877 61.5182877
v -1.59204078e-15 33.2934588 80.3775191
v -1.59204078e-15 5.32721354e-15 87.0000005
v -1.59204078e-15 -33.2934588 80.3775191
v -1.59204078e-15 -61.5182877 61.5182877
v -1.59204078e-15 -80.3775191 33.2934588
v -1.59204078e-15 -87.0000005 1.06544271e-14
v -1.59204078e-15 -80.3775191 -33.2934588
v -1.59204078e-15 -61.5182877 -61.5182877
v -1.59204078e-15 -33.2934588 -80.3775191
v -1.59204078e-15 -1.59816403e-14 -87.0000005
v -1.59204078e-15 33.2934588 -80.3775191
v -1.59204078e-15 61.5182877 -61.5182877
v -1.59204078e-15 80.3775191 -33.2934588
v -1.59204078e-15 87.0000005 -2.13088542e-14
v 11.2583302 93.5000002 0.0
v 11.2583302 86.3827348 35.7809007
v 11.2583302 66.1144853 66.1144853
v 11.2583302 35.7809007 86.3827348
v 11.2583302 5.72522407e-15 93.5000002
v 11.2583302 -35.7809007 86.3827348
v 11.2583302 -66.1144853 66.1144853
v 11.2583302 -86.3827348 35.7809007
v 11.2583302 -93.5000002 1.14504481e-14
v 11.2583302 -86.3827348 -35.7809007
v 11.2583302 -66.1144853 -66.1144853
v 11.2583302 -35.7809007 -86.3827348
v 11.2583302 -1.71756709e-14 -93.5000002
v 11.2583302 35.7809007 -86.3827348
v 11.2583302 66.1144853 -66.1144853
v 11.2583302 86.3827348 -35.7809007
v 11.2583302 93.5000002 -2.29008963e-14
v 11.2583302 106.500006 0.0
v 11.2583302 98.393172 40.7557845
v 11.2583302 75.3068745 75.3068745
v 11.2583302 40.7557845 98.393172
v 11.2583302 6.52124446e-15 106.500006
v 11.2583302 -40.7557845 98.393172
v 11.2583302 -75.3068745 75.3068745
v 11.2583302 -98.393172 40.7557845
v 11.2583302 -106.500006 1.30424889e-14
v 11.2583302 -98.393172 -40.7557845
v 11.2583302 -75.3068745 -75.3068745
v 11.2583302 -40.7557845 -98.393172
v 11.2583302 -1.9563732e-14 -106.500006
v 11.2583302 40.7557845 -98.393172
v 11.2583302 75.3068745 -75.3068745
v 11.2583302 98.393172 -40.7557845
v 11.2583302 106.500006 -2.60849778e-14
v 3.18408155e-15 113.0 0.0
v 3.18408155e-15 104.398382 43.2432264
v 3.18408155e-15 79.9030662 79.9030662
v 3.18408155e-15 43.2432264 104.398382
v 3.18408155e-15 6.91925465e-15 113.0
v 3.18408155e-15 -43.2432264 104.398382
v 3.18408155e-15 -79.9030662 79.9030662
v 3.18408155e-15 -104.398382 43.2432264
v 3.18408155e-15 -113.0 1.38385093e-14
v 3.18408155e-15 -104.398382 -43.2432264
v 3.18408155e-15 -79.9030662 -79.9030662
v 3.18408155e-15 -43.2432264 -104.398382
v 3.18408155e-15 -2.07577626e-14 -113.0
v 3.18408155e-15 43.2432264 -104.398382
v 3.18408155e-15 79.9030662 -79.9030662
v 3.18408155e-15 104.398382 -43.2432264
v 3.18408155e-15 113.0 -2.76770186e-14
vt 0.0 1.0
vn 0.0 1.0 0.0
vt 0.0625 1.0
vn 0.0 0.923879504 0.382683426
vt 0.125 1.0
vn 0.0 0.707106769 0.707106769
vt 0.1875 1.0
vn 0.0 0.382683426 0.923879504
vt 0.25 1.0
vn 0.0 6.12323426e-17 1.0
vt 0.3125 1.0
vn 0.0 -0.382683426 0.923879504
vt 0.375 1.0
vn 0.0 -0.707106769 0.707106769
vt 0.4375 1.0
vn 0.0 -0.923879504 0.382683426
vt 0.5 1.0
vn 0.0 -1.0 1.22464685e-16
vt 0.5625 1.0
vn 0.0 -0.923879504 -0.382683426
vt 0.625 1.0
vn 0.0 -0.707106769 -0.707106769
vt 0.6875 1.0
vn 0.0 -0.382683426 -0.923879504
vt 0.75 1.0
vn 0.0 -1.83697015e-16 -1.0
vt 0.8125 1.0
vn 0.0 0.382683426 -0.923879504
vt 0.875 1.0
vn 0.0 0.707106769 -0.707106769
vt 0.9375 1.0
vn 0.0 0.923879504 -0.382683426
vt 1.0 1.0
vn 0.0 1.0 -2.44929371e-16
vt 0.0 0.833333328
vn -0.866025388 0.5 0.0
vt 0.0625 0.833333328
vn -0.866025388 0.461939752 0.191341713
vt 0.125 0.833333328
vn -0.866025388 0.353553385 0.353553385
vt 0.1875 0.833333328
vn -0.866025388 0.191341713 0.461939752
vt 0.25 0.833333328
vn -0.866025388 3.06161713e-17 0.5
vt 0.3125 0.833333328
vn -0.866025388 -0.191341713 0.461939752
vt 0.375 0.833333328
vn -0.866025388 -0.353553385 0.353553385
vt 0.4375 0.833333328
vn -0.866025388 -0.461939752 0.191341713
vt 0.5 0.833333328
vn -0.866025388 -0.5 6.12323426e-17
vt 0.5625 0.833333328
vn -0.866025388 -0.461939752 -0.191341713
vt 0.625 0.833333328
vn -0.866025388 -0.353553385 -0.353553385
vt 0.6875 0.833333328
vn -0.866025388 -0.191341713 -0.461939752
vt 0.75 0.833333328
vn -0.866025388 -9.18485073e-17 -0.5
vt 0.8125 0.833333328
vn -0.866025388 0.191341713 -0.461939752
vt 0.875 0.833333328
vn -0.866025388 0.353553385 -0.353553385
vt 0.9375 0.833333328
vn -0.866025388 0.461939752 -0.191341713
vt 1.0 0.833333328
vn -0.866025388 0.5 -1.22464685e-16
vt 0.0 0.666666657
vn -0.866025388 -0.5 0.0
vt 0.0625 0.666666657
vn -0.866025388 -0.461939752 -0.191341713
vt 0.125 0.666666657
vn -0.866025388 -0.353553385 -0.353553385
vt 0.1875 0.666666657
vn -0.866025388 -0.191341713 -0.461939752
vt 0.25 0.666666657
vn -0.866025388 -3.06161713e-17 -0.5
vt 0.3125 0.666666657
vn -0.866025388 0.191341713 -0.461939752
vt 0.375 0.666666657
vn -0.866025388 0.353553385 -0.353553385
vt 0.4375 0.666666657
vn -0.866025388 0.461939752 -0.191341713
vt 0.5 0.666666657
vn -0.866025388 0.5 -6.12323426e-17
vt 0.5625 0.666666657
vn -0.866025388 0.461939752 0.191341713
vt 0.625 0.666666657
vn -0.866025388 0.353553385 0.353553385
vt 0.6875 0.666666657
vn -0.866025388 0.191341713 0.461939752
vt 0.75 0.666666657
vn -0.866025388 9.18485073e-17 0.5
vt 0.8125 0.666666657
vn -0.866025388 -0.191341713 0.461939752
vt 0.875 0.666666657
vn -0.866025388 -0.353553385 0.353553385
vt 0.9375 0.666666657
vn -0.866025388 -0.461939752 0.191341713
vt 1.0 0.666666657
vn -0.866025388 -0.5 1.22464685e-16
vt 0.0 0.5
vn -1.22464685e-16 -1.0 0.0
vt 0.0625 0.5
vn -1.22464685e-16 -0.923879504 -0.382683426
vt 0.125 0.5
vn -1.22464685e-16 -0.707106769 -0.707106769
vt 0.1875 0.5
vn -1.22464685e-16 -0.382683426 -0.923879504
vt 0.25 0.5
vn -1.22464685e-16 -6.12323426e-17 -1.0
vt 0.3125 0.5
vn -1.22464685e-16 0.382683426 -0.923879504
vt 0.375 0.5
vn -1.22464685e-16 0.707106769 -0.707106769
vt 0.4375 0.5
vn -1.22464685e-16 0.923879504 -0.382683426
vt 0.5 0.5
vn -1.22464685e-16 1.0 -1.22464685e-16
vt 0.5625 0.5
vn -1.22464685e-16 0.923879504 0.382683426
vt 0.625 0.5
vn -1.22464685e-16 0.707106769 0.707106769
vt 0.6875 0.5
vn -1.22464685e-16 0.382683426 0.923879504
vt 0.75 0.5
vn -1.22464685e-16 1.83697015e-16 1.0
vt 0.8125 0.5
vn -1.22464685e-16 -0.382683426 0.923879504
vt 0.875 0.5
vn -1.22464685e-16 -0.707106769 0.707106769
vt 0.9375 0.5
vn -1.22464685e-16 -0.923879504 0.382683426
vt 1.0 0.5
vn -1.22464685e-16 -1.0 2.44929371e-16
vt 0.0 0.333333313
vn 0.866025388 -0.5 0.0
vt 0.0625 0.333333313
vn 0.866025388 -0.461939752 -0.191341713
vt 0.125 0.333333313
vn 0.866025388 -0.353553385 -0.353553385
vt 0.1875 0.333333313
vn 0.866025388 -0.191341713 -0.461939752
vt 0.25 0.333333313
vn 0.866025388 -3.06161713e-17 -0.5
vt 0.3125 0.333333313
vn 0.866025388 0.191341713 -0.461939752
vt 0.375 0.333333313
vn 0.866025388 0.353553385 -0.353553385
vt 0.4375 0.333333313
vn 0.866025388 0.461939752 -0.191341713
vt 0.5 0.333333313
vn 0.866025388 0.5 -6.12323426e-17
vt 0.5625 0.333333313
vn 0.866025388 0.461939752 0.191341713
vt 0.625 0.333333313
vn 0.866025388 0.353553385 0.353553385
vt 0.6875 0.333333313
vn 0.866025388 0.191341713 0.461939752
vt 0.75 0.333333313
vn 0.866025388 9.18485073e-17 0.5
vt 0.8125 0.333333313
vn 0.866025388 -0.191341713 0.461939752
vt 0.875 0.333333313
vn 0.866025388 -0.353553385 0.353553385
vt 0.9375 0.333333313
vn 0.866025388 -0.461939752 0.191341713
vt 1.0 0.333333313
vn 0.866025388 -0.5 1.22464685e-16
vt 0.0 0.166666687
vn 0.866025388 0.5 0.0
vt 0.0625 0.166666687
vn 0.866025388 0.461939752 0.191341713
vt 0.125 0.166666687
vn 0.866025388 0.353553385 0.353553385
vt 0.1875 0.166666687
vn 0.866025388 0.191341713 0.461939752
vt 0.25 0.166666687
vn 0.866025388 3.06161713e-17 0.5
vt 0.3125 0.166666687
vn 0.866025388 -0.191341713 0.461939752
vt 0.375 0.166666687
vn 0.866025388 -0.353553385 0.353553385
vt 0.4375 0.166666687
vn 0.866025388 -0.461939752 0.191341713
vt 0.5 0.166666687
vn 0.866025388 -0.5 6.12323426e-17
vt 0.5625 0.166666687
vn 0.866025388 -0.461939752 -0.191341713
vt 0.625 0.166666687
vn 0.866025388 -0.353553385 -0.353553385
vt 0.6875 0.166666687
vn 0.866025388 -0.191341713 -0.461939752
vt 0.75 0.166666687
vn 0.866025388 -9.18485073e-17 -0.5
vt 0.8125 0.166666687
vn 0.866025388 0.191341713 -0.461939752
vt 0.875 0.166666687
vn 0.866025388 0.353553385 -0.353553385
vt 0.9375 0.166666687
vn 0.866025388 0.461939752 -0.191341713
vt 1.0 0.166666687
vn 0.866025388 0.5 -1.22464685e-16
vt 0.0 0.0
vn 2.44929371e-16 1.0 0.0
vt 0.0625 0.0
vn 2.44929371e-16 0.923879504 0.382683426
vt 0.125 0.0
vn 2.44929371e-16 0.707106769 0.707106769
vt 0.1875 0.0
vn 2.44929371e-16 0.382683426 0.923879504
vt 0.25 0.0
vn 2.44929371e-16 6.12323426e-17 1.0
vt 0.3125 0.0
vn 2.44929371e-16 -0.382683426 0.923879504
vt 0.375 0.0
vn 2.44929371e-16 -0.707106769 0.707106769
vt 0.4375 0.0
vn 2.44929371e-16 -0.923879504 0.382683426
vt 0.5 0.0
vn 2.44929371e-16 -1.0 1.22464685e-16
vt 0.5625 0.0
vn 2.44929371e-16 -0.923879504 -0.382683426
vt 0.625 0.0
vn 2.44929371e-16 -0.707106769 -0.707106769
vt 0.6875 0.0
vn 2.44929371e-16 -0.382683426 -0.923879504
vt 0.75 0.0
vn 2.44929371e-16 -1.83697015e-16 -1.0
vt 0.8125 0.0
vn 2.44929371e-16 0.382683426 -0.923879504
vt 0.875 0.0
vn 2.44929371e-16 0.707106769 -0.707106769
vt 0.9375 0.0
vn 2.44929371e-16 0.923879504 -0.382683426
vt 1.0 0.0
vn 2.44929371e-16 1.0 -2.44929371e-16
f 18/18/18 19/19/19 1/1/1
f 1/1/1 19/19/19 2/2/2
f 19/19/19 20/20/20 2/2/2
f 2/2/2 20/20/20 3/3/3
f 20/20/20 21/21/21 3/3/3
f 3/3/3 21/21/21 4/4/4
f 21/21/21 22/22/22 4/4/4
f 4/4/4 22/22/22 5/5/5
f 22/22/22 23/23/23 5/5/5
f 5/5/5 23/23/23 6/6/6
f 23/23/23 24/24/24 6/6/6
f 6/6/6 24/24/24 7/7/7
f 24/24/24 25/25/25 7/7/7
f 7/7/7 25/25/25 8/8/8
f 25/25/25 26/26/26 8/8/8
f 8/8/8 26/26/26 9/9/9
f 26/26/26 27/27/27 9/9/9
f 9/9/9 27/27/27 10/10/10
f 27/27/27 28/28/28 10/10/10
f 10/10/10 28/28/28 11/11/11
f 28/28/28 29/29/29 11/11/11
f 11/11/11 29/29/29 12/12/12
f 29/29/29 30/30/30 12/12/12
f 12/12/12 30/30/30 13/13/13
f 30/30/30 31/31/31 13/13/13
f 13/13/13 31/31/31 14/14/14
f 31/31/31 32/32/32 14/14/14
f 14/14/14 32/32/32 15/15/15
f 32/32/32 33/33/33 15/15/15
f 15/15/15 33/33/33 16/16/16
f 33/33/33 34/34/34 16/16/16
f 16/16/16 34/34/34 17/17/17
f 35/35/35 36/36/36 18/18/18
f 18/18/18 36/36/36 19/19/19
f 36/36/36 37/37/37 19/19/19
f 19/19/19 37/37/37 20/20/20
f 37/37/37 38/38/38 20/20/20
f 20/20/20 38/38/38 21/21/21
f 38/38/38 39/39/39 21/21/21
f 21/21/21 39/39/39 22/22/22
f 39/39/39 40/40/40 22/22/22
f 22/22/22 40/40/40 23/23/23
f 40/40/40 41/41/41 23/23/23
f 23/23/23 41/41/41 24/24/24
f 41/41/41 42/42/42 24/24/24
f 24/24/24 42/42/42 25/25/25
f 42/42/42 43/43/43 25/25/25
f 25/25/25 43/43/43 26/26/26
f 43/43/43 44/44/44 26/26/26
f 26/26/26 44/44/44 27/27/27
f 44/44/44 45/45/45 27/27/27
f 27/27/27 45/45/45 28/28/28
f 45/45/45 46/46/46 28/28/28
f 28/28/28 46/46/46 29/29/29
f 46/46/46 47/47/47 29/29/29
f 29/29/29 47/47/47 30/30/30
f 47/47/47 48/48/48 30/30/30
f 30/30/30 48/48/48 31/31/31
f 48/48/48 49/49/49 31/31/31
f 31/31/31 49/49/49 32/32/32
f 49/49/49 50/50/50 32/32/32
f 32/32/32 50/50/50 33/33/33
f 50/50/50 51/51/51 33/33/33
f 33/33/33 51/51/51 34/34/34
f 52/52/52 53/53/53 35/35/35
f 35/35/35 53/53/53 36/36/36
f 53/53/53 54/54/54 36/36/36
f 36/36/36 54/54/54 37/37/37
f 54/54/54 55/55/55 37/37/37
f 37/37/37 55/55/55 38/38/38
f 55/55/55 56/56/56 38/38/38
f 38/38/38 56/56/56 39/39/39
f 56/56/56 57/57/57 39/39/39
f 39/39/39 57/57/57 40/40/40
f 57/57/57 58/58/58 40/40/40
f 40/40/40 58/58/58 41/41/41
f 58/58/58 59/59/59 41/41/41
f 41/41/41 59/59/59 42/42/42
f 59/59/59 60/60/60 42/42/42
f 42/42/42 60/60/60 43/43/43
f 60/60/60 61/61/61 43/43/43
f 43/43/43 61/61/61 44/44/44
f 61/61/61 62/62/62 44/44/44
f 44/44/44 62/62/62 45/45/45
f 62/62/62 63/63/63 45/45/45
f 45/45/45 63/63/63 46/46/46
f 63/63/63 64/64/64 46/46/46
f 46/46/46 64/64/64 47/47/47
f 64/64/64 65/65/65 47/47/47
f 47/47/47 65/65/65 48/48/48
f 65/65/65 66/66/66 48/48/48
f 48/48/48 66/66/66 49/49/49
f 66/66/66 67/67/67 49/49/49
f 49/49/49 67/67/67 50/50/50
f 67/67/67 68/68/68 50/50/50
f 50/50/50 68/68/68 51/51/51
f 69/69/69 70/70/70 52/52/52
f 52/52/52 70/70/70 53/53/53
f 70/70/70 71/71/71 53/53/53
f 53/53/53 71/71/71 54/54/54
f 71/71/71 72/72/72 54/54/54
f 54/54/54 72/72/72 55/55/55
f 72/72/72 73/73/73 55/55/55
f 55/55/55 73/73/73 56/56/56
f 73/73/73 74/74/74 56/56/56
f 56/56/56 74/74/74 57/57/57
f 74/74/74 75/75/75 57/57/57
f 57/57/57 75/75/75 58/58/58
f 75/75/75 76/76/76 58/58/58
f 58/58/58 76/76/76 59/59/59
f 76/76/76 77/77/77 59/59/59
f 59/59/59 77/77/77 60/60/60
f 77/77/77 78/78/78 60/60/60
f 60/60/60 78/78/78 61/61/61
f 78/78/78 79/79/79 61/61/61
f 61/61/61 79/79/79 62/62/62
f 79/79/79 80/80/80 62/62/62
f 62/62/62 80/80/80 63/63/63
f 80/80/80 81/81/81 63/63/63
f 63/63/63 81/81/81 64/64/64
f 81/81/81 82/82/82 64/64/64
f 64/64/64 82/82/82 65/65/65
f 82/82/82 83/83/83 65/65/65
f 65/65/65 83/83/83 66/66/66
f 83/83/83 84/84/84 66/66/66
f 66/66/66 84/84/84 67/67/67
f 84/84/84 85/85/85 67/67/67
f 67/67/67 85/85/85 68/68/68
f 86/86/86 87/87/87 69/69/69
f 69/69/69 87/87/87 70/70/70
f 87/87/87 88/88/88 70/70/70
f 70/70/70 88/88/88 71/71/71
f 88/88/88 89/89/89 71/71/71
f 71/71/71 89/89/89 72/72/72
f 89/89/89 90/90/90 72/72/72
f 72/72/72 90/90/90 73/73/73
f 90/90/90 91/91/91 73/73/73
f 73/73/73 91/91/91 74/74/74
f 91/91/91 92/92/92 74/74/74
f 74/74/74 92/92/92 75/75/75
f 92/92/92 93/93/93 75/75/75
f 75/75/75 93/93/93 76/76/76
f 93/93/93 94/94/94 76/76/76
f 76/76/76 94/94/94 77/77/77
f 94/94/94 95/95/95 77/77/77
f 77/77/77 95/95/95 78/78/78
f 95/95/95 96/96/96 78/78/78
f 78/78/78 96/96/96 79/79/79
f 96/96/96 97/97/97 79/79/79
f 79/79/79 97/97/97 80/80/80
f 97/97/97 98/98/98 80/80/80
f 80/80/80 98/98/98 81/81/81
f 98/98/98 99/99/99 81/81/81
f 81/81/81 99/99/99 82/82/82
f 99/99/99 100/100/100 82/82/82
f 82/82/82 100/100/100 83/83/83
f 100/100/100 101/101/101 83/83/83
f 83/83/83 101/101/101 84/84/84
f 101/101/101 102/102/102 84/84/84
f 84/84/84 102/102/102 85/85/85
f 103/103/103 104/104/104 86/86/86
f 86/86/86 104/104/104 87/87/87
f 104/104/104 105/105/105 87/87/87
f 87/87/87 105/105/105 88/88/88
f 105/105/105 106/106/106 88/88/88
f 88/88/88 106/106/106 89/89/89
f 106/106/106 107/107/107 89/89/89
f 89/89/89 107/107/107 90/90/90
f 107/107/107 108/108/108 90/90/90
f 90/90/90 108/108/108 91/91/91
f 108/108/108 109/109/109 91/91/91
f 91/91/91 109/109/109 92/92/92
f 109/109/109 110/110/110 92/92/92
f 92/92/92 110/110/110 93/93/93
f 110/110/110 111/111/111 93/93/93
f 93/93/93 111/111/111 94/94/94
f 111/111/111 112/112/112 94/94/94
f 94/94/94 112/112/112 95/95/95
f 112/112/112 113/113/113 95/95/95
f 95/95/95 113/113/113 96/96/96
f 113/113/113 114/114/114 96/96/96
f 96/96/96 114/114/114 97/97/97
f 114/114/114 115/115/115 97/97/97
f 97/97/97 115/115/115 98/98/98
f 115/115/115 116/116/116 98/98/98
f 98/98/98 116/116/116 99/99/99
f 116/116/116 117/117/117 99/99/99
f 99/99/99 117/117/117 100/100/100
f 117/117/117 118/118/118 100/100/100
f 100/100/100 118/118/118 101/101/101
f 118/118/118 119/119/119 101/101/101
f 101/101/101 119/119/119 102/102/102
