# Sancta editable mesh extracted from the approved reference, cm, Z up
v 0.0 -50.0 50.0
v 0.0 -48.6111104 50.0
v 0.0 -47.2222209 50.0
v 0.0 -45.8333343 50.0
v 0.0 -44.4444448 50.0
v 0.0 -43.0555552 50.0
v 0.0 -41.6666657 50.0
v 0.0 -40.2777791 50.0
v 0.0 -38.8888896 50.0
v 0.0 -37.5 50.0
v 0.0 -36.1111104 50.0
v 0.0 -34.7222209 50.0
v 0.0 -33.3333343 50.0
v 0.0 -31.9444448 50.0
v 0.0 -30.5555552 50.0
v 0.0 -29.1666657 50.0
v 0.0 -27.7777791 50.0
v 0.0 -26.3888896 50.0
v 0.0 -25.0 50.0
v 0.0 -23.6111104 50.0
v 0.0 -22.2222224 50.0
v 0.0 -20.8333328 50.0
v 0.0 -19.4444448 50.0
v 0.0 -18.0555552 50.0
v 0.0 -16.6666672 50.0
v 0.0 -15.2777776 50.0
v 0.0 -13.8888896 50.0
v 0.0 -12.5 50.0
v 0.0 -11.1111112 50.0
v 0.0 -9.72222239 50.0
v 0.0 -8.33333358 50.0
v 0.0 -6.94444478 50.0
v 0.0 -5.5555556 50.0
v 0.0 -4.16666679 50.0
v 0.0 -2.7777778 50.0
v 0.0 -1.3888889 50.0
v 0.0 0.0 50.0
v 0.0 1.3888889 50.0
v 0.0 2.7777778 50.0
v 0.0 4.16666679 50.0
v 0.0 5.5555556 50.0
v 0.0 6.94444478 50.0
v 0.0 8.33333358 50.0
v 0.0 9.72222239 50.0
v 0.0 11.1111112 50.0
v 0.0 12.5 50.0
v 0.0 13.8888896 50.0
v 0.0 15.2777776 50.0
v 0.0 16.6666672 50.0
v 0.0 18.0555552 50.0
v 0.0 19.4444448 50.0
v 0.0 20.8333328 50.0
v 0.0 22.2222224 50.0
v 0.0 23.6111104 50.0
v 0.0 25.0 50.0
v 0.0 26.3888896 50.0
v 0.0 27.7777791 50.0
v 0.0 29.1666657 50.0
v 0.0 30.5555552 50.0
v 0.0 31.9444448 50.0
v 0.0 33.3333343 50.0
v 0.0 34.7222209 50.0
v 0.0 36.1111104 50.0
v 0.0 37.5 50.0
v 0.0 38.8888896 50.0
v 0.0 40.2777791 50.0
v 0.0 41.6666657 50.0
v 0.0 43.0555552 50.0
v 0.0 44.4444448 50.0
v 0.0 45.8333343 50.0
v 0.0 47.2222209 50.0
v 0.0 48.6111104 50.0
v 0.0 50.0 50.0
v 0.0 -50.0 -50.0
v 0.0 -48.6111104 -50.0
v 0.0 -47.2222209 -50.0
v 0.0 -45.8333343 -50.0
v 0.0 -44.4444448 -50.0
v 0.0 -43.0555552 -50.0
v 0.0 -41.6666657 -50.0
v 0.0 -40.2777791 -50.0
v 0.0 -38.8888896 -50.0
v 0.0 -37.5 -50.0
v 0.0 -36.1111104 -50.0
v 0.0 -34.7222209 -50.0
v 0.0 -33.3333343 -50.0
v 0.0 -31.9444448 -50.0
v 0.0 -30.5555552 -50.0
v 0.0 -29.1666657 -50.0
v 0.0 -27.7777791 -50.0
v 0.0 -26.3888896 -50.0
v 0.0 -25.0 -50.0
v 0.0 -23.6111104 -50.0
v 0.0 -22.2222224 -50.0
v 0.0 -20.8333328 -50.0
v 0.0 -19.4444448 -50.0
v 0.0 -18.0555552 -50.0
v 0.0 -16.6666672 -50.0
v 0.0 -15.2777776 -50.0
v 0.0 -13.8888896 -50.0
v 0.0 -12.5 -50.0
v 0.0 -11.1111112 -50.0
v 0.0 -9.72222239 -50.0
v 0.0 -8.33333358 -50.0
v 0.0 -6.94444478 -50.0
v 0.0 -5.5555556 -50.0
v 0.0 -4.16666679 -50.0
v 0.0 -2.7777778 -50.0
v 0.0 -1.3888889 -50.0
v 0.0 0.0 -50.0
v 0.0 1.3888889 -50.0
v 0.0 2.7777778 -50.0
v 0.0 4.16666679 -50.0
v 0.0 5.5555556 -50.0
v 0.0 6.94444478 -50.0
v 0.0 8.33333358 -50.0
v 0.0 9.72222239 -50.0
v 0.0 11.1111112 -50.0
v 0.0 12.5 -50.0
v 0.0 13.8888896 -50.0
v 0.0 15.2777776 -50.0
v 0.0 16.6666672 -50.0
v 0.0 18.0555552 -50.0
v 0.0 19.4444448 -50.0
v 0.0 20.8333328 -50.0
v 0.0 22.2222224 -50.0
v 0.0 23.6111104 -50.0
v 0.0 25.0 -50.0
v 0.0 26.3888896 -50.0
v 0.0 27.7777791 -50.0
v 0.0 29.1666657 -50.0
v 0.0 30.5555552 -50.0
v 0.0 31.9444448 -50.0
v 0.0 33.3333343 -50.0
v 0.0 34.7222209 -50.0
v 0.0 36.1111104 -50.0
v 0.0 37.5 -50.0
v 0.0 38.8888896 -50.0
v 0.0 40.2777791 -50.0
v 0.0 41.6666657 -50.0
v 0.0 43.0555552 -50.0
v 0.0 44.4444448 -50.0
v 0.0 45.8333343 -50.0
v 0.0 47.2222209 -50.0
v 0.0 48.6111104 -50.0
v 0.0 50.0 -50.0
vt 0.0 0.0
vn -1.0 0.0 0.0
vt 0.013888889 0.0
vn -1.0 0.0 0.0
vt 0.027777778 0.0
vn -1.0 0.0 0.0
vt 0.0416666679 0.0
vn -1.0 0.0 0.0
vt 0.055555556 0.0
vn -1.0 0.0 0.0
vt 0.0694444478 0.0
vn -1.0 0.0 0.0
vt 0.0833333358 0.0
vn -1.0 0.0 0.0
vt 0.0972222239 0.0
vn -1.0 0.0 0.0
vt 0.111111112 0.0
vn -1.0 0.0 0.0
vt 0.125 0.0
vn -1.0 0.0 0.0
vt 0.138888896 0.0
vn -1.0 0.0 0.0
vt 0.152777776 0.0
vn -1.0 0.0 0.0
vt 0.166666672 0.0
vn -1.0 0.0 0.0
vt 0.180555552 0.0
vn -1.0 0.0 0.0
vt 0.194444448 0.0
vn -1.0 0.0 0.0
vt 0.208333328 0.0
vn -1.0 0.0 0.0
vt 0.222222224 0.0
vn -1.0 0.0 0.0
vt 0.236111104 0.0
vn -1.0 0.0 0.0
vt 0.25 0.0
vn -1.0 0.0 0.0
vt 0.263888896 0.0
vn -1.0 0.0 0.0
vt 0.277777791 0.0
vn -1.0 0.0 0.0
vt 0.291666657 0.0
vn -1.0 0.0 0.0
vt 0.305555552 0.0
vn -1.0 0.0 0.0
vt 0.319444448 0.0
vn -1.0 0.0 0.0
vt 0.333333343 0.0
vn -1.0 0.0 0.0
vt 0.347222209 0.0
vn -1.0 0.0 0.0
vt 0.361111104 0.0
vn -1.0 0.0 0.0
vt 0.375 0.0
vn -1.0 0.0 0.0
vt 0.388888896 0.0
vn -1.0 0.0 0.0
vt 0.402777791 0.0
vn -1.0 0.0 0.0
vt 0.416666657 0.0
vn -1.0 0.0 0.0
vt 0.430555552 0.0
vn -1.0 0.0 0.0
vt 0.444444448 0.0
vn -1.0 0.0 0.0
vt 0.458333343 0.0
vn -1.0 0.0 0.0
vt 0.472222209 0.0
vn -1.0 0.0 0.0
vt 0.486111104 0.0
vn -1.0 0.0 0.0
vt 0.5 0.0
vn -1.0 0.0 0.0
vt 0.513888896 0.0
vn -1.0 0.0 0.0
vt 0.527777791 0.0
vn -1.0 0.0 0.0
vt 0.541666687 0.0
vn -1.0 0.0 0.0
vt 0.555555582 0.0
vn -1.0 0.0 0.0
vt 0.569444418 0.0
vn -1.0 0.0 0.0
vt 0.583333313 0.0
vn -1.0 0.0 0.0
vt 0.597222209 0.0
vn -1.0 0.0 0.0
vt 0.611111104 0.0
vn -1.0 0.0 0.0
vt 0.625 0.0
vn -1.0 0.0 0.0
vt 0.638888896 0.0
vn -1.0 0.0 0.0
vt 0.652777791 0.0
vn -1.0 0.0 0.0
vt 0.666666687 0.0
vn -1.0 0.0 0.0
vt 0.680555582 0.0
vn -1.0 0.0 0.0
vt 0.694444418 0.0
vn -1.0 0.0 0.0
vt 0.708333313 0.0
vn -1.0 0.0 0.0
vt 0.722222209 0.0
vn -1.0 0.0 0.0
vt 0.736111104 0.0
vn -1.0 0.0 0.0
vt 0.75 0.0
vn -1.0 0.0 0.0
vt 0.763888896 0.0
vn -1.0 0.0 0.0
vt 0.777777791 0.0
vn -1.0 0.0 0.0
vt 0.791666687 0.0
vn -1.0 0.0 0.0
vt 0.805555582 0.0
vn -1.0 0.0 0.0
vt 0.819444418 0.0
vn -1.0 0.0 0.0
vt 0.833333313 0.0
vn -1.0 0.0 0.0
vt 0.847222209 0.0
vn -1.0 0.0 0.0
vt 0.861111104 0.0
vn -1.0 0.0 0.0
vt 0.875 0.0
vn -1.0 0.0 0.0
vt 0.888888896 0.0
vn -1.0 0.0 0.0
vt 0.902777791 0.0
vn -1.0 0.0 0.0
vt 0.916666687 0.0
vn -1.0 0.0 0.0
vt 0.930555582 0.0
vn -1.0 0.0 0.0
vt 0.944444418 0.0
vn -1.0 0.0 0.0
vt 0.958333313 0.0
vn -1.0 0.0 0.0
vt 0.972222209 0.0
vn -1.0 0.0 0.0
vt 0.986111104 0.0
vn -1.0 0.0 0.0
vt 1.0 0.0
vn -1.0 0.0 0.0
vt 0.0 1.0
vn -1.0 0.0 0.0
vt 0.013888889 1.0
vn -1.0 0.0 0.0
vt 0.027777778 1.0
vn -1.0 0.0 0.0
vt 0.0416666679 1.0
vn -1.0 0.0 0.0
vt 0.055555556 1.0
vn -1.0 0.0 0.0
vt 0.0694444478 1.0
vn -1.0 0.0 0.0
vt 0.0833333358 1.0
vn -1.0 0.0 0.0
vt 0.0972222239 1.0
vn -1.0 0.0 0.0
vt 0.111111112 1.0
vn -1.0 0.0 0.0
vt 0.125 1.0
vn -1.0 0.0 0.0
vt 0.138888896 1.0
vn -1.0 0.0 0.0
vt 0.152777776 1.0
vn -1.0 0.0 0.0
vt 0.166666672 1.0
vn -1.0 0.0 0.0
vt 0.180555552 1.0
vn -1.0 0.0 0.0
vt 0.194444448 1.0
vn -1.0 0.0 0.0
vt 0.208333328 1.0
vn -1.0 0.0 0.0
vt 0.222222224 1.0
vn -1.0 0.0 0.0
vt 0.236111104 1.0
vn -1.0 0.0 0.0
vt 0.25 1.0
vn -1.0 0.0 0.0
vt 0.263888896 1.0
vn -1.0 0.0 0.0
vt 0.277777791 1.0
vn -1.0 0.0 0.0
vt 0.291666657 1.0
vn -1.0 0.0 0.0
vt 0.305555552 1.0
vn -1.0 0.0 0.0
vt 0.319444448 1.0
vn -1.0 0.0 0.0
vt 0.333333343 1.0
vn -1.0 0.0 0.0
vt 0.347222209 1.0
vn -1.0 0.0 0.0
vt 0.361111104 1.0
vn -1.0 0.0 0.0
vt 0.375 1.0
vn -1.0 0.0 0.0
vt 0.388888896 1.0
vn -1.0 0.0 0.0
vt 0.402777791 1.0
vn -1.0 0.0 0.0
vt 0.416666657 1.0
vn -1.0 0.0 0.0
vt 0.430555552 1.0
vn -1.0 0.0 0.0
vt 0.444444448 1.0
vn -1.0 0.0 0.0
vt 0.458333343 1.0
vn -1.0 0.0 0.0
vt 0.472222209 1.0
vn -1.0 0.0 0.0
vt 0.486111104 1.0
vn -1.0 0.0 0.0
vt 0.5 1.0
vn -1.0 0.0 0.0
vt 0.513888896 1.0
vn -1.0 0.0 0.0
vt 0.527777791 1.0
vn -1.0 0.0 0.0
vt 0.541666687 1.0
vn -1.0 0.0 0.0
vt 0.555555582 1.0
vn -1.0 0.0 0.0
vt 0.569444418 1.0
vn -1.0 0.0 0.0
vt 0.583333313 1.0
vn -1.0 0.0 0.0
vt 0.597222209 1.0
vn -1.0 0.0 0.0
vt 0.611111104 1.0
vn -1.0 0.0 0.0
vt 0.625 1.0
vn -1.0 0.0 0.0
vt 0.638888896 1.0
vn -1.0 0.0 0.0
vt 0.652777791 1.0
vn -1.0 0.0 0.0
vt 0.666666687 1.0
vn -1.0 0.0 0.0
vt 0.680555582 1.0
vn -1.0 0.0 0.0
vt 0.694444418 1.0
vn -1.0 0.0 0.0
vt 0.708333313 1.0
vn -1.0 0.0 0.0
vt 0.722222209 1.0
vn -1.0 0.0 0.0
vt 0.736111104 1.0
vn -1.0 0.0 0.0
vt 0.75 1.0
vn -1.0 0.0 0.0
vt 0.763888896 1.0
vn -1.0 0.0 0.0
vt 0.777777791 1.0
vn -1.0 0.0 0.0
vt 0.791666687 1.0
vn -1.0 0.0 0.0
vt 0.805555582 1.0
vn -1.0 0.0 0.0
vt 0.819444418 1.0
vn -1.0 0.0 0.0
vt 0.833333313 1.0
vn -1.0 0.0 0.0
vt 0.847222209 1.0
vn -1.0 0.0 0.0
vt 0.861111104 1.0
vn -1.0 0.0 0.0
vt 0.875 1.0
vn -1.0 0.0 0.0
vt 0.888888896 1.0
vn -1.0 0.0 0.0
vt 0.902777791 1.0
vn -1.0 0.0 0.0
vt 0.916666687 1.0
vn -1.0 0.0 0.0
vt 0.930555582 1.0
vn -1.0 0.0 0.0
vt 0.944444418 1.0
vn -1.0 0.0 0.0
vt 0.958333313 1.0
vn -1.0 0.0 0.0
vt 0.972222209 1.0
vn -1.0 0.0 0.0
vt 0.986111104 1.0
vn -1.0 0.0 0.0
vt 1.0 1.0
vn -1.0 0.0 0.0
f 1/1/1 2/2/2 74/74/74
f 74/74/74 2/2/2 75/75/75
f 2/2/2 3/3/3 75/75/75
f 75/75/75 3/3/3 76/76/76
f 3/3/3 4/4/4 76/76/76
f 76/76/76 4/4/4 77/77/77
f 4/4/4 5/5/5 77/77/77
f 77/77/77 5/5/5 78/78/78
f 5/5/5 6/6/6 78/78/78
f 78/78/78 6/6/6 79/79/79
f 6/6/6 7/7/7 79/79/79
f 79/79/79 7/7/7 80/80/80
f 7/7/7 8/8/8 80/80/80
f 80/80/80 8/8/8 81/81/81
f 8/8/8 9/9/9 81/81/81
f 81/81/81 9/9/9 82/82/82
f 9/9/9 10/10/10 82/82/82
f 82/82/82 10/10/10 83/83/83
f 10/10/10 11/11/11 83/83/83
f 83/83/83 11/11/11 84/84/84
f 11/11/11 12/12/12 84/84/84
f 84/84/84 12/12/12 85/85/85
f 12/12/12 13/13/13 85/85/85
f 85/85/85 13/13/13 86/86/86
f 13/13/13 14/14/14 86/86/86
f 86/86/86 14/14/14 87/87/87
f 14/14/14 15/15/15 87/87/87
f 87/87/87 15/15/15 88/88/88
f 15/15/15 16/16/16 88/88/88
f 88/88/88 16/16/16 89/89/89
f 16/16/16 17/17/17 89/89/89
f 89/89/89 17/17/17 90/90/90
f 17/17/17 18/18/18 90/90/90
f 90/90/90 18/18/18 91/91/91
f 18/18/18 19/19/19 91/91/91
f 91/91/91 19/19/19 92/92/92
f 19/19/19 20/20/20 92/92/92
f 92/92/92 20/20/20 93/93/93
f 20/20/20 21/21/21 93/93/93
f 93/93/93 21/21/21 94/94/94
f 21/21/21 22/22/22 94/94/94
f 94/94/94 22/22/22 95/95/95
f 22/22/22 23/23/23 95/95/95
f 95/95/95 23/23/23 96/96/96
f 23/23/23 24/24/24 96/96/96
f 96/96/96 24/24/24 97/97/97
f 24/24/24 25/25/25 97/97/97
f 97/97/97 25/25/25 98/98/98
f 25/25/25 26/26/26 98/98/98
f 98/98/98 26/26/26 99/99/99
f 26/26/26 27/27/27 99/99/99
f 99/99/99 27/27/27 100/100/100
f 27/27/27 28/28/28 100/100/100
f 100/100/100 28/28/28 101/101/101
f 28/28/28 29/29/29 101/101/101
f 101/101/101 29/29/29 102/102/102
f 29/29/29 30/30/30 102/102/102
f 102/102/102 30/30/30 103/103/103
f 30/30/30 31/31/31 103/103/103
f 103/103/103 31/31/31 104/104/104
f 31/31/31 32/32/32 104/104/104
f 104/104/104 32/32/32 105/105/105
f 32/32/32 33/33/33 105/105/105
f 105/105/105 33/33/33 106/106/106
f 33/33/33 34/34/34 106/106/106
f 106/106/106 34/34/34 107/107/107
f 34/34/34 35/35/35 107/107/107
f 107/107/107 35/35/35 108/108/108
f 35/35/35 36/36/36 108/108/108
f 108/108/108 36/36/36 109/109/109
f 36/36/36 37/37/37 109/109/109
f 109/109/109 37/37/37 110/110/110
f 37/37/37 38/38/38 110/110/110
f 110/110/110 38/38/38 111/111/111
f 38/38/38 39/39/39 111/111/111
f 111/111/111 39/39/39 112/112/112
f 39/39/39 40/40/40 112/112/112
f 112/112/112 40/40/40 113/113/113
f 40/40/40 41/41/41 113/113/113
f 113/113/113 41/41/41 114/114/114
f 41/41/41 42/42/42 114/114/114
f 114/114/114 42/42/42 115/115/115
f 42/42/42 43/43/43 115/115/115
f 115/115/115 43/43/43 116/116/116
f 43/43/43 44/44/44 116/116/116
f 116/116/116 44/44/44 117/117/117
f 44/44/44 45/45/45 117/117/117
f 117/117/117 45/45/45 118/118/118
f 45/45/45 46/46/46 118/118/118
f 118/118/118 46/46/46 119/119/119
f 46/46/46 47/47/47 119/119/119
f 119/119/119 47/47/47 120/120/120
f 47/47/47 48/48/48 120/120/120
f 120/120/120 48/48/48 121/121/121
f 48/48/48 49/49/49 121/121/121
f 121/121/121 49/49/49 122/122/122
f 49/49/49 50/50/50 122/122/122
f 122/122/122 50/50/50 123/123/123
f 50/50/50 51/51/51 123/123/123
f 123/123/123 51/51/51 124/124/124
f 51/51/51 52/52/52 124/124/124
f 124/124/124 52/52/52 125/125/125
f 52/52/52 53/53/53 125/125/125
f 125/125/125 53/53/53 126/126/126
f 53/53/53 54/54/54 126/126/126
f 126/126/126 54/54/54 127/127/127
f 54/54/54 55/55/55 127/127/127
f 127/127/127 55/55/55 128/128/128
f 55/55/55 56/56/56 128/128/128
f 128/128/128 56/56/56 129/129/129
f 56/56/56 57/57/57 129/129/129
f 129/129/129 57/57/57 130/130/130
f 57/57/57 58/58/58 130/130/130
f 130/130/130 58/58/58 131/131/131
f 58/58/58 59/59/59 131/131/131
f 131/131/131 59/59/59 132/132/132
f 59/59/59 60/60/60 132/132/132
f 132/132/132 60/60/60 133/133/133
f 60/60/60 61/61/61 133/133/133
f 133/133/133 61/61/61 134/134/134
f 61/61/61 62/62/62 134/134/134
f 134/134/134 62/62/62 135/135/135
f 62/62/62 63/63/63 135/135/135
f 135/135/135 63/63/63 136/136/136
f 63/63/63 64/64/64 136/136/136
f 136/136/136 64/64/64 137/137/137
f 64/64/64 65/65/65 137/137/137
f 137/137/137 65/65/65 138/138/138
f 65/65/65 66/66/66 138/138/138
f 138/138/138 66/66/66 139/139/139
f 66/66/66 67/67/67 139/139/139
f 139/139/139 67/67/67 140/140/140
f 67/67/67 68/68/68 140/140/140
f 140/140/140 68/68/68 141/141/141
f 68/68/68 69/69/69 141/141/141
f 141/141/141 69/69/69 142/142/142
f 69/69/69 70/70/70 142/142/142
f 142/142/142 70/70/70 143/143/143
f 70/70/70 71/71/71 143/143/143
f 143/143/143 71/71/71 144/144/144
f 71/71/71 72/72/72 144/144/144
f 144/144/144 72/72/72 145/145/145
f 72/72/72 73/73/73 145/145/145
f 145/145/145 73/73/73 146/146/146
