# Sancta editable mesh extracted from the approved reference, cm, Z up
v 0.0 -100.0 100.0
v 0.0 -91.6666687 100.0
v 0.0 -83.3333313 100.0
v 0.0 -75.0 100.0
v 0.0 -66.6666687 100.0
v 0.0 -58.3333313 100.0
v 0.0 -50.0 100.0
v 0.0 -41.6666657 100.0
v 0.0 -33.3333343 100.0
v 0.0 -25.0 100.0
v 0.0 -16.6666672 100.0
v 0.0 -8.33333358 100.0
v 0.0 0.0 100.0
v 0.0 8.33333358 100.0
v 0.0 16.6666672 100.0
v 0.0 25.0 100.0
v 0.0 33.3333343 100.0
v 0.0 41.6666657 100.0
v 0.0 50.0 100.0
v 0.0 58.3333313 100.0
v 0.0 66.6666687 100.0
v 0.0 75.0 100.0
v 0.0 83.3333313 100.0
v 0.0 91.6666687 100.0
v 0.0 100.0 100.0
v 0.0 -100.0 -100.0
v 0.0 -91.6666687 -100.0
v 0.0 -83.3333313 -100.0
v 0.0 -75.0 -100.0
v 0.0 -66.6666687 -100.0
v 0.0 -58.3333313 -100.0
v 0.0 -50.0 -100.0
v 0.0 -41.6666657 -100.0
v 0.0 -33.3333343 -100.0
v 0.0 -25.0 -100.0
v 0.0 -16.6666672 -100.0
v 0.0 -8.33333358 -100.0
v 0.0 0.0 -100.0
v 0.0 8.33333358 -100.0
v 0.0 16.6666672 -100.0
v 0.0 25.0 -100.0
v 0.0 33.3333343 -100.0
v 0.0 41.6666657 -100.0
v 0.0 50.0 -100.0
v 0.0 58.3333313 -100.0
v 0.0 66.6666687 -100.0
v 0.0 75.0 -100.0
v 0.0 83.3333313 -100.0
v 0.0 91.6666687 -100.0
v 0.0 100.0 -100.0
vt 0.0 0.0
vn -1.0 0.0 0.0
vt 0.0416666679 0.0
vn -1.0 0.0 0.0
vt 0.0833333358 0.0
vn -1.0 0.0 0.0
vt 0.125 0.0
vn -1.0 0.0 0.0
vt 0.166666672 0.0
vn -1.0 0.0 0.0
vt 0.208333328 0.0
vn -1.0 0.0 0.0
vt 0.25 0.0
vn -1.0 0.0 0.0
vt 0.291666657 0.0
vn -1.0 0.0 0.0
vt 0.333333343 0.0
vn -1.0 0.0 0.0
vt 0.375 0.0
vn -1.0 0.0 0.0
vt 0.416666657 0.0
vn -1.0 0.0 0.0
vt 0.458333343 0.0
vn -1.0 0.0 0.0
vt 0.5 0.0
vn -1.0 0.0 0.0
vt 0.541666687 0.0
vn -1.0 0.0 0.0
vt 0.583333313 0.0
vn -1.0 0.0 0.0
vt 0.625 0.0
vn -1.0 0.0 0.0
vt 0.666666687 0.0
vn -1.0 0.0 0.0
vt 0.708333313 0.0
vn -1.0 0.0 0.0
vt 0.75 0.0
vn -1.0 0.0 0.0
vt 0.791666687 0.0
vn -1.0 0.0 0.0
vt 0.833333313 0.0
vn -1.0 0.0 0.0
vt 0.875 0.0
vn -1.0 0.0 0.0
vt 0.916666687 0.0
vn -1.0 0.0 0.0
vt 0.958333313 0.0
vn -1.0 0.0 0.0
vt 1.0 0.0
vn -1.0 0.0 0.0
vt 0.0 1.0
vn -1.0 0.0 0.0
vt 0.0416666679 1.0
vn -1.0 0.0 0.0
vt 0.0833333358 1.0
vn -1.0 0.0 0.0
vt 0.125 1.0
vn -1.0 0.0 0.0
vt 0.166666672 1.0
vn -1.0 0.0 0.0
vt 0.208333328 1.0
vn -1.0 0.0 0.0
vt 0.25 1.0
vn -1.0 0.0 0.0
vt 0.291666657 1.0
vn -1.0 0.0 0.0
vt 0.333333343 1.0
vn -1.0 0.0 0.0
vt 0.375 1.0
vn -1.0 0.0 0.0
vt 0.416666657 1.0
vn -1.0 0.0 0.0
vt 0.458333343 1.0
vn -1.0 0.0 0.0
vt 0.5 1.0
vn -1.0 0.0 0.0
vt 0.541666687 1.0
vn -1.0 0.0 0.0
vt 0.583333313 1.0
vn -1.0 0.0 0.0
vt 0.625 1.0
vn -1.0 0.0 0.0
vt 0.666666687 1.0
vn -1.0 0.0 0.0
vt 0.708333313 1.0
vn -1.0 0.0 0.0
vt 0.75 1.0
vn -1.0 0.0 0.0
vt 0.791666687 1.0
vn -1.0 0.0 0.0
vt 0.833333313 1.0
vn -1.0 0.0 0.0
vt 0.875 1.0
vn -1.0 0.0 0.0
vt 0.916666687 1.0
vn -1.0 0.0 0.0
vt 0.958333313 1.0
vn -1.0 0.0 0.0
vt 1.0 1.0
vn -1.0 0.0 0.0
f 1/1/1 2/2/2 26/26/26
f 26/26/26 2/2/2 27/27/27
f 2/2/2 3/3/3 27/27/27
f 27/27/27 3/3/3 28/28/28
f 3/3/3 4/4/4 28/28/28
f 28/28/28 4/4/4 29/29/29
f 4/4/4 5/5/5 29/29/29
f 29/29/29 5/5/5 30/30/30
f 5/5/5 6/6/6 30/30/30
f 30/30/30 6/6/6 31/31/31
f 6/6/6 7/7/7 31/31/31
f 31/31/31 7/7/7 32/32/32
f 7/7/7 8/8/8 32/32/32
f 32/32/32 8/8/8 33/33/33
f 8/8/8 9/9/9 33/33/33
f 33/33/33 9/9/9 34/34/34
f 9/9/9 10/10/10 34/34/34
f 34/34/34 10/10/10 35/35/35
f 10/10/10 11/11/11 35/35/35
f 35/35/35 11/11/11 36/36/36
f 11/11/11 12/12/12 36/36/36
f 36/36/36 12/12/12 37/37/37
f 12/12/12 13/13/13 37/37/37
f 37/37/37 13/13/13 38/38/38
f 13/13/13 14/14/14 38/38/38
f 38/38/38 14/14/14 39/39/39
f 14/14/14 15/15/15 39/39/39
f 39/39/39 15/15/15 40/40/40
f 15/15/15 16/16/16 40/40/40
f 40/40/40 16/16/16 41/41/41
f 16/16/16 17/17/17 41/41/41
f 41/41/41 17/17/17 42/42/42
f 17/17/17 18/18/18 42/42/42
f 42/42/42 18/18/18 43/43/43
f 18/18/18 19/19/19 43/43/43
f 43/43/43 19/19/19 44/44/44
f 19/19/19 20/20/20 44/44/44
f 44/44/44 20/20/20 45/45/45
f 20/20/20 21/21/21 45/45/45
f 45/45/45 21/21/21 46/46/46
f 21/21/21 22/22/22 46/46/46
f 46/46/46 22/22/22 47/47/47
f 22/22/22 23/23/23 47/47/47
f 47/47/47 23/23/23 48/48/48
f 23/23/23 24/24/24 48/48/48
f 48/48/48 24/24/24 49/49/49
f 24/24/24 25/25/25 49/49/49
f 49/49/49 25/25/25 50/50/50
