# Sancta editable mesh extracted from the approved reference, cm, Z up
v 0.0 -5.00000007 2.39482945e-07
v -77.9999971 30.0000012 10.7142858
v 0.0 100.0 10.7142858
v 0.0 100.0 10.7142858
v -77.9999971 30.0000012 10.7142858
v 0.0 80.0000012 37.5
v -77.9999971 30.0000012 10.7142858
v -54.6000004 23.9999995 37.5
v 0.0 80.0000012 37.5
v 0.0 80.0000012 37.5
v -54.6000004 23.9999995 37.5
v 0.0 11.9999997 100.0
v 0.0 -5.00000007 2.39482945e-07
v 0.0 -60.0000024 10.7142858
v -77.9999971 30.0000012 10.7142858
v -77.9999971 30.0000012 10.7142858
v 0.0 -60.0000024 10.7142858
v -54.6000004 23.9999995 37.5
v 0.0 -60.0000024 10.7142858
v 0.0 -47.9999989 37.5
v -54.6000004 23.9999995 37.5
v -54.6000004 23.9999995 37.5
v 0.0 -47.9999989 37.5
v 0.0 11.9999997 100.0
v 0.0 -5.00000007 2.39482945e-07
v 77.9999971 30.0000012 10.7142858
v 0.0 -60.0000024 10.7142858
v 0.0 -60.0000024 10.7142858
v 77.9999971 30.0000012 10.7142858
v 0.0 -47.9999989 37.5
v 77.9999971 30.0000012 10.7142858
v 54.6000004 23.9999995 37.5
v 0.0 -47.9999989 37.5
v 0.0 -47.9999989 37.5
v 54.6000004 23.9999995 37.5
v 0.0 11.9999997 100.0
v 0.0 -5.00000007 2.39482945e-07
v 0.0 100.0 10.7142858
v 77.9999971 30.0000012 10.7142858
v 77.9999971 30.0000012 10.7142858
v 0.0 100.0 10.7142858
v 54.6000004 23.9999995 37.5
v 0.0 100.0 10.7142858
v 0.0 80.0000012 37.5
v 54.6000004 23.9999995 37.5
v 54.6000004 23.9999995 37.5
v 0.0 80.0000012 37.5
v 0.0 11.9999997 100.0
vt 1.0 1.0
vn 0.0907263085 -0.101095036 0.990731299
vt 0.0 0.0
vn 0.0907263085 -0.101095036 0.990731299
vt 0.0 1.0
vn 0.0907263085 -0.101095036 0.990731299
vt 1.0 1.0
vn 0.583822131 -0.650544643 -0.485739976
vt 0.0 0.0
vn 0.583822131 -0.650544643 -0.485739976
vt 0.0 1.0
vn 0.583822131 -0.650544643 -0.485739976
vt 1.0 1.0
vn 0.564055264 -0.549953878 -0.615948379
vt 0.0 0.0
vn 0.564055264 -0.549953878 -0.615948379
vt 0.0 1.0
vn 0.564055264 -0.549953878 -0.615948379
vt 1.0 1.0
vn 0.570180535 -0.555925965 -0.604847491
vt 0.0 0.0
vn 0.570180535 -0.555925965 -0.604847491
vt 0.0 1.0
vn 0.570180535 -0.555925965 -0.604847491
vt 1.0 1.0
vn 0.215446591 0.186720371 0.958497941
vt 0.0 0.0
vn 0.215446591 0.186720371 0.958497941
vt 0.0 1.0
vn 0.215446591 0.186720371 0.958497941
vt 1.0 1.0
vn 0.672249198 0.582615972 -0.456770837
vt 0.0 0.0
vn 0.672249198 0.582615972 -0.456770837
vt 0.0 1.0
vn 0.672249198 0.582615972 -0.456770837
vt 1.0 1.0
vn 0.76911968 0.583249092 -0.261295676
vt 0.0 0.0
vn 0.76911968 0.583249092 -0.261295676
vt 0.0 1.0
vn 0.76911968 0.583249092 -0.261295676
vt 1.0 1.0
vn 0.68923676 0.522671223 -0.501764357
vt 0.0 0.0
vn 0.68923676 0.522671223 -0.501764357
vt 0.0 1.0
vn 0.68923676 0.522671223 -0.501764357
vt 1.0 1.0
vn -0.215446591 0.186720371 0.958497941
vt 0.0 0.0
vn -0.215446591 0.186720371 0.958497941
vt 0.0 1.0
vn -0.215446591 0.186720371 0.958497941
vt 1.0 1.0
vn -0.725121021 0.628438175 -0.281540364
vt 0.0 0.0
vn -0.725121021 0.628438175 -0.281540364
vt 0.0 1.0
vn -0.725121021 0.628438175 -0.281540364
vt 1.0 1.0
vn -0.694995999 0.527038634 -0.489091784
vt 0.0 0.0
vn -0.694995999 0.527038634 -0.489091784
vt 0.0 1.0
vn -0.694995999 0.527038634 -0.489091784
vt 1.0 1.0
vn -0.68923676 0.522671223 -0.501764357
vt 0.0 0.0
vn -0.68923676 0.522671223 -0.501764357
vt 0.0 1.0
vn -0.68923676 0.522671223 -0.501764357
vt 1.0 1.0
vn -0.0907263085 -0.101095036 0.990731299
vt 0.0 0.0
vn -0.0907263085 -0.101095036 0.990731299
vt 0.0 1.0
vn -0.0907263085 -0.101095036 0.990731299
vt 1.0 1.0
vn -0.534277499 -0.595337749 -0.600100458
vt 0.0 0.0
vn -0.534277499 -0.595337749 -0.600100458
vt 0.0 1.0
vn -0.534277499 -0.595337749 -0.600100458
vt 1.0 1.0
vn -0.634922743 -0.619049609 -0.462223679
vt 0.0 0.0
vn -0.634922743 -0.619049609 -0.462223679
vt 0.0 1.0
vn -0.634922743 -0.619049609 -0.462223679
vt 1.0 1.0
vn -0.570180535 -0.555925965 -0.604847491
vt 0.0 0.0
vn -0.570180535 -0.555925965 -0.604847491
vt 0.0 1.0
vn -0.570180535 -0.555925965 -0.604847491
f 1/1/1 3/3/3 2/2/2
f 4/4/4 6/6/6 5/5/5
f 7/7/7 9/9/9 8/8/8
f 10/10/10 12/12/12 11/11/11
f 13/13/13 15/15/15 14/14/14
f 16/16/16 18/18/18 17/17/17
f 19/19/19 21/21/21 20/20/20
f 22/22/22 24/24/24 23/23/23
f 25/25/25 27/27/27 26/26/26
f 28/28/28 30/30/30 29/29/29
f 31/31/31 33/33/33 32/32/32
f 34/34/34 36/36/36 35/35/35
f 37/37/37 39/39/39 38/38/38
f 40/40/40 42/42/42 41/41/41
f 43/43/43 45/45/45 44/44/44
f 46/46/46 48/48/48 47/47/47
