# Sancta editable mesh extracted from the approved reference, cm, Z up
v 0.0 -50.0 50.0
v 0.0 -48.9583343 50.0
v 0.0 -47.9166657 50.0
v 0.0 -46.875 50.0
v 0.0 -45.8333343 50.0
v 0.0 -44.7916657 50.0
v 0.0 -43.75 50.0
v 0.0 -42.7083343 50.0
v 0.0 -41.6666657 50.0
v 0.0 -40.625 50.0
v 0.0 -39.5833343 50.0
v 0.0 -38.5416657 50.0
v 0.0 -37.5 50.0
v 0.0 -36.4583343 50.0
v 0.0 -35.4166657 50.0
v 0.0 -34.375 50.0
v 0.0 -33.3333343 50.0
v 0.0 -32.2916657 50.0
v 0.0 -31.25 50.0
v 0.0 -30.2083343 50.0
v 0.0 -29.1666657 50.0
v 0.0 -28.125 50.0
v 0.0 -27.0833343 50.0
v 0.0 -26.0416657 50.0
v 0.0 -25.0 50.0
v 0.0 -23.9583328 50.0
v 0.0 -22.9166672 50.0
v 0.0 -21.875 50.0
v 0.0 -20.8333328 50.0
v 0.0 -19.7916672 50.0
v 0.0 -18.75 50.0
v 0.0 -17.7083328 50.0
v 0.0 -16.6666672 50.0
v 0.0 -15.625 50.0
v 0.0 -14.5833328 50.0
v 0.0 -13.5416672 50.0
v 0.0 -12.5 50.0
v 0.0 -11.4583336 50.0
v 0.0 -10.4166664 50.0
v 0.0 -9.375 50.0
v 0.0 -8.33333358 50.0
v 0.0 -7.29166642 50.0
v 0.0 -6.25 50.0
v 0.0 -5.20833321 50.0
v 0.0 -4.16666679 50.0
v 0.0 -3.125 50.0
v 0.0 -2.0833334 50.0
v 0.0 -1.0416667 50.0
v 0.0 0.0 50.0
v 0.0 1.0416667 50.0
v 0.0 2.0833334 50.0
v 0.0 3.125 50.0
v 0.0 4.16666679 50.0
v 0.0 5.20833321 50.0
v 0.0 6.25 50.0
v 0.0 7.29166642 50.0
v 0.0 8.33333358 50.0
v 0.0 9.375 50.0
v 0.0 10.4166664 50.0
v 0.0 11.4583336 50.0
v 0.0 12.5 50.0
v 0.0 13.5416672 50.0
v 0.0 14.5833328 50.0
v 0.0 15.625 50.0
v 0.0 16.6666672 50.0
v 0.0 17.7083328 50.0
v 0.0 18.75 50.0
v 0.0 19.7916672 50.0
v 0.0 20.8333328 50.0
v 0.0 21.875 50.0
v 0.0 22.9166672 50.0
v 0.0 23.9583328 50.0
v 0.0 25.0 50.0
v 0.0 26.0416657 50.0
v 0.0 27.0833343 50.0
v 0.0 28.125 50.0
v 0.0 29.1666657 50.0
v 0.0 30.2083343 50.0
v 0.0 31.25 50.0
v 0.0 32.2916657 50.0
v 0.0 33.3333343 50.0
v 0.0 34.375 50.0
v 0.0 35.4166657 50.0
v 0.0 36.4583343 50.0
v 0.0 37.5 50.0
v 0.0 38.5416657 50.0
v 0.0 39.5833343 50.0
v 0.0 40.625 50.0
v 0.0 41.6666657 50.0
v 0.0 42.7083343 50.0
v 0.0 43.75 50.0
v 0.0 44.7916657 50.0
v 0.0 45.8333343 50.0
v 0.0 46.875 50.0
v 0.0 47.9166657 50.0
v 0.0 48.9583343 50.0
v 0.0 50.0 50.0
v 0.0 -50.0 -50.0
v 0.0 -48.9583343 -50.0
v 0.0 -47.9166657 -50.0
v 0.0 -46.875 -50.0
v 0.0 -45.8333343 -50.0
v 0.0 -44.7916657 -50.0
v 0.0 -43.75 -50.0
v 0.0 -42.7083343 -50.0
v 0.0 -41.6666657 -50.0
v 0.0 -40.625 -50.0
v 0.0 -39.5833343 -50.0
v 0.0 -38.5416657 -50.0
v 0.0 -37.5 -50.0
v 0.0 -36.4583343 -50.0
v 0.0 -35.4166657 -50.0
v 0.0 -34.375 -50.0
v 0.0 -33.3333343 -50.0
v 0.0 -32.2916657 -50.0
v 0.0 -31.25 -50.0
v 0.0 -30.2083343 -50.0
v 0.0 -29.1666657 -50.0
v 0.0 -28.125 -50.0
v 0.0 -27.0833343 -50.0
v 0.0 -26.0416657 -50.0
v 0.0 -25.0 -50.0
v 0.0 -23.9583328 -50.0
v 0.0 -22.9166672 -50.0
v 0.0 -21.875 -50.0
v 0.0 -20.8333328 -50.0
v 0.0 -19.7916672 -50.0
v 0.0 -18.75 -50.0
v 0.0 -17.7083328 -50.0
v 0.0 -16.6666672 -50.0
v 0.0 -15.625 -50.0
v 0.0 -14.5833328 -50.0
v 0.0 -13.5416672 -50.0
v 0.0 -12.5 -50.0
v 0.0 -11.4583336 -50.0
v 0.0 -10.4166664 -50.0
v 0.0 -9.375 -50.0
v 0.0 -8.33333358 -50.0
v 0.0 -7.29166642 -50.0
v 0.0 -6.25 -50.0
v 0.0 -5.20833321 -50.0
v 0.0 -4.16666679 -50.0
v 0.0 -3.125 -50.0
v 0.0 -2.0833334 -50.0
v 0.0 -1.0416667 -50.0
v 0.0 0.0 -50.0
v 0.0 1.0416667 -50.0
v 0.0 2.0833334 -50.0
v 0.0 3.125 -50.0
v 0.0 4.16666679 -50.0
v 0.0 5.20833321 -50.0
v 0.0 6.25 -50.0
v 0.0 7.29166642 -50.0
v 0.0 8.33333358 -50.0
v 0.0 9.375 -50.0
v 0.0 10.4166664 -50.0
v 0.0 11.4583336 -50.0
v 0.0 12.5 -50.0
v 0.0 13.5416672 -50.0
v 0.0 14.5833328 -50.0
v 0.0 15.625 -50.0
v 0.0 16.6666672 -50.0
v 0.0 17.7083328 -50.0
v 0.0 18.75 -50.0
v 0.0 19.7916672 -50.0
v 0.0 20.8333328 -50.0
v 0.0 21.875 -50.0
v 0.0 22.9166672 -50.0
v 0.0 23.9583328 -50.0
v 0.0 25.0 -50.0
v 0.0 26.0416657 -50.0
v 0.0 27.0833343 -50.0
v 0.0 28.125 -50.0
v 0.0 29.1666657 -50.0
v 0.0 30.2083343 -50.0
v 0.0 31.25 -50.0
v 0.0 32.2916657 -50.0
v 0.0 33.3333343 -50.0
v 0.0 34.375 -50.0
v 0.0 35.4166657 -50.0
v 0.0 36.4583343 -50.0
v 0.0 37.5 -50.0
v 0.0 38.5416657 -50.0
v 0.0 39.5833343 -50.0
v 0.0 40.625 -50.0
v 0.0 41.6666657 -50.0
v 0.0 42.7083343 -50.0
v 0.0 43.75 -50.0
v 0.0 44.7916657 -50.0
v 0.0 45.8333343 -50.0
v 0.0 46.875 -50.0
v 0.0 47.9166657 -50.0
v 0.0 48.9583343 -50.0
v 0.0 50.0 -50.0
vt 0.0 0.0
vn -1.0 0.0 0.0
vt 0.010416667 0.0
vn -1.0 0.0 0.0
vt 0.020833334 0.0
vn -1.0 0.0 0.0
vt 0.03125 0.0
vn -1.0 0.0 0.0
vt 0.0416666679 0.0
vn -1.0 0.0 0.0
vt 0.0520833321 0.0
vn -1.0 0.0 0.0
vt 0.0625 0.0
vn -1.0 0.0 0.0
vt 0.0729166642 0.0
vn -1.0 0.0 0.0
vt 0.0833333358 0.0
vn -1.0 0.0 0.0
vt 0.09375 0.0
vn -1.0 0.0 0.0
vt 0.104166664 0.0
vn -1.0 0.0 0.0
vt 0.114583336 0.0
vn -1.0 0.0 0.0
vt 0.125 0.0
vn -1.0 0.0 0.0
vt 0.135416672 0.0
vn -1.0 0.0 0.0
vt 0.145833328 0.0
vn -1.0 0.0 0.0
vt 0.15625 0.0
vn -1.0 0.0 0.0
vt 0.166666672 0.0
vn -1.0 0.0 0.0
vt 0.177083328 0.0
vn -1.0 0.0 0.0
vt 0.1875 0.0
vn -1.0 0.0 0.0
vt 0.197916672 0.0
vn -1.0 0.0 0.0
vt 0.208333328 0.0
vn -1.0 0.0 0.0
vt 0.21875 0.0
vn -1.0 0.0 0.0
vt 0.229166672 0.0
vn -1.0 0.0 0.0
vt 0.239583328 0.0
vn -1.0 0.0 0.0
vt 0.25 0.0
vn -1.0 0.0 0.0
vt 0.260416657 0.0
vn -1.0 0.0 0.0
vt 0.270833343 0.0
vn -1.0 0.0 0.0
vt 0.28125 0.0
vn -1.0 0.0 0.0
vt 0.291666657 0.0
vn -1.0 0.0 0.0
vt 0.302083343 0.0
vn -1.0 0.0 0.0
vt 0.3125 0.0
vn -1.0 0.0 0.0
vt 0.322916657 0.0
vn -1.0 0.0 0.0
vt 0.333333343 0.0
vn -1.0 0.0 0.0
vt 0.34375 0.0
vn -1.0 0.0 0.0
vt 0.354166657 0.0
vn -1.0 0.0 0.0
vt 0.364583343 0.0
vn -1.0 0.0 0.0
vt 0.375 0.0
vn -1.0 0.0 0.0
vt 0.385416657 0.0
vn -1.0 0.0 0.0
vt 0.395833343 0.0
vn -1.0 0.0 0.0
vt 0.40625 0.0
vn -1.0 0.0 0.0
vt 0.416666657 0.0
vn -1.0 0.0 0.0
vt 0.427083343 0.0
vn -1.0 0.0 0.0
vt 0.4375 0.0
vn -1.0 0.0 0.0
vt 0.447916657 0.0
vn -1.0 0.0 0.0
vt 0.458333343 0.0
vn -1.0 0.0 0.0
vt 0.46875 0.0
vn -1.0 0.0 0.0
vt 0.479166657 0.0
vn -1.0 0.0 0.0
vt 0.489583343 0.0
vn -1.0 0.0 0.0
vt 0.5 0.0
vn -1.0 0.0 0.0
vt 0.510416687 0.0
vn -1.0 0.0 0.0
vt 0.520833313 0.0
vn -1.0 0.0 0.0
vt 0.53125 0.0
vn -1.0 0.0 0.0
vt 0.541666687 0.0
vn -1.0 0.0 0.0
vt 0.552083313 0.0
vn -1.0 0.0 0.0
vt 0.5625 0.0
vn -1.0 0.0 0.0
vt 0.572916687 0.0
vn -1.0 0.0 0.0
vt 0.583333313 0.0
vn -1.0 0.0 0.0
vt 0.59375 0.0
vn -1.0 0.0 0.0
vt 0.604166687 0.0
vn -1.0 0.0 0.0
vt 0.614583313 0.0
vn -1.0 0.0 0.0
vt 0.625 0.0
vn -1.0 0.0 0.0
vt 0.635416687 0.0
vn -1.0 0.0 0.0
vt 0.645833313 0.0
vn -1.0 0.0 0.0
vt 0.65625 0.0
vn -1.0 0.0 0.0
vt 0.666666687 0.0
vn -1.0 0.0 0.0
vt 0.677083313 0.0
vn -1.0 0.0 0.0
vt 0.6875 0.0
vn -1.0 0.0 0.0
vt 0.697916687 0.0
vn -1.0 0.0 0.0
vt 0.708333313 0.0
vn -1.0 0.0 0.0
vt 0.71875 0.0
vn -1.0 0.0 0.0
vt 0.729166687 0.0
vn -1.0 0.0 0.0
vt 0.739583313 0.0
vn -1.0 0.0 0.0
vt 0.75 0.0
vn -1.0 0.0 0.0
vt 0.760416687 0.0
vn -1.0 0.0 0.0
vt 0.770833313 0.0
vn -1.0 0.0 0.0
vt 0.78125 0.0
vn -1.0 0.0 0.0
vt 0.791666687 0.0
vn -1.0 0.0 0.0
vt 0.802083313 0.0
vn -1.0 0.0 0.0
vt 0.8125 0.0
vn -1.0 0.0 0.0
vt 0.822916687 0.0
vn -1.0 0.0 0.0
vt 0.833333313 0.0
vn -1.0 0.0 0.0
vt 0.84375 0.0
vn -1.0 0.0 0.0
vt 0.854166687 0.0
vn -1.0 0.0 0.0
vt 0.864583313 0.0
vn -1.0 0.0 0.0
vt 0.875 0.0
vn -1.0 0.0 0.0
vt 0.885416687 0.0
vn -1.0 0.0 0.0
vt 0.895833313 0.0
vn -1.0 0.0 0.0
vt 0.90625 0.0
vn -1.0 0.0 0.0
vt 0.916666687 0.0
vn -1.0 0.0 0.0
vt 0.927083313 0.0
vn -1.0 0.0 0.0
vt 0.9375 0.0
vn -1.0 0.0 0.0
vt 0.947916687 0.0
vn -1.0 0.0 0.0
vt 0.958333313 0.0
vn -1.0 0.0 0.0
vt 0.96875 0.0
vn -1.0 0.0 0.0
vt 0.979166687 0.0
vn -1.0 0.0 0.0
vt 0.989583313 0.0
vn -1.0 0.0 0.0
vt 1.0 0.0
vn -1.0 0.0 0.0
vt 0.0 1.0
vn -1.0 0.0 0.0
vt 0.010416667 1.0
vn -1.0 0.0 0.0
vt 0.020833334 1.0
vn -1.0 0.0 0.0
vt 0.03125 1.0
vn -1.0 0.0 0.0
vt 0.0416666679 1.0
vn -1.0 0.0 0.0
vt 0.0520833321 1.0
vn -1.0 0.0 0.0
vt 0.0625 1.0
vn -1.0 0.0 0.0
vt 0.0729166642 1.0
vn -1.0 0.0 0.0
vt 0.0833333358 1.0
vn -1.0 0.0 0.0
vt 0.09375 1.0
vn -1.0 0.0 0.0
vt 0.104166664 1.0
vn -1.0 0.0 0.0
vt 0.114583336 1.0
vn -1.0 0.0 0.0
vt 0.125 1.0
vn -1.0 0.0 0.0
vt 0.135416672 1.0
vn -1.0 0.0 0.0
vt 0.145833328 1.0
vn -1.0 0.0 0.0
vt 0.15625 1.0
vn -1.0 0.0 0.0
vt 0.166666672 1.0
vn -1.0 0.0 0.0
vt 0.177083328 1.0
vn -1.0 0.0 0.0
vt 0.1875 1.0
vn -1.0 0.0 0.0
vt 0.197916672 1.0
vn -1.0 0.0 0.0
vt 0.208333328 1.0
vn -1.0 0.0 0.0
vt 0.21875 1.0
vn -1.0 0.0 0.0
vt 0.229166672 1.0
vn -1.0 0.0 0.0
vt 0.239583328 1.0
vn -1.0 0.0 0.0
vt 0.25 1.0
vn -1.0 0.0 0.0
vt 0.260416657 1.0
vn -1.0 0.0 0.0
vt 0.270833343 1.0
vn -1.0 0.0 0.0
vt 0.28125 1.0
vn -1.0 0.0 0.0
vt 0.291666657 1.0
vn -1.0 0.0 0.0
vt 0.302083343 1.0
vn -1.0 0.0 0.0
vt 0.3125 1.0
vn -1.0 0.0 0.0
vt 0.322916657 1.0
vn -1.0 0.0 0.0
vt 0.333333343 1.0
vn -1.0 0.0 0.0
vt 0.34375 1.0
vn -1.0 0.0 0.0
vt 0.354166657 1.0
vn -1.0 0.0 0.0
vt 0.364583343 1.0
vn -1.0 0.0 0.0
vt 0.375 1.0
vn -1.0 0.0 0.0
vt 0.385416657 1.0
vn -1.0 0.0 0.0
vt 0.395833343 1.0
vn -1.0 0.0 0.0
vt 0.40625 1.0
vn -1.0 0.0 0.0
vt 0.416666657 1.0
vn -1.0 0.0 0.0
vt 0.427083343 1.0
vn -1.0 0.0 0.0
vt 0.4375 1.0
vn -1.0 0.0 0.0
vt 0.447916657 1.0
vn -1.0 0.0 0.0
vt 0.458333343 1.0
vn -1.0 0.0 0.0
vt 0.46875 1.0
vn -1.0 0.0 0.0
vt 0.479166657 1.0
vn -1.0 0.0 0.0
vt 0.489583343 1.0
vn -1.0 0.0 0.0
vt 0.5 1.0
vn -1.0 0.0 0.0
vt 0.510416687 1.0
vn -1.0 0.0 0.0
vt 0.520833313 1.0
vn -1.0 0.0 0.0
vt 0.53125 1.0
vn -1.0 0.0 0.0
vt 0.541666687 1.0
vn -1.0 0.0 0.0
vt 0.552083313 1.0
vn -1.0 0.0 0.0
vt 0.5625 1.0
vn -1.0 0.0 0.0
vt 0.572916687 1.0
vn -1.0 0.0 0.0
vt 0.583333313 1.0
vn -1.0 0.0 0.0
vt 0.59375 1.0
vn -1.0 0.0 0.0
vt 0.604166687 1.0
vn -1.0 0.0 0.0
vt 0.614583313 1.0
vn -1.0 0.0 0.0
vt 0.625 1.0
vn -1.0 0.0 0.0
vt 0.635416687 1.0
vn -1.0 0.0 0.0
vt 0.645833313 1.0
vn -1.0 0.0 0.0
vt 0.65625 1.0
vn -1.0 0.0 0.0
vt 0.666666687 1.0
vn -1.0 0.0 0.0
vt 0.677083313 1.0
vn -1.0 0.0 0.0
vt 0.6875 1.0
vn -1.0 0.0 0.0
vt 0.697916687 1.0
vn -1.0 0.0 0.0
vt 0.708333313 1.0
vn -1.0 0.0 0.0
vt 0.71875 1.0
vn -1.0 0.0 0.0
vt 0.729166687 1.0
vn -1.0 0.0 0.0
vt 0.739583313 1.0
vn -1.0 0.0 0.0
vt 0.75 1.0
vn -1.0 0.0 0.0
vt 0.760416687 1.0
vn -1.0 0.0 0.0
vt 0.770833313 1.0
vn -1.0 0.0 0.0
vt 0.78125 1.0
vn -1.0 0.0 0.0
vt 0.791666687 1.0
vn -1.0 0.0 0.0
vt 0.802083313 1.0
vn -1.0 0.0 0.0
vt 0.8125 1.0
vn -1.0 0.0 0.0
vt 0.822916687 1.0
vn -1.0 0.0 0.0
vt 0.833333313 1.0
vn -1.0 0.0 0.0
vt 0.84375 1.0
vn -1.0 0.0 0.0
vt 0.854166687 1.0
vn -1.0 0.0 0.0
vt 0.864583313 1.0
vn -1.0 0.0 0.0
vt 0.875 1.0
vn -1.0 0.0 0.0
vt 0.885416687 1.0
vn -1.0 0.0 0.0
vt 0.895833313 1.0
vn -1.0 0.0 0.0
vt 0.90625 1.0
vn -1.0 0.0 0.0
vt 0.916666687 1.0
vn -1.0 0.0 0.0
vt 0.927083313 1.0
vn -1.0 0.0 0.0
vt 0.9375 1.0
vn -1.0 0.0 0.0
vt 0.947916687 1.0
vn -1.0 0.0 0.0
vt 0.958333313 1.0
vn -1.0 0.0 0.0
vt 0.96875 1.0
vn -1.0 0.0 0.0
vt 0.979166687 1.0
vn -1.0 0.0 0.0
vt 0.989583313 1.0
vn -1.0 0.0 0.0
vt 1.0 1.0
vn -1.0 0.0 0.0
f 1/1/1 2/2/2 98/98/98
f 98/98/98 2/2/2 99/99/99
f 2/2/2 3/3/3 99/99/99
f 99/99/99 3/3/3 100/100/100
f 3/3/3 4/4/4 100/100/100
f 100/100/100 4/4/4 101/101/101
f 4/4/4 5/5/5 101/101/101
f 101/101/101 5/5/5 102/102/102
f 5/5/5 6/6/6 102/102/102
f 102/102/102 6/6/6 103/103/103
f 6/6/6 7/7/7 103/103/103
f 103/103/103 7/7/7 104/104/104
f 7/7/7 8/8/8 104/104/104
f 104/104/104 8/8/8 105/105/105
f 8/8/8 9/9/9 105/105/105
f 105/105/105 9/9/9 106/106/106
f 9/9/9 10/10/10 106/106/106
f 106/106/106 10/10/10 107/107/107
f 10/10/10 11/11/11 107/107/107
f 107/107/107 11/11/11 108/108/108
f 11/11/11 12/12/12 108/108/108
f 108/108/108 12/12/12 109/109/109
f 12/12/12 13/13/13 109/109/109
f 109/109/109 13/13/13 110/110/110
f 13/13/13 14/14/14 110/110/110
f 110/110/110 14/14/14 111/111/111
f 14/14/14 15/15/15 111/111/111
f 111/111/111 15/15/15 112/112/112
f 15/15/15 16/16/16 112/112/112
f 112/112/112 16/16/16 113/113/113
f 16/16/16 17/17/17 113/113/113
f 113/113/113 17/17/17 114/114/114
f 17/17/17 18/18/18 114/114/114
f 114/114/114 18/18/18 115/115/115
f 18/18/18 19/19/19 115/115/115
f 115/115/115 19/19/19 116/116/116
f 19/19/19 20/20/20 116/116/116
f 116/116/116 20/20/20 117/117/117
f 20/20/20 21/21/21 117/117/117
f 117/117/117 21/21/21 118/118/118
f 21/21/21 22/22/22 118/118/118
f 118/118/118 22/22/22 119/119/119
f 22/22/22 23/23/23 119/119/119
f 119/119/119 23/23/23 120/120/120
f 23/23/23 24/24/24 120/120/120
f 120/120/120 24/24/24 121/121/121
f 24/24/24 25/25/25 121/121/121
f 121/121/121 25/25/25 122/122/122
f 25/25/25 26/26/26 122/122/122
f 122/122/122 26/26/26 123/123/123
f 26/26/26 27/27/27 123/123/123
f 123/123/123 27/27/27 124/124/124
f 27/27/27 28/28/28 124/124/124
f 124/124/124 28/28/28 125/125/125
f 28/28/28 29/29/29 125/125/125
f 125/125/125 29/29/29 126/126/126
f 29/29/29 30/30/30 126/126/126
f 126/126/126 30/30/30 127/127/127
f 30/30/30 31/31/31 127/127/127
f 127/127/127 31/31/31 128/128/128
f 31/31/31 32/32/32 128/128/128
f 128/128/128 32/32/32 129/129/129
f 32/32/32 33/33/33 129/129/129
f 129/129/129 33/33/33 130/130/130
f 33/33/33 34/34/34 130/130/130
f 130/130/130 34/34/34 131/131/131
f 34/34/34 35/35/35 131/131/131
f 131/131/131 35/35/35 132/132/132
f 35/35/35 36/36/36 132/132/132
f 132/132/132 36/36/36 133/133/133
f 36/36/36 37/37/37 133/133/133
f 133/133/133 37/37/37 134/134/134
f 37/37/37 38/38/38 134/134/134
f 134/134/134 38/38/38 135/135/135
f 38/38/38 39/39/39 135/135/135
f 135/135/135 39/39/39 136/136/136
f 39/39/39 40/40/40 136/136/136
f 136/136/136 40/40/40 137/137/137
f 40/40/40 41/41/41 137/137/137
f 137/137/137 41/41/41 138/138/138
f 41/41/41 42/42/42 138/138/138
f 138/138/138 42/42/42 139/139/139
f 42/42/42 43/43/43 139/139/139
f 139/139/139 43/43/43 140/140/140
f 43/43/43 44/44/44 140/140/140
f 140/140/140 44/44/44 141/141/141
f 44/44/44 45/45/45 141/141/141
f 141/141/141 45/45/45 142/142/142
f 45/45/45 46/46/46 142/142/142
f 142/142/142 46/46/46 143/143/143
f 46/46/46 47/47/47 143/143/143
f 143/143/143 47/47/47 144/144/144
f 47/47/47 48/48/48 144/144/144
f 144/144/144 48/48/48 145/145/145
f 48/48/48 49/49/49 145/145/145
f 145/145/145 49/49/49 146/146/146
f 49/49/49 50/50/50 146/146/146
f 146/146/146 50/50/50 147/147/147
f 50/50/50 51/51/51 147/147/147
f 147/147/147 51/51/51 148/148/148
f 51/51/51 52/52/52 148/148/148
f 148/148/148 52/52/52 149/149/149
f 52/52/52 53/53/53 149/149/149
f 149/149/149 53/53/53 150/150/150
f 53/53/53 54/54/54 150/150/150
f 150/150/150 54/54/54 151/151/151
f 54/54/54 55/55/55 151/151/151
f 151/151/151 55/55/55 152/152/152
f 55/55/55 56/56/56 152/152/152
f 152/152/152 56/56/56 153/153/153
f 56/56/56 57/57/57 153/153/153
f 153/153/153 57/57/57 154/154/154
f 57/57/57 58/58/58 154/154/154
f 154/154/154 58/58/58 155/155/155
f 58/58/58 59/59/59 155/155/155
f 155/155/155 59/59/59 156/156/156
f 59/59/59 60/60/60 156/156/156
f 156/156/156 60/60/60 157/157/157
f 60/60/60 61/61/61 157/157/157
f 157/157/157 61/61/61 158/158/158
f 61/61/61 62/62/62 158/158/158
f 158/158/158 62/62/62 159/159/159
f 62/62/62 63/63/63 159/159/159
f 159/159/159 63/63/63 160/160/160
f 63/63/63 64/64/64 160/160/160
f 160/160/160 64/64/64 161/161/161
f 64/64/64 65/65/65 161/161/161
f 161/161/161 65/65/65 162/162/162
f 65/65/65 66/66/66 162/162/162
f 162/162/162 66/66/66 163/163/163
f 66/66/66 67/67/67 163/163/163
f 163/163/163 67/67/67 164/164/164
f 67/67/67 68/68/68 164/164/164
f 164/164/164 68/68/68 165/165/165
f 68/68/68 69/69/69 165/165/165
f 165/165/165 69/69/69 166/166/166
f 69/69/69 70/70/70 166/166/166
f 166/166/166 70/70/70 167/167/167
f 70/70/70 71/71/71 167/167/167
f 167/167/167 71/71/71 168/168/168
f 71/71/71 72/72/72 168/168/168
f 168/168/168 72/72/72 169/169/169
f 72/72/72 73/73/73 169/169/169
f 169/169/169 73/73/73 170/170/170
f 73/73/73 74/74/74 170/170/170
f 170/170/170 74/74/74 171/171/171
f 74/74/74 75/75/75 171/171/171
f 171/171/171 75/75/75 172/172/172
f 75/75/75 76/76/76 172/172/172
f 172/172/172 76/76/76 173/173/173
f 76/76/76 77/77/77 173/173/173
f 173/173/173 77/77/77 174/174/174
f 77/77/77 78/78/78 174/174/174
f 174/174/174 78/78/78 175/175/175
f 78/78/78 79/79/79 175/175/175
f 175/175/175 79/79/79 176/176/176
f 79/79/79 80/80/80 176/176/176
f 176/176/176 80/80/80 177/177/177
f 80/80/80 81/81/81 177/177/177
f 177/177/177 81/81/81 178/178/178
f 81/81/81 82/82/82 178/178/178
f 178/178/178 82/82/82 179/179/179
f 82/82/82 83/83/83 179/179/179
f 179/179/179 83/83/83 180/180/180
f 83/83/83 84/84/84 180/180/180
f 180/180/180 84/84/84 181/181/181
f 84/84/84 85/85/85 181/181/181
f 181/181/181 85/85/85 182/182/182
f 85/85/85 86/86/86 182/182/182
f 182/182/182 86/86/86 183/183/183
f 86/86/86 87/87/87 183/183/183
f 183/183/183 87/87/87 184/184/184
f 87/87/87 88/88/88 184/184/184
f 184/184/184 88/88/88 185/185/185
f 88/88/88 89/89/89 185/185/185
f 185/185/185 89/89/89 186/186/186
f 89/89/89 90/90/90 186/186/186
f 186/186/186 90/90/90 187/187/187
f 90/90/90 91/91/91 187/187/187
f 187/187/187 91/91/91 188/188/188
f 91/91/91 92/92/92 188/188/188
f 188/188/188 92/92/92 189/189/189
f 92/92/92 93/93/93 189/189/189
f 189/189/189 93/93/93 190/190/190
f 93/93/93 94/94/94 190/190/190
f 190/190/190 94/94/94 191/191/191
f 94/94/94 95/95/95 191/191/191
f 191/191/191 95/95/95 192/192/192
f 95/95/95 96/96/96 192/192/192
f 192/192/192 96/96/96 193/193/193
f 96/96/96 97/97/97 193/193/193
f 193/193/193 97/97/97 194/194/194
