# Sancta editable mesh extracted from the approved reference, cm, Z up
v 0.0 -100.0 -100.0
v 0.0 -92.8571429 -100.0
v 0.0 -85.7142857 -100.0
v 0.0 -78.5714286 -100.0
v 0.0 -71.4285714 -100.0
v 0.0 -64.2857143 -100.0
v 0.0 -57.1428571 -100.0
v 0.0 -50.0 -100.0
v 0.0 -42.8571429 -100.0
v 0.0 -35.7142857 -100.0
v 0.0 -28.5714286 -100.0
v 0.0 -21.4285714 -100.0
v 0.0 -14.2857143 -100.0
v 0.0 -7.14285714 -100.0
v 0.0 0.0 -100.0
v 0.0 7.14285714 -100.0
v 0.0 14.2857143 -100.0
v 0.0 21.4285714 -100.0
v 0.0 28.5714286 -100.0
v 0.0 35.7142857 -100.0
v 0.0 42.8571429 -100.0
v 0.0 50.0 -100.0
v 0.0 57.1428571 -100.0
v 0.0 64.2857143 -100.0
v 0.0 71.4285714 -100.0
v 0.0 78.5714286 -100.0
v 0.0 85.7142857 -100.0
v 0.0 92.8571429 -100.0
v 0.0 100.0 -100.0
v 0.0 -100.0 -87.5
v 0.0 -92.8571429 -87.5
v 0.0 -85.7142857 -87.5
v 0.0 -78.5714286 -87.5
v 0.0 -71.4285714 -87.5
v 0.0 -64.2857143 -87.5
v 0.0 -57.1428571 -87.5
v 0.0 -50.0 -87.5
v 0.0 -42.8571429 -87.5
v 0.0 -35.7142857 -87.5
v 0.0 -28.5714286 -87.5
v 0.0 -21.4285714 -87.5
v 0.0 -14.2857143 -87.5
v 0.0 -7.14285714 -87.5
v 0.0 0.0 -87.5
v 0.0 7.14285714 -87.5
v 0.0 14.2857143 -87.5
v 0.0 21.4285714 -87.5
v 0.0 28.5714286 -87.5
v 0.0 35.7142857 -87.5
v 0.0 42.8571429 -87.5
v 0.0 50.0 -87.5
v 0.0 57.1428571 -87.5
v 0.0 64.2857143 -87.5
v 0.0 71.4285714 -87.5
v 0.0 78.5714286 -87.5
v 0.0 85.7142857 -87.5
v 0.0 92.8571429 -87.5
v 0.0 100.0 -87.5
v 0.0 -100.0 -75.0
v 0.0 -92.8571429 -75.0
v 0.0 -85.7142857 -75.0
v 0.0 -78.5714286 -75.0
v 0.0 -71.4285714 -75.0
v 0.0 -64.2857143 -75.0
v 0.0 -57.1428571 -75.0
v 0.0 -50.0 -75.0
v 0.0 -42.8571429 -75.0
v 0.0 -35.7142857 -75.0
v 0.0 -28.5714286 -75.0
v 0.0 -21.4285714 -75.0
v 0.0 -14.2857143 -75.0
v 0.0 -7.14285714 -75.0
v 0.0 0.0 -75.0
v 0.0 7.14285714 -75.0
v 0.0 14.2857143 -75.0
v 0.0 21.4285714 -75.0
v 0.0 28.5714286 -75.0
v 0.0 35.7142857 -75.0
v 0.0 42.8571429 -75.0
v 0.0 50.0 -75.0
v 0.0 57.1428571 -75.0
v 0.0 64.2857143 -75.0
v 0.0 71.4285714 -75.0
v 0.0 78.5714286 -75.0
v 0.0 85.7142857 -75.0
v 0.0 92.8571429 -75.0
v 0.0 100.0 -75.0
v 0.0 -100.0 -62.5
v 0.0 -92.8571429 -62.5
v 0.0 -85.7142857 -62.5
v 0.0 -78.5714286 -62.5
v 0.0 -71.4285714 -62.5
v 0.0 -64.2857143 -62.5
v 0.0 -57.1428571 -62.5
v 0.0 -50.0 -62.5
v 0.0 -42.8571429 -62.5
v 0.0 -35.7142857 -62.5
v 0.0 -28.5714286 -62.5
v 0.0 -21.4285714 -62.5
v 0.0 -14.2857143 -62.5
v 0.0 -7.14285714 -62.5
v 0.0 0.0 -62.5
v 0.0 7.14285714 -62.5
v 0.0 14.2857143 -62.5
v 0.0 21.4285714 -62.5
v 0.0 28.5714286 -62.5
v 0.0 35.7142857 -62.5
v 0.0 42.8571429 -62.5
v 0.0 50.0 -62.5
v 0.0 57.1428571 -62.5
v 0.0 64.2857143 -62.5
v 0.0 71.4285714 -62.5
v 0.0 78.5714286 -62.5
v 0.0 85.7142857 -62.5
v 0.0 92.8571429 -62.5
v 0.0 100.0 -62.5
v 0.0 -100.0 -50.0
v 0.0 -92.8571429 -50.0
v 0.0 -85.7142857 -50.0
v 0.0 -78.5714286 -50.0
v 0.0 -71.4285714 -50.0
v 0.0 -64.2857143 -50.0
v 0.0 -57.1428571 -50.0
v 0.0 -50.0 -50.0
v 0.0 -42.8571429 -50.0
v 0.0 -35.7142857 -50.0
v 0.0 -28.5714286 -50.0
v 0.0 -21.4285714 -50.0
v 0.0 -14.2857143 -50.0
v 0.0 -7.14285714 -50.0
v 0.0 0.0 -50.0
v 0.0 7.14285714 -50.0
v 0.0 14.2857143 -50.0
v 0.0 21.4285714 -50.0
v 0.0 28.5714286 -50.0
v 0.0 35.7142857 -50.0
v 0.0 42.8571429 -50.0
v 0.0 50.0 -50.0
v 0.0 57.1428571 -50.0
v 0.0 64.2857143 -50.0
v 0.0 71.4285714 -50.0
v 0.0 78.5714286 -50.0
v 0.0 85.7142857 -50.0
v 0.0 92.8571429 -50.0
v 0.0 100.0 -50.0
v 0.0 -100.0 -37.5
v 0.0 -92.8571429 -37.5
v 0.0 -85.7142857 -37.5
v 0.0 -78.5714286 -37.5
v 0.0 -71.4285714 -37.5
v 0.0 -64.2857143 -37.5
v 0.0 -57.1428571 -37.5
v 0.0 -50.0 -37.5
v 0.0 -42.8571429 -37.5
v 0.0 -35.7142857 -37.5
v 0.0 -28.5714286 -37.5
v 0.0 -21.4285714 -37.5
v 0.0 -14.2857143 -37.5
v 0.0 -7.14285714 -37.5
v 0.0 0.0 -37.5
v 0.0 7.14285714 -37.5
v 0.0 14.2857143 -37.5
v 0.0 21.4285714 -37.5
v 0.0 28.5714286 -37.5
v 0.0 35.7142857 -37.5
v 0.0 42.8571429 -37.5
v 0.0 50.0 -37.5
v 0.0 57.1428571 -37.5
v 0.0 64.2857143 -37.5
v 0.0 71.4285714 -37.5
v 0.0 78.5714286 -37.5
v 0.0 85.7142857 -37.5
v 0.0 92.8571429 -37.5
v 0.0 100.0 -37.5
v 0.0 -100.0 -25.0
v 0.0 -92.8571429 -25.0
v 0.0 -85.7142857 -25.0
v 0.0 -78.5714286 -25.0
v 0.0 -71.4285714 -25.0
v 0.0 -64.2857143 -25.0
v 0.0 -57.1428571 -25.0
v 0.0 -50.0 -25.0
v 0.0 -42.8571429 -25.0
v 0.0 -35.7142857 -25.0
v 0.0 -28.5714286 -25.0
v 0.0 -21.4285714 -25.0
v 0.0 -14.2857143 -25.0
v 0.0 -7.14285714 -25.0
v 0.0 0.0 -25.0
v 0.0 7.14285714 -25.0
v 0.0 14.2857143 -25.0
v 0.0 21.4285714 -25.0
v 0.0 28.5714286 -25.0
v 0.0 35.7142857 -25.0
v 0.0 42.8571429 -25.0
v 0.0 50.0 -25.0
v 0.0 57.1428571 -25.0
v 0.0 64.2857143 -25.0
v 0.0 71.4285714 -25.0
v 0.0 78.5714286 -25.0
v 0.0 85.7142857 -25.0
v 0.0 92.8571429 -25.0
v 0.0 100.0 -25.0
v 0.0 -100.0 -12.5
v 0.0 -92.8571429 -12.5
v 0.0 -85.7142857 -12.5
v 0.0 -78.5714286 -12.5
v 0.0 -71.4285714 -12.5
v 0.0 -64.2857143 -12.5
v 0.0 -57.1428571 -12.5
v 0.0 -50.0 -12.5
v 0.0 -42.8571429 -12.5
v 0.0 -35.7142857 -12.5
v 0.0 -28.5714286 -12.5
v 0.0 -21.4285714 -12.5
v 0.0 -14.2857143 -12.5
v 0.0 -7.14285714 -12.5
v 0.0 0.0 -12.5
v 0.0 7.14285714 -12.5
v 0.0 14.2857143 -12.5
v 0.0 21.4285714 -12.5
v 0.0 28.5714286 -12.5
v 0.0 35.7142857 -12.5
v 0.0 42.8571429 -12.5
v 0.0 50.0 -12.5
v 0.0 57.1428571 -12.5
v 0.0 64.2857143 -12.5
v 0.0 71.4285714 -12.5
v 0.0 78.5714286 -12.5
v 0.0 85.7142857 -12.5
v 0.0 92.8571429 -12.5
v 0.0 100.0 -12.5
v 0.0 -100.0 0.0
v 0.0 -92.8571429 0.0
v 0.0 -85.7142857 0.0
v 0.0 -78.5714286 0.0
v 0.0 -71.4285714 0.0
v 0.0 -64.2857143 0.0
v 0.0 -57.1428571 0.0
v 0.0 -50.0 0.0
v 0.0 -42.8571429 0.0
v 0.0 -35.7142857 0.0
v 0.0 -28.5714286 0.0
v 0.0 -21.4285714 0.0
v 0.0 -14.2857143 0.0
v 0.0 -7.14285714 0.0
v 0.0 0.0 0.0
v 0.0 7.14285714 0.0
v 0.0 14.2857143 0.0
v 0.0 21.4285714 0.0
v 0.0 28.5714286 0.0
v 0.0 35.7142857 0.0
v 0.0 42.8571429 0.0
v 0.0 50.0 0.0
v 0.0 57.1428571 0.0
v 0.0 64.2857143 0.0
v 0.0 71.4285714 0.0
v 0.0 78.5714286 0.0
v 0.0 85.7142857 0.0
v 0.0 92.8571429 0.0
v 0.0 100.0 0.0
v 0.0 -100.0 12.5
v 0.0 -92.8571429 12.5
v 0.0 -85.7142857 12.5
v 0.0 -78.5714286 12.5
v 0.0 -71.4285714 12.5
v 0.0 -64.2857143 12.5
v 0.0 -57.1428571 12.5
v 0.0 -50.0 12.5
v 0.0 -42.8571429 12.5
v 0.0 -35.7142857 12.5
v 0.0 -28.5714286 12.5
v 0.0 -21.4285714 12.5
v 0.0 -14.2857143 12.5
v 0.0 -7.14285714 12.5
v 0.0 0.0 12.5
v 0.0 7.14285714 12.5
v 0.0 14.2857143 12.5
v 0.0 21.4285714 12.5
v 0.0 28.5714286 12.5
v 0.0 35.7142857 12.5
v 0.0 42.8571429 12.5
v 0.0 50.0 12.5
v 0.0 57.1428571 12.5
v 0.0 64.2857143 12.5
v 0.0 71.4285714 12.5
v 0.0 78.5714286 12.5
v 0.0 85.7142857 12.5
v 0.0 92.8571429 12.5
v 0.0 100.0 12.5
v 0.0 -100.0 25.0
v 0.0 -92.8571429 25.0
v 0.0 -85.7142857 25.0
v 0.0 -78.5714286 25.0
v 0.0 -71.4285714 25.0
v 0.0 -64.2857143 25.0
v 0.0 -57.1428571 25.0
v 0.0 -50.0 25.0
v 0.0 -42.8571429 25.0
v 0.0 -35.7142857 25.0
v 0.0 -28.5714286 25.0
v 0.0 -21.4285714 25.0
v 0.0 -14.2857143 25.0
v 0.0 -7.14285714 25.0
v 0.0 0.0 25.0
v 0.0 7.14285714 25.0
v 0.0 14.2857143 25.0
v 0.0 21.4285714 25.0
v 0.0 28.5714286 25.0
v 0.0 35.7142857 25.0
v 0.0 42.8571429 25.0
v 0.0 50.0 25.0
v 0.0 57.1428571 25.0
v 0.0 64.2857143 25.0
v 0.0 71.4285714 25.0
v 0.0 78.5714286 25.0
v 0.0 85.7142857 25.0
v 0.0 92.8571429 25.0
v 0.0 100.0 25.0
v 0.0 -100.0 37.5
v 0.0 -92.8571429 37.5
v 0.0 -85.7142857 37.5
v 0.0 -78.5714286 37.5
v 0.0 -71.4285714 37.5
v 0.0 -64.2857143 37.5
v 0.0 -57.1428571 37.5
v 0.0 -50.0 37.5
v 0.0 -42.8571429 37.5
v 0.0 -35.7142857 37.5
v 0.0 -28.5714286 37.5
v 0.0 -21.4285714 37.5
v 0.0 -14.2857143 37.5
v 0.0 -7.14285714 37.5
v 0.0 0.0 37.5
v 0.0 7.14285714 37.5
v 0.0 14.2857143 37.5
v 0.0 21.4285714 37.5
v 0.0 28.5714286 37.5
v 0.0 35.7142857 37.5
v 0.0 42.8571429 37.5
v 0.0 50.0 37.5
v 0.0 57.1428571 37.5
v 0.0 64.2857143 37.5
v 0.0 71.4285714 37.5
v 0.0 78.5714286 37.5
v 0.0 85.7142857 37.5
v 0.0 92.8571429 37.5
v 0.0 100.0 37.5
v 0.0 -100.0 50.0
v 0.0 -92.8571429 50.0
v 0.0 -85.7142857 50.0
v 0.0 -78.5714286 50.0
v 0.0 -71.4285714 50.0
v 0.0 -64.2857143 50.0
v 0.0 -57.1428571 50.0
v 0.0 -50.0 50.0
v 0.0 -42.8571429 50.0
v 0.0 -35.7142857 50.0
v 0.0 -28.5714286 50.0
v 0.0 -21.4285714 50.0
v 0.0 -14.2857143 50.0
v 0.0 -7.14285714 50.0
v 0.0 0.0 50.0
v 0.0 7.14285714 50.0
v 0.0 14.2857143 50.0
v 0.0 21.4285714 50.0
v 0.0 28.5714286 50.0
v 0.0 35.7142857 50.0
v 0.0 42.8571429 50.0
v 0.0 50.0 50.0
v 0.0 57.1428571 50.0
v 0.0 64.2857143 50.0
v 0.0 71.4285714 50.0
v 0.0 78.5714286 50.0
v 0.0 85.7142857 50.0
v 0.0 92.8571429 50.0
v 0.0 100.0 50.0
v 0.0 -100.0 62.5
v 0.0 -92.8571429 62.5
v 0.0 -85.7142857 62.5
v 0.0 -78.5714286 62.5
v 0.0 -71.4285714 62.5
v 0.0 -64.2857143 62.5
v 0.0 -57.1428571 62.5
v 0.0 -50.0 62.5
v 0.0 -42.8571429 62.5
v 0.0 -35.7142857 62.5
v 0.0 -28.5714286 62.5
v 0.0 -21.4285714 62.5
v 0.0 -14.2857143 62.5
v 0.0 -7.14285714 62.5
v 0.0 0.0 62.5
v 0.0 7.14285714 62.5
v 0.0 14.2857143 62.5
v 0.0 21.4285714 62.5
v 0.0 28.5714286 62.5
v 0.0 35.7142857 62.5
v 0.0 42.8571429 62.5
v 0.0 50.0 62.5
v 0.0 57.1428571 62.5
v 0.0 64.2857143 62.5
v 0.0 71.4285714 62.5
v 0.0 78.5714286 62.5
v 0.0 85.7142857 62.5
v 0.0 92.8571429 62.5
v 0.0 100.0 62.5
v 0.0 -100.0 75.0
v 0.0 -92.8571429 75.0
v 0.0 -85.7142857 75.0
v 0.0 -78.5714286 75.0
v 0.0 -71.4285714 75.0
v 0.0 -64.2857143 75.0
v 0.0 -57.1428571 75.0
v 0.0 -50.0 75.0
v 0.0 -42.8571429 75.0
v 0.0 -35.7142857 75.0
v 0.0 -28.5714286 75.0
v 0.0 -21.4285714 75.0
v 0.0 -14.2857143 75.0
v 0.0 -7.14285714 75.0
v 0.0 0.0 75.0
v 0.0 7.14285714 75.0
v 0.0 14.2857143 75.0
v 0.0 21.4285714 75.0
v 0.0 28.5714286 75.0
v 0.0 35.7142857 75.0
v 0.0 42.8571429 75.0
v 0.0 50.0 75.0
v 0.0 57.1428571 75.0
v 0.0 64.2857143 75.0
v 0.0 71.4285714 75.0
v 0.0 78.5714286 75.0
v 0.0 85.7142857 75.0
v 0.0 92.8571429 75.0
v 0.0 100.0 75.0
v 0.0 -100.0 87.5
v 0.0 -92.8571429 87.5
v 0.0 -85.7142857 87.5
v 0.0 -78.5714286 87.5
v 0.0 -71.4285714 87.5
v 0.0 -64.2857143 87.5
v 0.0 -57.1428571 87.5
v 0.0 -50.0 87.5
v 0.0 -42.8571429 87.5
v 0.0 -35.7142857 87.5
v 0.0 -28.5714286 87.5
v 0.0 -21.4285714 87.5
v 0.0 -14.2857143 87.5
v 0.0 -7.14285714 87.5
v 0.0 0.0 87.5
v 0.0 7.14285714 87.5
v 0.0 14.2857143 87.5
v 0.0 21.4285714 87.5
v 0.0 28.5714286 87.5
v 0.0 35.7142857 87.5
v 0.0 42.8571429 87.5
v 0.0 50.0 87.5
v 0.0 57.1428571 87.5
v 0.0 64.2857143 87.5
v 0.0 71.4285714 87.5
v 0.0 78.5714286 87.5
v 0.0 85.7142857 87.5
v 0.0 92.8571429 87.5
v 0.0 100.0 87.5
v 0.0 -100.0 100.0
v 0.0 -92.8571429 100.0
v 0.0 -85.7142857 100.0
v 0.0 -78.5714286 100.0
v 0.0 -71.4285714 100.0
v 0.0 -64.2857143 100.0
v 0.0 -57.1428571 100.0
v 0.0 -50.0 100.0
v 0.0 -42.8571429 100.0
v 0.0 -35.7142857 100.0
v 0.0 -28.5714286 100.0
v 0.0 -21.4285714 100.0
v 0.0 -14.2857143 100.0
v 0.0 -7.14285714 100.0
v 0.0 0.0 100.0
v 0.0 7.14285714 100.0
v 0.0 14.2857143 100.0
v 0.0 21.4285714 100.0
v 0.0 28.5714286 100.0
v 0.0 35.7142857 100.0
v 0.0 42.8571429 100.0
v 0.0 50.0 100.0
v 0.0 57.1428571 100.0
v 0.0 64.2857143 100.0
v 0.0 71.4285714 100.0
v 0.0 78.5714286 100.0
v 0.0 85.7142857 100.0
v 0.0 92.8571429 100.0
v 0.0 100.0 100.0
vt 0.0 1.0
vn -1.0 0.0 0.0
vt 0.0357142857 1.0
vn -1.0 0.0 0.0
vt 0.0714285714 1.0
vn -1.0 0.0 0.0
vt 0.107142857 1.0
vn -1.0 0.0 0.0
vt 0.142857143 1.0
vn -1.0 0.0 0.0
vt 0.178571429 1.0
vn -1.0 0.0 0.0
vt 0.214285714 1.0
vn -1.0 0.0 0.0
vt 0.25 1.0
vn -1.0 0.0 0.0
vt 0.285714286 1.0
vn -1.0 0.0 0.0
vt 0.321428571 1.0
vn -1.0 0.0 0.0
vt 0.357142857 1.0
vn -1.0 0.0 0.0
vt 0.392857143 1.0
vn -1.0 0.0 0.0
vt 0.428571429 1.0
vn -1.0 0.0 0.0
vt 0.464285714 1.0
vn -1.0 0.0 0.0
vt 0.5 1.0
vn -1.0 0.0 0.0
vt 0.535714286 1.0
vn -1.0 0.0 0.0
vt 0.571428571 1.0
vn -1.0 0.0 0.0
vt 0.607142857 1.0
vn -1.0 0.0 0.0
vt 0.642857143 1.0
vn -1.0 0.0 0.0
vt 0.678571429 1.0
vn -1.0 0.0 0.0
vt 0.714285714 1.0
vn -1.0 0.0 0.0
vt 0.75 1.0
vn -1.0 0.0 0.0
vt 0.785714286 1.0
vn -1.0 0.0 0.0
vt 0.821428571 1.0
vn -1.0 0.0 0.0
vt 0.857142857 1.0
vn -1.0 0.0 0.0
vt 0.892857143 1.0
vn -1.0 0.0 0.0
vt 0.928571429 1.0
vn -1.0 0.0 0.0
vt 0.964285714 1.0
vn -1.0 0.0 0.0
vt 1.0 1.0
vn -1.0 0.0 0.0
vt 0.0 0.9375
vn -1.0 0.0 0.0
vt 0.0357142857 0.9375
vn -1.0 0.0 0.0
vt 0.0714285714 0.9375
vn -1.0 0.0 0.0
vt 0.107142857 0.9375
vn -1.0 0.0 0.0
vt 0.142857143 0.9375
vn -1.0 0.0 0.0
vt 0.178571429 0.9375
vn -1.0 0.0 0.0
vt 0.214285714 0.9375
vn -1.0 0.0 0.0
vt 0.25 0.9375
vn -1.0 0.0 0.0
vt 0.285714286 0.9375
vn -1.0 0.0 0.0
vt 0.321428571 0.9375
vn -1.0 0.0 0.0
vt 0.357142857 0.9375
vn -1.0 0.0 0.0
vt 0.392857143 0.9375
vn -1.0 0.0 0.0
vt 0.428571429 0.9375
vn -1.0 0.0 0.0
vt 0.464285714 0.9375
vn -1.0 0.0 0.0
vt 0.5 0.9375
vn -1.0 0.0 0.0
vt 0.535714286 0.9375
vn -1.0 0.0 0.0
vt 0.571428571 0.9375
vn -1.0 0.0 0.0
vt 0.607142857 0.9375
vn -1.0 0.0 0.0
vt 0.642857143 0.9375
vn -1.0 0.0 0.0
vt 0.678571429 0.9375
vn -1.0 0.0 0.0
vt 0.714285714 0.9375
vn -1.0 0.0 0.0
vt 0.75 0.9375
vn -1.0 0.0 0.0
vt 0.785714286 0.9375
vn -1.0 0.0 0.0
vt 0.821428571 0.9375
vn -1.0 0.0 0.0
vt 0.857142857 0.9375
vn -1.0 0.0 0.0
vt 0.892857143 0.9375
vn -1.0 0.0 0.0
vt 0.928571429 0.9375
vn -1.0 0.0 0.0
vt 0.964285714 0.9375
vn -1.0 0.0 0.0
vt 1.0 0.9375
vn -1.0 0.0 0.0
vt 0.0 0.875
vn -1.0 0.0 0.0
vt 0.0357142857 0.875
vn -1.0 0.0 0.0
vt 0.0714285714 0.875
vn -1.0 0.0 0.0
vt 0.107142857 0.875
vn -1.0 0.0 0.0
vt 0.142857143 0.875
vn -1.0 0.0 0.0
vt 0.178571429 0.875
vn -1.0 0.0 0.0
vt 0.214285714 0.875
vn -1.0 0.0 0.0
vt 0.25 0.875
vn -1.0 0.0 0.0
vt 0.285714286 0.875
vn -1.0 0.0 0.0
vt 0.321428571 0.875
vn -1.0 0.0 0.0
vt 0.357142857 0.875
vn -1.0 0.0 0.0
vt 0.392857143 0.875
vn -1.0 0.0 0.0
vt 0.428571429 0.875
vn -1.0 0.0 0.0
vt 0.464285714 0.875
vn -1.0 0.0 0.0
vt 0.5 0.875
vn -1.0 0.0 0.0
vt 0.535714286 0.875
vn -1.0 0.0 0.0
vt 0.571428571 0.875
vn -1.0 0.0 0.0
vt 0.607142857 0.875
vn -1.0 0.0 0.0
vt 0.642857143 0.875
vn -1.0 0.0 0.0
vt 0.678571429 0.875
vn -1.0 0.0 0.0
vt 0.714285714 0.875
vn -1.0 0.0 0.0
vt 0.75 0.875
vn -1.0 0.0 0.0
vt 0.785714286 0.875
vn -1.0 0.0 0.0
vt 0.821428571 0.875
vn -1.0 0.0 0.0
vt 0.857142857 0.875
vn -1.0 0.0 0.0
vt 0.892857143 0.875
vn -1.0 0.0 0.0
vt 0.928571429 0.875
vn -1.0 0.0 0.0
vt 0.964285714 0.875
vn -1.0 0.0 0.0
vt 1.0 0.875
vn -1.0 0.0 0.0
vt 0.0 0.8125
vn -1.0 0.0 0.0
vt 0.0357142857 0.8125
vn -1.0 0.0 0.0
vt 0.0714285714 0.8125
vn -1.0 0.0 0.0
vt 0.107142857 0.8125
vn -1.0 0.0 0.0
vt 0.142857143 0.8125
vn -1.0 0.0 0.0
vt 0.178571429 0.8125
vn -1.0 0.0 0.0
vt 0.214285714 0.8125
vn -1.0 0.0 0.0
vt 0.25 0.8125
vn -1.0 0.0 0.0
vt 0.285714286 0.8125
vn -1.0 0.0 0.0
vt 0.321428571 0.8125
vn -1.0 0.0 0.0
vt 0.357142857 0.8125
vn -1.0 0.0 0.0
vt 0.392857143 0.8125
vn -1.0 0.0 0.0
vt 0.428571429 0.8125
vn -1.0 0.0 0.0
vt 0.464285714 0.8125
vn -1.0 0.0 0.0
vt 0.5 0.8125
vn -1.0 0.0 0.0
vt 0.535714286 0.8125
vn -1.0 0.0 0.0
vt 0.571428571 0.8125
vn -1.0 0.0 0.0
vt 0.607142857 0.8125
vn -1.0 0.0 0.0
vt 0.642857143 0.8125
vn -1.0 0.0 0.0
vt 0.678571429 0.8125
vn -1.0 0.0 0.0
vt 0.714285714 0.8125
vn -1.0 0.0 0.0
vt 0.75 0.8125
vn -1.0 0.0 0.0
vt 0.785714286 0.8125
vn -1.0 0.0 0.0
vt 0.821428571 0.8125
vn -1.0 0.0 0.0
vt 0.857142857 0.8125
vn -1.0 0.0 0.0
vt 0.892857143 0.8125
vn -1.0 0.0 0.0
vt 0.928571429 0.8125
vn -1.0 0.0 0.0
vt 0.964285714 0.8125
vn -1.0 0.0 0.0
vt 1.0 0.8125
vn -1.0 0.0 0.0
vt 0.0 0.75
vn -1.0 0.0 0.0
vt 0.0357142857 0.75
vn -1.0 0.0 0.0
vt 0.0714285714 0.75
vn -1.0 0.0 0.0
vt 0.107142857 0.75
vn -1.0 0.0 0.0
vt 0.142857143 0.75
vn -1.0 0.0 0.0
vt 0.178571429 0.75
vn -1.0 0.0 0.0
vt 0.214285714 0.75
vn -1.0 0.0 0.0
vt 0.25 0.75
vn -1.0 0.0 0.0
vt 0.285714286 0.75
vn -1.0 0.0 0.0
vt 0.321428571 0.75
vn -1.0 0.0 0.0
vt 0.357142857 0.75
vn -1.0 0.0 0.0
vt 0.392857143 0.75
vn -1.0 0.0 0.0
vt 0.428571429 0.75
vn -1.0 0.0 0.0
vt 0.464285714 0.75
vn -1.0 0.0 0.0
vt 0.5 0.75
vn -1.0 0.0 0.0
vt 0.535714286 0.75
vn -1.0 0.0 0.0
vt 0.571428571 0.75
vn -1.0 0.0 0.0
vt 0.607142857 0.75
vn -1.0 0.0 0.0
vt 0.642857143 0.75
vn -1.0 0.0 0.0
vt 0.678571429 0.75
vn -1.0 0.0 0.0
vt 0.714285714 0.75
vn -1.0 0.0 0.0
vt 0.75 0.75
vn -1.0 0.0 0.0
vt 0.785714286 0.75
vn -1.0 0.0 0.0
vt 0.821428571 0.75
vn -1.0 0.0 0.0
vt 0.857142857 0.75
vn -1.0 0.0 0.0
vt 0.892857143 0.75
vn -1.0 0.0 0.0
vt 0.928571429 0.75
vn -1.0 0.0 0.0
vt 0.964285714 0.75
vn -1.0 0.0 0.0
vt 1.0 0.75
vn -1.0 0.0 0.0
vt 0.0 0.6875
vn -1.0 0.0 0.0
vt 0.0357142857 0.6875
vn -1.0 0.0 0.0
vt 0.0714285714 0.6875
vn -1.0 0.0 0.0
vt 0.107142857 0.6875
vn -1.0 0.0 0.0
vt 0.142857143 0.6875
vn -1.0 0.0 0.0
vt 0.178571429 0.6875
vn -1.0 0.0 0.0
vt 0.214285714 0.6875
vn -1.0 0.0 0.0
vt 0.25 0.6875
vn -1.0 0.0 0.0
vt 0.285714286 0.6875
vn -1.0 0.0 0.0
vt 0.321428571 0.6875
vn -1.0 0.0 0.0
vt 0.357142857 0.6875
vn -1.0 0.0 0.0
vt 0.392857143 0.6875
vn -1.0 0.0 0.0
vt 0.428571429 0.6875
vn -1.0 0.0 0.0
vt 0.464285714 0.6875
vn -1.0 0.0 0.0
vt 0.5 0.6875
vn -1.0 0.0 0.0
vt 0.535714286 0.6875
vn -1.0 0.0 0.0
vt 0.571428571 0.6875
vn -1.0 0.0 0.0
vt 0.607142857 0.6875
vn -1.0 0.0 0.0
vt 0.642857143 0.6875
vn -1.0 0.0 0.0
vt 0.678571429 0.6875
vn -1.0 0.0 0.0
vt 0.714285714 0.6875
vn -1.0 0.0 0.0
vt 0.75 0.6875
vn -1.0 0.0 0.0
vt 0.785714286 0.6875
vn -1.0 0.0 0.0
vt 0.821428571 0.6875
vn -1.0 0.0 0.0
vt 0.857142857 0.6875
vn -1.0 0.0 0.0
vt 0.892857143 0.6875
vn -1.0 0.0 0.0
vt 0.928571429 0.6875
vn -1.0 0.0 0.0
vt 0.964285714 0.6875
vn -1.0 0.0 0.0
vt 1.0 0.6875
vn -1.0 0.0 0.0
vt 0.0 0.625
vn -1.0 0.0 0.0
vt 0.0357142857 0.625
vn -1.0 0.0 0.0
vt 0.0714285714 0.625
vn -1.0 0.0 0.0
vt 0.107142857 0.625
vn -1.0 0.0 0.0
vt 0.142857143 0.625
vn -1.0 0.0 0.0
vt 0.178571429 0.625
vn -1.0 0.0 0.0
vt 0.214285714 0.625
vn -1.0 0.0 0.0
vt 0.25 0.625
vn -1.0 0.0 0.0
vt 0.285714286 0.625
vn -1.0 0.0 0.0
vt 0.321428571 0.625
vn -1.0 0.0 0.0
vt 0.357142857 0.625
vn -1.0 0.0 0.0
vt 0.392857143 0.625
vn -1.0 0.0 0.0
vt 0.428571429 0.625
vn -1.0 0.0 0.0
vt 0.464285714 0.625
vn -1.0 0.0 0.0
vt 0.5 0.625
vn -1.0 0.0 0.0
vt 0.535714286 0.625
vn -1.0 0.0 0.0
vt 0.571428571 0.625
vn -1.0 0.0 0.0
vt 0.607142857 0.625
vn -1.0 0.0 0.0
vt 0.642857143 0.625
vn -1.0 0.0 0.0
vt 0.678571429 0.625
vn -1.0 0.0 0.0
vt 0.714285714 0.625
vn -1.0 0.0 0.0
vt 0.75 0.625
vn -1.0 0.0 0.0
vt 0.785714286 0.625
vn -1.0 0.0 0.0
vt 0.821428571 0.625
vn -1.0 0.0 0.0
vt 0.857142857 0.625
vn -1.0 0.0 0.0
vt 0.892857143 0.625
vn -1.0 0.0 0.0
vt 0.928571429 0.625
vn -1.0 0.0 0.0
vt 0.964285714 0.625
vn -1.0 0.0 0.0
vt 1.0 0.625
vn -1.0 0.0 0.0
vt 0.0 0.5625
vn -1.0 0.0 0.0
vt 0.0357142857 0.5625
vn -1.0 0.0 0.0
vt 0.0714285714 0.5625
vn -1.0 0.0 0.0
vt 0.107142857 0.5625
vn -1.0 0.0 0.0
vt 0.142857143 0.5625
vn -1.0 0.0 0.0
vt 0.178571429 0.5625
vn -1.0 0.0 0.0
vt 0.214285714 0.5625
vn -1.0 0.0 0.0
vt 0.25 0.5625
vn -1.0 0.0 0.0
vt 0.285714286 0.5625
vn -1.0 0.0 0.0
vt 0.321428571 0.5625
vn -1.0 0.0 0.0
vt 0.357142857 0.5625
vn -1.0 0.0 0.0
vt 0.392857143 0.5625
vn -1.0 0.0 0.0
vt 0.428571429 0.5625
vn -1.0 0.0 0.0
vt 0.464285714 0.5625
vn -1.0 0.0 0.0
vt 0.5 0.5625
vn -1.0 0.0 0.0
vt 0.535714286 0.5625
vn -1.0 0.0 0.0
vt 0.571428571 0.5625
vn -1.0 0.0 0.0
vt 0.607142857 0.5625
vn -1.0 0.0 0.0
vt 0.642857143 0.5625
vn -1.0 0.0 0.0
vt 0.678571429 0.5625
vn -1.0 0.0 0.0
vt 0.714285714 0.5625
vn -1.0 0.0 0.0
vt 0.75 0.5625
vn -1.0 0.0 0.0
vt 0.785714286 0.5625
vn -1.0 0.0 0.0
vt 0.821428571 0.5625
vn -1.0 0.0 0.0
vt 0.857142857 0.5625
vn -1.0 0.0 0.0
vt 0.892857143 0.5625
vn -1.0 0.0 0.0
vt 0.928571429 0.5625
vn -1.0 0.0 0.0
vt 0.964285714 0.5625
vn -1.0 0.0 0.0
vt 1.0 0.5625
vn -1.0 0.0 0.0
vt 0.0 0.5
vn -1.0 0.0 0.0
vt 0.0357142857 0.5
vn -1.0 0.0 0.0
vt 0.0714285714 0.5
vn -1.0 0.0 0.0
vt 0.107142857 0.5
vn -1.0 0.0 0.0
vt 0.142857143 0.5
vn -1.0 0.0 0.0
vt 0.178571429 0.5
vn -1.0 0.0 0.0
vt 0.214285714 0.5
vn -1.0 0.0 0.0
vt 0.25 0.5
vn -1.0 0.0 0.0
vt 0.285714286 0.5
vn -1.0 0.0 0.0
vt 0.321428571 0.5
vn -1.0 0.0 0.0
vt 0.357142857 0.5
vn -1.0 0.0 0.0
vt 0.392857143 0.5
vn -1.0 0.0 0.0
vt 0.428571429 0.5
vn -1.0 0.0 0.0
vt 0.464285714 0.5
vn -1.0 0.0 0.0
vt 0.5 0.5
vn -1.0 0.0 0.0
vt 0.535714286 0.5
vn -1.0 0.0 0.0
vt 0.571428571 0.5
vn -1.0 0.0 0.0
vt 0.607142857 0.5
vn -1.0 0.0 0.0
vt 0.642857143 0.5
vn -1.0 0.0 0.0
vt 0.678571429 0.5
vn -1.0 0.0 0.0
vt 0.714285714 0.5
vn -1.0 0.0 0.0
vt 0.75 0.5
vn -1.0 0.0 0.0
vt 0.785714286 0.5
vn -1.0 0.0 0.0
vt 0.821428571 0.5
vn -1.0 0.0 0.0
vt 0.857142857 0.5
vn -1.0 0.0 0.0
vt 0.892857143 0.5
vn -1.0 0.0 0.0
vt 0.928571429 0.5
vn -1.0 0.0 0.0
vt 0.964285714 0.5
vn -1.0 0.0 0.0
vt 1.0 0.5
vn -1.0 0.0 0.0
vt 0.0 0.4375
vn -1.0 0.0 0.0
vt 0.0357142857 0.4375
vn -1.0 0.0 0.0
vt 0.0714285714 0.4375
vn -1.0 0.0 0.0
vt 0.107142857 0.4375
vn -1.0 0.0 0.0
vt 0.142857143 0.4375
vn -1.0 0.0 0.0
vt 0.178571429 0.4375
vn -1.0 0.0 0.0
vt 0.214285714 0.4375
vn -1.0 0.0 0.0
vt 0.25 0.4375
vn -1.0 0.0 0.0
vt 0.285714286 0.4375
vn -1.0 0.0 0.0
vt 0.321428571 0.4375
vn -1.0 0.0 0.0
vt 0.357142857 0.4375
vn -1.0 0.0 0.0
vt 0.392857143 0.4375
vn -1.0 0.0 0.0
vt 0.428571429 0.4375
vn -1.0 0.0 0.0
vt 0.464285714 0.4375
vn -1.0 0.0 0.0
vt 0.5 0.4375
vn -1.0 0.0 0.0
vt 0.535714286 0.4375
vn -1.0 0.0 0.0
vt 0.571428571 0.4375
vn -1.0 0.0 0.0
vt 0.607142857 0.4375
vn -1.0 0.0 0.0
vt 0.642857143 0.4375
vn -1.0 0.0 0.0
vt 0.678571429 0.4375
vn -1.0 0.0 0.0
vt 0.714285714 0.4375
vn -1.0 0.0 0.0
vt 0.75 0.4375
vn -1.0 0.0 0.0
vt 0.785714286 0.4375
vn -1.0 0.0 0.0
vt 0.821428571 0.4375
vn -1.0 0.0 0.0
vt 0.857142857 0.4375
vn -1.0 0.0 0.0
vt 0.892857143 0.4375
vn -1.0 0.0 0.0
vt 0.928571429 0.4375
vn -1.0 0.0 0.0
vt 0.964285714 0.4375
vn -1.0 0.0 0.0
vt 1.0 0.4375
vn -1.0 0.0 0.0
vt 0.0 0.375
vn -1.0 0.0 0.0
vt 0.0357142857 0.375
vn -1.0 0.0 0.0
vt 0.0714285714 0.375
vn -1.0 0.0 0.0
vt 0.107142857 0.375
vn -1.0 0.0 0.0
vt 0.142857143 0.375
vn -1.0 0.0 0.0
vt 0.178571429 0.375
vn -1.0 0.0 0.0
vt 0.214285714 0.375
vn -1.0 0.0 0.0
vt 0.25 0.375
vn -1.0 0.0 0.0
vt 0.285714286 0.375
vn -1.0 0.0 0.0
vt 0.321428571 0.375
vn -1.0 0.0 0.0
vt 0.357142857 0.375
vn -1.0 0.0 0.0
vt 0.392857143 0.375
vn -1.0 0.0 0.0
vt 0.428571429 0.375
vn -1.0 0.0 0.0
vt 0.464285714 0.375
vn -1.0 0.0 0.0
vt 0.5 0.375
vn -1.0 0.0 0.0
vt 0.535714286 0.375
vn -1.0 0.0 0.0
vt 0.571428571 0.375
vn -1.0 0.0 0.0
vt 0.607142857 0.375
vn -1.0 0.0 0.0
vt 0.642857143 0.375
vn -1.0 0.0 0.0
vt 0.678571429 0.375
vn -1.0 0.0 0.0
vt 0.714285714 0.375
vn -1.0 0.0 0.0
vt 0.75 0.375
vn -1.0 0.0 0.0
vt 0.785714286 0.375
vn -1.0 0.0 0.0
vt 0.821428571 0.375
vn -1.0 0.0 0.0
vt 0.857142857 0.375
vn -1.0 0.0 0.0
vt 0.892857143 0.375
vn -1.0 0.0 0.0
vt 0.928571429 0.375
vn -1.0 0.0 0.0
vt 0.964285714 0.375
vn -1.0 0.0 0.0
vt 1.0 0.375
vn -1.0 0.0 0.0
vt 0.0 0.3125
vn -1.0 0.0 0.0
vt 0.0357142857 0.3125
vn -1.0 0.0 0.0
vt 0.0714285714 0.3125
vn -1.0 0.0 0.0
vt 0.107142857 0.3125
vn -1.0 0.0 0.0
vt 0.142857143 0.3125
vn -1.0 0.0 0.0
vt 0.178571429 0.3125
vn -1.0 0.0 0.0
vt 0.214285714 0.3125
vn -1.0 0.0 0.0
vt 0.25 0.3125
vn -1.0 0.0 0.0
vt 0.285714286 0.3125
vn -1.0 0.0 0.0
vt 0.321428571 0.3125
vn -1.0 0.0 0.0
vt 0.357142857 0.3125
vn -1.0 0.0 0.0
vt 0.392857143 0.3125
vn -1.0 0.0 0.0
vt 0.428571429 0.3125
vn -1.0 0.0 0.0
vt 0.464285714 0.3125
vn -1.0 0.0 0.0
vt 0.5 0.3125
vn -1.0 0.0 0.0
vt 0.535714286 0.3125
vn -1.0 0.0 0.0
vt 0.571428571 0.3125
vn -1.0 0.0 0.0
vt 0.607142857 0.3125
vn -1.0 0.0 0.0
vt 0.642857143 0.3125
vn -1.0 0.0 0.0
vt 0.678571429 0.3125
vn -1.0 0.0 0.0
vt 0.714285714 0.3125
vn -1.0 0.0 0.0
vt 0.75 0.3125
vn -1.0 0.0 0.0
vt 0.785714286 0.3125
vn -1.0 0.0 0.0
vt 0.821428571 0.3125
vn -1.0 0.0 0.0
vt 0.857142857 0.3125
vn -1.0 0.0 0.0
vt 0.892857143 0.3125
vn -1.0 0.0 0.0
vt 0.928571429 0.3125
vn -1.0 0.0 0.0
vt 0.964285714 0.3125
vn -1.0 0.0 0.0
vt 1.0 0.3125
vn -1.0 0.0 0.0
vt 0.0 0.25
vn -1.0 0.0 0.0
vt 0.0357142857 0.25
vn -1.0 0.0 0.0
vt 0.0714285714 0.25
vn -1.0 0.0 0.0
vt 0.107142857 0.25
vn -1.0 0.0 0.0
vt 0.142857143 0.25
vn -1.0 0.0 0.0
vt 0.178571429 0.25
vn -1.0 0.0 0.0
vt 0.214285714 0.25
vn -1.0 0.0 0.0
vt 0.25 0.25
vn -1.0 0.0 0.0
vt 0.285714286 0.25
vn -1.0 0.0 0.0
vt 0.321428571 0.25
vn -1.0 0.0 0.0
vt 0.357142857 0.25
vn -1.0 0.0 0.0
vt 0.392857143 0.25
vn -1.0 0.0 0.0
vt 0.428571429 0.25
vn -1.0 0.0 0.0
vt 0.464285714 0.25
vn -1.0 0.0 0.0
vt 0.5 0.25
vn -1.0 0.0 0.0
vt 0.535714286 0.25
vn -1.0 0.0 0.0
vt 0.571428571 0.25
vn -1.0 0.0 0.0
vt 0.607142857 0.25
vn -1.0 0.0 0.0
vt 0.642857143 0.25
vn -1.0 0.0 0.0
vt 0.678571429 0.25
vn -1.0 0.0 0.0
vt 0.714285714 0.25
vn -1.0 0.0 0.0
vt 0.75 0.25
vn -1.0 0.0 0.0
vt 0.785714286 0.25
vn -1.0 0.0 0.0
vt 0.821428571 0.25
vn -1.0 0.0 0.0
vt 0.857142857 0.25
vn -1.0 0.0 0.0
vt 0.892857143 0.25
vn -1.0 0.0 0.0
vt 0.928571429 0.25
vn -1.0 0.0 0.0
vt 0.964285714 0.25
vn -1.0 0.0 0.0
vt 1.0 0.25
vn -1.0 0.0 0.0
vt 0.0 0.1875
vn -1.0 0.0 0.0
vt 0.0357142857 0.1875
vn -1.0 0.0 0.0
vt 0.0714285714 0.1875
vn -1.0 0.0 0.0
vt 0.107142857 0.1875
vn -1.0 0.0 0.0
vt 0.142857143 0.1875
vn -1.0 0.0 0.0
vt 0.178571429 0.1875
vn -1.0 0.0 0.0
vt 0.214285714 0.1875
vn -1.0 0.0 0.0
vt 0.25 0.1875
vn -1.0 0.0 0.0
vt 0.285714286 0.1875
vn -1.0 0.0 0.0
vt 0.321428571 0.1875
vn -1.0 0.0 0.0
vt 0.357142857 0.1875
vn -1.0 0.0 0.0
vt 0.392857143 0.1875
vn -1.0 0.0 0.0
vt 0.428571429 0.1875
vn -1.0 0.0 0.0
vt 0.464285714 0.1875
vn -1.0 0.0 0.0
vt 0.5 0.1875
vn -1.0 0.0 0.0
vt 0.535714286 0.1875
vn -1.0 0.0 0.0
vt 0.571428571 0.1875
vn -1.0 0.0 0.0
vt 0.607142857 0.1875
vn -1.0 0.0 0.0
vt 0.642857143 0.1875
vn -1.0 0.0 0.0
vt 0.678571429 0.1875
vn -1.0 0.0 0.0
vt 0.714285714 0.1875
vn -1.0 0.0 0.0
vt 0.75 0.1875
vn -1.0 0.0 0.0
vt 0.785714286 0.1875
vn -1.0 0.0 0.0
vt 0.821428571 0.1875
vn -1.0 0.0 0.0
vt 0.857142857 0.1875
vn -1.0 0.0 0.0
vt 0.892857143 0.1875
vn -1.0 0.0 0.0
vt 0.928571429 0.1875
vn -1.0 0.0 0.0
vt 0.964285714 0.1875
vn -1.0 0.0 0.0
vt 1.0 0.1875
vn -1.0 0.0 0.0
vt 0.0 0.125
vn -1.0 0.0 0.0
vt 0.0357142857 0.125
vn -1.0 0.0 0.0
vt 0.0714285714 0.125
vn -1.0 0.0 0.0
vt 0.107142857 0.125
vn -1.0 0.0 0.0
vt 0.142857143 0.125
vn -1.0 0.0 0.0
vt 0.178571429 0.125
vn -1.0 0.0 0.0
vt 0.214285714 0.125
vn -1.0 0.0 0.0
vt 0.25 0.125
vn -1.0 0.0 0.0
vt 0.285714286 0.125
vn -1.0 0.0 0.0
vt 0.321428571 0.125
vn -1.0 0.0 0.0
vt 0.357142857 0.125
vn -1.0 0.0 0.0
vt 0.392857143 0.125
vn -1.0 0.0 0.0
vt 0.428571429 0.125
vn -1.0 0.0 0.0
vt 0.464285714 0.125
vn -1.0 0.0 0.0
vt 0.5 0.125
vn -1.0 0.0 0.0
vt 0.535714286 0.125
vn -1.0 0.0 0.0
vt 0.571428571 0.125
vn -1.0 0.0 0.0
vt 0.607142857 0.125
vn -1.0 0.0 0.0
vt 0.642857143 0.125
vn -1.0 0.0 0.0
vt 0.678571429 0.125
vn -1.0 0.0 0.0
vt 0.714285714 0.125
vn -1.0 0.0 0.0
vt 0.75 0.125
vn -1.0 0.0 0.0
vt 0.785714286 0.125
vn -1.0 0.0 0.0
vt 0.821428571 0.125
vn -1.0 0.0 0.0
vt 0.857142857 0.125
vn -1.0 0.0 0.0
vt 0.892857143 0.125
vn -1.0 0.0 0.0
vt 0.928571429 0.125
vn -1.0 0.0 0.0
vt 0.964285714 0.125
vn -1.0 0.0 0.0
vt 1.0 0.125
vn -1.0 0.0 0.0
vt 0.0 0.0625
vn -1.0 0.0 0.0
vt 0.0357142857 0.0625
vn -1.0 0.0 0.0
vt 0.0714285714 0.0625
vn -1.0 0.0 0.0
vt 0.107142857 0.0625
vn -1.0 0.0 0.0
vt 0.142857143 0.0625
vn -1.0 0.0 0.0
vt 0.178571429 0.0625
vn -1.0 0.0 0.0
vt 0.214285714 0.0625
vn -1.0 0.0 0.0
vt 0.25 0.0625
vn -1.0 0.0 0.0
vt 0.285714286 0.0625
vn -1.0 0.0 0.0
vt 0.321428571 0.0625
vn -1.0 0.0 0.0
vt 0.357142857 0.0625
vn -1.0 0.0 0.0
vt 0.392857143 0.0625
vn -1.0 0.0 0.0
vt 0.428571429 0.0625
vn -1.0 0.0 0.0
vt 0.464285714 0.0625
vn -1.0 0.0 0.0
vt 0.5 0.0625
vn -1.0 0.0 0.0
vt 0.535714286 0.0625
vn -1.0 0.0 0.0
vt 0.571428571 0.0625
vn -1.0 0.0 0.0
vt 0.607142857 0.0625
vn -1.0 0.0 0.0
vt 0.642857143 0.0625
vn -1.0 0.0 0.0
vt 0.678571429 0.0625
vn -1.0 0.0 0.0
vt 0.714285714 0.0625
vn -1.0 0.0 0.0
vt 0.75 0.0625
vn -1.0 0.0 0.0
vt 0.785714286 0.0625
vn -1.0 0.0 0.0
vt 0.821428571 0.0625
vn -1.0 0.0 0.0
vt 0.857142857 0.0625
vn -1.0 0.0 0.0
vt 0.892857143 0.0625
vn -1.0 0.0 0.0
vt 0.928571429 0.0625
vn -1.0 0.0 0.0
vt 0.964285714 0.0625
vn -1.0 0.0 0.0
vt 1.0 0.0625
vn -1.0 0.0 0.0
vt 0.0 0.0
vn -1.0 0.0 0.0
vt 0.0357142857 0.0
vn -1.0 0.0 0.0
vt 0.0714285714 0.0
vn -1.0 0.0 0.0
vt 0.107142857 0.0
vn -1.0 0.0 0.0
vt 0.142857143 0.0
vn -1.0 0.0 0.0
vt 0.178571429 0.0
vn -1.0 0.0 0.0
vt 0.214285714 0.0
vn -1.0 0.0 0.0
vt 0.25 0.0
vn -1.0 0.0 0.0
vt 0.285714286 0.0
vn -1.0 0.0 0.0
vt 0.321428571 0.0
vn -1.0 0.0 0.0
vt 0.357142857 0.0
vn -1.0 0.0 0.0
vt 0.392857143 0.0
vn -1.0 0.0 0.0
vt 0.428571429 0.0
vn -1.0 0.0 0.0
vt 0.464285714 0.0
vn -1.0 0.0 0.0
vt 0.5 0.0
vn -1.0 0.0 0.0
vt 0.535714286 0.0
vn -1.0 0.0 0.0
vt 0.571428571 0.0
vn -1.0 0.0 0.0
vt 0.607142857 0.0
vn -1.0 0.0 0.0
vt 0.642857143 0.0
vn -1.0 0.0 0.0
vt 0.678571429 0.0
vn -1.0 0.0 0.0
vt 0.714285714 0.0
vn -1.0 0.0 0.0
vt 0.75 0.0
vn -1.0 0.0 0.0
vt 0.785714286 0.0
vn -1.0 0.0 0.0
vt 0.821428571 0.0
vn -1.0 0.0 0.0
vt 0.857142857 0.0
vn -1.0 0.0 0.0
vt 0.892857143 0.0
vn -1.0 0.0 0.0
vt 0.928571429 0.0
vn -1.0 0.0 0.0
vt 0.964285714 0.0
vn -1.0 0.0 0.0
vt 1.0 0.0
vn -1.0 0.0 0.0
f 1/1/1 31/31/31 2/2/2
f 1/1/1 30/30/30 31/31/31
f 2/2/2 32/32/32 3/3/3
f 2/2/2 31/31/31 32/32/32
f 3/3/3 33/33/33 4/4/4
f 3/3/3 32/32/32 33/33/33
f 4/4/4 34/34/34 5/5/5
f 4/4/4 33/33/33 34/34/34
f 5/5/5 35/35/35 6/6/6
f 5/5/5 34/34/34 35/35/35
f 6/6/6 36/36/36 7/7/7
f 6/6/6 35/35/35 36/36/36
f 7/7/7 37/37/37 8/8/8
f 7/7/7 36/36/36 37/37/37
f 8/8/8 38/38/38 9/9/9
f 8/8/8 37/37/37 38/38/38
f 9/9/9 39/39/39 10/10/10
f 9/9/9 38/38/38 39/39/39
f 10/10/10 40/40/40 11/11/11
f 10/10/10 39/39/39 40/40/40
f 11/11/11 41/41/41 12/12/12
f 11/11/11 40/40/40 41/41/41
f 12/12/12 42/42/42 13/13/13
f 12/12/12 41/41/41 42/42/42
f 13/13/13 43/43/43 14/14/14
f 13/13/13 42/42/42 43/43/43
f 14/14/14 44/44/44 15/15/15
f 14/14/14 43/43/43 44/44/44
f 15/15/15 45/45/45 16/16/16
f 15/15/15 44/44/44 45/45/45
f 16/16/16 46/46/46 17/17/17
f 16/16/16 45/45/45 46/46/46
f 17/17/17 47/47/47 18/18/18
f 17/17/17 46/46/46 47/47/47
f 18/18/18 48/48/48 19/19/19
f 18/18/18 47/47/47 48/48/48
f 19/19/19 49/49/49 20/20/20
f 19/19/19 48/48/48 49/49/49
f 20/20/20 50/50/50 21/21/21
f 20/20/20 49/49/49 50/50/50
f 21/21/21 51/51/51 22/22/22
f 21/21/21 50/50/50 51/51/51
f 22/22/22 52/52/52 23/23/23
f 22/22/22 51/51/51 52/52/52
f 23/23/23 53/53/53 24/24/24
f 23/23/23 52/52/52 53/53/53
f 24/24/24 54/54/54 25/25/25
f 24/24/24 53/53/53 54/54/54
f 25/25/25 55/55/55 26/26/26
f 25/25/25 54/54/54 55/55/55
f 26/26/26 56/56/56 27/27/27
f 26/26/26 55/55/55 56/56/56
f 27/27/27 57/57/57 28/28/28
f 27/27/27 56/56/56 57/57/57
f 28/28/28 58/58/58 29/29/29
f 28/28/28 57/57/57 58/58/58
f 30/30/30 60/60/60 31/31/31
f 30/30/30 59/59/59 60/60/60
f 31/31/31 61/61/61 32/32/32
f 31/31/31 60/60/60 61/61/61
f 32/32/32 62/62/62 33/33/33
f 32/32/32 61/61/61 62/62/62
f 33/33/33 63/63/63 34/34/34
f 33/33/33 62/62/62 63/63/63
f 34/34/34 64/64/64 35/35/35
f 34/34/34 63/63/63 64/64/64
f 35/35/35 65/65/65 36/36/36
f 35/35/35 64/64/64 65/65/65
f 36/36/36 66/66/66 37/37/37
f 36/36/36 65/65/65 66/66/66
f 37/37/37 67/67/67 38/38/38
f 37/37/37 66/66/66 67/67/67
f 38/38/38 68/68/68 39/39/39
f 38/38/38 67/67/67 68/68/68
f 39/39/39 69/69/69 40/40/40
f 39/39/39 68/68/68 69/69/69
f 40/40/40 70/70/70 41/41/41
f 40/40/40 69/69/69 70/70/70
f 41/41/41 71/71/71 42/42/42
f 41/41/41 70/70/70 71/71/71
f 42/42/42 72/72/72 43/43/43
f 42/42/42 71/71/71 72/72/72
f 43/43/43 73/73/73 44/44/44
f 43/43/43 72/72/72 73/73/73
f 44/44/44 74/74/74 45/45/45
f 44/44/44 73/73/73 74/74/74
f 45/45/45 75/75/75 46/46/46
f 45/45/45 74/74/74 75/75/75
f 46/46/46 76/76/76 47/47/47
f 46/46/46 75/75/75 76/76/76
f 47/47/47 77/77/77 48/48/48
f 47/47/47 76/76/76 77/77/77
f 48/48/48 78/78/78 49/49/49
f 48/48/48 77/77/77 78/78/78
f 49/49/49 79/79/79 50/50/50
f 49/49/49 78/78/78 79/79/79
f 50/50/50 80/80/80 51/51/51
f 50/50/50 79/79/79 80/80/80
f 51/51/51 81/81/81 52/52/52
f 51/51/51 80/80/80 81/81/81
f 52/52/52 82/82/82 53/53/53
f 52/52/52 81/81/81 82/82/82
f 53/53/53 83/83/83 54/54/54
f 53/53/53 82/82/82 83/83/83
f 54/54/54 84/84/84 55/55/55
f 54/54/54 83/83/83 84/84/84
f 55/55/55 85/85/85 56/56/56
f 55/55/55 84/84/84 85/85/85
f 56/56/56 86/86/86 57/57/57
f 56/56/56 85/85/85 86/86/86
f 57/57/57 87/87/87 58/58/58
f 57/57/57 86/86/86 87/87/87
f 59/59/59 89/89/89 60/60/60
f 59/59/59 88/88/88 89/89/89
f 60/60/60 90/90/90 61/61/61
f 60/60/60 89/89/89 90/90/90
f 61/61/61 91/91/91 62/62/62
f 61/61/61 90/90/90 91/91/91
f 62/62/62 92/92/92 63/63/63
f 62/62/62 91/91/91 92/92/92
f 63/63/63 93/93/93 64/64/64
f 63/63/63 92/92/92 93/93/93
f 64/64/64 94/94/94 65/65/65
f 64/64/64 93/93/93 94/94/94
f 65/65/65 95/95/95 66/66/66
f 65/65/65 94/94/94 95/95/95
f 66/66/66 96/96/96 67/67/67
f 66/66/66 95/95/95 96/96/96
f 67/67/67 97/97/97 68/68/68
f 67/67/67 96/96/96 97/97/97
f 68/68/68 98/98/98 69/69/69
f 68/68/68 97/97/97 98/98/98
f 69/69/69 99/99/99 70/70/70
f 69/69/69 98/98/98 99/99/99
f 70/70/70 100/100/100 71/71/71
f 70/70/70 99/99/99 100/100/100
f 71/71/71 101/101/101 72/72/72
f 71/71/71 100/100/100 101/101/101
f 72/72/72 102/102/102 73/73/73
f 72/72/72 101/101/101 102/102/102
f 73/73/73 103/103/103 74/74/74
f 73/73/73 102/102/102 103/103/103
f 74/74/74 104/104/104 75/75/75
f 74/74/74 103/103/103 104/104/104
f 75/75/75 105/105/105 76/76/76
f 75/75/75 104/104/104 105/105/105
f 76/76/76 106/106/106 77/77/77
f 76/76/76 105/105/105 106/106/106
f 77/77/77 107/107/107 78/78/78
f 77/77/77 106/106/106 107/107/107
f 78/78/78 108/108/108 79/79/79
f 78/78/78 107/107/107 108/108/108
f 79/79/79 109/109/109 80/80/80
f 79/79/79 108/108/108 109/109/109
f 80/80/80 110/110/110 81/81/81
f 80/80/80 109/109/109 110/110/110
f 81/81/81 111/111/111 82/82/82
f 81/81/81 110/110/110 111/111/111
f 82/82/82 112/112/112 83/83/83
f 82/82/82 111/111/111 112/112/112
f 83/83/83 113/113/113 84/84/84
f 83/83/83 112/112/112 113/113/113
f 84/84/84 114/114/114 85/85/85
f 84/84/84 113/113/113 114/114/114
f 85/85/85 115/115/115 86/86/86
f 85/85/85 114/114/114 115/115/115
f 86/86/86 116/116/116 87/87/87
f 86/86/86 115/115/115 116/116/116
f 88/88/88 118/118/118 89/89/89
f 88/88/88 117/117/117 118/118/118
f 89/89/89 119/119/119 90/90/90
f 89/89/89 118/118/118 119/119/119
f 90/90/90 120/120/120 91/91/91
f 90/90/90 119/119/119 120/120/120
f 91/91/91 121/121/121 92/92/92
f 91/91/91 120/120/120 121/121/121
f 92/92/92 122/122/122 93/93/93
f 92/92/92 121/121/121 122/122/122
f 93/93/93 123/123/123 94/94/94
f 93/93/93 122/122/122 123/123/123
f 94/94/94 124/124/124 95/95/95
f 94/94/94 123/123/123 124/124/124
f 95/95/95 125/125/125 96/96/96
f 95/95/95 124/124/124 125/125/125
f 96/96/96 126/126/126 97/97/97
f 96/96/96 125/125/125 126/126/126
f 97/97/97 127/127/127 98/98/98
f 97/97/97 126/126/126 127/127/127
f 98/98/98 128/128/128 99/99/99
f 98/98/98 127/127/127 128/128/128
f 99/99/99 129/129/129 100/100/100
f 99/99/99 128/128/128 129/129/129
f 100/100/100 130/130/130 101/101/101
f 100/100/100 129/129/129 130/130/130
f 101/101/101 131/131/131 102/102/102
f 101/101/101 130/130/130 131/131/131
f 102/102/102 132/132/132 103/103/103
f 102/102/102 131/131/131 132/132/132
f 103/103/103 133/133/133 104/104/104
f 103/103/103 132/132/132 133/133/133
f 104/104/104 134/134/134 105/105/105
f 104/104/104 133/133/133 134/134/134
f 105/105/105 135/135/135 106/106/106
f 105/105/105 134/134/134 135/135/135
f 106/106/106 136/136/136 107/107/107
f 106/106/106 135/135/135 136/136/136
f 107/107/107 137/137/137 108/108/108
f 107/107/107 136/136/136 137/137/137
f 108/108/108 138/138/138 109/109/109
f 108/108/108 137/137/137 138/138/138
f 109/109/109 139/139/139 110/110/110
f 109/109/109 138/138/138 139/139/139
f 110/110/110 140/140/140 111/111/111
f 110/110/110 139/139/139 140/140/140
f 111/111/111 141/141/141 112/112/112
f 111/111/111 140/140/140 141/141/141
f 112/112/112 142/142/142 113/113/113
f 112/112/112 141/141/141 142/142/142
f 113/113/113 143/143/143 114/114/114
f 113/113/113 142/142/142 143/143/143
f 114/114/114 144/144/144 115/115/115
f 114/114/114 143/143/143 144/144/144
f 115/115/115 145/145/145 116/116/116
f 115/115/115 144/144/144 145/145/145
f 117/117/117 147/147/147 118/118/118
f 117/117/117 146/146/146 147/147/147
f 118/118/118 148/148/148 119/119/119
f 118/118/118 147/147/147 148/148/148
f 119/119/119 149/149/149 120/120/120
f 119/119/119 148/148/148 149/149/149
f 120/120/120 150/150/150 121/121/121
f 120/120/120 149/149/149 150/150/150
f 121/121/121 151/151/151 122/122/122
f 121/121/121 150/150/150 151/151/151
f 122/122/122 152/152/152 123/123/123
f 122/122/122 151/151/151 152/152/152
f 123/123/123 153/153/153 124/124/124
f 123/123/123 152/152/152 153/153/153
f 124/124/124 154/154/154 125/125/125
f 124/124/124 153/153/153 154/154/154
f 125/125/125 155/155/155 126/126/126
f 125/125/125 154/154/154 155/155/155
f 126/126/126 156/156/156 127/127/127
f 126/126/126 155/155/155 156/156/156
f 127/127/127 157/157/157 128/128/128
f 127/127/127 156/156/156 157/157/157
f 128/128/128 158/158/158 129/129/129
f 128/128/128 157/157/157 158/158/158
f 129/129/129 159/159/159 130/130/130
f 129/129/129 158/158/158 159/159/159
f 130/130/130 160/160/160 131/131/131
f 130/130/130 159/159/159 160/160/160
f 131/131/131 161/161/161 132/132/132
f 131/131/131 160/160/160 161/161/161
f 132/132/132 162/162/162 133/133/133
f 132/132/132 161/161/161 162/162/162
f 133/133/133 163/163/163 134/134/134
f 133/133/133 162/162/162 163/163/163
f 134/134/134 164/164/164 135/135/135
f 134/134/134 163/163/163 164/164/164
f 135/135/135 165/165/165 136/136/136
f 135/135/135 164/164/164 165/165/165
f 136/136/136 166/166/166 137/137/137
f 136/136/136 165/165/165 166/166/166
f 137/137/137 167/167/167 138/138/138
f 137/137/137 166/166/166 167/167/167
f 138/138/138 168/168/168 139/139/139
f 138/138/138 167/167/167 168/168/168
f 139/139/139 169/169/169 140/140/140
f 139/139/139 168/168/168 169/169/169
f 140/140/140 170/170/170 141/141/141
f 140/140/140 169/169/169 170/170/170
f 141/141/141 171/171/171 142/142/142
f 141/141/141 170/170/170 171/171/171
f 142/142/142 172/172/172 143/143/143
f 142/142/142 171/171/171 172/172/172
f 143/143/143 173/173/173 144/144/144
f 143/143/143 172/172/172 173/173/173
f 144/144/144 174/174/174 145/145/145
f 144/144/144 173/173/173 174/174/174
f 146/146/146 176/176/176 147/147/147
f 146/146/146 175/175/175 176/176/176
f 147/147/147 177/177/177 148/148/148
f 147/147/147 176/176/176 177/177/177
f 148/148/148 178/178/178 149/149/149
f 148/148/148 177/177/177 178/178/178
f 149/149/149 179/179/179 150/150/150
f 149/149/149 178/178/178 179/179/179
f 150/150/150 180/180/180 151/151/151
f 150/150/150 179/179/179 180/180/180
f 151/151/151 181/181/181 152/152/152
f 151/151/151 180/180/180 181/181/181
f 152/152/152 182/182/182 153/153/153
f 152/152/152 181/181/181 182/182/182
f 153/153/153 183/183/183 154/154/154
f 153/153/153 182/182/182 183/183/183
f 154/154/154 184/184/184 155/155/155
f 154/154/154 183/183/183 184/184/184
f 155/155/155 185/185/185 156/156/156
f 155/155/155 184/184/184 185/185/185
f 156/156/156 186/186/186 157/157/157
f 156/156/156 185/185/185 186/186/186
f 157/157/157 187/187/187 158/158/158
f 157/157/157 186/186/186 187/187/187
f 158/158/158 188/188/188 159/159/159
f 158/158/158 187/187/187 188/188/188
f 159/159/159 189/189/189 160/160/160
f 159/159/159 188/188/188 189/189/189
f 160/160/160 190/190/190 161/161/161
f 160/160/160 189/189/189 190/190/190
f 161/161/161 191/191/191 162/162/162
f 161/161/161 190/190/190 191/191/191
f 162/162/162 192/192/192 163/163/163
f 162/162/162 191/191/191 192/192/192
f 163/163/163 193/193/193 164/164/164
f 163/163/163 192/192/192 193/193/193
f 164/164/164 194/194/194 165/165/165
f 164/164/164 193/193/193 194/194/194
f 165/165/165 195/195/195 166/166/166
f 165/165/165 194/194/194 195/195/195
f 166/166/166 196/196/196 167/167/167
f 166/166/166 195/195/195 196/196/196
f 167/167/167 197/197/197 168/168/168
f 167/167/167 196/196/196 197/197/197
f 168/168/168 198/198/198 169/169/169
f 168/168/168 197/197/197 198/198/198
f 169/169/169 199/199/199 170/170/170
f 169/169/169 198/198/198 199/199/199
f 170/170/170 200/200/200 171/171/171
f 170/170/170 199/199/199 200/200/200
f 171/171/171 201/201/201 172/172/172
f 171/171/171 200/200/200 201/201/201
f 172/172/172 202/202/202 173/173/173
f 172/172/172 201/201/201 202/202/202
f 173/173/173 203/203/203 174/174/174
f 173/173/173 202/202/202 203/203/203
f 175/175/175 205/205/205 176/176/176
f 175/175/175 204/204/204 205/205/205
f 176/176/176 206/206/206 177/177/177
f 176/176/176 205/205/205 206/206/206
f 177/177/177 207/207/207 178/178/178
f 177/177/177 206/206/206 207/207/207
f 178/178/178 208/208/208 179/179/179
f 178/178/178 207/207/207 208/208/208
f 179/179/179 209/209/209 180/180/180
f 179/179/179 208/208/208 209/209/209
f 180/180/180 210/210/210 181/181/181
f 180/180/180 209/209/209 210/210/210
f 181/181/181 211/211/211 182/182/182
f 181/181/181 210/210/210 211/211/211
f 182/182/182 212/212/212 183/183/183
f 182/182/182 211/211/211 212/212/212
f 183/183/183 213/213/213 184/184/184
f 183/183/183 212/212/212 213/213/213
f 184/184/184 214/214/214 185/185/185
f 184/184/184 213/213/213 214/214/214
f 185/185/185 215/215/215 186/186/186
f 185/185/185 214/214/214 215/215/215
f 186/186/186 216/216/216 187/187/187
f 186/186/186 215/215/215 216/216/216
f 187/187/187 217/217/217 188/188/188
f 187/187/187 216/216/216 217/217/217
f 188/188/188 218/218/218 189/189/189
f 188/188/188 217/217/217 218/218/218
f 189/189/189 219/219/219 190/190/190
f 189/189/189 218/218/218 219/219/219
f 190/190/190 220/220/220 191/191/191
f 190/190/190 219/219/219 220/220/220
f 191/191/191 221/221/221 192/192/192
f 191/191/191 220/220/220 221/221/221
f 192/192/192 222/222/222 193/193/193
f 192/192/192 221/221/221 222/222/222
f 193/193/193 223/223/223 194/194/194
f 193/193/193 222/222/222 223/223/223
f 194/194/194 224/224/224 195/195/195
f 194/194/194 223/223/223 224/224/224
f 195/195/195 225/225/225 196/196/196
f 195/195/195 224/224/224 225/225/225
f 196/196/196 226/226/226 197/197/197
f 196/196/196 225/225/225 226/226/226
f 197/197/197 227/227/227 198/198/198
f 197/197/197 226/226/226 227/227/227
f 198/198/198 228/228/228 199/199/199
f 198/198/198 227/227/227 228/228/228
f 199/199/199 229/229/229 200/200/200
f 199/199/199 228/228/228 229/229/229
f 200/200/200 230/230/230 201/201/201
f 200/200/200 229/229/229 230/230/230
f 201/201/201 231/231/231 202/202/202
f 201/201/201 230/230/230 231/231/231
f 202/202/202 232/232/232 203/203/203
f 202/202/202 231/231/231 232/232/232
f 204/204/204 234/234/234 205/205/205
f 204/204/204 233/233/233 234/234/234
f 205/205/205 235/235/235 206/206/206
f 205/205/205 234/234/234 235/235/235
f 206/206/206 236/236/236 207/207/207
f 206/206/206 235/235/235 236/236/236
f 207/207/207 237/237/237 208/208/208
f 207/207/207 236/236/236 237/237/237
f 208/208/208 238/238/238 209/209/209
f 208/208/208 237/237/237 238/238/238
f 209/209/209 239/239/239 210/210/210
f 209/209/209 238/238/238 239/239/239
f 210/210/210 240/240/240 211/211/211
f 210/210/210 239/239/239 240/240/240
f 211/211/211 241/241/241 212/212/212
f 211/211/211 240/240/240 241/241/241
f 212/212/212 242/242/242 213/213/213
f 212/212/212 241/241/241 242/242/242
f 213/213/213 243/243/243 214/214/214
f 213/213/213 242/242/242 243/243/243
f 214/214/214 244/244/244 215/215/215
f 214/214/214 243/243/243 244/244/244
f 215/215/215 245/245/245 216/216/216
f 215/215/215 244/244/244 245/245/245
f 216/216/216 246/246/246 217/217/217
f 216/216/216 245/245/245 246/246/246
f 217/217/217 247/247/247 218/218/218
f 217/217/217 246/246/246 247/247/247
f 218/218/218 248/248/248 219/219/219
f 218/218/218 247/247/247 248/248/248
f 219/219/219 249/249/249 220/220/220
f 219/219/219 248/248/248 249/249/249
f 220/220/220 250/250/250 221/221/221
f 220/220/220 249/249/249 250/250/250
f 221/221/221 251/251/251 222/222/222
f 221/221/221 250/250/250 251/251/251
f 222/222/222 252/252/252 223/223/223
f 222/222/222 251/251/251 252/252/252
f 223/223/223 253/253/253 224/224/224
f 223/223/223 252/252/252 253/253/253
f 224/224/224 254/254/254 225/225/225
f 224/224/224 253/253/253 254/254/254
f 225/225/225 255/255/255 226/226/226
f 225/225/225 254/254/254 255/255/255
f 226/226/226 256/256/256 227/227/227
f 226/226/226 255/255/255 256/256/256
f 227/227/227 257/257/257 228/228/228
f 227/227/227 256/256/256 257/257/257
f 228/228/228 258/258/258 229/229/229
f 228/228/228 257/257/257 258/258/258
f 229/229/229 259/259/259 230/230/230
f 229/229/229 258/258/258 259/259/259
f 230/230/230 260/260/260 231/231/231
f 230/230/230 259/259/259 260/260/260
f 231/231/231 261/261/261 232/232/232
f 231/231/231 260/260/260 261/261/261
f 233/233/233 263/263/263 234/234/234
f 233/233/233 262/262/262 263/263/263
f 234/234/234 264/264/264 235/235/235
f 234/234/234 263/263/263 264/264/264
f 235/235/235 265/265/265 236/236/236
f 235/235/235 264/264/264 265/265/265
f 236/236/236 266/266/266 237/237/237
f 236/236/236 265/265/265 266/266/266
f 237/237/237 267/267/267 238/238/238
f 237/237/237 266/266/266 267/267/267
f 238/238/238 268/268/268 239/239/239
f 238/238/238 267/267/267 268/268/268
f 239/239/239 269/269/269 240/240/240
f 239/239/239 268/268/268 269/269/269
f 240/240/240 270/270/270 241/241/241
f 240/240/240 269/269/269 270/270/270
f 241/241/241 271/271/271 242/242/242
f 241/241/241 270/270/270 271/271/271
f 242/242/242 272/272/272 243/243/243
f 242/242/242 271/271/271 272/272/272
f 243/243/243 273/273/273 244/244/244
f 243/243/243 272/272/272 273/273/273
f 244/244/244 274/274/274 245/245/245
f 244/244/244 273/273/273 274/274/274
f 245/245/245 275/275/275 246/246/246
f 245/245/245 274/274/274 275/275/275
f 246/246/246 276/276/276 247/247/247
f 246/246/246 275/275/275 276/276/276
f 247/247/247 277/277/277 248/248/248
f 247/247/247 276/276/276 277/277/277
f 248/248/248 278/278/278 249/249/249
f 248/248/248 277/277/277 278/278/278
f 249/249/249 279/279/279 250/250/250
f 249/249/249 278/278/278 279/279/279
f 250/250/250 280/280/280 251/251/251
f 250/250/250 279/279/279 280/280/280
f 251/251/251 281/281/281 252/252/252
f 251/251/251 280/280/280 281/281/281
f 252/252/252 282/282/282 253/253/253
f 252/252/252 281/281/281 282/282/282
f 253/253/253 283/283/283 254/254/254
f 253/253/253 282/282/282 283/283/283
f 254/254/254 284/284/284 255/255/255
f 254/254/254 283/283/283 284/284/284
f 255/255/255 285/285/285 256/256/256
f 255/255/255 284/284/284 285/285/285
f 256/256/256 286/286/286 257/257/257
f 256/256/256 285/285/285 286/286/286
f 257/257/257 287/287/287 258/258/258
f 257/257/257 286/286/286 287/287/287
f 258/258/258 288/288/288 259/259/259
f 258/258/258 287/287/287 288/288/288
f 259/259/259 289/289/289 260/260/260
f 259/259/259 288/288/288 289/289/289
f 260/260/260 290/290/290 261/261/261
f 260/260/260 289/289/289 290/290/290
f 262/262/262 292/292/292 263/263/263
f 262/262/262 291/291/291 292/292/292
f 263/263/263 293/293/293 264/264/264
f 263/263/263 292/292/292 293/293/293
f 264/264/264 294/294/294 265/265/265
f 264/264/264 293/293/293 294/294/294
f 265/265/265 295/295/295 266/266/266
f 265/265/265 294/294/294 295/295/295
f 266/266/266 296/296/296 267/267/267
f 266/266/266 295/295/295 296/296/296
f 267/267/267 297/297/297 268/268/268
f 267/267/267 296/296/296 297/297/297
f 268/268/268 298/298/298 269/269/269
f 268/268/268 297/297/297 298/298/298
f 269/269/269 299/299/299 270/270/270
f 269/269/269 298/298/298 299/299/299
f 270/270/270 300/300/300 271/271/271
f 270/270/270 299/299/299 300/300/300
f 271/271/271 301/301/301 272/272/272
f 271/271/271 300/300/300 301/301/301
f 272/272/272 302/302/302 273/273/273
f 272/272/272 301/301/301 302/302/302
f 273/273/273 303/303/303 274/274/274
f 273/273/273 302/302/302 303/303/303
f 274/274/274 304/304/304 275/275/275
f 274/274/274 303/303/303 304/304/304
f 275/275/275 305/305/305 276/276/276
f 275/275/275 304/304/304 305/305/305
f 276/276/276 306/306/306 277/277/277
f 276/276/276 305/305/305 306/306/306
f 277/277/277 307/307/307 278/278/278
f 277/277/277 306/306/306 307/307/307
f 278/278/278 308/308/308 279/279/279
f 278/278/278 307/307/307 308/308/308
f 279/279/279 309/309/309 280/280/280
f 279/279/279 308/308/308 309/309/309
f 280/280/280 310/310/310 281/281/281
f 280/280/280 309/309/309 310/310/310
f 281/281/281 311/311/311 282/282/282
f 281/281/281 310/310/310 311/311/311
f 282/282/282 312/312/312 283/283/283
f 282/282/282 311/311/311 312/312/312
f 283/283/283 313/313/313 284/284/284
f 283/283/283 312/312/312 313/313/313
f 284/284/284 314/314/314 285/285/285
f 284/284/284 313/313/313 314/314/314
f 285/285/285 315/315/315 286/286/286
f 285/285/285 314/314/314 315/315/315
f 286/286/286 316/316/316 287/287/287
f 286/286/286 315/315/315 316/316/316
f 287/287/287 317/317/317 288/288/288
f 287/287/287 316/316/316 317/317/317
f 288/288/288 318/318/318 289/289/289
f 288/288/288 317/317/317 318/318/318
f 289/289/289 319/319/319 290/290/290
f 289/289/289 318/318/318 319/319/319
f 291/291/291 321/321/321 292/292/292
f 291/291/291 320/320/320 321/321/321
f 292/292/292 322/322/322 293/293/293
f 292/292/292 321/321/321 322/322/322
f 293/293/293 323/323/323 294/294/294
f 293/293/293 322/322/322 323/323/323
f 294/294/294 324/324/324 295/295/295
f 294/294/294 323/323/323 324/324/324
f 295/295/295 325/325/325 296/296/296
f 295/295/295 324/324/324 325/325/325
f 296/296/296 326/326/326 297/297/297
f 296/296/296 325/325/325 326/326/326
f 297/297/297 327/327/327 298/298/298
f 297/297/297 326/326/326 327/327/327
f 298/298/298 328/328/328 299/299/299
f 298/298/298 327/327/327 328/328/328
f 299/299/299 329/329/329 300/300/300
f 299/299/299 328/328/328 329/329/329
f 300/300/300 330/330/330 301/301/301
f 300/300/300 329/329/329 330/330/330
f 301/301/301 331/331/331 302/302/302
f 301/301/301 330/330/330 331/331/331
f 302/302/302 332/332/332 303/303/303
f 302/302/302 331/331/331 332/332/332
f 303/303/303 333/333/333 304/304/304
f 303/303/303 332/332/332 333/333/333
f 304/304/304 334/334/334 305/305/305
f 304/304/304 333/333/333 334/334/334
f 305/305/305 335/335/335 306/306/306
f 305/305/305 334/334/334 335/335/335
f 306/306/306 336/336/336 307/307/307
f 306/306/306 335/335/335 336/336/336
f 307/307/307 337/337/337 308/308/308
f 307/307/307 336/336/336 337/337/337
f 308/308/308 338/338/338 309/309/309
f 308/308/308 337/337/337 338/338/338
f 309/309/309 339/339/339 310/310/310
f 309/309/309 338/338/338 339/339/339
f 310/310/310 340/340/340 311/311/311
f 310/310/310 339/339/339 340/340/340
f 311/311/311 341/341/341 312/312/312
f 311/311/311 340/340/340 341/341/341
f 312/312/312 342/342/342 313/313/313
f 312/312/312 341/341/341 342/342/342
f 313/313/313 343/343/343 314/314/314
f 313/313/313 342/342/342 343/343/343
f 314/314/314 344/344/344 315/315/315
f 314/314/314 343/343/343 344/344/344
f 315/315/315 345/345/345 316/316/316
f 315/315/315 344/344/344 345/345/345
f 316/316/316 346/346/346 317/317/317
f 316/316/316 345/345/345 346/346/346
f 317/317/317 347/347/347 318/318/318
f 317/317/317 346/346/346 347/347/347
f 318/318/318 348/348/348 319/319/319
f 318/318/318 347/347/347 348/348/348
f 320/320/320 350/350/350 321/321/321
f 320/320/320 349/349/349 350/350/350
f 321/321/321 351/351/351 322/322/322
f 321/321/321 350/350/350 351/351/351
f 322/322/322 352/352/352 323/323/323
f 322/322/322 351/351/351 352/352/352
f 323/323/323 353/353/353 324/324/324
f 323/323/323 352/352/352 353/353/353
f 324/324/324 354/354/354 325/325/325
f 324/324/324 353/353/353 354/354/354
f 325/325/325 355/355/355 326/326/326
f 325/325/325 354/354/354 355/355/355
f 326/326/326 356/356/356 327/327/327
f 326/326/326 355/355/355 356/356/356
f 327/327/327 357/357/357 328/328/328
f 327/327/327 356/356/356 357/357/357
f 328/328/328 358/358/358 329/329/329
f 328/328/328 357/357/357 358/358/358
f 329/329/329 359/359/359 330/330/330
f 329/329/329 358/358/358 359/359/359
f 330/330/330 360/360/360 331/331/331
f 330/330/330 359/359/359 360/360/360
f 331/331/331 361/361/361 332/332/332
f 331/331/331 360/360/360 361/361/361
f 332/332/332 362/362/362 333/333/333
f 332/332/332 361/361/361 362/362/362
f 333/333/333 363/363/363 334/334/334
f 333/333/333 362/362/362 363/363/363
f 334/334/334 364/364/364 335/335/335
f 334/334/334 363/363/363 364/364/364
f 335/335/335 365/365/365 336/336/336
f 335/335/335 364/364/364 365/365/365
f 336/336/336 366/366/366 337/337/337
f 336/336/336 365/365/365 366/366/366
f 337/337/337 367/367/367 338/338/338
f 337/337/337 366/366/366 367/367/367
f 338/338/338 368/368/368 339/339/339
f 338/338/338 367/367/367 368/368/368
f 339/339/339 369/369/369 340/340/340
f 339/339/339 368/368/368 369/369/369
f 340/340/340 370/370/370 341/341/341
f 340/340/340 369/369/369 370/370/370
f 341/341/341 371/371/371 342/342/342
f 341/341/341 370/370/370 371/371/371
f 342/342/342 372/372/372 343/343/343
f 342/342/342 371/371/371 372/372/372
f 343/343/343 373/373/373 344/344/344
f 343/343/343 372/372/372 373/373/373
f 344/344/344 374/374/374 345/345/345
f 344/344/344 373/373/373 374/374/374
f 345/345/345 375/375/375 346/346/346
f 345/345/345 374/374/374 375/375/375
f 346/346/346 376/376/376 347/347/347
f 346/346/346 375/375/375 376/376/376
f 347/347/347 377/377/377 348/348/348
f 347/347/347 376/376/376 377/377/377
f 349/349/349 379/379/379 350/350/350
f 349/349/349 378/378/378 379/379/379
f 350/350/350 380/380/380 351/351/351
f 350/350/350 379/379/379 380/380/380
f 351/351/351 381/381/381 352/352/352
f 351/351/351 380/380/380 381/381/381
f 352/352/352 382/382/382 353/353/353
f 352/352/352 381/381/381 382/382/382
f 353/353/353 383/383/383 354/354/354
f 353/353/353 382/382/382 383/383/383
f 354/354/354 384/384/384 355/355/355
f 354/354/354 383/383/383 384/384/384
f 355/355/355 385/385/385 356/356/356
f 355/355/355 384/384/384 385/385/385
f 356/356/356 386/386/386 357/357/357
f 356/356/356 385/385/385 386/386/386
f 357/357/357 387/387/387 358/358/358
f 357/357/357 386/386/386 387/387/387
f 358/358/358 388/388/388 359/359/359
f 358/358/358 387/387/387 388/388/388
f 359/359/359 389/389/389 360/360/360
f 359/359/359 388/388/388 389/389/389
f 360/360/360 390/390/390 361/361/361
f 360/360/360 389/389/389 390/390/390
f 361/361/361 391/391/391 362/362/362
f 361/361/361 390/390/390 391/391/391
f 362/362/362 392/392/392 363/363/363
f 362/362/362 391/391/391 392/392/392
f 363/363/363 393/393/393 364/364/364
f 363/363/363 392/392/392 393/393/393
f 364/364/364 394/394/394 365/365/365
f 364/364/364 393/393/393 394/394/394
f 365/365/365 395/395/395 366/366/366
f 365/365/365 394/394/394 395/395/395
f 366/366/366 396/396/396 367/367/367
f 366/366/366 395/395/395 396/396/396
f 367/367/367 397/397/397 368/368/368
f 367/367/367 396/396/396 397/397/397
f 368/368/368 398/398/398 369/369/369
f 368/368/368 397/397/397 398/398/398
f 369/369/369 399/399/399 370/370/370
f 369/369/369 398/398/398 399/399/399
f 370/370/370 400/400/400 371/371/371
f 370/370/370 399/399/399 400/400/400
f 371/371/371 401/401/401 372/372/372
f 371/371/371 400/400/400 401/401/401
f 372/372/372 402/402/402 373/373/373
f 372/372/372 401/401/401 402/402/402
f 373/373/373 403/403/403 374/374/374
f 373/373/373 402/402/402 403/403/403
f 374/374/374 404/404/404 375/375/375
f 374/374/374 403/403/403 404/404/404
f 375/375/375 405/405/405 376/376/376
f 375/375/375 404/404/404 405/405/405
f 376/376/376 406/406/406 377/377/377
f 376/376/376 405/405/405 406/406/406
f 378/378/378 408/408/408 379/379/379
f 378/378/378 407/407/407 408/408/408
f 379/379/379 409/409/409 380/380/380
f 379/379/379 408/408/408 409/409/409
f 380/380/380 410/410/410 381/381/381
f 380/380/380 409/409/409 410/410/410
f 381/381/381 411/411/411 382/382/382
f 381/381/381 410/410/410 411/411/411
f 382/382/382 412/412/412 383/383/383
f 382/382/382 411/411/411 412/412/412
f 383/383/383 413/413/413 384/384/384
f 383/383/383 412/412/412 413/413/413
f 384/384/384 414/414/414 385/385/385
f 384/384/384 413/413/413 414/414/414
f 385/385/385 415/415/415 386/386/386
f 385/385/385 414/414/414 415/415/415
f 386/386/386 416/416/416 387/387/387
f 386/386/386 415/415/415 416/416/416
f 387/387/387 417/417/417 388/388/388
f 387/387/387 416/416/416 417/417/417
f 388/388/388 418/418/418 389/389/389
f 388/388/388 417/417/417 418/418/418
f 389/389/389 419/419/419 390/390/390
f 389/389/389 418/418/418 419/419/419
f 390/390/390 420/420/420 391/391/391
f 390/390/390 419/419/419 420/420/420
f 391/391/391 421/421/421 392/392/392
f 391/391/391 420/420/420 421/421/421
f 392/392/392 422/422/422 393/393/393
f 392/392/392 421/421/421 422/422/422
f 393/393/393 423/423/423 394/394/394
f 393/393/393 422/422/422 423/423/423
f 394/394/394 424/424/424 395/395/395
f 394/394/394 423/423/423 424/424/424
f 395/395/395 425/425/425 396/396/396
f 395/395/395 424/424/424 425/425/425
f 396/396/396 426/426/426 397/397/397
f 396/396/396 425/425/425 426/426/426
f 397/397/397 427/427/427 398/398/398
f 397/397/397 426/426/426 427/427/427
f 398/398/398 428/428/428 399/399/399
f 398/398/398 427/427/427 428/428/428
f 399/399/399 429/429/429 400/400/400
f 399/399/399 428/428/428 429/429/429
f 400/400/400 430/430/430 401/401/401
f 400/400/400 429/429/429 430/430/430
f 401/401/401 431/431/431 402/402/402
f 401/401/401 430/430/430 431/431/431
f 402/402/402 432/432/432 403/403/403
f 402/402/402 431/431/431 432/432/432
f 403/403/403 433/433/433 404/404/404
f 403/403/403 432/432/432 433/433/433
f 404/404/404 434/434/434 405/405/405
f 404/404/404 433/433/433 434/434/434
f 405/405/405 435/435/435 406/406/406
f 405/405/405 434/434/434 435/435/435
f 407/407/407 437/437/437 408/408/408
f 407/407/407 436/436/436 437/437/437
f 408/408/408 438/438/438 409/409/409
f 408/408/408 437/437/437 438/438/438
f 409/409/409 439/439/439 410/410/410
f 409/409/409 438/438/438 439/439/439
f 410/410/410 440/440/440 411/411/411
f 410/410/410 439/439/439 440/440/440
f 411/411/411 441/441/441 412/412/412
f 411/411/411 440/440/440 441/441/441
f 412/412/412 442/442/442 413/413/413
f 412/412/412 441/441/441 442/442/442
f 413/413/413 443/443/443 414/414/414
f 413/413/413 442/442/442 443/443/443
f 414/414/414 444/444/444 415/415/415
f 414/414/414 443/443/443 444/444/444
f 415/415/415 445/445/445 416/416/416
f 415/415/415 444/444/444 445/445/445
f 416/416/416 446/446/446 417/417/417
f 416/416/416 445/445/445 446/446/446
f 417/417/417 447/447/447 418/418/418
f 417/417/417 446/446/446 447/447/447
f 418/418/418 448/448/448 419/419/419
f 418/418/418 447/447/447 448/448/448
f 419/419/419 449/449/449 420/420/420
f 419/419/419 448/448/448 449/449/449
f 420/420/420 450/450/450 421/421/421
f 420/420/420 449/449/449 450/450/450
f 421/421/421 451/451/451 422/422/422
f 421/421/421 450/450/450 451/451/451
f 422/422/422 452/452/452 423/423/423
f 422/422/422 451/451/451 452/452/452
f 423/423/423 453/453/453 424/424/424
f 423/423/423 452/452/452 453/453/453
f 424/424/424 454/454/454 425/425/425
f 424/424/424 453/453/453 454/454/454
f 425/425/425 455/455/455 426/426/426
f 425/425/425 454/454/454 455/455/455
f 426/426/426 456/456/456 427/427/427
f 426/426/426 455/455/455 456/456/456
f 427/427/427 457/457/457 428/428/428
f 427/427/427 456/456/456 457/457/457
f 428/428/428 458/458/458 429/429/429
f 428/428/428 457/457/457 458/458/458
f 429/429/429 459/459/459 430/430/430
f 429/429/429 458/458/458 459/459/459
f 430/430/430 460/460/460 431/431/431
f 430/430/430 459/459/459 460/460/460
f 431/431/431 461/461/461 432/432/432
f 431/431/431 460/460/460 461/461/461
f 432/432/432 462/462/462 433/433/433
f 432/432/432 461/461/461 462/462/462
f 433/433/433 463/463/463 434/434/434
f 433/433/433 462/462/462 463/463/463
f 434/434/434 464/464/464 435/435/435
f 434/434/434 463/463/463 464/464/464
f 436/436/436 466/466/466 437/437/437
f 436/436/436 465/465/465 466/466/466
f 437/437/437 467/467/467 438/438/438
f 437/437/437 466/466/466 467/467/467
f 438/438/438 468/468/468 439/439/439
f 438/438/438 467/467/467 468/468/468
f 439/439/439 469/469/469 440/440/440
f 439/439/439 468/468/468 469/469/469
f 440/440/440 470/470/470 441/441/441
f 440/440/440 469/469/469 470/470/470
f 441/441/441 471/471/471 442/442/442
f 441/441/441 470/470/470 471/471/471
f 442/442/442 472/472/472 443/443/443
f 442/442/442 471/471/471 472/472/472
f 443/443/443 473/473/473 444/444/444
f 443/443/443 472/472/472 473/473/473
f 444/444/444 474/474/474 445/445/445
f 444/444/444 473/473/473 474/474/474
f 445/445/445 475/475/475 446/446/446
f 445/445/445 474/474/474 475/475/475
f 446/446/446 476/476/476 447/447/447
f 446/446/446 475/475/475 476/476/476
f 447/447/447 477/477/477 448/448/448
f 447/447/447 476/476/476 477/477/477
f 448/448/448 478/478/478 449/449/449
f 448/448/448 477/477/477 478/478/478
f 449/449/449 479/479/479 450/450/450
f 449/449/449 478/478/478 479/479/479
f 450/450/450 480/480/480 451/451/451
f 450/450/450 479/479/479 480/480/480
f 451/451/451 481/481/481 452/452/452
f 451/451/451 480/480/480 481/481/481
f 452/452/452 482/482/482 453/453/453
f 452/452/452 481/481/481 482/482/482
f 453/453/453 483/483/483 454/454/454
f 453/453/453 482/482/482 483/483/483
f 454/454/454 484/484/484 455/455/455
f 454/454/454 483/483/483 484/484/484
f 455/455/455 485/485/485 456/456/456
f 455/455/455 484/484/484 485/485/485
f 456/456/456 486/486/486 457/457/457
f 456/456/456 485/485/485 486/486/486
f 457/457/457 487/487/487 458/458/458
f 457/457/457 486/486/486 487/487/487
f 458/458/458 488/488/488 459/459/459
f 458/458/458 487/487/487 488/488/488
f 459/459/459 489/489/489 460/460/460
f 459/459/459 488/488/488 489/489/489
f 460/460/460 490/490/490 461/461/461
f 460/460/460 489/489/489 490/490/490
f 461/461/461 491/491/491 462/462/462
f 461/461/461 490/490/490 491/491/491
f 462/462/462 492/492/492 463/463/463
f 462/462/462 491/491/491 492/492/492
f 463/463/463 493/493/493 464/464/464
f 463/463/463 492/492/492 493/493/493
