# Sancta editable mesh extracted from the approved reference, cm, Z up
v 28.0 -45.0 0.0
v 20.16 -32.4 24.0
v 42.0 -12.0 0.0
v 42.0 -12.0 0.0
v 20.16 -32.4 24.0
v 30.24 -8.64 24.0
v 20.16 -32.4 24.0
v 2.5 1.5 100.0
v 30.24 -8.64 24.0
v 0.0 0.0 0.0
v 28.0 -45.0 0.0
v 42.0 -12.0 0.0
v 42.0 -12.0 0.0
v 30.24 -8.64 24.0
v 26.0 34.0 0.0
v 26.0 34.0 0.0
v 30.24 -8.64 24.0
v 18.72 24.48 24.0
v 30.24 -8.64 24.0
v 2.5 1.5 100.0
v 18.72 24.48 24.0
v 0.0 0.0 0.0
v 42.0 -12.0 0.0
v 26.0 34.0 0.0
v 26.0 34.0 0.0
v 18.72 24.48 24.0
v -25.0 42.0 0.0
v -25.0 42.0 0.0
v 18.72 24.48 24.0
v -18.0 30.24 24.0
v 18.72 24.48 24.0
v 2.5 1.5 100.0
v -18.0 30.24 24.0
v 0.0 0.0 0.0
v 26.0 34.0 0.0
v -25.0 42.0 0.0
v -25.0 42.0 0.0
v -18.0 30.24 24.0
v -32.0 3.0 0.0
v -32.0 3.0 0.0
v -18.0 30.24 24.0
v -23.04 2.16 24.0
v -18.0 30.24 24.0
v 2.5 1.5 100.0
v -23.04 2.16 24.0
v 0.0 0.0 0.0
v -25.0 42.0 0.0
v -32.0 3.0 0.0
v -32.0 3.0 0.0
v -23.04 2.16 24.0
v -19.0 -38.0 0.0
v -19.0 -38.0 0.0
v -23.04 2.16 24.0
v -13.68 -27.36 24.0
v -23.04 2.16 24.0
v 2.5 1.5 100.0
v -13.68 -27.36 24.0
v 0.0 0.0 0.0
v -32.0 3.0 0.0
v -19.0 -38.0 0.0
v -19.0 -38.0 0.0
v -13.68 -27.36 24.0
v 28.0 -45.0 0.0
v 28.0 -45.0 0.0
v -13.68 -27.36 24.0
v 20.16 -32.4 24.0
v -13.68 -27.36 24.0
v 2.5 1.5 100.0
v 20.16 -32.4 24.0
v 0.0 0.0 0.0
v -19.0 -38.0 0.0
v 28.0 -45.0 0.0
vt 1.0 1.0
vn 0.821491279 -0.348511452 0.45132233
vt 0.0 0.0
vn 0.821491279 -0.348511452 0.45132233
vt 0.0 1.0
vn 0.821491279 -0.348511452 0.45132233
vt 1.0 1.0
vn 0.821491279 -0.348511452 0.45132233
vt 0.0 0.0
vn 0.821491279 -0.348511452 0.45132233
vt 0.0 1.0
vn 0.821491279 -0.348511452 0.45132233
vt 1.0 1.0
vn 0.858209257 -0.364088776 0.361823486
vt 0.0 0.0
vn 0.858209257 -0.364088776 0.361823486
vt 0.0 1.0
vn 0.858209257 -0.364088776 0.361823486
vt 1.0 1.0
vn -0.0 0.0 -1.0
vt 0.0 0.0
vn -0.0 0.0 -1.0
vt 0.0 1.0
vn -0.0 0.0 -1.0
vt 1.0 1.0
vn 0.871798659 0.303234316 0.384728538
vt 0.0 0.0
vn 0.871798659 0.303234316 0.384728538
vt 0.0 1.0
vn 0.871798659 0.303234316 0.384728538
vt 1.0 1.0
vn 0.871798659 0.303234316 0.384728538
vt 0.0 0.0
vn 0.871798659 0.303234316 0.384728538
vt 0.0 1.0
vn 0.871798659 0.303234316 0.384728538
vt 1.0 1.0
vn 0.904437078 0.31458681 0.28814703
vt 0.0 0.0
vn 0.904437078 0.31458681 0.28814703
vt 0.0 1.0
vn 0.904437078 0.31458681 0.28814703
vt 1.0 1.0
vn 0.0 0.0 -1.0
vt 0.0 0.0
vn 0.0 0.0 -1.0
vt 0.0 1.0
vn 0.0 0.0 -1.0
vt 1.0 1.0
vn 0.141902768 0.904630144 0.401880463
vt 0.0 0.0
vn 0.141902768 0.904630144 0.401880463
vt 0.0 1.0
vn 0.141902768 0.904630144 0.401880463
vt 1.0 1.0
vn 0.141902768 0.904630144 0.401880463
vt 0.0 0.0
vn 0.141902768 0.904630144 0.401880463
vt 0.0 1.0
vn 0.141902768 0.904630144 0.401880463
vt 1.0 1.0
vn 0.147083333 0.93765625 0.31490832
vt 0.0 0.0
vn 0.147083333 0.93765625 0.31490832
vt 0.0 1.0
vn 0.147083333 0.93765625 0.31490832
vt 1.0 1.0
vn -0.0 0.0 -1.0
vt 0.0 0.0
vn -0.0 0.0 -1.0
vt 0.0 1.0
vn -0.0 0.0 -1.0
vt 1.0 1.0
vn -0.92201209 0.165489349 0.350009974
vt 0.0 0.0
vn -0.92201209 0.165489349 0.350009974
vt 0.0 1.0
vn -0.92201209 0.165489349 0.350009974
vt 1.0 1.0
vn -0.92201209 0.165489349 0.350009974
vt 0.0 0.0
vn -0.92201209 0.165489349 0.350009974
vt 0.0 1.0
vn -0.92201209 0.165489349 0.350009974
vt 1.0 1.0
vn -0.934050494 0.167650089 0.315346035
vt 0.0 0.0
vn -0.934050494 0.167650089 0.315346035
vt 0.0 1.0
vn -0.934050494 0.167650089 0.315346035
vt 1.0 1.0
vn -0.0 0.0 -1.0
vt 0.0 0.0
vn -0.0 0.0 -1.0
vt 0.0 1.0
vn -0.0 0.0 -1.0
vt 1.0 1.0
vn -0.901028832 -0.285692069 0.326384875
vt 0.0 0.0
vn -0.901028832 -0.285692069 0.326384875
vt 0.0 1.0
vn -0.901028832 -0.285692069 0.326384875
vt 1.0 1.0
vn -0.901028832 -0.285692069 0.326384875
vt 0.0 0.0
vn -0.901028832 -0.285692069 0.326384875
vt 0.0 1.0
vn -0.901028832 -0.285692069 0.326384875
vt 1.0 1.0
vn -0.908481572 -0.288055133 0.302796092
vt 0.0 0.0
vn -0.908481572 -0.288055133 0.302796092
vt 0.0 1.0
vn -0.908481572 -0.288055133 0.302796092
vt 1.0 1.0
vn -0.0 0.0 -1.0
vt 0.0 0.0
vn -0.0 0.0 -1.0
vt 0.0 1.0
vn -0.0 0.0 -1.0
vt 1.0 1.0
vn -0.133261133 -0.89475332 0.426213523
vt 0.0 0.0
vn -0.133261133 -0.89475332 0.426213523
vt 0.0 1.0
vn -0.133261133 -0.89475332 0.426213523
vt 1.0 1.0
vn -0.133261133 -0.89475332 0.426213523
vt 0.0 0.0
vn -0.133261133 -0.89475332 0.426213523
vt 0.0 1.0
vn -0.133261133 -0.89475332 0.426213523
vt 1.0 1.0
vn -0.136445394 -0.916133357 0.376938094
vt 0.0 0.0
vn -0.136445394 -0.916133357 0.376938094
vt 0.0 1.0
vn -0.136445394 -0.916133357 0.376938094
vt 1.0 1.0
vn -0.0 -0.0 -1.0
vt 0.0 0.0
vn -0.0 -0.0 -1.0
vt 0.0 1.0
vn -0.0 -0.0 -1.0
f 1/1/1 3/3/3 2/2/2
f 4/4/4 6/6/6 5/5/5
f 7/7/7 9/9/9 8/8/8
f 10/10/10 12/12/12 11/11/11
f 13/13/13 15/15/15 14/14/14
f 16/16/16 18/18/18 17/17/17
f 19/19/19 21/21/21 20/20/20
f 22/22/22 24/24/24 23/23/23
f 25/25/25 27/27/27 26/26/26
f 28/28/28 30/30/30 29/29/29
f 31/31/31 33/33/33 32/32/32
f 34/34/34 36/36/36 35/35/35
f 37/37/37 39/39/39 38/38/38
f 40/40/40 42/42/42 41/41/41
f 43/43/43 45/45/45 44/44/44
f 46/46/46 48/48/48 47/47/47
f 49/49/49 51/51/51 50/50/50
f 52/52/52 54/54/54 53/53/53
f 55/55/55 57/57/57 56/56/56
f 58/58/58 60/60/60 59/59/59
f 61/61/61 63/63/63 62/62/62
f 64/64/64 66/66/66 65/65/65
f 67/67/67 69/69/69 68/68/68
f 70/70/70 72/72/72 71/71/71
