# Sancta editable mesh extracted from the approved reference, cm, Z up
v 0.0 -100.0 -100.0
v 0.0 -87.5 -100.0
v 0.0 -75.0 -100.0
v 0.0 -62.5 -100.0
v 0.0 -50.0 -100.0
v 0.0 -37.5 -100.0
v 0.0 -25.0 -100.0
v 0.0 -12.5 -100.0
v 0.0 0.0 -100.0
v 0.0 12.5 -100.0
v 0.0 25.0 -100.0
v 0.0 37.5 -100.0
v 0.0 50.0 -100.0
v 0.0 62.5 -100.0
v 0.0 75.0 -100.0
v 0.0 87.5 -100.0
v 0.0 100.0 -100.0
v 0.0 -100.0 100.0
v 0.0 -87.5 100.0
v 0.0 -75.0 100.0
v 0.0 -62.5 100.0
v 0.0 -50.0 100.0
v 0.0 -37.5 100.0
v 0.0 -25.0 100.0
v 0.0 -12.5 100.0
v 0.0 0.0 100.0
v 0.0 12.5 100.0
v 0.0 25.0 100.0
v 0.0 37.5 100.0
v 0.0 50.0 100.0
v 0.0 62.5 100.0
v 0.0 75.0 100.0
v 0.0 87.5 100.0
v 0.0 100.0 100.0
vt 0.0 1.0
vn -1.0 0.0 0.0
vt 0.0625 1.0
vn -1.0 0.0 0.0
vt 0.125 1.0
vn -1.0 0.0 0.0
vt 0.1875 1.0
vn -1.0 0.0 0.0
vt 0.25 1.0
vn -1.0 0.0 0.0
vt 0.3125 1.0
vn -1.0 0.0 0.0
vt 0.375 1.0
vn -1.0 0.0 0.0
vt 0.4375 1.0
vn -1.0 0.0 0.0
vt 0.5 1.0
vn -1.0 0.0 0.0
vt 0.5625 1.0
vn -1.0 0.0 0.0
vt 0.625 1.0
vn -1.0 0.0 0.0
vt 0.6875 1.0
vn -1.0 0.0 0.0
vt 0.75 1.0
vn -1.0 0.0 0.0
vt 0.8125 1.0
vn -1.0 0.0 0.0
vt 0.875 1.0
vn -1.0 0.0 0.0
vt 0.9375 1.0
vn -1.0 0.0 0.0
vt 1.0 1.0
vn -1.0 0.0 0.0
vt 0.0 0.0
vn -1.0 0.0 0.0
vt 0.0625 0.0
vn -1.0 0.0 0.0
vt 0.125 0.0
vn -1.0 0.0 0.0
vt 0.1875 0.0
vn -1.0 0.0 0.0
vt 0.25 0.0
vn -1.0 0.0 0.0
vt 0.3125 0.0
vn -1.0 0.0 0.0
vt 0.375 0.0
vn -1.0 0.0 0.0
vt 0.4375 0.0
vn -1.0 0.0 0.0
vt 0.5 0.0
vn -1.0 0.0 0.0
vt 0.5625 0.0
vn -1.0 0.0 0.0
vt 0.625 0.0
vn -1.0 0.0 0.0
vt 0.6875 0.0
vn -1.0 0.0 0.0
vt 0.75 0.0
vn -1.0 0.0 0.0
vt 0.8125 0.0
vn -1.0 0.0 0.0
vt 0.875 0.0
vn -1.0 0.0 0.0
vt 0.9375 0.0
vn -1.0 0.0 0.0
vt 1.0 0.0
vn -1.0 0.0 0.0
f 1/1/1 19/19/19 2/2/2
f 1/1/1 18/18/18 19/19/19
f 2/2/2 20/20/20 3/3/3
f 2/2/2 19/19/19 20/20/20
f 3/3/3 21/21/21 4/4/4
f 3/3/3 20/20/20 21/21/21
f 4/4/4 22/22/22 5/5/5
f 4/4/4 21/21/21 22/22/22
f 5/5/5 23/23/23 6/6/6
f 5/5/5 22/22/22 23/23/23
f 6/6/6 24/24/24 7/7/7
f 6/6/6 23/23/23 24/24/24
f 7/7/7 25/25/25 8/8/8
f 7/7/7 24/24/24 25/25/25
f 8/8/8 26/26/26 9/9/9
f 8/8/8 25/25/25 26/26/26
f 9/9/9 27/27/27 10/10/10
f 9/9/9 26/26/26 27/27/27
f 10/10/10 28/28/28 11/11/11
f 10/10/10 27/27/27 28/28/28
f 11/11/11 29/29/29 12/12/12
f 11/11/11 28/28/28 29/29/29
f 12/12/12 30/30/30 13/13/13
f 12/12/12 29/29/29 30/30/30
f 13/13/13 31/31/31 14/14/14
f 13/13/13 30/30/30 31/31/31
f 14/14/14 32/32/32 15/15/15
f 14/14/14 31/31/31 32/32/32
f 15/15/15 33/33/33 16/16/16
f 15/15/15 32/32/32 33/33/33
f 16/16/16 34/34/34 17/17/17
f 16/16/16 33/33/33 34/34/34
