# Sancta editable mesh extracted from the approved reference, cm, Z up
v 0.0 -100.0 100.0
v 0.0 -94.9999988 100.0
v 0.0 -89.9999976 100.0
v 0.0 -85.0000024 100.0
v 0.0 -80.0000012 100.0
v 0.0 -75.0 100.0
v 0.0 -69.9999988 100.0
v 0.0 -64.9999976 100.0
v 0.0 -60.0000024 100.0
v 0.0 -55.0000012 100.0
v 0.0 -50.0 100.0
v 0.0 -44.9999988 100.0
v 0.0 -40.0000006 100.0
v 0.0 -34.9999994 100.0
v 0.0 -30.0000012 100.0
v 0.0 -25.0 100.0
v 0.0 -20.0000003 100.0
v 0.0 -15.0000006 100.0
v 0.0 -10.0000001 100.0
v 0.0 -5.00000007 100.0
v 0.0 0.0 100.0
v 0.0 5.00000007 100.0
v 0.0 10.0000001 100.0
v 0.0 15.0000006 100.0
v 0.0 20.0000003 100.0
v 0.0 25.0 100.0
v 0.0 30.0000012 100.0
v 0.0 34.9999994 100.0
v 0.0 40.0000006 100.0
v 0.0 44.9999988 100.0
v 0.0 50.0 100.0
v 0.0 55.0000012 100.0
v 0.0 60.0000024 100.0
v 0.0 64.9999976 100.0
v 0.0 69.9999988 100.0
v 0.0 75.0 100.0
v 0.0 80.0000012 100.0
v 0.0 85.0000024 100.0
v 0.0 89.9999976 100.0
v 0.0 94.9999988 100.0
v 0.0 100.0 100.0
v 0.0 -100.0 -100.0
v 0.0 -94.9999988 -100.0
v 0.0 -89.9999976 -100.0
v 0.0 -85.0000024 -100.0
v 0.0 -80.0000012 -100.0
v 0.0 -75.0 -100.0
v 0.0 -69.9999988 -100.0
v 0.0 -64.9999976 -100.0
v 0.0 -60.0000024 -100.0
v 0.0 -55.0000012 -100.0
v 0.0 -50.0 -100.0
v 0.0 -44.9999988 -100.0
v 0.0 -40.0000006 -100.0
v 0.0 -34.9999994 -100.0
v 0.0 -30.0000012 -100.0
v 0.0 -25.0 -100.0
v 0.0 -20.0000003 -100.0
v 0.0 -15.0000006 -100.0
v 0.0 -10.0000001 -100.0
v 0.0 -5.00000007 -100.0
v 0.0 0.0 -100.0
v 0.0 5.00000007 -100.0
v 0.0 10.0000001 -100.0
v 0.0 15.0000006 -100.0
v 0.0 20.0000003 -100.0
v 0.0 25.0 -100.0
v 0.0 30.0000012 -100.0
v 0.0 34.9999994 -100.0
v 0.0 40.0000006 -100.0
v 0.0 44.9999988 -100.0
v 0.0 50.0 -100.0
v 0.0 55.0000012 -100.0
v 0.0 60.0000024 -100.0
v 0.0 64.9999976 -100.0
v 0.0 69.9999988 -100.0
v 0.0 75.0 -100.0
v 0.0 80.0000012 -100.0
v 0.0 85.0000024 -100.0
v 0.0 89.9999976 -100.0
v 0.0 94.9999988 -100.0
v 0.0 100.0 -100.0
vt 0.0 0.0
vn -1.0 0.0 0.0
vt 0.0250000004 0.0
vn -1.0 0.0 0.0
vt 0.0500000007 0.0
vn -1.0 0.0 0.0
vt 0.075000003 0.0
vn -1.0 0.0 0.0
vt 0.100000001 0.0
vn -1.0 0.0 0.0
vt 0.125 0.0
vn -1.0 0.0 0.0
vt 0.150000006 0.0
vn -1.0 0.0 0.0
vt 0.174999997 0.0
vn -1.0 0.0 0.0
vt 0.200000003 0.0
vn -1.0 0.0 0.0
vt 0.224999994 0.0
vn -1.0 0.0 0.0
vt 0.25 0.0
vn -1.0 0.0 0.0
vt 0.275000006 0.0
vn -1.0 0.0 0.0
vt 0.300000012 0.0
vn -1.0 0.0 0.0
vt 0.324999988 0.0
vn -1.0 0.0 0.0
vt 0.349999994 0.0
vn -1.0 0.0 0.0
vt 0.375 0.0
vn -1.0 0.0 0.0
vt 0.400000006 0.0
vn -1.0 0.0 0.0
vt 0.425000012 0.0
vn -1.0 0.0 0.0
vt 0.449999988 0.0
vn -1.0 0.0 0.0
vt 0.474999994 0.0
vn -1.0 0.0 0.0
vt 0.5 0.0
vn -1.0 0.0 0.0
vt 0.524999976 0.0
vn -1.0 0.0 0.0
vt 0.550000012 0.0
vn -1.0 0.0 0.0
vt 0.574999988 0.0
vn -1.0 0.0 0.0
vt 0.600000024 0.0
vn -1.0 0.0 0.0
vt 0.625 0.0
vn -1.0 0.0 0.0
vt 0.649999976 0.0
vn -1.0 0.0 0.0
vt 0.675000012 0.0
vn -1.0 0.0 0.0
vt 0.699999988 0.0
vn -1.0 0.0 0.0
vt 0.725000024 0.0
vn -1.0 0.0 0.0
vt 0.75 0.0
vn -1.0 0.0 0.0
vt 0.774999976 0.0
vn -1.0 0.0 0.0
vt 0.800000012 0.0
vn -1.0 0.0 0.0
vt 0.824999988 0.0
vn -1.0 0.0 0.0
vt 0.850000024 0.0
vn -1.0 0.0 0.0
vt 0.875 0.0
vn -1.0 0.0 0.0
vt 0.899999976 0.0
vn -1.0 0.0 0.0
vt 0.925000012 0.0
vn -1.0 0.0 0.0
vt 0.949999988 0.0
vn -1.0 0.0 0.0
vt 0.975000024 0.0
vn -1.0 0.0 0.0
vt 1.0 0.0
vn -1.0 0.0 0.0
vt 0.0 1.0
vn -1.0 0.0 0.0
vt 0.0250000004 1.0
vn -1.0 0.0 0.0
vt 0.0500000007 1.0
vn -1.0 0.0 0.0
vt 0.075000003 1.0
vn -1.0 0.0 0.0
vt 0.100000001 1.0
vn -1.0 0.0 0.0
vt 0.125 1.0
vn -1.0 0.0 0.0
vt 0.150000006 1.0
vn -1.0 0.0 0.0
vt 0.174999997 1.0
vn -1.0 0.0 0.0
vt 0.200000003 1.0
vn -1.0 0.0 0.0
vt 0.224999994 1.0
vn -1.0 0.0 0.0
vt 0.25 1.0
vn -1.0 0.0 0.0
vt 0.275000006 1.0
vn -1.0 0.0 0.0
vt 0.300000012 1.0
vn -1.0 0.0 0.0
vt 0.324999988 1.0
vn -1.0 0.0 0.0
vt 0.349999994 1.0
vn -1.0 0.0 0.0
vt 0.375 1.0
vn -1.0 0.0 0.0
vt 0.400000006 1.0
vn -1.0 0.0 0.0
vt 0.425000012 1.0
vn -1.0 0.0 0.0
vt 0.449999988 1.0
vn -1.0 0.0 0.0
vt 0.474999994 1.0
vn -1.0 0.0 0.0
vt 0.5 1.0
vn -1.0 0.0 0.0
vt 0.524999976 1.0
vn -1.0 0.0 0.0
vt 0.550000012 1.0
vn -1.0 0.0 0.0
vt 0.574999988 1.0
vn -1.0 0.0 0.0
vt 0.600000024 1.0
vn -1.0 0.0 0.0
vt 0.625 1.0
vn -1.0 0.0 0.0
vt 0.649999976 1.0
vn -1.0 0.0 0.0
vt 0.675000012 1.0
vn -1.0 0.0 0.0
vt 0.699999988 1.0
vn -1.0 0.0 0.0
vt 0.725000024 1.0
vn -1.0 0.0 0.0
vt 0.75 1.0
vn -1.0 0.0 0.0
vt 0.774999976 1.0
vn -1.0 0.0 0.0
vt 0.800000012 1.0
vn -1.0 0.0 0.0
vt 0.824999988 1.0
vn -1.0 0.0 0.0
vt 0.850000024 1.0
vn -1.0 0.0 0.0
vt 0.875 1.0
vn -1.0 0.0 0.0
vt 0.899999976 1.0
vn -1.0 0.0 0.0
vt 0.925000012 1.0
vn -1.0 0.0 0.0
vt 0.949999988 1.0
vn -1.0 0.0 0.0
vt 0.975000024 1.0
vn -1.0 0.0 0.0
vt 1.0 1.0
vn -1.0 0.0 0.0
f 1/1/1 2/2/2 42/42/42
f 42/42/42 2/2/2 43/43/43
f 2/2/2 3/3/3 43/43/43
f 43/43/43 3/3/3 44/44/44
f 3/3/3 4/4/4 44/44/44
f 44/44/44 4/4/4 45/45/45
f 4/4/4 5/5/5 45/45/45
f 45/45/45 5/5/5 46/46/46
f 5/5/5 6/6/6 46/46/46
f 46/46/46 6/6/6 47/47/47
f 6/6/6 7/7/7 47/47/47
f 47/47/47 7/7/7 48/48/48
f 7/7/7 8/8/8 48/48/48
f 48/48/48 8/8/8 49/49/49
f 8/8/8 9/9/9 49/49/49
f 49/49/49 9/9/9 50/50/50
f 9/9/9 10/10/10 50/50/50
f 50/50/50 10/10/10 51/51/51
f 10/10/10 11/11/11 51/51/51
f 51/51/51 11/11/11 52/52/52
f 11/11/11 12/12/12 52/52/52
f 52/52/52 12/12/12 53/53/53
f 12/12/12 13/13/13 53/53/53
f 53/53/53 13/13/13 54/54/54
f 13/13/13 14/14/14 54/54/54
f 54/54/54 14/14/14 55/55/55
f 14/14/14 15/15/15 55/55/55
f 55/55/55 15/15/15 56/56/56
f 15/15/15 16/16/16 56/56/56
f 56/56/56 16/16/16 57/57/57
f 16/16/16 17/17/17 57/57/57
f 57/57/57 17/17/17 58/58/58
f 17/17/17 18/18/18 58/58/58
f 58/58/58 18/18/18 59/59/59
f 18/18/18 19/19/19 59/59/59
f 59/59/59 19/19/19 60/60/60
f 19/19/19 20/20/20 60/60/60
f 60/60/60 20/20/20 61/61/61
f 20/20/20 21/21/21 61/61/61
f 61/61/61 21/21/21 62/62/62
f 21/21/21 22/22/22 62/62/62
f 62/62/62 22/22/22 63/63/63
f 22/22/22 23/23/23 63/63/63
f 63/63/63 23/23/23 64/64/64
f 23/23/23 24/24/24 64/64/64
f 64/64/64 24/24/24 65/65/65
f 24/24/24 25/25/25 65/65/65
f 65/65/65 25/25/25 66/66/66
f 25/25/25 26/26/26 66/66/66
f 66/66/66 26/26/26 67/67/67
f 26/26/26 27/27/27 67/67/67
f 67/67/67 27/27/27 68/68/68
f 27/27/27 28/28/28 68/68/68
f 68/68/68 28/28/28 69/69/69
f 28/28/28 29/29/29 69/69/69
f 69/69/69 29/29/29 70/70/70
f 29/29/29 30/30/30 70/70/70
f 70/70/70 30/30/30 71/71/71
f 30/30/30 31/31/31 71/71/71
f 71/71/71 31/31/31 72/72/72
f 31/31/31 32/32/32 72/72/72
f 72/72/72 32/32/32 73/73/73
f 32/32/32 33/33/33 73/73/73
f 73/73/73 33/33/33 74/74/74
f 33/33/33 34/34/34 74/74/74
f 74/74/74 34/34/34 75/75/75
f 34/34/34 35/35/35 75/75/75
f 75/75/75 35/35/35 76/76/76
f 35/35/35 36/36/36 76/76/76
f 76/76/76 36/36/36 77/77/77
f 36/36/36 37/37/37 77/77/77
f 77/77/77 37/37/37 78/78/78
f 37/37/37 38/38/38 78/78/78
f 78/78/78 38/38/38 79/79/79
f 38/38/38 39/39/39 79/79/79
f 79/79/79 39/39/39 80/80/80
f 39/39/39 40/40/40 80/80/80
f 80/80/80 40/40/40 81/81/81
f 40/40/40 41/41/41 81/81/81
f 81/81/81 41/41/41 82/82/82
