# Sancta editable mesh extracted from the approved reference, cm, Z up
v 0.0 -100.0 100.0
v 0.0 -95.8333313 100.0
v 0.0 -91.6666687 100.0
v 0.0 -87.5 100.0
v 0.0 -83.3333313 100.0
v 0.0 -79.1666687 100.0
v 0.0 -75.0 100.0
v 0.0 -70.8333313 100.0
v 0.0 -66.6666687 100.0
v 0.0 -62.5 100.0
v 0.0 -58.3333313 100.0
v 0.0 -54.1666687 100.0
v 0.0 -50.0 100.0
v 0.0 -45.8333343 100.0
v 0.0 -41.6666657 100.0
v 0.0 -37.5 100.0
v 0.0 -33.3333343 100.0
v 0.0 -29.1666657 100.0
v 0.0 -25.0 100.0
v 0.0 -20.8333328 100.0
v 0.0 -16.6666672 100.0
v 0.0 -12.5 100.0
v 0.0 -8.33333358 100.0
v 0.0 -4.16666679 100.0
v 0.0 0.0 100.0
v 0.0 4.16666679 100.0
v 0.0 8.33333358 100.0
v 0.0 12.5 100.0
v 0.0 16.6666672 100.0
v 0.0 20.8333328 100.0
v 0.0 25.0 100.0
v 0.0 29.1666657 100.0
v 0.0 33.3333343 100.0
v 0.0 37.5 100.0
v 0.0 41.6666657 100.0
v 0.0 45.8333343 100.0
v 0.0 50.0 100.0
v 0.0 54.1666687 100.0
v 0.0 58.3333313 100.0
v 0.0 62.5 100.0
v 0.0 66.6666687 100.0
v 0.0 70.8333313 100.0
v 0.0 75.0 100.0
v 0.0 79.1666687 100.0
v 0.0 83.3333313 100.0
v 0.0 87.5 100.0
v 0.0 91.6666687 100.0
v 0.0 95.8333313 100.0
v 0.0 100.0 100.0
v 0.0 -100.0 -100.0
v 0.0 -95.8333313 -100.0
v 0.0 -91.6666687 -100.0
v 0.0 -87.5 -100.0
v 0.0 -83.3333313 -100.0
v 0.0 -79.1666687 -100.0
v 0.0 -75.0 -100.0
v 0.0 -70.8333313 -100.0
v 0.0 -66.6666687 -100.0
v 0.0 -62.5 -100.0
v 0.0 -58.3333313 -100.0
v 0.0 -54.1666687 -100.0
v 0.0 -50.0 -100.0
v 0.0 -45.8333343 -100.0
v 0.0 -41.6666657 -100.0
v 0.0 -37.5 -100.0
v 0.0 -33.3333343 -100.0
v 0.0 -29.1666657 -100.0
v 0.0 -25.0 -100.0
v 0.0 -20.8333328 -100.0
v 0.0 -16.6666672 -100.0
v 0.0 -12.5 -100.0
v 0.0 -8.33333358 -100.0
v 0.0 -4.16666679 -100.0
v 0.0 0.0 -100.0
v 0.0 4.16666679 -100.0
v 0.0 8.33333358 -100.0
v 0.0 12.5 -100.0
v 0.0 16.6666672 -100.0
v 0.0 20.8333328 -100.0
v 0.0 25.0 -100.0
v 0.0 29.1666657 -100.0
v 0.0 33.3333343 -100.0
v 0.0 37.5 -100.0
v 0.0 41.6666657 -100.0
v 0.0 45.8333343 -100.0
v 0.0 50.0 -100.0
v 0.0 54.1666687 -100.0
v 0.0 58.3333313 -100.0
v 0.0 62.5 -100.0
v 0.0 66.6666687 -100.0
v 0.0 70.8333313 -100.0
v 0.0 75.0 -100.0
v 0.0 79.1666687 -100.0
v 0.0 83.3333313 -100.0
v 0.0 87.5 -100.0
v 0.0 91.6666687 -100.0
v 0.0 95.8333313 -100.0
v 0.0 100.0 -100.0
vt 0.0 0.0
vn -1.0 0.0 0.0
vt 0.020833334 0.0
vn -1.0 0.0 0.0
vt 0.0416666679 0.0
vn -1.0 0.0 0.0
vt 0.0625 0.0
vn -1.0 0.0 0.0
vt 0.0833333358 0.0
vn -1.0 0.0 0.0
vt 0.104166664 0.0
vn -1.0 0.0 0.0
vt 0.125 0.0
vn -1.0 0.0 0.0
vt 0.145833328 0.0
vn -1.0 0.0 0.0
vt 0.166666672 0.0
vn -1.0 0.0 0.0
vt 0.1875 0.0
vn -1.0 0.0 0.0
vt 0.208333328 0.0
vn -1.0 0.0 0.0
vt 0.229166672 0.0
vn -1.0 0.0 0.0
vt 0.25 0.0
vn -1.0 0.0 0.0
vt 0.270833343 0.0
vn -1.0 0.0 0.0
vt 0.291666657 0.0
vn -1.0 0.0 0.0
vt 0.3125 0.0
vn -1.0 0.0 0.0
vt 0.333333343 0.0
vn -1.0 0.0 0.0
vt 0.354166657 0.0
vn -1.0 0.0 0.0
vt 0.375 0.0
vn -1.0 0.0 0.0
vt 0.395833343 0.0
vn -1.0 0.0 0.0
vt 0.416666657 0.0
vn -1.0 0.0 0.0
vt 0.4375 0.0
vn -1.0 0.0 0.0
vt 0.458333343 0.0
vn -1.0 0.0 0.0
vt 0.479166657 0.0
vn -1.0 0.0 0.0
vt 0.5 0.0
vn -1.0 0.0 0.0
vt 0.520833313 0.0
vn -1.0 0.0 0.0
vt 0.541666687 0.0
vn -1.0 0.0 0.0
vt 0.5625 0.0
vn -1.0 0.0 0.0
vt 0.583333313 0.0
vn -1.0 0.0 0.0
vt 0.604166687 0.0
vn -1.0 0.0 0.0
vt 0.625 0.0
vn -1.0 0.0 0.0
vt 0.645833313 0.0
vn -1.0 0.0 0.0
vt 0.666666687 0.0
vn -1.0 0.0 0.0
vt 0.6875 0.0
vn -1.0 0.0 0.0
vt 0.708333313 0.0
vn -1.0 0.0 0.0
vt 0.729166687 0.0
vn -1.0 0.0 0.0
vt 0.75 0.0
vn -1.0 0.0 0.0
vt 0.770833313 0.0
vn -1.0 0.0 0.0
vt 0.791666687 0.0
vn -1.0 0.0 0.0
vt 0.8125 0.0
vn -1.0 0.0 0.0
vt 0.833333313 0.0
vn -1.0 0.0 0.0
vt 0.854166687 0.0
vn -1.0 0.0 0.0
vt 0.875 0.0
vn -1.0 0.0 0.0
vt 0.895833313 0.0
vn -1.0 0.0 0.0
vt 0.916666687 0.0
vn -1.0 0.0 0.0
vt 0.9375 0.0
vn -1.0 0.0 0.0
vt 0.958333313 0.0
vn -1.0 0.0 0.0
vt 0.979166687 0.0
vn -1.0 0.0 0.0
vt 1.0 0.0
vn -1.0 0.0 0.0
vt 0.0 1.0
vn -1.0 0.0 0.0
vt 0.020833334 1.0
vn -1.0 0.0 0.0
vt 0.0416666679 1.0
vn -1.0 0.0 0.0
vt 0.0625 1.0
vn -1.0 0.0 0.0
vt 0.0833333358 1.0
vn -1.0 0.0 0.0
vt 0.104166664 1.0
vn -1.0 0.0 0.0
vt 0.125 1.0
vn -1.0 0.0 0.0
vt 0.145833328 1.0
vn -1.0 0.0 0.0
vt 0.166666672 1.0
vn -1.0 0.0 0.0
vt 0.1875 1.0
vn -1.0 0.0 0.0
vt 0.208333328 1.0
vn -1.0 0.0 0.0
vt 0.229166672 1.0
vn -1.0 0.0 0.0
vt 0.25 1.0
vn -1.0 0.0 0.0
vt 0.270833343 1.0
vn -1.0 0.0 0.0
vt 0.291666657 1.0
vn -1.0 0.0 0.0
vt 0.3125 1.0
vn -1.0 0.0 0.0
vt 0.333333343 1.0
vn -1.0 0.0 0.0
vt 0.354166657 1.0
vn -1.0 0.0 0.0
vt 0.375 1.0
vn -1.0 0.0 0.0
vt 0.395833343 1.0
vn -1.0 0.0 0.0
vt 0.416666657 1.0
vn -1.0 0.0 0.0
vt 0.4375 1.0
vn -1.0 0.0 0.0
vt 0.458333343 1.0
vn -1.0 0.0 0.0
vt 0.479166657 1.0
vn -1.0 0.0 0.0
vt 0.5 1.0
vn -1.0 0.0 0.0
vt 0.520833313 1.0
vn -1.0 0.0 0.0
vt 0.541666687 1.0
vn -1.0 0.0 0.0
vt 0.5625 1.0
vn -1.0 0.0 0.0
vt 0.583333313 1.0
vn -1.0 0.0 0.0
vt 0.604166687 1.0
vn -1.0 0.0 0.0
vt 0.625 1.0
vn -1.0 0.0 0.0
vt 0.645833313 1.0
vn -1.0 0.0 0.0
vt 0.666666687 1.0
vn -1.0 0.0 0.0
vt 0.6875 1.0
vn -1.0 0.0 0.0
vt 0.708333313 1.0
vn -1.0 0.0 0.0
vt 0.729166687 1.0
vn -1.0 0.0 0.0
vt 0.75 1.0
vn -1.0 0.0 0.0
vt 0.770833313 1.0
vn -1.0 0.0 0.0
vt 0.791666687 1.0
vn -1.0 0.0 0.0
vt 0.8125 1.0
vn -1.0 0.0 0.0
vt 0.833333313 1.0
vn -1.0 0.0 0.0
vt 0.854166687 1.0
vn -1.0 0.0 0.0
vt 0.875 1.0
vn -1.0 0.0 0.0
vt 0.895833313 1.0
vn -1.0 0.0 0.0
vt 0.916666687 1.0
vn -1.0 0.0 0.0
vt 0.9375 1.0
vn -1.0 0.0 0.0
vt 0.958333313 1.0
vn -1.0 0.0 0.0
vt 0.979166687 1.0
vn -1.0 0.0 0.0
vt 1.0 1.0
vn -1.0 0.0 0.0
f 1/1/1 2/2/2 50/50/50
f 50/50/50 2/2/2 51/51/51
f 2/2/2 3/3/3 51/51/51
f 51/51/51 3/3/3 52/52/52
f 3/3/3 4/4/4 52/52/52
f 52/52/52 4/4/4 53/53/53
f 4/4/4 5/5/5 53/53/53
f 53/53/53 5/5/5 54/54/54
f 5/5/5 6/6/6 54/54/54
f 54/54/54 6/6/6 55/55/55
f 6/6/6 7/7/7 55/55/55
f 55/55/55 7/7/7 56/56/56
f 7/7/7 8/8/8 56/56/56
f 56/56/56 8/8/8 57/57/57
f 8/8/8 9/9/9 57/57/57
f 57/57/57 9/9/9 58/58/58
f 9/9/9 10/10/10 58/58/58
f 58/58/58 10/10/10 59/59/59
f 10/10/10 11/11/11 59/59/59
f 59/59/59 11/11/11 60/60/60
f 11/11/11 12/12/12 60/60/60
f 60/60/60 12/12/12 61/61/61
f 12/12/12 13/13/13 61/61/61
f 61/61/61 13/13/13 62/62/62
f 13/13/13 14/14/14 62/62/62
f 62/62/62 14/14/14 63/63/63
f 14/14/14 15/15/15 63/63/63
f 63/63/63 15/15/15 64/64/64
f 15/15/15 16/16/16 64/64/64
f 64/64/64 16/16/16 65/65/65
f 16/16/16 17/17/17 65/65/65
f 65/65/65 17/17/17 66/66/66
f 17/17/17 18/18/18 66/66/66
f 66/66/66 18/18/18 67/67/67
f 18/18/18 19/19/19 67/67/67
f 67/67/67 19/19/19 68/68/68
f 19/19/19 20/20/20 68/68/68
f 68/68/68 20/20/20 69/69/69
f 20/20/20 21/21/21 69/69/69
f 69/69/69 21/21/21 70/70/70
f 21/21/21 22/22/22 70/70/70
f 70/70/70 22/22/22 71/71/71
f 22/22/22 23/23/23 71/71/71
f 71/71/71 23/23/23 72/72/72
f 23/23/23 24/24/24 72/72/72
f 72/72/72 24/24/24 73/73/73
f 24/24/24 25/25/25 73/73/73
f 73/73/73 25/25/25 74/74/74
f 25/25/25 26/26/26 74/74/74
f 74/74/74 26/26/26 75/75/75
f 26/26/26 27/27/27 75/75/75
f 75/75/75 27/27/27 76/76/76
f 27/27/27 28/28/28 76/76/76
f 76/76/76 28/28/28 77/77/77
f 28/28/28 29/29/29 77/77/77
f 77/77/77 29/29/29 78/78/78
f 29/29/29 30/30/30 78/78/78
f 78/78/78 30/30/30 79/79/79
f 30/30/30 31/31/31 79/79/79
f 79/79/79 31/31/31 80/80/80
f 31/31/31 32/32/32 80/80/80
f 80/80/80 32/32/32 81/81/81
f 32/32/32 33/33/33 81/81/81
f 81/81/81 33/33/33 82/82/82
f 33/33/33 34/34/34 82/82/82
f 82/82/82 34/34/34 83/83/83
f 34/34/34 35/35/35 83/83/83
f 83/83/83 35/35/35 84/84/84
f 35/35/35 36/36/36 84/84/84
f 84/84/84 36/36/36 85/85/85
f 36/36/36 37/37/37 85/85/85
f 85/85/85 37/37/37 86/86/86
f 37/37/37 38/38/38 86/86/86
f 86/86/86 38/38/38 87/87/87
f 38/38/38 39/39/39 87/87/87
f 87/87/87 39/39/39 88/88/88
f 39/39/39 40/40/40 88/88/88
f 88/88/88 40/40/40 89/89/89
f 40/40/40 41/41/41 89/89/89
f 89/89/89 41/41/41 90/90/90
f 41/41/41 42/42/42 90/90/90
f 90/90/90 42/42/42 91/91/91
f 42/42/42 43/43/43 91/91/91
f 91/91/91 43/43/43 92/92/92
f 43/43/43 44/44/44 92/92/92
f 92/92/92 44/44/44 93/93/93
f 44/44/44 45/45/45 93/93/93
f 93/93/93 45/45/45 94/94/94
f 45/45/45 46/46/46 94/94/94
f 94/94/94 46/46/46 95/95/95
f 46/46/46 47/47/47 95/95/95
f 95/95/95 47/47/47 96/96/96
f 47/47/47 48/48/48 96/96/96
f 96/96/96 48/48/48 97/97/97
f 48/48/48 49/49/49 97/97/97
f 97/97/97 49/49/49 98/98/98
