# Sancta editable mesh extracted from the approved reference, cm, Z up
v 0.0 -100.0 100.0
v 0.0 -83.3333313 100.0
v 0.0 -66.6666687 100.0
v 0.0 -50.0 100.0
v 0.0 -33.3333343 100.0
v 0.0 -16.6666672 100.0
v 0.0 0.0 100.0
v 0.0 16.6666672 100.0
v 0.0 33.3333343 100.0
v 0.0 50.0 100.0
v 0.0 66.6666687 100.0
v 0.0 83.3333313 100.0
v 0.0 100.0 100.0
v 0.0 -100.0 -100.0
v 0.0 -83.3333313 -100.0
v 0.0 -66.6666687 -100.0
v 0.0 -50.0 -100.0
v 0.0 -33.3333343 -100.0
v 0.0 -16.6666672 -100.0
v 0.0 0.0 -100.0
v 0.0 16.6666672 -100.0
v 0.0 33.3333343 -100.0
v 0.0 50.0 -100.0
v 0.0 66.6666687 -100.0
v 0.0 83.3333313 -100.0
v 0.0 100.0 -100.0
vt 0.0 0.0
vn -1.0 0.0 0.0
vt 0.0833333358 0.0
vn -1.0 0.0 0.0
vt 0.166666672 0.0
vn -1.0 0.0 0.0
vt 0.25 0.0
vn -1.0 0.0 0.0
vt 0.333333343 0.0
vn -1.0 0.0 0.0
vt 0.416666657 0.0
vn -1.0 0.0 0.0
vt 0.5 0.0
vn -1.0 0.0 0.0
vt 0.583333313 0.0
vn -1.0 0.0 0.0
vt 0.666666687 0.0
vn -1.0 0.0 0.0
vt 0.75 0.0
vn -1.0 0.0 0.0
vt 0.833333313 0.0
vn -1.0 0.0 0.0
vt 0.916666687 0.0
vn -1.0 0.0 0.0
vt 1.0 0.0
vn -1.0 0.0 0.0
vt 0.0 1.0
vn -1.0 0.0 0.0
vt 0.0833333358 1.0
vn -1.0 0.0 0.0
vt 0.166666672 1.0
vn -1.0 0.0 0.0
vt 0.25 1.0
vn -1.0 0.0 0.0
vt 0.333333343 1.0
vn -1.0 0.0 0.0
vt 0.416666657 1.0
vn -1.0 0.0 0.0
vt 0.5 1.0
vn -1.0 0.0 0.0
vt 0.583333313 1.0
vn -1.0 0.0 0.0
vt 0.666666687 1.0
vn -1.0 0.0 0.0
vt 0.75 1.0
vn -1.0 0.0 0.0
vt 0.833333313 1.0
vn -1.0 0.0 0.0
vt 0.916666687 1.0
vn -1.0 0.0 0.0
vt 1.0 1.0
vn -1.0 0.0 0.0
f 1/1/1 2/2/2 14/14/14
f 14/14/14 2/2/2 15/15/15
f 2/2/2 3/3/3 15/15/15
f 15/15/15 3/3/3 16/16/16
f 3/3/3 4/4/4 16/16/16
f 16/16/16 4/4/4 17/17/17
f 4/4/4 5/5/5 17/17/17
f 17/17/17 5/5/5 18/18/18
f 5/5/5 6/6/6 18/18/18
f 18/18/18 6/6/6 19/19/19
f 6/6/6 7/7/7 19/19/19
f 19/19/19 7/7/7 20/20/20
f 7/7/7 8/8/8 20/20/20
f 20/20/20 8/8/8 21/21/21
f 8/8/8 9/9/9 21/21/21
f 21/21/21 9/9/9 22/22/22
f 9/9/9 10/10/10 22/22/22
f 22/22/22 10/10/10 23/23/23
f 10/10/10 11/11/11 23/23/23
f 23/23/23 11/11/11 24/24/24
f 11/11/11 12/12/12 24/24/24
f 24/24/24 12/12/12 25/25/25
f 12/12/12 13/13/13 25/25/25
f 25/25/25 13/13/13 26/26/26
