# Sancta editable mesh extracted from the approved reference, cm, Z up
v -100.0 0.0 100.0
v -99.518472 9.80171412 100.0
v -98.0785251 19.5090324 100.0
v -95.6940353 29.0284663 100.0
v -92.3879504 38.2683426 100.0
v -88.1921291 47.1396744 100.0
v -83.1469595 55.5570245 100.0
v -77.3010433 63.4393275 100.0
v -70.7106769 70.7106769 100.0
v -63.4393275 77.3010433 100.0
v -55.5570245 83.1469595 100.0
v -47.1396744 88.1921291 100.0
v -38.2683426 92.3879504 100.0
v -29.0284663 95.6940353 100.0
v -19.5090324 98.0785251 100.0
v -9.80171412 99.518472 100.0
v -6.12323426e-15 100.0 100.0
v 9.80171412 99.518472 100.0
v 19.5090324 98.0785251 100.0
v 29.0284663 95.6940353 100.0
v 38.2683426 92.3879504 100.0
v 47.1396744 88.1921291 100.0
v 55.5570245 83.1469595 100.0
v 63.4393275 77.3010433 100.0
v 70.7106769 70.7106769 100.0
v 77.3010433 63.4393275 100.0
v 83.1469595 55.5570245 100.0
v 88.1921291 47.1396744 100.0
v 92.3879504 38.2683426 100.0
v 95.6940353 29.0284663 100.0
v 98.0785251 19.5090324 100.0
v 99.518472 9.80171412 100.0
v 100.0 1.22464685e-14 100.0
v 99.518472 -9.80171412 100.0
v 98.0785251 -19.5090324 100.0
v 95.6940353 -29.0284663 100.0
v 92.3879504 -38.2683426 100.0
v 88.1921291 -47.1396744 100.0
v 83.1469595 -55.5570245 100.0
v 77.3010433 -63.4393275 100.0
v 70.7106769 -70.7106769 100.0
v 63.4393275 -77.3010433 100.0
v 55.5570245 -83.1469595 100.0
v 47.1396744 -88.1921291 100.0
v 38.2683426 -92.3879504 100.0
v 29.0284663 -95.6940353 100.0
v 19.5090324 -98.0785251 100.0
v 9.80171412 -99.518472 100.0
v 1.83697015e-14 -100.0 100.0
v -9.80171412 -99.518472 100.0
v -19.5090324 -98.0785251 100.0
v -29.0284663 -95.6940353 100.0
v -38.2683426 -92.3879504 100.0
v -47.1396744 -88.1921291 100.0
v -55.5570245 -83.1469595 100.0
v -63.4393275 -77.3010433 100.0
v -70.7106769 -70.7106769 100.0
v -77.3010433 -63.4393275 100.0
v -83.1469595 -55.5570245 100.0
v -88.1921291 -47.1396744 100.0
v -92.3879504 -38.2683426 100.0
v -95.6940353 -29.0284663 100.0
v -98.0785251 -19.5090324 100.0
v -99.518472 -9.80171412 100.0
v -100.0 -2.44929371e-14 100.0
v -100.0 0.0 87.5
v -99.518472 9.80171412 87.5
v -98.0785251 19.5090324 87.5
v -95.6940353 29.0284663 87.5
v -92.3879504 38.2683426 87.5
v -88.1921291 47.1396744 87.5
v -83.1469595 55.5570245 87.5
v -77.3010433 63.4393275 87.5
v -70.7106769 70.7106769 87.5
v -63.4393275 77.3010433 87.5
v -55.5570245 83.1469595 87.5
v -47.1396744 88.1921291 87.5
v -38.2683426 92.3879504 87.5
v -29.0284663 95.6940353 87.5
v -19.5090324 98.0785251 87.5
v -9.80171412 99.518472 87.5
v -6.12323426e-15 100.0 87.5
v 9.80171412 99.518472 87.5
v 19.5090324 98.0785251 87.5
v 29.0284663 95.6940353 87.5
v 38.2683426 92.3879504 87.5
v 47.1396744 88.1921291 87.5
v 55.5570245 83.1469595 87.5
v 63.4393275 77.3010433 87.5
v 70.7106769 70.7106769 87.5
v 77.3010433 63.4393275 87.5
v 83.1469595 55.5570245 87.5
v 88.1921291 47.1396744 87.5
v 92.3879504 38.2683426 87.5
v 95.6940353 29.0284663 87.5
v 98.0785251 19.5090324 87.5
v 99.518472 9.80171412 87.5
v 100.0 1.22464685e-14 87.5
v 99.518472 -9.80171412 87.5
v 98.0785251 -19.5090324 87.5
v 95.6940353 -29.0284663 87.5
v 92.3879504 -38.2683426 87.5
v 88.1921291 -47.1396744 87.5
v 83.1469595 -55.5570245 87.5
v 77.3010433 -63.4393275 87.5
v 70.7106769 -70.7106769 87.5
v 63.4393275 -77.3010433 87.5
v 55.5570245 -83.1469595 87.5
v 47.1396744 -88.1921291 87.5
v 38.2683426 -92.3879504 87.5
v 29.0284663 -95.6940353 87.5
v 19.5090324 -98.0785251 87.5
v 9.80171412 -99.518472 87.5
v 1.83697015e-14 -100.0 87.5
v -9.80171412 -99.518472 87.5
v -19.5090324 -98.0785251 87.5
v -29.0284663 -95.6940353 87.5
v -38.2683426 -92.3879504 87.5
v -47.1396744 -88.1921291 87.5
v -55.5570245 -83.1469595 87.5
v -63.4393275 -77.3010433 87.5
v -70.7106769 -70.7106769 87.5
v -77.3010433 -63.4393275 87.5
v -83.1469595 -55.5570245 87.5
v -88.1921291 -47.1396744 87.5
v -92.3879504 -38.2683426 87.5
v -95.6940353 -29.0284663 87.5
v -98.0785251 -19.5090324 87.5
v -99.518472 -9.80171412 87.5
v -100.0 -2.44929371e-14 87.5
v -100.0 0.0 75.0
v -99.518472 9.80171412 75.0
v -98.0785251 19.5090324 75.0
v -95.6940353 29.0284663 75.0
v -92.3879504 38.2683426 75.0
v -88.1921291 47.1396744 75.0
v -83.1469595 55.5570245 75.0
v -77.3010433 63.4393275 75.0
v -70.7106769 70.7106769 75.0
v -63.4393275 77.3010433 75.0
v -55.5570245 83.1469595 75.0
v -47.1396744 88.1921291 75.0
v -38.2683426 92.3879504 75.0
v -29.0284663 95.6940353 75.0
v -19.5090324 98.0785251 75.0
v -9.80171412 99.518472 75.0
v -6.12323426e-15 100.0 75.0
v 9.80171412 99.518472 75.0
v 19.5090324 98.0785251 75.0
v 29.0284663 95.6940353 75.0
v 38.2683426 92.3879504 75.0
v 47.1396744 88.1921291 75.0
v 55.5570245 83.1469595 75.0
v 63.4393275 77.3010433 75.0
v 70.7106769 70.7106769 75.0
v 77.3010433 63.4393275 75.0
v 83.1469595 55.5570245 75.0
v 88.1921291 47.1396744 75.0
v 92.3879504 38.2683426 75.0
v 95.6940353 29.0284663 75.0
v 98.0785251 19.5090324 75.0
v 99.518472 9.80171412 75.0
v 100.0 1.22464685e-14 75.0
v 99.518472 -9.80171412 75.0
v 98.0785251 -19.5090324 75.0
v 95.6940353 -29.0284663 75.0
v 92.3879504 -38.2683426 75.0
v 88.1921291 -47.1396744 75.0
v 83.1469595 -55.5570245 75.0
v 77.3010433 -63.4393275 75.0
v 70.7106769 -70.7106769 75.0
v 63.4393275 -77.3010433 75.0
v 55.5570245 -83.1469595 75.0
v 47.1396744 -88.1921291 75.0
v 38.2683426 -92.3879504 75.0
v 29.0284663 -95.6940353 75.0
v 19.5090324 -98.0785251 75.0
v 9.80171412 -99.518472 75.0
v 1.83697015e-14 -100.0 75.0
v -9.80171412 -99.518472 75.0
v -19.5090324 -98.0785251 75.0
v -29.0284663 -95.6940353 75.0
v -38.2683426 -92.3879504 75.0
v -47.1396744 -88.1921291 75.0
v -55.5570245 -83.1469595 75.0
v -63.4393275 -77.3010433 75.0
v -70.7106769 -70.7106769 75.0
v -77.3010433 -63.4393275 75.0
v -83.1469595 -55.5570245 75.0
v -88.1921291 -47.1396744 75.0
v -92.3879504 -38.2683426 75.0
v -95.6940353 -29.0284663 75.0
v -98.0785251 -19.5090324 75.0
v -99.518472 -9.80171412 75.0
v -100.0 -2.44929371e-14 75.0
v -100.0 0.0 62.5
v -99.518472 9.80171412 62.5
v -98.0785251 19.5090324 62.5
v -95.6940353 29.0284663 62.5
v -92.3879504 38.2683426 62.5
v -88.1921291 47.1396744 62.5
v -83.1469595 55.5570245 62.5
v -77.3010433 63.4393275 62.5
v -70.7106769 70.7106769 62.5
v -63.4393275 77.3010433 62.5
v -55.5570245 83.1469595 62.5
v -47.1396744 88.1921291 62.5
v -38.2683426 92.3879504 62.5
v -29.0284663 95.6940353 62.5
v -19.5090324 98.0785251 62.5
v -9.80171412 99.518472 62.5
v -6.12323426e-15 100.0 62.5
v 9.80171412 99.518472 62.5
v 19.5090324 98.0785251 62.5
v 29.0284663 95.6940353 62.5
v 38.2683426 92.3879504 62.5
v 47.1396744 88.1921291 62.5
v 55.5570245 83.1469595 62.5
v 63.4393275 77.3010433 62.5
v 70.7106769 70.7106769 62.5
v 77.3010433 63.4393275 62.5
v 83.1469595 55.5570245 62.5
v 88.1921291 47.1396744 62.5
v 92.3879504 38.2683426 62.5
v 95.6940353 29.0284663 62.5
v 98.0785251 19.5090324 62.5
v 99.518472 9.80171412 62.5
v 100.0 1.22464685e-14 62.5
v 99.518472 -9.80171412 62.5
v 98.0785251 -19.5090324 62.5
v 95.6940353 -29.0284663 62.5
v 92.3879504 -38.2683426 62.5
v 88.1921291 -47.1396744 62.5
v 83.1469595 -55.5570245 62.5
v 77.3010433 -63.4393275 62.5
v 70.7106769 -70.7106769 62.5
v 63.4393275 -77.3010433 62.5
v 55.5570245 -83.1469595 62.5
v 47.1396744 -88.1921291 62.5
v 38.2683426 -92.3879504 62.5
v 29.0284663 -95.6940353 62.5
v 19.5090324 -98.0785251 62.5
v 9.80171412 -99.518472 62.5
v 1.83697015e-14 -100.0 62.5
v -9.80171412 -99.518472 62.5
v -19.5090324 -98.0785251 62.5
v -29.0284663 -95.6940353 62.5
v -38.2683426 -92.3879504 62.5
v -47.1396744 -88.1921291 62.5
v -55.5570245 -83.1469595 62.5
v -63.4393275 -77.3010433 62.5
v -70.7106769 -70.7106769 62.5
v -77.3010433 -63.4393275 62.5
v -83.1469595 -55.5570245 62.5
v -88.1921291 -47.1396744 62.5
v -92.3879504 -38.2683426 62.5
v -95.6940353 -29.0284663 62.5
v -98.0785251 -19.5090324 62.5
v -99.518472 -9.80171412 62.5
v -100.0 -2.44929371e-14 62.5
v -100.0 0.0 50.0
v -99.518472 9.80171412 50.0
v -98.0785251 19.5090324 50.0
v -95.6940353 29.0284663 50.0
v -92.3879504 38.2683426 50.0
v -88.1921291 47.1396744 50.0
v -83.1469595 55.5570245 50.0
v -77.3010433 63.4393275 50.0
v -70.7106769 70.7106769 50.0
v -63.4393275 77.3010433 50.0
v -55.5570245 83.1469595 50.0
v -47.1396744 88.1921291 50.0
v -38.2683426 92.3879504 50.0
v -29.0284663 95.6940353 50.0
v -19.5090324 98.0785251 50.0
v -9.80171412 99.518472 50.0
v -6.12323426e-15 100.0 50.0
v 9.80171412 99.518472 50.0
v 19.5090324 98.0785251 50.0
v 29.0284663 95.6940353 50.0
v 38.2683426 92.3879504 50.0
v 47.1396744 88.1921291 50.0
v 55.5570245 83.1469595 50.0
v 63.4393275 77.3010433 50.0
v 70.7106769 70.7106769 50.0
v 77.3010433 63.4393275 50.0
v 83.1469595 55.5570245 50.0
v 88.1921291 47.1396744 50.0
v 92.3879504 38.2683426 50.0
v 95.6940353 29.0284663 50.0
v 98.0785251 19.5090324 50.0
v 99.518472 9.80171412 50.0
v 100.0 1.22464685e-14 50.0
v 99.518472 -9.80171412 50.0
v 98.0785251 -19.5090324 50.0
v 95.6940353 -29.0284663 50.0
v 92.3879504 -38.2683426 50.0
v 88.1921291 -47.1396744 50.0
v 83.1469595 -55.5570245 50.0
v 77.3010433 -63.4393275 50.0
v 70.7106769 -70.7106769 50.0
v 63.4393275 -77.3010433 50.0
v 55.5570245 -83.1469595 50.0
v 47.1396744 -88.1921291 50.0
v 38.2683426 -92.3879504 50.0
v 29.0284663 -95.6940353 50.0
v 19.5090324 -98.0785251 50.0
v 9.80171412 -99.518472 50.0
v 1.83697015e-14 -100.0 50.0
v -9.80171412 -99.518472 50.0
v -19.5090324 -98.0785251 50.0
v -29.0284663 -95.6940353 50.0
v -38.2683426 -92.3879504 50.0
v -47.1396744 -88.1921291 50.0
v -55.5570245 -83.1469595 50.0
v -63.4393275 -77.3010433 50.0
v -70.7106769 -70.7106769 50.0
v -77.3010433 -63.4393275 50.0
v -83.1469595 -55.5570245 50.0
v -88.1921291 -47.1396744 50.0
v -92.3879504 -38.2683426 50.0
v -95.6940353 -29.0284663 50.0
v -98.0785251 -19.5090324 50.0
v -99.518472 -9.80171412 50.0
v -100.0 -2.44929371e-14 50.0
v -100.0 0.0 37.5
v -99.518472 9.80171412 37.5
v -98.0785251 19.5090324 37.5
v -95.6940353 29.0284663 37.5
v -92.3879504 38.2683426 37.5
v -88.1921291 47.1396744 37.5
v -83.1469595 55.5570245 37.5
v -77.3010433 63.4393275 37.5
v -70.7106769 70.7106769 37.5
v -63.4393275 77.3010433 37.5
v -55.5570245 83.1469595 37.5
v -47.1396744 88.1921291 37.5
v -38.2683426 92.3879504 37.5
v -29.0284663 95.6940353 37.5
v -19.5090324 98.0785251 37.5
v -9.80171412 99.518472 37.5
v -6.12323426e-15 100.0 37.5
v 9.80171412 99.518472 37.5
v 19.5090324 98.0785251 37.5
v 29.0284663 95.6940353 37.5
v 38.2683426 92.3879504 37.5
v 47.1396744 88.1921291 37.5
v 55.5570245 83.1469595 37.5
v 63.4393275 77.3010433 37.5
v 70.7106769 70.7106769 37.5
v 77.3010433 63.4393275 37.5
v 83.1469595 55.5570245 37.5
v 88.1921291 47.1396744 37.5
v 92.3879504 38.2683426 37.5
v 95.6940353 29.0284663 37.5
v 98.0785251 19.5090324 37.5
v 99.518472 9.80171412 37.5
v 100.0 1.22464685e-14 37.5
v 99.518472 -9.80171412 37.5
v 98.0785251 -19.5090324 37.5
v 95.6940353 -29.0284663 37.5
v 92.3879504 -38.2683426 37.5
v 88.1921291 -47.1396744 37.5
v 83.1469595 -55.5570245 37.5
v 77.3010433 -63.4393275 37.5
v 70.7106769 -70.7106769 37.5
v 63.4393275 -77.3010433 37.5
v 55.5570245 -83.1469595 37.5
v 47.1396744 -88.1921291 37.5
v 38.2683426 -92.3879504 37.5
v 29.0284663 -95.6940353 37.5
v 19.5090324 -98.0785251 37.5
v 9.80171412 -99.518472 37.5
v 1.83697015e-14 -100.0 37.5
v -9.80171412 -99.518472 37.5
v -19.5090324 -98.0785251 37.5
v -29.0284663 -95.6940353 37.5
v -38.2683426 -92.3879504 37.5
v -47.1396744 -88.1921291 37.5
v -55.5570245 -83.1469595 37.5
v -63.4393275 -77.3010433 37.5
v -70.7106769 -70.7106769 37.5
v -77.3010433 -63.4393275 37.5
v -83.1469595 -55.5570245 37.5
v -88.1921291 -47.1396744 37.5
v -92.3879504 -38.2683426 37.5
v -95.6940353 -29.0284663 37.5
v -98.0785251 -19.5090324 37.5
v -99.518472 -9.80171412 37.5
v -100.0 -2.44929371e-14 37.5
v -100.0 0.0 25.0
v -99.518472 9.80171412 25.0
v -98.0785251 19.5090324 25.0
v -95.6940353 29.0284663 25.0
v -92.3879504 38.2683426 25.0
v -88.1921291 47.1396744 25.0
v -83.1469595 55.5570245 25.0
v -77.3010433 63.4393275 25.0
v -70.7106769 70.7106769 25.0
v -63.4393275 77.3010433 25.0
v -55.5570245 83.1469595 25.0
v -47.1396744 88.1921291 25.0
v -38.2683426 92.3879504 25.0
v -29.0284663 95.6940353 25.0
v -19.5090324 98.0785251 25.0
v -9.80171412 99.518472 25.0
v -6.12323426e-15 100.0 25.0
v 9.80171412 99.518472 25.0
v 19.5090324 98.0785251 25.0
v 29.0284663 95.6940353 25.0
v 38.2683426 92.3879504 25.0
v 47.1396744 88.1921291 25.0
v 55.5570245 83.1469595 25.0
v 63.4393275 77.3010433 25.0
v 70.7106769 70.7106769 25.0
v 77.3010433 63.4393275 25.0
v 83.1469595 55.5570245 25.0
v 88.1921291 47.1396744 25.0
v 92.3879504 38.2683426 25.0
v 95.6940353 29.0284663 25.0
v 98.0785251 19.5090324 25.0
v 99.518472 9.80171412 25.0
v 100.0 1.22464685e-14 25.0
v 99.518472 -9.80171412 25.0
v 98.0785251 -19.5090324 25.0
v 95.6940353 -29.0284663 25.0
v 92.3879504 -38.2683426 25.0
v 88.1921291 -47.1396744 25.0
v 83.1469595 -55.5570245 25.0
v 77.3010433 -63.4393275 25.0
v 70.7106769 -70.7106769 25.0
v 63.4393275 -77.3010433 25.0
v 55.5570245 -83.1469595 25.0
v 47.1396744 -88.1921291 25.0
v 38.2683426 -92.3879504 25.0
v 29.0284663 -95.6940353 25.0
v 19.5090324 -98.0785251 25.0
v 9.80171412 -99.518472 25.0
v 1.83697015e-14 -100.0 25.0
v -9.80171412 -99.518472 25.0
v -19.5090324 -98.0785251 25.0
v -29.0284663 -95.6940353 25.0
v -38.2683426 -92.3879504 25.0
v -47.1396744 -88.1921291 25.0
v -55.5570245 -83.1469595 25.0
v -63.4393275 -77.3010433 25.0
v -70.7106769 -70.7106769 25.0
v -77.3010433 -63.4393275 25.0
v -83.1469595 -55.5570245 25.0
v -88.1921291 -47.1396744 25.0
v -92.3879504 -38.2683426 25.0
v -95.6940353 -29.0284663 25.0
v -98.0785251 -19.5090324 25.0
v -99.518472 -9.80171412 25.0
v -100.0 -2.44929371e-14 25.0
v -100.0 0.0 12.5
v -99.518472 9.80171412 12.5
v -98.0785251 19.5090324 12.5
v -95.6940353 29.0284663 12.5
v -92.3879504 38.2683426 12.5
v -88.1921291 47.1396744 12.5
v -83.1469595 55.5570245 12.5
v -77.3010433 63.4393275 12.5
v -70.7106769 70.7106769 12.5
v -63.4393275 77.3010433 12.5
v -55.5570245 83.1469595 12.5
v -47.1396744 88.1921291 12.5
v -38.2683426 92.3879504 12.5
v -29.0284663 95.6940353 12.5
v -19.5090324 98.0785251 12.5
v -9.80171412 99.518472 12.5
v -6.12323426e-15 100.0 12.5
v 9.80171412 99.518472 12.5
v 19.5090324 98.0785251 12.5
v 29.0284663 95.6940353 12.5
v 38.2683426 92.3879504 12.5
v 47.1396744 88.1921291 12.5
v 55.5570245 83.1469595 12.5
v 63.4393275 77.3010433 12.5
v 70.7106769 70.7106769 12.5
v 77.3010433 63.4393275 12.5
v 83.1469595 55.5570245 12.5
v 88.1921291 47.1396744 12.5
v 92.3879504 38.2683426 12.5
v 95.6940353 29.0284663 12.5
v 98.0785251 19.5090324 12.5
v 99.518472 9.80171412 12.5
v 100.0 1.22464685e-14 12.5
v 99.518472 -9.80171412 12.5
v 98.0785251 -19.5090324 12.5
v 95.6940353 -29.0284663 12.5
v 92.3879504 -38.2683426 12.5
v 88.1921291 -47.1396744 12.5
v 83.1469595 -55.5570245 12.5
v 77.3010433 -63.4393275 12.5
v 70.7106769 -70.7106769 12.5
v 63.4393275 -77.3010433 12.5
v 55.5570245 -83.1469595 12.5
v 47.1396744 -88.1921291 12.5
v 38.2683426 -92.3879504 12.5
v 29.0284663 -95.6940353 12.5
v 19.5090324 -98.0785251 12.5
v 9.80171412 -99.518472 12.5
v 1.83697015e-14 -100.0 12.5
v -9.80171412 -99.518472 12.5
v -19.5090324 -98.0785251 12.5
v -29.0284663 -95.6940353 12.5
v -38.2683426 -92.3879504 12.5
v -47.1396744 -88.1921291 12.5
v -55.5570245 -83.1469595 12.5
v -63.4393275 -77.3010433 12.5
v -70.7106769 -70.7106769 12.5
v -77.3010433 -63.4393275 12.5
v -83.1469595 -55.5570245 12.5
v -88.1921291 -47.1396744 12.5
v -92.3879504 -38.2683426 12.5
v -95.6940353 -29.0284663 12.5
v -98.0785251 -19.5090324 12.5
v -99.518472 -9.80171412 12.5
v -100.0 -2.44929371e-14 12.5
v -100.0 0.0 0.0
v -99.518472 9.80171412 0.0
v -98.0785251 19.5090324 0.0
v -95.6940353 29.0284663 0.0
v -92.3879504 38.2683426 0.0
v -88.1921291 47.1396744 0.0
v -83.1469595 55.5570245 0.0
v -77.3010433 63.4393275 0.0
v -70.7106769 70.7106769 0.0
v -63.4393275 77.3010433 0.0
v -55.5570245 83.1469595 0.0
v -47.1396744 88.1921291 0.0
v -38.2683426 92.3879504 0.0
v -29.0284663 95.6940353 0.0
v -19.5090324 98.0785251 0.0
v -9.80171412 99.518472 0.0
v -6.12323426e-15 100.0 0.0
v 9.80171412 99.518472 0.0
v 19.5090324 98.0785251 0.0
v 29.0284663 95.6940353 0.0
v 38.2683426 92.3879504 0.0
v 47.1396744 88.1921291 0.0
v 55.5570245 83.1469595 0.0
v 63.4393275 77.3010433 0.0
v 70.7106769 70.7106769 0.0
v 77.3010433 63.4393275 0.0
v 83.1469595 55.5570245 0.0
v 88.1921291 47.1396744 0.0
v 92.3879504 38.2683426 0.0
v 95.6940353 29.0284663 0.0
v 98.0785251 19.5090324 0.0
v 99.518472 9.80171412 0.0
v 100.0 1.22464685e-14 0.0
v 99.518472 -9.80171412 0.0
v 98.0785251 -19.5090324 0.0
v 95.6940353 -29.0284663 0.0
v 92.3879504 -38.2683426 0.0
v 88.1921291 -47.1396744 0.0
v 83.1469595 -55.5570245 0.0
v 77.3010433 -63.4393275 0.0
v 70.7106769 -70.7106769 0.0
v 63.4393275 -77.3010433 0.0
v 55.5570245 -83.1469595 0.0
v 47.1396744 -88.1921291 0.0
v 38.2683426 -92.3879504 0.0
v 29.0284663 -95.6940353 0.0
v 19.5090324 -98.0785251 0.0
v 9.80171412 -99.518472 0.0
v 1.83697015e-14 -100.0 0.0
v -9.80171412 -99.518472 0.0
v -19.5090324 -98.0785251 0.0
v -29.0284663 -95.6940353 0.0
v -38.2683426 -92.3879504 0.0
v -47.1396744 -88.1921291 0.0
v -55.5570245 -83.1469595 0.0
v -63.4393275 -77.3010433 0.0
v -70.7106769 -70.7106769 0.0
v -77.3010433 -63.4393275 0.0
v -83.1469595 -55.5570245 0.0
v -88.1921291 -47.1396744 0.0
v -92.3879504 -38.2683426 0.0
v -95.6940353 -29.0284663 0.0
v -98.0785251 -19.5090324 0.0
v -99.518472 -9.80171412 0.0
v -100.0 -2.44929371e-14 0.0
vt 0.0 0.0
vn -1.0 0.0 0.0
vt 0.015625 0.0
vn -0.99518472 0.0980171412 0.0
vt 0.03125 0.0
vn -0.980785251 0.195090324 0.0
vt 0.046875 0.0
vn -0.956940353 0.290284663 0.0
vt 0.0625 0.0
vn -0.923879504 0.382683426 0.0
vt 0.078125 0.0
vn -0.881921291 0.471396744 0.0
vt 0.09375 0.0
vn -0.831469595 0.555570245 0.0
vt 0.109375 0.0
vn -0.773010433 0.634393275 0.0
vt 0.125 0.0
vn -0.707106769 0.707106769 0.0
vt 0.140625 0.0
vn -0.634393275 0.773010433 0.0
vt 0.15625 0.0
vn -0.555570245 0.831469595 0.0
vt 0.171875 0.0
vn -0.471396744 0.881921291 0.0
vt 0.1875 0.0
vn -0.382683426 0.923879504 0.0
vt 0.203125 0.0
vn -0.290284663 0.956940353 0.0
vt 0.21875 0.0
vn -0.195090324 0.980785251 0.0
vt 0.234375 0.0
vn -0.0980171412 0.99518472 0.0
vt 0.25 0.0
vn -6.12323426e-17 1.0 0.0
vt 0.265625 0.0
vn 0.0980171412 0.99518472 0.0
vt 0.28125 0.0
vn 0.195090324 0.980785251 0.0
vt 0.296875 0.0
vn 0.290284663 0.956940353 0.0
vt 0.3125 0.0
vn 0.382683426 0.923879504 0.0
vt 0.328125 0.0
vn 0.471396744 0.881921291 0.0
vt 0.34375 0.0
vn 0.555570245 0.831469595 0.0
vt 0.359375 0.0
vn 0.634393275 0.773010433 0.0
vt 0.375 0.0
vn 0.707106769 0.707106769 0.0
vt 0.390625 0.0
vn 0.773010433 0.634393275 0.0
vt 0.40625 0.0
vn 0.831469595 0.555570245 0.0
vt 0.421875 0.0
vn 0.881921291 0.471396744 0.0
vt 0.4375 0.0
vn 0.923879504 0.382683426 0.0
vt 0.453125 0.0
vn 0.956940353 0.290284663 0.0
vt 0.46875 0.0
vn 0.980785251 0.195090324 0.0
vt 0.484375 0.0
vn 0.99518472 0.0980171412 0.0
vt 0.5 0.0
vn 1.0 1.22464685e-16 0.0
vt 0.515625 0.0
vn 0.99518472 -0.0980171412 0.0
vt 0.53125 0.0
vn 0.980785251 -0.195090324 0.0
vt 0.546875 0.0
vn 0.956940353 -0.290284663 0.0
vt 0.5625 0.0
vn 0.923879504 -0.382683426 0.0
vt 0.578125 0.0
vn 0.881921291 -0.471396744 0.0
vt 0.59375 0.0
vn 0.831469595 -0.555570245 0.0
vt 0.609375 0.0
vn 0.773010433 -0.634393275 0.0
vt 0.625 0.0
vn 0.707106769 -0.707106769 0.0
vt 0.640625 0.0
vn 0.634393275 -0.773010433 0.0
vt 0.65625 0.0
vn 0.555570245 -0.831469595 0.0
vt 0.671875 0.0
vn 0.471396744 -0.881921291 0.0
vt 0.6875 0.0
vn 0.382683426 -0.923879504 0.0
vt 0.703125 0.0
vn 0.290284663 -0.956940353 0.0
vt 0.71875 0.0
vn 0.195090324 -0.980785251 0.0
vt 0.734375 0.0
vn 0.0980171412 -0.99518472 0.0
vt 0.75 0.0
vn 1.83697015e-16 -1.0 0.0
vt 0.765625 0.0
vn -0.0980171412 -0.99518472 0.0
vt 0.78125 0.0
vn -0.195090324 -0.980785251 0.0
vt 0.796875 0.0
vn -0.290284663 -0.956940353 0.0
vt 0.8125 0.0
vn -0.382683426 -0.923879504 0.0
vt 0.828125 0.0
vn -0.471396744 -0.881921291 0.0
vt 0.84375 0.0
vn -0.555570245 -0.831469595 0.0
vt 0.859375 0.0
vn -0.634393275 -0.773010433 0.0
vt 0.875 0.0
vn -0.707106769 -0.707106769 0.0
vt 0.890625 0.0
vn -0.773010433 -0.634393275 0.0
vt 0.90625 0.0
vn -0.831469595 -0.555570245 0.0
vt 0.921875 0.0
vn -0.881921291 -0.471396744 0.0
vt 0.9375 0.0
vn -0.923879504 -0.382683426 0.0
vt 0.953125 0.0
vn -0.956940353 -0.290284663 0.0
vt 0.96875 0.0
vn -0.980785251 -0.195090324 0.0
vt 0.984375 0.0
vn -0.99518472 -0.0980171412 0.0
vt 1.0 0.0
vn -1.0 -2.44929371e-16 0.0
vt 0.0 0.125
vn -1.0 0.0 0.0
vt 0.015625 0.125
vn -0.99518472 0.0980171412 0.0
vt 0.03125 0.125
vn -0.980785251 0.195090324 0.0
vt 0.046875 0.125
vn -0.956940353 0.290284663 0.0
vt 0.0625 0.125
vn -0.923879504 0.382683426 0.0
vt 0.078125 0.125
vn -0.881921291 0.471396744 0.0
vt 0.09375 0.125
vn -0.831469595 0.555570245 0.0
vt 0.109375 0.125
vn -0.773010433 0.634393275 0.0
vt 0.125 0.125
vn -0.707106769 0.707106769 0.0
vt 0.140625 0.125
vn -0.634393275 0.773010433 0.0
vt 0.15625 0.125
vn -0.555570245 0.831469595 0.0
vt 0.171875 0.125
vn -0.471396744 0.881921291 0.0
vt 0.1875 0.125
vn -0.382683426 0.923879504 0.0
vt 0.203125 0.125
vn -0.290284663 0.956940353 0.0
vt 0.21875 0.125
vn -0.195090324 0.980785251 0.0
vt 0.234375 0.125
vn -0.0980171412 0.99518472 0.0
vt 0.25 0.125
vn -6.12323426e-17 1.0 0.0
vt 0.265625 0.125
vn 0.0980171412 0.99518472 0.0
vt 0.28125 0.125
vn 0.195090324 0.980785251 0.0
vt 0.296875 0.125
vn 0.290284663 0.956940353 0.0
vt 0.3125 0.125
vn 0.382683426 0.923879504 0.0
vt 0.328125 0.125
vn 0.471396744 0.881921291 0.0
vt 0.34375 0.125
vn 0.555570245 0.831469595 0.0
vt 0.359375 0.125
vn 0.634393275 0.773010433 0.0
vt 0.375 0.125
vn 0.707106769 0.707106769 0.0
vt 0.390625 0.125
vn 0.773010433 0.634393275 0.0
vt 0.40625 0.125
vn 0.831469595 0.555570245 0.0
vt 0.421875 0.125
vn 0.881921291 0.471396744 0.0
vt 0.4375 0.125
vn 0.923879504 0.382683426 0.0
vt 0.453125 0.125
vn 0.956940353 0.290284663 0.0
vt 0.46875 0.125
vn 0.980785251 0.195090324 0.0
vt 0.484375 0.125
vn 0.99518472 0.0980171412 0.0
vt 0.5 0.125
vn 1.0 1.22464685e-16 0.0
vt 0.515625 0.125
vn 0.99518472 -0.0980171412 0.0
vt 0.53125 0.125
vn 0.980785251 -0.195090324 0.0
vt 0.546875 0.125
vn 0.956940353 -0.290284663 0.0
vt 0.5625 0.125
vn 0.923879504 -0.382683426 0.0
vt 0.578125 0.125
vn 0.881921291 -0.471396744 0.0
vt 0.59375 0.125
vn 0.831469595 -0.555570245 0.0
vt 0.609375 0.125
vn 0.773010433 -0.634393275 0.0
vt 0.625 0.125
vn 0.707106769 -0.707106769 0.0
vt 0.640625 0.125
vn 0.634393275 -0.773010433 0.0
vt 0.65625 0.125
vn 0.555570245 -0.831469595 0.0
vt 0.671875 0.125
vn 0.471396744 -0.881921291 0.0
vt 0.6875 0.125
vn 0.382683426 -0.923879504 0.0
vt 0.703125 0.125
vn 0.290284663 -0.956940353 0.0
vt 0.71875 0.125
vn 0.195090324 -0.980785251 0.0
vt 0.734375 0.125
vn 0.0980171412 -0.99518472 0.0
vt 0.75 0.125
vn 1.83697015e-16 -1.0 0.0
vt 0.765625 0.125
vn -0.0980171412 -0.99518472 0.0
vt 0.78125 0.125
vn -0.195090324 -0.980785251 0.0
vt 0.796875 0.125
vn -0.290284663 -0.956940353 0.0
vt 0.8125 0.125
vn -0.382683426 -0.923879504 0.0
vt 0.828125 0.125
vn -0.471396744 -0.881921291 0.0
vt 0.84375 0.125
vn -0.555570245 -0.831469595 0.0
vt 0.859375 0.125
vn -0.634393275 -0.773010433 0.0
vt 0.875 0.125
vn -0.707106769 -0.707106769 0.0
vt 0.890625 0.125
vn -0.773010433 -0.634393275 0.0
vt 0.90625 0.125
vn -0.831469595 -0.555570245 0.0
vt 0.921875 0.125
vn -0.881921291 -0.471396744 0.0
vt 0.9375 0.125
vn -0.923879504 -0.382683426 0.0
vt 0.953125 0.125
vn -0.956940353 -0.290284663 0.0
vt 0.96875 0.125
vn -0.980785251 -0.195090324 0.0
vt 0.984375 0.125
vn -0.99518472 -0.0980171412 0.0
vt 1.0 0.125
vn -1.0 -2.44929371e-16 0.0
vt 0.0 0.25
vn -1.0 0.0 0.0
vt 0.015625 0.25
vn -0.99518472 0.0980171412 0.0
vt 0.03125 0.25
vn -0.980785251 0.195090324 0.0
vt 0.046875 0.25
vn -0.956940353 0.290284663 0.0
vt 0.0625 0.25
vn -0.923879504 0.382683426 0.0
vt 0.078125 0.25
vn -0.881921291 0.471396744 0.0
vt 0.09375 0.25
vn -0.831469595 0.555570245 0.0
vt 0.109375 0.25
vn -0.773010433 0.634393275 0.0
vt 0.125 0.25
vn -0.707106769 0.707106769 0.0
vt 0.140625 0.25
vn -0.634393275 0.773010433 0.0
vt 0.15625 0.25
vn -0.555570245 0.831469595 0.0
vt 0.171875 0.25
vn -0.471396744 0.881921291 0.0
vt 0.1875 0.25
vn -0.382683426 0.923879504 0.0
vt 0.203125 0.25
vn -0.290284663 0.956940353 0.0
vt 0.21875 0.25
vn -0.195090324 0.980785251 0.0
vt 0.234375 0.25
vn -0.0980171412 0.99518472 0.0
vt 0.25 0.25
vn -6.12323426e-17 1.0 0.0
vt 0.265625 0.25
vn 0.0980171412 0.99518472 0.0
vt 0.28125 0.25
vn 0.195090324 0.980785251 0.0
vt 0.296875 0.25
vn 0.290284663 0.956940353 0.0
vt 0.3125 0.25
vn 0.382683426 0.923879504 0.0
vt 0.328125 0.25
vn 0.471396744 0.881921291 0.0
vt 0.34375 0.25
vn 0.555570245 0.831469595 0.0
vt 0.359375 0.25
vn 0.634393275 0.773010433 0.0
vt 0.375 0.25
vn 0.707106769 0.707106769 0.0
vt 0.390625 0.25
vn 0.773010433 0.634393275 0.0
vt 0.40625 0.25
vn 0.831469595 0.555570245 0.0
vt 0.421875 0.25
vn 0.881921291 0.471396744 0.0
vt 0.4375 0.25
vn 0.923879504 0.382683426 0.0
vt 0.453125 0.25
vn 0.956940353 0.290284663 0.0
vt 0.46875 0.25
vn 0.980785251 0.195090324 0.0
vt 0.484375 0.25
vn 0.99518472 0.0980171412 0.0
vt 0.5 0.25
vn 1.0 1.22464685e-16 0.0
vt 0.515625 0.25
vn 0.99518472 -0.0980171412 0.0
vt 0.53125 0.25
vn 0.980785251 -0.195090324 0.0
vt 0.546875 0.25
vn 0.956940353 -0.290284663 0.0
vt 0.5625 0.25
vn 0.923879504 -0.382683426 0.0
vt 0.578125 0.25
vn 0.881921291 -0.471396744 0.0
vt 0.59375 0.25
vn 0.831469595 -0.555570245 0.0
vt 0.609375 0.25
vn 0.773010433 -0.634393275 0.0
vt 0.625 0.25
vn 0.707106769 -0.707106769 0.0
vt 0.640625 0.25
vn 0.634393275 -0.773010433 0.0
vt 0.65625 0.25
vn 0.555570245 -0.831469595 0.0
vt 0.671875 0.25
vn 0.471396744 -0.881921291 0.0
vt 0.6875 0.25
vn 0.382683426 -0.923879504 0.0
vt 0.703125 0.25
vn 0.290284663 -0.956940353 0.0
vt 0.71875 0.25
vn 0.195090324 -0.980785251 0.0
vt 0.734375 0.25
vn 0.0980171412 -0.99518472 0.0
vt 0.75 0.25
vn 1.83697015e-16 -1.0 0.0
vt 0.765625 0.25
vn -0.0980171412 -0.99518472 0.0
vt 0.78125 0.25
vn -0.195090324 -0.980785251 0.0
vt 0.796875 0.25
vn -0.290284663 -0.956940353 0.0
vt 0.8125 0.25
vn -0.382683426 -0.923879504 0.0
vt 0.828125 0.25
vn -0.471396744 -0.881921291 0.0
vt 0.84375 0.25
vn -0.555570245 -0.831469595 0.0
vt 0.859375 0.25
vn -0.634393275 -0.773010433 0.0
vt 0.875 0.25
vn -0.707106769 -0.707106769 0.0
vt 0.890625 0.25
vn -0.773010433 -0.634393275 0.0
vt 0.90625 0.25
vn -0.831469595 -0.555570245 0.0
vt 0.921875 0.25
vn -0.881921291 -0.471396744 0.0
vt 0.9375 0.25
vn -0.923879504 -0.382683426 0.0
vt 0.953125 0.25
vn -0.956940353 -0.290284663 0.0
vt 0.96875 0.25
vn -0.980785251 -0.195090324 0.0
vt 0.984375 0.25
vn -0.99518472 -0.0980171412 0.0
vt 1.0 0.25
vn -1.0 -2.44929371e-16 0.0
vt 0.0 0.375
vn -1.0 0.0 0.0
vt 0.015625 0.375
vn -0.99518472 0.0980171412 0.0
vt 0.03125 0.375
vn -0.980785251 0.195090324 0.0
vt 0.046875 0.375
vn -0.956940353 0.290284663 0.0
vt 0.0625 0.375
vn -0.923879504 0.382683426 0.0
vt 0.078125 0.375
vn -0.881921291 0.471396744 0.0
vt 0.09375 0.375
vn -0.831469595 0.555570245 0.0
vt 0.109375 0.375
vn -0.773010433 0.634393275 0.0
vt 0.125 0.375
vn -0.707106769 0.707106769 0.0
vt 0.140625 0.375
vn -0.634393275 0.773010433 0.0
vt 0.15625 0.375
vn -0.555570245 0.831469595 0.0
vt 0.171875 0.375
vn -0.471396744 0.881921291 0.0
vt 0.1875 0.375
vn -0.382683426 0.923879504 0.0
vt 0.203125 0.375
vn -0.290284663 0.956940353 0.0
vt 0.21875 0.375
vn -0.195090324 0.980785251 0.0
vt 0.234375 0.375
vn -0.0980171412 0.99518472 0.0
vt 0.25 0.375
vn -6.12323426e-17 1.0 0.0
vt 0.265625 0.375
vn 0.0980171412 0.99518472 0.0
vt 0.28125 0.375
vn 0.195090324 0.980785251 0.0
vt 0.296875 0.375
vn 0.290284663 0.956940353 0.0
vt 0.3125 0.375
vn 0.382683426 0.923879504 0.0
vt 0.328125 0.375
vn 0.471396744 0.881921291 0.0
vt 0.34375 0.375
vn 0.555570245 0.831469595 0.0
vt 0.359375 0.375
vn 0.634393275 0.773010433 0.0
vt 0.375 0.375
vn 0.707106769 0.707106769 0.0
vt 0.390625 0.375
vn 0.773010433 0.634393275 0.0
vt 0.40625 0.375
vn 0.831469595 0.555570245 0.0
vt 0.421875 0.375
vn 0.881921291 0.471396744 0.0
vt 0.4375 0.375
vn 0.923879504 0.382683426 0.0
vt 0.453125 0.375
vn 0.956940353 0.290284663 0.0
vt 0.46875 0.375
vn 0.980785251 0.195090324 0.0
vt 0.484375 0.375
vn 0.99518472 0.0980171412 0.0
vt 0.5 0.375
vn 1.0 1.22464685e-16 0.0
vt 0.515625 0.375
vn 0.99518472 -0.0980171412 0.0
vt 0.53125 0.375
vn 0.980785251 -0.195090324 0.0
vt 0.546875 0.375
vn 0.956940353 -0.290284663 0.0
vt 0.5625 0.375
vn 0.923879504 -0.382683426 0.0
vt 0.578125 0.375
vn 0.881921291 -0.471396744 0.0
vt 0.59375 0.375
vn 0.831469595 -0.555570245 0.0
vt 0.609375 0.375
vn 0.773010433 -0.634393275 0.0
vt 0.625 0.375
vn 0.707106769 -0.707106769 0.0
vt 0.640625 0.375
vn 0.634393275 -0.773010433 0.0
vt 0.65625 0.375
vn 0.555570245 -0.831469595 0.0
vt 0.671875 0.375
vn 0.471396744 -0.881921291 0.0
vt 0.6875 0.375
vn 0.382683426 -0.923879504 0.0
vt 0.703125 0.375
vn 0.290284663 -0.956940353 0.0
vt 0.71875 0.375
vn 0.195090324 -0.980785251 0.0
vt 0.734375 0.375
vn 0.0980171412 -0.99518472 0.0
vt 0.75 0.375
vn 1.83697015e-16 -1.0 0.0
vt 0.765625 0.375
vn -0.0980171412 -0.99518472 0.0
vt 0.78125 0.375
vn -0.195090324 -0.980785251 0.0
vt 0.796875 0.375
vn -0.290284663 -0.956940353 0.0
vt 0.8125 0.375
vn -0.382683426 -0.923879504 0.0
vt 0.828125 0.375
vn -0.471396744 -0.881921291 0.0
vt 0.84375 0.375
vn -0.555570245 -0.831469595 0.0
vt 0.859375 0.375
vn -0.634393275 -0.773010433 0.0
vt 0.875 0.375
vn -0.707106769 -0.707106769 0.0
vt 0.890625 0.375
vn -0.773010433 -0.634393275 0.0
vt 0.90625 0.375
vn -0.831469595 -0.555570245 0.0
vt 0.921875 0.375
vn -0.881921291 -0.471396744 0.0
vt 0.9375 0.375
vn -0.923879504 -0.382683426 0.0
vt 0.953125 0.375
vn -0.956940353 -0.290284663 0.0
vt 0.96875 0.375
vn -0.980785251 -0.195090324 0.0
vt 0.984375 0.375
vn -0.99518472 -0.0980171412 0.0
vt 1.0 0.375
vn -1.0 -2.44929371e-16 0.0
vt 0.0 0.5
vn -1.0 0.0 0.0
vt 0.015625 0.5
vn -0.99518472 0.0980171412 0.0
vt 0.03125 0.5
vn -0.980785251 0.195090324 0.0
vt 0.046875 0.5
vn -0.956940353 0.290284663 0.0
vt 0.0625 0.5
vn -0.923879504 0.382683426 0.0
vt 0.078125 0.5
vn -0.881921291 0.471396744 0.0
vt 0.09375 0.5
vn -0.831469595 0.555570245 0.0
vt 0.109375 0.5
vn -0.773010433 0.634393275 0.0
vt 0.125 0.5
vn -0.707106769 0.707106769 0.0
vt 0.140625 0.5
vn -0.634393275 0.773010433 0.0
vt 0.15625 0.5
vn -0.555570245 0.831469595 0.0
vt 0.171875 0.5
vn -0.471396744 0.881921291 0.0
vt 0.1875 0.5
vn -0.382683426 0.923879504 0.0
vt 0.203125 0.5
vn -0.290284663 0.956940353 0.0
vt 0.21875 0.5
vn -0.195090324 0.980785251 0.0
vt 0.234375 0.5
vn -0.0980171412 0.99518472 0.0
vt 0.25 0.5
vn -6.12323426e-17 1.0 0.0
vt 0.265625 0.5
vn 0.0980171412 0.99518472 0.0
vt 0.28125 0.5
vn 0.195090324 0.980785251 0.0
vt 0.296875 0.5
vn 0.290284663 0.956940353 0.0
vt 0.3125 0.5
vn 0.382683426 0.923879504 0.0
vt 0.328125 0.5
vn 0.471396744 0.881921291 0.0
vt 0.34375 0.5
vn 0.555570245 0.831469595 0.0
vt 0.359375 0.5
vn 0.634393275 0.773010433 0.0
vt 0.375 0.5
vn 0.707106769 0.707106769 0.0
vt 0.390625 0.5
vn 0.773010433 0.634393275 0.0
vt 0.40625 0.5
vn 0.831469595 0.555570245 0.0
vt 0.421875 0.5
vn 0.881921291 0.471396744 0.0
vt 0.4375 0.5
vn 0.923879504 0.382683426 0.0
vt 0.453125 0.5
vn 0.956940353 0.290284663 0.0
vt 0.46875 0.5
vn 0.980785251 0.195090324 0.0
vt 0.484375 0.5
vn 0.99518472 0.0980171412 0.0
vt 0.5 0.5
vn 1.0 1.22464685e-16 0.0
vt 0.515625 0.5
vn 0.99518472 -0.0980171412 0.0
vt 0.53125 0.5
vn 0.980785251 -0.195090324 0.0
vt 0.546875 0.5
vn 0.956940353 -0.290284663 0.0
vt 0.5625 0.5
vn 0.923879504 -0.382683426 0.0
vt 0.578125 0.5
vn 0.881921291 -0.471396744 0.0
vt 0.59375 0.5
vn 0.831469595 -0.555570245 0.0
vt 0.609375 0.5
vn 0.773010433 -0.634393275 0.0
vt 0.625 0.5
vn 0.707106769 -0.707106769 0.0
vt 0.640625 0.5
vn 0.634393275 -0.773010433 0.0
vt 0.65625 0.5
vn 0.555570245 -0.831469595 0.0
vt 0.671875 0.5
vn 0.471396744 -0.881921291 0.0
vt 0.6875 0.5
vn 0.382683426 -0.923879504 0.0
vt 0.703125 0.5
vn 0.290284663 -0.956940353 0.0
vt 0.71875 0.5
vn 0.195090324 -0.980785251 0.0
vt 0.734375 0.5
vn 0.0980171412 -0.99518472 0.0
vt 0.75 0.5
vn 1.83697015e-16 -1.0 0.0
vt 0.765625 0.5
vn -0.0980171412 -0.99518472 0.0
vt 0.78125 0.5
vn -0.195090324 -0.980785251 0.0
vt 0.796875 0.5
vn -0.290284663 -0.956940353 0.0
vt 0.8125 0.5
vn -0.382683426 -0.923879504 0.0
vt 0.828125 0.5
vn -0.471396744 -0.881921291 0.0
vt 0.84375 0.5
vn -0.555570245 -0.831469595 0.0
vt 0.859375 0.5
vn -0.634393275 -0.773010433 0.0
vt 0.875 0.5
vn -0.707106769 -0.707106769 0.0
vt 0.890625 0.5
vn -0.773010433 -0.634393275 0.0
vt 0.90625 0.5
vn -0.831469595 -0.555570245 0.0
vt 0.921875 0.5
vn -0.881921291 -0.471396744 0.0
vt 0.9375 0.5
vn -0.923879504 -0.382683426 0.0
vt 0.953125 0.5
vn -0.956940353 -0.290284663 0.0
vt 0.96875 0.5
vn -0.980785251 -0.195090324 0.0
vt 0.984375 0.5
vn -0.99518472 -0.0980171412 0.0
vt 1.0 0.5
vn -1.0 -2.44929371e-16 0.0
vt 0.0 0.625
vn -1.0 0.0 0.0
vt 0.015625 0.625
vn -0.99518472 0.0980171412 0.0
vt 0.03125 0.625
vn -0.980785251 0.195090324 0.0
vt 0.046875 0.625
vn -0.956940353 0.290284663 0.0
vt 0.0625 0.625
vn -0.923879504 0.382683426 0.0
vt 0.078125 0.625
vn -0.881921291 0.471396744 0.0
vt 0.09375 0.625
vn -0.831469595 0.555570245 0.0
vt 0.109375 0.625
vn -0.773010433 0.634393275 0.0
vt 0.125 0.625
vn -0.707106769 0.707106769 0.0
vt 0.140625 0.625
vn -0.634393275 0.773010433 0.0
vt 0.15625 0.625
vn -0.555570245 0.831469595 0.0
vt 0.171875 0.625
vn -0.471396744 0.881921291 0.0
vt 0.1875 0.625
vn -0.382683426 0.923879504 0.0
vt 0.203125 0.625
vn -0.290284663 0.956940353 0.0
vt 0.21875 0.625
vn -0.195090324 0.980785251 0.0
vt 0.234375 0.625
vn -0.0980171412 0.99518472 0.0
vt 0.25 0.625
vn -6.12323426e-17 1.0 0.0
vt 0.265625 0.625
vn 0.0980171412 0.99518472 0.0
vt 0.28125 0.625
vn 0.195090324 0.980785251 0.0
vt 0.296875 0.625
vn 0.290284663 0.956940353 0.0
vt 0.3125 0.625
vn 0.382683426 0.923879504 0.0
vt 0.328125 0.625
vn 0.471396744 0.881921291 0.0
vt 0.34375 0.625
vn 0.555570245 0.831469595 0.0
vt 0.359375 0.625
vn 0.634393275 0.773010433 0.0
vt 0.375 0.625
vn 0.707106769 0.707106769 0.0
vt 0.390625 0.625
vn 0.773010433 0.634393275 0.0
vt 0.40625 0.625
vn 0.831469595 0.555570245 0.0
vt 0.421875 0.625
vn 0.881921291 0.471396744 0.0
vt 0.4375 0.625
vn 0.923879504 0.382683426 0.0
vt 0.453125 0.625
vn 0.956940353 0.290284663 0.0
vt 0.46875 0.625
vn 0.980785251 0.195090324 0.0
vt 0.484375 0.625
vn 0.99518472 0.0980171412 0.0
vt 0.5 0.625
vn 1.0 1.22464685e-16 0.0
vt 0.515625 0.625
vn 0.99518472 -0.0980171412 0.0
vt 0.53125 0.625
vn 0.980785251 -0.195090324 0.0
vt 0.546875 0.625
vn 0.956940353 -0.290284663 0.0
vt 0.5625 0.625
vn 0.923879504 -0.382683426 0.0
vt 0.578125 0.625
vn 0.881921291 -0.471396744 0.0
vt 0.59375 0.625
vn 0.831469595 -0.555570245 0.0
vt 0.609375 0.625
vn 0.773010433 -0.634393275 0.0
vt 0.625 0.625
vn 0.707106769 -0.707106769 0.0
vt 0.640625 0.625
vn 0.634393275 -0.773010433 0.0
vt 0.65625 0.625
vn 0.555570245 -0.831469595 0.0
vt 0.671875 0.625
vn 0.471396744 -0.881921291 0.0
vt 0.6875 0.625
vn 0.382683426 -0.923879504 0.0
vt 0.703125 0.625
vn 0.290284663 -0.956940353 0.0
vt 0.71875 0.625
vn 0.195090324 -0.980785251 0.0
vt 0.734375 0.625
vn 0.0980171412 -0.99518472 0.0
vt 0.75 0.625
vn 1.83697015e-16 -1.0 0.0
vt 0.765625 0.625
vn -0.0980171412 -0.99518472 0.0
vt 0.78125 0.625
vn -0.195090324 -0.980785251 0.0
vt 0.796875 0.625
vn -0.290284663 -0.956940353 0.0
vt 0.8125 0.625
vn -0.382683426 -0.923879504 0.0
vt 0.828125 0.625
vn -0.471396744 -0.881921291 0.0
vt 0.84375 0.625
vn -0.555570245 -0.831469595 0.0
vt 0.859375 0.625
vn -0.634393275 -0.773010433 0.0
vt 0.875 0.625
vn -0.707106769 -0.707106769 0.0
vt 0.890625 0.625
vn -0.773010433 -0.634393275 0.0
vt 0.90625 0.625
vn -0.831469595 -0.555570245 0.0
vt 0.921875 0.625
vn -0.881921291 -0.471396744 0.0
vt 0.9375 0.625
vn -0.923879504 -0.382683426 0.0
vt 0.953125 0.625
vn -0.956940353 -0.290284663 0.0
vt 0.96875 0.625
vn -0.980785251 -0.195090324 0.0
vt 0.984375 0.625
vn -0.99518472 -0.0980171412 0.0
vt 1.0 0.625
vn -1.0 -2.44929371e-16 0.0
vt 0.0 0.75
vn -1.0 0.0 0.0
vt 0.015625 0.75
vn -0.99518472 0.0980171412 0.0
vt 0.03125 0.75
vn -0.980785251 0.195090324 0.0
vt 0.046875 0.75
vn -0.956940353 0.290284663 0.0
vt 0.0625 0.75
vn -0.923879504 0.382683426 0.0
vt 0.078125 0.75
vn -0.881921291 0.471396744 0.0
vt 0.09375 0.75
vn -0.831469595 0.555570245 0.0
vt 0.109375 0.75
vn -0.773010433 0.634393275 0.0
vt 0.125 0.75
vn -0.707106769 0.707106769 0.0
vt 0.140625 0.75
vn -0.634393275 0.773010433 0.0
vt 0.15625 0.75
vn -0.555570245 0.831469595 0.0
vt 0.171875 0.75
vn -0.471396744 0.881921291 0.0
vt 0.1875 0.75
vn -0.382683426 0.923879504 0.0
vt 0.203125 0.75
vn -0.290284663 0.956940353 0.0
vt 0.21875 0.75
vn -0.195090324 0.980785251 0.0
vt 0.234375 0.75
vn -0.0980171412 0.99518472 0.0
vt 0.25 0.75
vn -6.12323426e-17 1.0 0.0
vt 0.265625 0.75
vn 0.0980171412 0.99518472 0.0
vt 0.28125 0.75
vn 0.195090324 0.980785251 0.0
vt 0.296875 0.75
vn 0.290284663 0.956940353 0.0
vt 0.3125 0.75
vn 0.382683426 0.923879504 0.0
vt 0.328125 0.75
vn 0.471396744 0.881921291 0.0
vt 0.34375 0.75
vn 0.555570245 0.831469595 0.0
vt 0.359375 0.75
vn 0.634393275 0.773010433 0.0
vt 0.375 0.75
vn 0.707106769 0.707106769 0.0
vt 0.390625 0.75
vn 0.773010433 0.634393275 0.0
vt 0.40625 0.75
vn 0.831469595 0.555570245 0.0
vt 0.421875 0.75
vn 0.881921291 0.471396744 0.0
vt 0.4375 0.75
vn 0.923879504 0.382683426 0.0
vt 0.453125 0.75
vn 0.956940353 0.290284663 0.0
vt 0.46875 0.75
vn 0.980785251 0.195090324 0.0
vt 0.484375 0.75
vn 0.99518472 0.0980171412 0.0
vt 0.5 0.75
vn 1.0 1.22464685e-16 0.0
vt 0.515625 0.75
vn 0.99518472 -0.0980171412 0.0
vt 0.53125 0.75
vn 0.980785251 -0.195090324 0.0
vt 0.546875 0.75
vn 0.956940353 -0.290284663 0.0
vt 0.5625 0.75
vn 0.923879504 -0.382683426 0.0
vt 0.578125 0.75
vn 0.881921291 -0.471396744 0.0
vt 0.59375 0.75
vn 0.831469595 -0.555570245 0.0
vt 0.609375 0.75
vn 0.773010433 -0.634393275 0.0
vt 0.625 0.75
vn 0.707106769 -0.707106769 0.0
vt 0.640625 0.75
vn 0.634393275 -0.773010433 0.0
vt 0.65625 0.75
vn 0.555570245 -0.831469595 0.0
vt 0.671875 0.75
vn 0.471396744 -0.881921291 0.0
vt 0.6875 0.75
vn 0.382683426 -0.923879504 0.0
vt 0.703125 0.75
vn 0.290284663 -0.956940353 0.0
vt 0.71875 0.75
vn 0.195090324 -0.980785251 0.0
vt 0.734375 0.75
vn 0.0980171412 -0.99518472 0.0
vt 0.75 0.75
vn 1.83697015e-16 -1.0 0.0
vt 0.765625 0.75
vn -0.0980171412 -0.99518472 0.0
vt 0.78125 0.75
vn -0.195090324 -0.980785251 0.0
vt 0.796875 0.75
vn -0.290284663 -0.956940353 0.0
vt 0.8125 0.75
vn -0.382683426 -0.923879504 0.0
vt 0.828125 0.75
vn -0.471396744 -0.881921291 0.0
vt 0.84375 0.75
vn -0.555570245 -0.831469595 0.0
vt 0.859375 0.75
vn -0.634393275 -0.773010433 0.0
vt 0.875 0.75
vn -0.707106769 -0.707106769 0.0
vt 0.890625 0.75
vn -0.773010433 -0.634393275 0.0
vt 0.90625 0.75
vn -0.831469595 -0.555570245 0.0
vt 0.921875 0.75
vn -0.881921291 -0.471396744 0.0
vt 0.9375 0.75
vn -0.923879504 -0.382683426 0.0
vt 0.953125 0.75
vn -0.956940353 -0.290284663 0.0
vt 0.96875 0.75
vn -0.980785251 -0.195090324 0.0
vt 0.984375 0.75
vn -0.99518472 -0.0980171412 0.0
vt 1.0 0.75
vn -1.0 -2.44929371e-16 0.0
vt 0.0 0.875
vn -1.0 0.0 0.0
vt 0.015625 0.875
vn -0.99518472 0.0980171412 0.0
vt 0.03125 0.875
vn -0.980785251 0.195090324 0.0
vt 0.046875 0.875
vn -0.956940353 0.290284663 0.0
vt 0.0625 0.875
vn -0.923879504 0.382683426 0.0
vt 0.078125 0.875
vn -0.881921291 0.471396744 0.0
vt 0.09375 0.875
vn -0.831469595 0.555570245 0.0
vt 0.109375 0.875
vn -0.773010433 0.634393275 0.0
vt 0.125 0.875
vn -0.707106769 0.707106769 0.0
vt 0.140625 0.875
vn -0.634393275 0.773010433 0.0
vt 0.15625 0.875
vn -0.555570245 0.831469595 0.0
vt 0.171875 0.875
vn -0.471396744 0.881921291 0.0
vt 0.1875 0.875
vn -0.382683426 0.923879504 0.0
vt 0.203125 0.875
vn -0.290284663 0.956940353 0.0
vt 0.21875 0.875
vn -0.195090324 0.980785251 0.0
vt 0.234375 0.875
vn -0.0980171412 0.99518472 0.0
vt 0.25 0.875
vn -6.12323426e-17 1.0 0.0
vt 0.265625 0.875
vn 0.0980171412 0.99518472 0.0
vt 0.28125 0.875
vn 0.195090324 0.980785251 0.0
vt 0.296875 0.875
vn 0.290284663 0.956940353 0.0
vt 0.3125 0.875
vn 0.382683426 0.923879504 0.0
vt 0.328125 0.875
vn 0.471396744 0.881921291 0.0
vt 0.34375 0.875
vn 0.555570245 0.831469595 0.0
vt 0.359375 0.875
vn 0.634393275 0.773010433 0.0
vt 0.375 0.875
vn 0.707106769 0.707106769 0.0
vt 0.390625 0.875
vn 0.773010433 0.634393275 0.0
vt 0.40625 0.875
vn 0.831469595 0.555570245 0.0
vt 0.421875 0.875
vn 0.881921291 0.471396744 0.0
vt 0.4375 0.875
vn 0.923879504 0.382683426 0.0
vt 0.453125 0.875
vn 0.956940353 0.290284663 0.0
vt 0.46875 0.875
vn 0.980785251 0.195090324 0.0
vt 0.484375 0.875
vn 0.99518472 0.0980171412 0.0
vt 0.5 0.875
vn 1.0 1.22464685e-16 0.0
vt 0.515625 0.875
vn 0.99518472 -0.0980171412 0.0
vt 0.53125 0.875
vn 0.980785251 -0.195090324 0.0
vt 0.546875 0.875
vn 0.956940353 -0.290284663 0.0
vt 0.5625 0.875
vn 0.923879504 -0.382683426 0.0
vt 0.578125 0.875
vn 0.881921291 -0.471396744 0.0
vt 0.59375 0.875
vn 0.831469595 -0.555570245 0.0
vt 0.609375 0.875
vn 0.773010433 -0.634393275 0.0
vt 0.625 0.875
vn 0.707106769 -0.707106769 0.0
vt 0.640625 0.875
vn 0.634393275 -0.773010433 0.0
vt 0.65625 0.875
vn 0.555570245 -0.831469595 0.0
vt 0.671875 0.875
vn 0.471396744 -0.881921291 0.0
vt 0.6875 0.875
vn 0.382683426 -0.923879504 0.0
vt 0.703125 0.875
vn 0.290284663 -0.956940353 0.0
vt 0.71875 0.875
vn 0.195090324 -0.980785251 0.0
vt 0.734375 0.875
vn 0.0980171412 -0.99518472 0.0
vt 0.75 0.875
vn 1.83697015e-16 -1.0 0.0
vt 0.765625 0.875
vn -0.0980171412 -0.99518472 0.0
vt 0.78125 0.875
vn -0.195090324 -0.980785251 0.0
vt 0.796875 0.875
vn -0.290284663 -0.956940353 0.0
vt 0.8125 0.875
vn -0.382683426 -0.923879504 0.0
vt 0.828125 0.875
vn -0.471396744 -0.881921291 0.0
vt 0.84375 0.875
vn -0.555570245 -0.831469595 0.0
vt 0.859375 0.875
vn -0.634393275 -0.773010433 0.0
vt 0.875 0.875
vn -0.707106769 -0.707106769 0.0
vt 0.890625 0.875
vn -0.773010433 -0.634393275 0.0
vt 0.90625 0.875
vn -0.831469595 -0.555570245 0.0
vt 0.921875 0.875
vn -0.881921291 -0.471396744 0.0
vt 0.9375 0.875
vn -0.923879504 -0.382683426 0.0
vt 0.953125 0.875
vn -0.956940353 -0.290284663 0.0
vt 0.96875 0.875
vn -0.980785251 -0.195090324 0.0
vt 0.984375 0.875
vn -0.99518472 -0.0980171412 0.0
vt 1.0 0.875
vn -1.0 -2.44929371e-16 0.0
vt 0.0 1.0
vn -1.0 0.0 0.0
vt 0.015625 1.0
vn -0.99518472 0.0980171412 0.0
vt 0.03125 1.0
vn -0.980785251 0.195090324 0.0
vt 0.046875 1.0
vn -0.956940353 0.290284663 0.0
vt 0.0625 1.0
vn -0.923879504 0.382683426 0.0
vt 0.078125 1.0
vn -0.881921291 0.471396744 0.0
vt 0.09375 1.0
vn -0.831469595 0.555570245 0.0
vt 0.109375 1.0
vn -0.773010433 0.634393275 0.0
vt 0.125 1.0
vn -0.707106769 0.707106769 0.0
vt 0.140625 1.0
vn -0.634393275 0.773010433 0.0
vt 0.15625 1.0
vn -0.555570245 0.831469595 0.0
vt 0.171875 1.0
vn -0.471396744 0.881921291 0.0
vt 0.1875 1.0
vn -0.382683426 0.923879504 0.0
vt 0.203125 1.0
vn -0.290284663 0.956940353 0.0
vt 0.21875 1.0
vn -0.195090324 0.980785251 0.0
vt 0.234375 1.0
vn -0.0980171412 0.99518472 0.0
vt 0.25 1.0
vn -6.12323426e-17 1.0 0.0
vt 0.265625 1.0
vn 0.0980171412 0.99518472 0.0
vt 0.28125 1.0
vn 0.195090324 0.980785251 0.0
vt 0.296875 1.0
vn 0.290284663 0.956940353 0.0
vt 0.3125 1.0
vn 0.382683426 0.923879504 0.0
vt 0.328125 1.0
vn 0.471396744 0.881921291 0.0
vt 0.34375 1.0
vn 0.555570245 0.831469595 0.0
vt 0.359375 1.0
vn 0.634393275 0.773010433 0.0
vt 0.375 1.0
vn 0.707106769 0.707106769 0.0
vt 0.390625 1.0
vn 0.773010433 0.634393275 0.0
vt 0.40625 1.0
vn 0.831469595 0.555570245 0.0
vt 0.421875 1.0
vn 0.881921291 0.471396744 0.0
vt 0.4375 1.0
vn 0.923879504 0.382683426 0.0
vt 0.453125 1.0
vn 0.956940353 0.290284663 0.0
vt 0.46875 1.0
vn 0.980785251 0.195090324 0.0
vt 0.484375 1.0
vn 0.99518472 0.0980171412 0.0
vt 0.5 1.0
vn 1.0 1.22464685e-16 0.0
vt 0.515625 1.0
vn 0.99518472 -0.0980171412 0.0
vt 0.53125 1.0
vn 0.980785251 -0.195090324 0.0
vt 0.546875 1.0
vn 0.956940353 -0.290284663 0.0
vt 0.5625 1.0
vn 0.923879504 -0.382683426 0.0
vt 0.578125 1.0
vn 0.881921291 -0.471396744 0.0
vt 0.59375 1.0
vn 0.831469595 -0.555570245 0.0
vt 0.609375 1.0
vn 0.773010433 -0.634393275 0.0
vt 0.625 1.0
vn 0.707106769 -0.707106769 0.0
vt 0.640625 1.0
vn 0.634393275 -0.773010433 0.0
vt 0.65625 1.0
vn 0.555570245 -0.831469595 0.0
vt 0.671875 1.0
vn 0.471396744 -0.881921291 0.0
vt 0.6875 1.0
vn 0.382683426 -0.923879504 0.0
vt 0.703125 1.0
vn 0.290284663 -0.956940353 0.0
vt 0.71875 1.0
vn 0.195090324 -0.980785251 0.0
vt 0.734375 1.0
vn 0.0980171412 -0.99518472 0.0
vt 0.75 1.0
vn 1.83697015e-16 -1.0 0.0
vt 0.765625 1.0
vn -0.0980171412 -0.99518472 0.0
vt 0.78125 1.0
vn -0.195090324 -0.980785251 0.0
vt 0.796875 1.0
vn -0.290284663 -0.956940353 0.0
vt 0.8125 1.0
vn -0.382683426 -0.923879504 0.0
vt 0.828125 1.0
vn -0.471396744 -0.881921291 0.0
vt 0.84375 1.0
vn -0.555570245 -0.831469595 0.0
vt 0.859375 1.0
vn -0.634393275 -0.773010433 0.0
vt 0.875 1.0
vn -0.707106769 -0.707106769 0.0
vt 0.890625 1.0
vn -0.773010433 -0.634393275 0.0
vt 0.90625 1.0
vn -0.831469595 -0.555570245 0.0
vt 0.921875 1.0
vn -0.881921291 -0.471396744 0.0
vt 0.9375 1.0
vn -0.923879504 -0.382683426 0.0
vt 0.953125 1.0
vn -0.956940353 -0.290284663 0.0
vt 0.96875 1.0
vn -0.980785251 -0.195090324 0.0
vt 0.984375 1.0
vn -0.99518472 -0.0980171412 0.0
vt 1.0 1.0
vn -1.0 -2.44929371e-16 0.0
f 1/1/1 2/2/2 66/66/66
f 66/66/66 2/2/2 67/67/67
f 66/66/66 67/67/67 131/131/131
f 131/131/131 67/67/67 132/132/132
f 131/131/131 132/132/132 196/196/196
f 196/196/196 132/132/132 197/197/197
f 196/196/196 197/197/197 261/261/261
f 261/261/261 197/197/197 262/262/262
f 261/261/261 262/262/262 326/326/326
f 326/326/326 262/262/262 327/327/327
f 326/326/326 327/327/327 391/391/391
f 391/391/391 327/327/327 392/392/392
f 391/391/391 392/392/392 456/456/456
f 456/456/456 392/392/392 457/457/457
f 456/456/456 457/457/457 521/521/521
f 521/521/521 457/457/457 522/522/522
f 2/2/2 3/3/3 67/67/67
f 67/67/67 3/3/3 68/68/68
f 67/67/67 68/68/68 132/132/132
f 132/132/132 68/68/68 133/133/133
f 132/132/132 133/133/133 197/197/197
f 197/197/197 133/133/133 198/198/198
f 197/197/197 198/198/198 262/262/262
f 262/262/262 198/198/198 263/263/263
f 262/262/262 263/263/263 327/327/327
f 327/327/327 263/263/263 328/328/328
f 327/327/327 328/328/328 392/392/392
f 392/392/392 328/328/328 393/393/393
f 392/392/392 393/393/393 457/457/457
f 457/457/457 393/393/393 458/458/458
f 457/457/457 458/458/458 522/522/522
f 522/522/522 458/458/458 523/523/523
f 3/3/3 4/4/4 68/68/68
f 68/68/68 4/4/4 69/69/69
f 68/68/68 69/69/69 133/133/133
f 133/133/133 69/69/69 134/134/134
f 133/133/133 134/134/134 198/198/198
f 198/198/198 134/134/134 199/199/199
f 198/198/198 199/199/199 263/263/263
f 263/263/263 199/199/199 264/264/264
f 263/263/263 264/264/264 328/328/328
f 328/328/328 264/264/264 329/329/329
f 328/328/328 329/329/329 393/393/393
f 393/393/393 329/329/329 394/394/394
f 393/393/393 394/394/394 458/458/458
f 458/458/458 394/394/394 459/459/459
f 458/458/458 459/459/459 523/523/523
f 523/523/523 459/459/459 524/524/524
f 4/4/4 5/5/5 69/69/69
f 69/69/69 5/5/5 70/70/70
f 69/69/69 70/70/70 134/134/134
f 134/134/134 70/70/70 135/135/135
f 134/134/134 135/135/135 199/199/199
f 199/199/199 135/135/135 200/200/200
f 199/199/199 200/200/200 264/264/264
f 264/264/264 200/200/200 265/265/265
f 264/264/264 265/265/265 329/329/329
f 329/329/329 265/265/265 330/330/330
f 329/329/329 330/330/330 394/394/394
f 394/394/394 330/330/330 395/395/395
f 394/394/394 395/395/395 459/459/459
f 459/459/459 395/395/395 460/460/460
f 459/459/459 460/460/460 524/524/524
f 524/524/524 460/460/460 525/525/525
f 5/5/5 6/6/6 70/70/70
f 70/70/70 6/6/6 71/71/71
f 70/70/70 71/71/71 135/135/135
f 135/135/135 71/71/71 136/136/136
f 135/135/135 136/136/136 200/200/200
f 200/200/200 136/136/136 201/201/201
f 200/200/200 201/201/201 265/265/265
f 265/265/265 201/201/201 266/266/266
f 265/265/265 266/266/266 330/330/330
f 330/330/330 266/266/266 331/331/331
f 330/330/330 331/331/331 395/395/395
f 395/395/395 331/331/331 396/396/396
f 395/395/395 396/396/396 460/460/460
f 460/460/460 396/396/396 461/461/461
f 460/460/460 461/461/461 525/525/525
f 525/525/525 461/461/461 526/526/526
f 6/6/6 7/7/7 71/71/71
f 71/71/71 7/7/7 72/72/72
f 71/71/71 72/72/72 136/136/136
f 136/136/136 72/72/72 137/137/137
f 136/136/136 137/137/137 201/201/201
f 201/201/201 137/137/137 202/202/202
f 201/201/201 202/202/202 266/266/266
f 266/266/266 202/202/202 267/267/267
f 266/266/266 267/267/267 331/331/331
f 331/331/331 267/267/267 332/332/332
f 331/331/331 332/332/332 396/396/396
f 396/396/396 332/332/332 397/397/397
f 396/396/396 397/397/397 461/461/461
f 461/461/461 397/397/397 462/462/462
f 461/461/461 462/462/462 526/526/526
f 526/526/526 462/462/462 527/527/527
f 7/7/7 8/8/8 72/72/72
f 72/72/72 8/8/8 73/73/73
f 72/72/72 73/73/73 137/137/137
f 137/137/137 73/73/73 138/138/138
f 137/137/137 138/138/138 202/202/202
f 202/202/202 138/138/138 203/203/203
f 202/202/202 203/203/203 267/267/267
f 267/267/267 203/203/203 268/268/268
f 267/267/267 268/268/268 332/332/332
f 332/332/332 268/268/268 333/333/333
f 332/332/332 333/333/333 397/397/397
f 397/397/397 333/333/333 398/398/398
f 397/397/397 398/398/398 462/462/462
f 462/462/462 398/398/398 463/463/463
f 462/462/462 463/463/463 527/527/527
f 527/527/527 463/463/463 528/528/528
f 8/8/8 9/9/9 73/73/73
f 73/73/73 9/9/9 74/74/74
f 73/73/73 74/74/74 138/138/138
f 138/138/138 74/74/74 139/139/139
f 138/138/138 139/139/139 203/203/203
f 203/203/203 139/139/139 204/204/204
f 203/203/203 204/204/204 268/268/268
f 268/268/268 204/204/204 269/269/269
f 268/268/268 269/269/269 333/333/333
f 333/333/333 269/269/269 334/334/334
f 333/333/333 334/334/334 398/398/398
f 398/398/398 334/334/334 399/399/399
f 398/398/398 399/399/399 463/463/463
f 463/463/463 399/399/399 464/464/464
f 463/463/463 464/464/464 528/528/528
f 528/528/528 464/464/464 529/529/529
f 9/9/9 10/10/10 74/74/74
f 74/74/74 10/10/10 75/75/75
f 74/74/74 75/75/75 139/139/139
f 139/139/139 75/75/75 140/140/140
f 139/139/139 140/140/140 204/204/204
f 204/204/204 140/140/140 205/205/205
f 204/204/204 205/205/205 269/269/269
f 269/269/269 205/205/205 270/270/270
f 269/269/269 270/270/270 334/334/334
f 334/334/334 270/270/270 335/335/335
f 334/334/334 335/335/335 399/399/399
f 399/399/399 335/335/335 400/400/400
f 399/399/399 400/400/400 464/464/464
f 464/464/464 400/400/400 465/465/465
f 464/464/464 465/465/465 529/529/529
f 529/529/529 465/465/465 530/530/530
f 10/10/10 11/11/11 75/75/75
f 75/75/75 11/11/11 76/76/76
f 75/75/75 76/76/76 140/140/140
f 140/140/140 76/76/76 141/141/141
f 140/140/140 141/141/141 205/205/205
f 205/205/205 141/141/141 206/206/206
f 205/205/205 206/206/206 270/270/270
f 270/270/270 206/206/206 271/271/271
f 270/270/270 271/271/271 335/335/335
f 335/335/335 271/271/271 336/336/336
f 335/335/335 336/336/336 400/400/400
f 400/400/400 336/336/336 401/401/401
f 400/400/400 401/401/401 465/465/465
f 465/465/465 401/401/401 466/466/466
f 465/465/465 466/466/466 530/530/530
f 530/530/530 466/466/466 531/531/531
f 11/11/11 12/12/12 76/76/76
f 76/76/76 12/12/12 77/77/77
f 76/76/76 77/77/77 141/141/141
f 141/141/141 77/77/77 142/142/142
f 141/141/141 142/142/142 206/206/206
f 206/206/206 142/142/142 207/207/207
f 206/206/206 207/207/207 271/271/271
f 271/271/271 207/207/207 272/272/272
f 271/271/271 272/272/272 336/336/336
f 336/336/336 272/272/272 337/337/337
f 336/336/336 337/337/337 401/401/401
f 401/401/401 337/337/337 402/402/402
f 401/401/401 402/402/402 466/466/466
f 466/466/466 402/402/402 467/467/467
f 466/466/466 467/467/467 531/531/531
f 531/531/531 467/467/467 532/532/532
f 12/12/12 13/13/13 77/77/77
f 77/77/77 13/13/13 78/78/78
f 77/77/77 78/78/78 142/142/142
f 142/142/142 78/78/78 143/143/143
f 142/142/142 143/143/143 207/207/207
f 207/207/207 143/143/143 208/208/208
f 207/207/207 208/208/208 272/272/272
f 272/272/272 208/208/208 273/273/273
f 272/272/272 273/273/273 337/337/337
f 337/337/337 273/273/273 338/338/338
f 337/337/337 338/338/338 402/402/402
f 402/402/402 338/338/338 403/403/403
f 402/402/402 403/403/403 467/467/467
f 467/467/467 403/403/403 468/468/468
f 467/467/467 468/468/468 532/532/532
f 532/532/532 468/468/468 533/533/533
f 13/13/13 14/14/14 78/78/78
f 78/78/78 14/14/14 79/79/79
f 78/78/78 79/79/79 143/143/143
f 143/143/143 79/79/79 144/144/144
f 143/143/143 144/144/144 208/208/208
f 208/208/208 144/144/144 209/209/209
f 208/208/208 209/209/209 273/273/273
f 273/273/273 209/209/209 274/274/274
f 273/273/273 274/274/274 338/338/338
f 338/338/338 274/274/274 339/339/339
f 338/338/338 339/339/339 403/403/403
f 403/403/403 339/339/339 404/404/404
f 403/403/403 404/404/404 468/468/468
f 468/468/468 404/404/404 469/469/469
f 468/468/468 469/469/469 533/533/533
f 533/533/533 469/469/469 534/534/534
f 14/14/14 15/15/15 79/79/79
f 79/79/79 15/15/15 80/80/80
f 79/79/79 80/80/80 144/144/144
f 144/144/144 80/80/80 145/145/145
f 144/144/144 145/145/145 209/209/209
f 209/209/209 145/145/145 210/210/210
f 209/209/209 210/210/210 274/274/274
f 274/274/274 210/210/210 275/275/275
f 274/274/274 275/275/275 339/339/339
f 339/339/339 275/275/275 340/340/340
f 339/339/339 340/340/340 404/404/404
f 404/404/404 340/340/340 405/405/405
f 404/404/404 405/405/405 469/469/469
f 469/469/469 405/405/405 470/470/470
f 469/469/469 470/470/470 534/534/534
f 534/534/534 470/470/470 535/535/535
f 15/15/15 16/16/16 80/80/80
f 80/80/80 16/16/16 81/81/81
f 80/80/80 81/81/81 145/145/145
f 145/145/145 81/81/81 146/146/146
f 145/145/145 146/146/146 210/210/210
f 210/210/210 146/146/146 211/211/211
f 210/210/210 211/211/211 275/275/275
f 275/275/275 211/211/211 276/276/276
f 275/275/275 276/276/276 340/340/340
f 340/340/340 276/276/276 341/341/341
f 340/340/340 341/341/341 405/405/405
f 405/405/405 341/341/341 406/406/406
f 405/405/405 406/406/406 470/470/470
f 470/470/470 406/406/406 471/471/471
f 470/470/470 471/471/471 535/535/535
f 535/535/535 471/471/471 536/536/536
f 16/16/16 17/17/17 81/81/81
f 81/81/81 17/17/17 82/82/82
f 81/81/81 82/82/82 146/146/146
f 146/146/146 82/82/82 147/147/147
f 146/146/146 147/147/147 211/211/211
f 211/211/211 147/147/147 212/212/212
f 211/211/211 212/212/212 276/276/276
f 276/276/276 212/212/212 277/277/277
f 276/276/276 277/277/277 341/341/341
f 341/341/341 277/277/277 342/342/342
f 341/341/341 342/342/342 406/406/406
f 406/406/406 342/342/342 407/407/407
f 406/406/406 407/407/407 471/471/471
f 471/471/471 407/407/407 472/472/472
f 471/471/471 472/472/472 536/536/536
f 536/536/536 472/472/472 537/537/537
f 17/17/17 18/18/18 82/82/82
f 82/82/82 18/18/18 83/83/83
f 82/82/82 83/83/83 147/147/147
f 147/147/147 83/83/83 148/148/148
f 147/147/147 148/148/148 212/212/212
f 212/212/212 148/148/148 213/213/213
f 212/212/212 213/213/213 277/277/277
f 277/277/277 213/213/213 278/278/278
f 277/277/277 278/278/278 342/342/342
f 342/342/342 278/278/278 343/343/343
f 342/342/342 343/343/343 407/407/407
f 407/407/407 343/343/343 408/408/408
f 407/407/407 408/408/408 472/472/472
f 472/472/472 408/408/408 473/473/473
f 472/472/472 473/473/473 537/537/537
f 537/537/537 473/473/473 538/538/538
f 18/18/18 19/19/19 83/83/83
f 83/83/83 19/19/19 84/84/84
f 83/83/83 84/84/84 148/148/148
f 148/148/148 84/84/84 149/149/149
f 148/148/148 149/149/149 213/213/213
f 213/213/213 149/149/149 214/214/214
f 213/213/213 214/214/214 278/278/278
f 278/278/278 214/214/214 279/279/279
f 278/278/278 279/279/279 343/343/343
f 343/343/343 279/279/279 344/344/344
f 343/343/343 344/344/344 408/408/408
f 408/408/408 344/344/344 409/409/409
f 408/408/408 409/409/409 473/473/473
f 473/473/473 409/409/409 474/474/474
f 473/473/473 474/474/474 538/538/538
f 538/538/538 474/474/474 539/539/539
f 19/19/19 20/20/20 84/84/84
f 84/84/84 20/20/20 85/85/85
f 84/84/84 85/85/85 149/149/149
f 149/149/149 85/85/85 150/150/150
f 149/149/149 150/150/150 214/214/214
f 214/214/214 150/150/150 215/215/215
f 214/214/214 215/215/215 279/279/279
f 279/279/279 215/215/215 280/280/280
f 279/279/279 280/280/280 344/344/344
f 344/344/344 280/280/280 345/345/345
f 344/344/344 345/345/345 409/409/409
f 409/409/409 345/345/345 410/410/410
f 409/409/409 410/410/410 474/474/474
f 474/474/474 410/410/410 475/475/475
f 474/474/474 475/475/475 539/539/539
f 539/539/539 475/475/475 540/540/540
f 20/20/20 21/21/21 85/85/85
f 85/85/85 21/21/21 86/86/86
f 85/85/85 86/86/86 150/150/150
f 150/150/150 86/86/86 151/151/151
f 150/150/150 151/151/151 215/215/215
f 215/215/215 151/151/151 216/216/216
f 215/215/215 216/216/216 280/280/280
f 280/280/280 216/216/216 281/281/281
f 280/280/280 281/281/281 345/345/345
f 345/345/345 281/281/281 346/346/346
f 345/345/345 346/346/346 410/410/410
f 410/410/410 346/346/346 411/411/411
f 410/410/410 411/411/411 475/475/475
f 475/475/475 411/411/411 476/476/476
f 475/475/475 476/476/476 540/540/540
f 540/540/540 476/476/476 541/541/541
f 21/21/21 22/22/22 86/86/86
f 86/86/86 22/22/22 87/87/87
f 86/86/86 87/87/87 151/151/151
f 151/151/151 87/87/87 152/152/152
f 151/151/151 152/152/152 216/216/216
f 216/216/216 152/152/152 217/217/217
f 216/216/216 217/217/217 281/281/281
f 281/281/281 217/217/217 282/282/282
f 281/281/281 282/282/282 346/346/346
f 346/346/346 282/282/282 347/347/347
f 346/346/346 347/347/347 411/411/411
f 411/411/411 347/347/347 412/412/412
f 411/411/411 412/412/412 476/476/476
f 476/476/476 412/412/412 477/477/477
f 476/476/476 477/477/477 541/541/541
f 541/541/541 477/477/477 542/542/542
f 22/22/22 23/23/23 87/87/87
f 87/87/87 23/23/23 88/88/88
f 87/87/87 88/88/88 152/152/152
f 152/152/152 88/88/88 153/153/153
f 152/152/152 153/153/153 217/217/217
f 217/217/217 153/153/153 218/218/218
f 217/217/217 218/218/218 282/282/282
f 282/282/282 218/218/218 283/283/283
f 282/282/282 283/283/283 347/347/347
f 347/347/347 283/283/283 348/348/348
f 347/347/347 348/348/348 412/412/412
f 412/412/412 348/348/348 413/413/413
f 412/412/412 413/413/413 477/477/477
f 477/477/477 413/413/413 478/478/478
f 477/477/477 478/478/478 542/542/542
f 542/542/542 478/478/478 543/543/543
f 23/23/23 24/24/24 88/88/88
f 88/88/88 24/24/24 89/89/89
f 88/88/88 89/89/89 153/153/153
f 153/153/153 89/89/89 154/154/154
f 153/153/153 154/154/154 218/218/218
f 218/218/218 154/154/154 219/219/219
f 218/218/218 219/219/219 283/283/283
f 283/283/283 219/219/219 284/284/284
f 283/283/283 284/284/284 348/348/348
f 348/348/348 284/284/284 349/349/349
f 348/348/348 349/349/349 413/413/413
f 413/413/413 349/349/349 414/414/414
f 413/413/413 414/414/414 478/478/478
f 478/478/478 414/414/414 479/479/479
f 478/478/478 479/479/479 543/543/543
f 543/543/543 479/479/479 544/544/544
f 24/24/24 25/25/25 89/89/89
f 89/89/89 25/25/25 90/90/90
f 89/89/89 90/90/90 154/154/154
f 154/154/154 90/90/90 155/155/155
f 154/154/154 155/155/155 219/219/219
f 219/219/219 155/155/155 220/220/220
f 219/219/219 220/220/220 284/284/284
f 284/284/284 220/220/220 285/285/285
f 284/284/284 285/285/285 349/349/349
f 349/349/349 285/285/285 350/350/350
f 349/349/349 350/350/350 414/414/414
f 414/414/414 350/350/350 415/415/415
f 414/414/414 415/415/415 479/479/479
f 479/479/479 415/415/415 480/480/480
f 479/479/479 480/480/480 544/544/544
f 544/544/544 480/480/480 545/545/545
f 25/25/25 26/26/26 90/90/90
f 90/90/90 26/26/26 91/91/91
f 90/90/90 91/91/91 155/155/155
f 155/155/155 91/91/91 156/156/156
f 155/155/155 156/156/156 220/220/220
f 220/220/220 156/156/156 221/221/221
f 220/220/220 221/221/221 285/285/285
f 285/285/285 221/221/221 286/286/286
f 285/285/285 286/286/286 350/350/350
f 350/350/350 286/286/286 351/351/351
f 350/350/350 351/351/351 415/415/415
f 415/415/415 351/351/351 416/416/416
f 415/415/415 416/416/416 480/480/480
f 480/480/480 416/416/416 481/481/481
f 480/480/480 481/481/481 545/545/545
f 545/545/545 481/481/481 546/546/546
f 26/26/26 27/27/27 91/91/91
f 91/91/91 27/27/27 92/92/92
f 91/91/91 92/92/92 156/156/156
f 156/156/156 92/92/92 157/157/157
f 156/156/156 157/157/157 221/221/221
f 221/221/221 157/157/157 222/222/222
f 221/221/221 222/222/222 286/286/286
f 286/286/286 222/222/222 287/287/287
f 286/286/286 287/287/287 351/351/351
f 351/351/351 287/287/287 352/352/352
f 351/351/351 352/352/352 416/416/416
f 416/416/416 352/352/352 417/417/417
f 416/416/416 417/417/417 481/481/481
f 481/481/481 417/417/417 482/482/482
f 481/481/481 482/482/482 546/546/546
f 546/546/546 482/482/482 547/547/547
f 27/27/27 28/28/28 92/92/92
f 92/92/92 28/28/28 93/93/93
f 92/92/92 93/93/93 157/157/157
f 157/157/157 93/93/93 158/158/158
f 157/157/157 158/158/158 222/222/222
f 222/222/222 158/158/158 223/223/223
f 222/222/222 223/223/223 287/287/287
f 287/287/287 223/223/223 288/288/288
f 287/287/287 288/288/288 352/352/352
f 352/352/352 288/288/288 353/353/353
f 352/352/352 353/353/353 417/417/417
f 417/417/417 353/353/353 418/418/418
f 417/417/417 418/418/418 482/482/482
f 482/482/482 418/418/418 483/483/483
f 482/482/482 483/483/483 547/547/547
f 547/547/547 483/483/483 548/548/548
f 28/28/28 29/29/29 93/93/93
f 93/93/93 29/29/29 94/94/94
f 93/93/93 94/94/94 158/158/158
f 158/158/158 94/94/94 159/159/159
f 158/158/158 159/159/159 223/223/223
f 223/223/223 159/159/159 224/224/224
f 223/223/223 224/224/224 288/288/288
f 288/288/288 224/224/224 289/289/289
f 288/288/288 289/289/289 353/353/353
f 353/353/353 289/289/289 354/354/354
f 353/353/353 354/354/354 418/418/418
f 418/418/418 354/354/354 419/419/419
f 418/418/418 419/419/419 483/483/483
f 483/483/483 419/419/419 484/484/484
f 483/483/483 484/484/484 548/548/548
f 548/548/548 484/484/484 549/549/549
f 29/29/29 30/30/30 94/94/94
f 94/94/94 30/30/30 95/95/95
f 94/94/94 95/95/95 159/159/159
f 159/159/159 95/95/95 160/160/160
f 159/159/159 160/160/160 224/224/224
f 224/224/224 160/160/160 225/225/225
f 224/224/224 225/225/225 289/289/289
f 289/289/289 225/225/225 290/290/290
f 289/289/289 290/290/290 354/354/354
f 354/354/354 290/290/290 355/355/355
f 354/354/354 355/355/355 419/419/419
f 419/419/419 355/355/355 420/420/420
f 419/419/419 420/420/420 484/484/484
f 484/484/484 420/420/420 485/485/485
f 484/484/484 485/485/485 549/549/549
f 549/549/549 485/485/485 550/550/550
f 30/30/30 31/31/31 95/95/95
f 95/95/95 31/31/31 96/96/96
f 95/95/95 96/96/96 160/160/160
f 160/160/160 96/96/96 161/161/161
f 160/160/160 161/161/161 225/225/225
f 225/225/225 161/161/161 226/226/226
f 225/225/225 226/226/226 290/290/290
f 290/290/290 226/226/226 291/291/291
f 290/290/290 291/291/291 355/355/355
f 355/355/355 291/291/291 356/356/356
f 355/355/355 356/356/356 420/420/420
f 420/420/420 356/356/356 421/421/421
f 420/420/420 421/421/421 485/485/485
f 485/485/485 421/421/421 486/486/486
f 485/485/485 486/486/486 550/550/550
f 550/550/550 486/486/486 551/551/551
f 31/31/31 32/32/32 96/96/96
f 96/96/96 32/32/32 97/97/97
f 96/96/96 97/97/97 161/161/161
f 161/161/161 97/97/97 162/162/162
f 161/161/161 162/162/162 226/226/226
f 226/226/226 162/162/162 227/227/227
f 226/226/226 227/227/227 291/291/291
f 291/291/291 227/227/227 292/292/292
f 291/291/291 292/292/292 356/356/356
f 356/356/356 292/292/292 357/357/357
f 356/356/356 357/357/357 421/421/421
f 421/421/421 357/357/357 422/422/422
f 421/421/421 422/422/422 486/486/486
f 486/486/486 422/422/422 487/487/487
f 486/486/486 487/487/487 551/551/551
f 551/551/551 487/487/487 552/552/552
f 32/32/32 33/33/33 97/97/97
f 97/97/97 33/33/33 98/98/98
f 97/97/97 98/98/98 162/162/162
f 162/162/162 98/98/98 163/163/163
f 162/162/162 163/163/163 227/227/227
f 227/227/227 163/163/163 228/228/228
f 227/227/227 228/228/228 292/292/292
f 292/292/292 228/228/228 293/293/293
f 292/292/292 293/293/293 357/357/357
f 357/357/357 293/293/293 358/358/358
f 357/357/357 358/358/358 422/422/422
f 422/422/422 358/358/358 423/423/423
f 422/422/422 423/423/423 487/487/487
f 487/487/487 423/423/423 488/488/488
f 487/487/487 488/488/488 552/552/552
f 552/552/552 488/488/488 553/553/553
f 33/33/33 34/34/34 98/98/98
f 98/98/98 34/34/34 99/99/99
f 98/98/98 99/99/99 163/163/163
f 163/163/163 99/99/99 164/164/164
f 163/163/163 164/164/164 228/228/228
f 228/228/228 164/164/164 229/229/229
f 228/228/228 229/229/229 293/293/293
f 293/293/293 229/229/229 294/294/294
f 293/293/293 294/294/294 358/358/358
f 358/358/358 294/294/294 359/359/359
f 358/358/358 359/359/359 423/423/423
f 423/423/423 359/359/359 424/424/424
f 423/423/423 424/424/424 488/488/488
f 488/488/488 424/424/424 489/489/489
f 488/488/488 489/489/489 553/553/553
f 553/553/553 489/489/489 554/554/554
f 34/34/34 35/35/35 99/99/99
f 99/99/99 35/35/35 100/100/100
f 99/99/99 100/100/100 164/164/164
f 164/164/164 100/100/100 165/165/165
f 164/164/164 165/165/165 229/229/229
f 229/229/229 165/165/165 230/230/230
f 229/229/229 230/230/230 294/294/294
f 294/294/294 230/230/230 295/295/295
f 294/294/294 295/295/295 359/359/359
f 359/359/359 295/295/295 360/360/360
f 359/359/359 360/360/360 424/424/424
f 424/424/424 360/360/360 425/425/425
f 424/424/424 425/425/425 489/489/489
f 489/489/489 425/425/425 490/490/490
f 489/489/489 490/490/490 554/554/554
f 554/554/554 490/490/490 555/555/555
f 35/35/35 36/36/36 100/100/100
f 100/100/100 36/36/36 101/101/101
f 100/100/100 101/101/101 165/165/165
f 165/165/165 101/101/101 166/166/166
f 165/165/165 166/166/166 230/230/230
f 230/230/230 166/166/166 231/231/231
f 230/230/230 231/231/231 295/295/295
f 295/295/295 231/231/231 296/296/296
f 295/295/295 296/296/296 360/360/360
f 360/360/360 296/296/296 361/361/361
f 360/360/360 361/361/361 425/425/425
f 425/425/425 361/361/361 426/426/426
f 425/425/425 426/426/426 490/490/490
f 490/490/490 426/426/426 491/491/491
f 490/490/490 491/491/491 555/555/555
f 555/555/555 491/491/491 556/556/556
f 36/36/36 37/37/37 101/101/101
f 101/101/101 37/37/37 102/102/102
f 101/101/101 102/102/102 166/166/166
f 166/166/166 102/102/102 167/167/167
f 166/166/166 167/167/167 231/231/231
f 231/231/231 167/167/167 232/232/232
f 231/231/231 232/232/232 296/296/296
f 296/296/296 232/232/232 297/297/297
f 296/296/296 297/297/297 361/361/361
f 361/361/361 297/297/297 362/362/362
f 361/361/361 362/362/362 426/426/426
f 426/426/426 362/362/362 427/427/427
f 426/426/426 427/427/427 491/491/491
f 491/491/491 427/427/427 492/492/492
f 491/491/491 492/492/492 556/556/556
f 556/556/556 492/492/492 557/557/557
f 37/37/37 38/38/38 102/102/102
f 102/102/102 38/38/38 103/103/103
f 102/102/102 103/103/103 167/167/167
f 167/167/167 103/103/103 168/168/168
f 167/167/167 168/168/168 232/232/232
f 232/232/232 168/168/168 233/233/233
f 232/232/232 233/233/233 297/297/297
f 297/297/297 233/233/233 298/298/298
f 297/297/297 298/298/298 362/362/362
f 362/362/362 298/298/298 363/363/363
f 362/362/362 363/363/363 427/427/427
f 427/427/427 363/363/363 428/428/428
f 427/427/427 428/428/428 492/492/492
f 492/492/492 428/428/428 493/493/493
f 492/492/492 493/493/493 557/557/557
f 557/557/557 493/493/493 558/558/558
f 38/38/38 39/39/39 103/103/103
f 103/103/103 39/39/39 104/104/104
f 103/103/103 104/104/104 168/168/168
f 168/168/168 104/104/104 169/169/169
f 168/168/168 169/169/169 233/233/233
f 233/233/233 169/169/169 234/234/234
f 233/233/233 234/234/234 298/298/298
f 298/298/298 234/234/234 299/299/299
f 298/298/298 299/299/299 363/363/363
f 363/363/363 299/299/299 364/364/364
f 363/363/363 364/364/364 428/428/428
f 428/428/428 364/364/364 429/429/429
f 428/428/428 429/429/429 493/493/493
f 493/493/493 429/429/429 494/494/494
f 493/493/493 494/494/494 558/558/558
f 558/558/558 494/494/494 559/559/559
f 39/39/39 40/40/40 104/104/104
f 104/104/104 40/40/40 105/105/105
f 104/104/104 105/105/105 169/169/169
f 169/169/169 105/105/105 170/170/170
f 169/169/169 170/170/170 234/234/234
f 234/234/234 170/170/170 235/235/235
f 234/234/234 235/235/235 299/299/299
f 299/299/299 235/235/235 300/300/300
f 299/299/299 300/300/300 364/364/364
f 364/364/364 300/300/300 365/365/365
f 364/364/364 365/365/365 429/429/429
f 429/429/429 365/365/365 430/430/430
f 429/429/429 430/430/430 494/494/494
f 494/494/494 430/430/430 495/495/495
f 494/494/494 495/495/495 559/559/559
f 559/559/559 495/495/495 560/560/560
f 40/40/40 41/41/41 105/105/105
f 105/105/105 41/41/41 106/106/106
f 105/105/105 106/106/106 170/170/170
f 170/170/170 106/106/106 171/171/171
f 170/170/170 171/171/171 235/235/235
f 235/235/235 171/171/171 236/236/236
f 235/235/235 236/236/236 300/300/300
f 300/300/300 236/236/236 301/301/301
f 300/300/300 301/301/301 365/365/365
f 365/365/365 301/301/301 366/366/366
f 365/365/365 366/366/366 430/430/430
f 430/430/430 366/366/366 431/431/431
f 430/430/430 431/431/431 495/495/495
f 495/495/495 431/431/431 496/496/496
f 495/495/495 496/496/496 560/560/560
f 560/560/560 496/496/496 561/561/561
f 41/41/41 42/42/42 106/106/106
f 106/106/106 42/42/42 107/107/107
f 106/106/106 107/107/107 171/171/171
f 171/171/171 107/107/107 172/172/172
f 171/171/171 172/172/172 236/236/236
f 236/236/236 172/172/172 237/237/237
f 236/236/236 237/237/237 301/301/301
f 301/301/301 237/237/237 302/302/302
f 301/301/301 302/302/302 366/366/366
f 366/366/366 302/302/302 367/367/367
f 366/366/366 367/367/367 431/431/431
f 431/431/431 367/367/367 432/432/432
f 431/431/431 432/432/432 496/496/496
f 496/496/496 432/432/432 497/497/497
f 496/496/496 497/497/497 561/561/561
f 561/561/561 497/497/497 562/562/562
f 42/42/42 43/43/43 107/107/107
f 107/107/107 43/43/43 108/108/108
f 107/107/107 108/108/108 172/172/172
f 172/172/172 108/108/108 173/173/173
f 172/172/172 173/173/173 237/237/237
f 237/237/237 173/173/173 238/238/238
f 237/237/237 238/238/238 302/302/302
f 302/302/302 238/238/238 303/303/303
f 302/302/302 303/303/303 367/367/367
f 367/367/367 303/303/303 368/368/368
f 367/367/367 368/368/368 432/432/432
f 432/432/432 368/368/368 433/433/433
f 432/432/432 433/433/433 497/497/497
f 497/497/497 433/433/433 498/498/498
f 497/497/497 498/498/498 562/562/562
f 562/562/562 498/498/498 563/563/563
f 43/43/43 44/44/44 108/108/108
f 108/108/108 44/44/44 109/109/109
f 108/108/108 109/109/109 173/173/173
f 173/173/173 109/109/109 174/174/174
f 173/173/173 174/174/174 238/238/238
f 238/238/238 174/174/174 239/239/239
f 238/238/238 239/239/239 303/303/303
f 303/303/303 239/239/239 304/304/304
f 303/303/303 304/304/304 368/368/368
f 368/368/368 304/304/304 369/369/369
f 368/368/368 369/369/369 433/433/433
f 433/433/433 369/369/369 434/434/434
f 433/433/433 434/434/434 498/498/498
f 498/498/498 434/434/434 499/499/499
f 498/498/498 499/499/499 563/563/563
f 563/563/563 499/499/499 564/564/564
f 44/44/44 45/45/45 109/109/109
f 109/109/109 45/45/45 110/110/110
f 109/109/109 110/110/110 174/174/174
f 174/174/174 110/110/110 175/175/175
f 174/174/174 175/175/175 239/239/239
f 239/239/239 175/175/175 240/240/240
f 239/239/239 240/240/240 304/304/304
f 304/304/304 240/240/240 305/305/305
f 304/304/304 305/305/305 369/369/369
f 369/369/369 305/305/305 370/370/370
f 369/369/369 370/370/370 434/434/434
f 434/434/434 370/370/370 435/435/435
f 434/434/434 435/435/435 499/499/499
f 499/499/499 435/435/435 500/500/500
f 499/499/499 500/500/500 564/564/564
f 564/564/564 500/500/500 565/565/565
f 45/45/45 46/46/46 110/110/110
f 110/110/110 46/46/46 111/111/111
f 110/110/110 111/111/111 175/175/175
f 175/175/175 111/111/111 176/176/176
f 175/175/175 176/176/176 240/240/240
f 240/240/240 176/176/176 241/241/241
f 240/240/240 241/241/241 305/305/305
f 305/305/305 241/241/241 306/306/306
f 305/305/305 306/306/306 370/370/370
f 370/370/370 306/306/306 371/371/371
f 370/370/370 371/371/371 435/435/435
f 435/435/435 371/371/371 436/436/436
f 435/435/435 436/436/436 500/500/500
f 500/500/500 436/436/436 501/501/501
f 500/500/500 501/501/501 565/565/565
f 565/565/565 501/501/501 566/566/566
f 46/46/46 47/47/47 111/111/111
f 111/111/111 47/47/47 112/112/112
f 111/111/111 112/112/112 176/176/176
f 176/176/176 112/112/112 177/177/177
f 176/176/176 177/177/177 241/241/241
f 241/241/241 177/177/177 242/242/242
f 241/241/241 242/242/242 306/306/306
f 306/306/306 242/242/242 307/307/307
f 306/306/306 307/307/307 371/371/371
f 371/371/371 307/307/307 372/372/372
f 371/371/371 372/372/372 436/436/436
f 436/436/436 372/372/372 437/437/437
f 436/436/436 437/437/437 501/501/501
f 501/501/501 437/437/437 502/502/502
f 501/501/501 502/502/502 566/566/566
f 566/566/566 502/502/502 567/567/567
f 47/47/47 48/48/48 112/112/112
f 112/112/112 48/48/48 113/113/113
f 112/112/112 113/113/113 177/177/177
f 177/177/177 113/113/113 178/178/178
f 177/177/177 178/178/178 242/242/242
f 242/242/242 178/178/178 243/243/243
f 242/242/242 243/243/243 307/307/307
f 307/307/307 243/243/243 308/308/308
f 307/307/307 308/308/308 372/372/372
f 372/372/372 308/308/308 373/373/373
f 372/372/372 373/373/373 437/437/437
f 437/437/437 373/373/373 438/438/438
f 437/437/437 438/438/438 502/502/502
f 502/502/502 438/438/438 503/503/503
f 502/502/502 503/503/503 567/567/567
f 567/567/567 503/503/503 568/568/568
f 48/48/48 49/49/49 113/113/113
f 113/113/113 49/49/49 114/114/114
f 113/113/113 114/114/114 178/178/178
f 178/178/178 114/114/114 179/179/179
f 178/178/178 179/179/179 243/243/243
f 243/243/243 179/179/179 244/244/244
f 243/243/243 244/244/244 308/308/308
f 308/308/308 244/244/244 309/309/309
f 308/308/308 309/309/309 373/373/373
f 373/373/373 309/309/309 374/374/374
f 373/373/373 374/374/374 438/438/438
f 438/438/438 374/374/374 439/439/439
f 438/438/438 439/439/439 503/503/503
f 503/503/503 439/439/439 504/504/504
f 503/503/503 504/504/504 568/568/568
f 568/568/568 504/504/504 569/569/569
f 49/49/49 50/50/50 114/114/114
f 114/114/114 50/50/50 115/115/115
f 114/114/114 115/115/115 179/179/179
f 179/179/179 115/115/115 180/180/180
f 179/179/179 180/180/180 244/244/244
f 244/244/244 180/180/180 245/245/245
f 244/244/244 245/245/245 309/309/309
f 309/309/309 245/245/245 310/310/310
f 309/309/309 310/310/310 374/374/374
f 374/374/374 310/310/310 375/375/375
f 374/374/374 375/375/375 439/439/439
f 439/439/439 375/375/375 440/440/440
f 439/439/439 440/440/440 504/504/504
f 504/504/504 440/440/440 505/505/505
f 504/504/504 505/505/505 569/569/569
f 569/569/569 505/505/505 570/570/570
f 50/50/50 51/51/51 115/115/115
f 115/115/115 51/51/51 116/116/116
f 115/115/115 116/116/116 180/180/180
f 180/180/180 116/116/116 181/181/181
f 180/180/180 181/181/181 245/245/245
f 245/245/245 181/181/181 246/246/246
f 245/245/245 246/246/246 310/310/310
f 310/310/310 246/246/246 311/311/311
f 310/310/310 311/311/311 375/375/375
f 375/375/375 311/311/311 376/376/376
f 375/375/375 376/376/376 440/440/440
f 440/440/440 376/376/376 441/441/441
f 440/440/440 441/441/441 505/505/505
f 505/505/505 441/441/441 506/506/506
f 505/505/505 506/506/506 570/570/570
f 570/570/570 506/506/506 571/571/571
f 51/51/51 52/52/52 116/116/116
f 116/116/116 52/52/52 117/117/117
f 116/116/116 117/117/117 181/181/181
f 181/181/181 117/117/117 182/182/182
f 181/181/181 182/182/182 246/246/246
f 246/246/246 182/182/182 247/247/247
f 246/246/246 247/247/247 311/311/311
f 311/311/311 247/247/247 312/312/312
f 311/311/311 312/312/312 376/376/376
f 376/376/376 312/312/312 377/377/377
f 376/376/376 377/377/377 441/441/441
f 441/441/441 377/377/377 442/442/442
f 441/441/441 442/442/442 506/506/506
f 506/506/506 442/442/442 507/507/507
f 506/506/506 507/507/507 571/571/571
f 571/571/571 507/507/507 572/572/572
f 52/52/52 53/53/53 117/117/117
f 117/117/117 53/53/53 118/118/118
f 117/117/117 118/118/118 182/182/182
f 182/182/182 118/118/118 183/183/183
f 182/182/182 183/183/183 247/247/247
f 247/247/247 183/183/183 248/248/248
f 247/247/247 248/248/248 312/312/312
f 312/312/312 248/248/248 313/313/313
f 312/312/312 313/313/313 377/377/377
f 377/377/377 313/313/313 378/378/378
f 377/377/377 378/378/378 442/442/442
f 442/442/442 378/378/378 443/443/443
f 442/442/442 443/443/443 507/507/507
f 507/507/507 443/443/443 508/508/508
f 507/507/507 508/508/508 572/572/572
f 572/572/572 508/508/508 573/573/573
f 53/53/53 54/54/54 118/118/118
f 118/118/118 54/54/54 119/119/119
f 118/118/118 119/119/119 183/183/183
f 183/183/183 119/119/119 184/184/184
f 183/183/183 184/184/184 248/248/248
f 248/248/248 184/184/184 249/249/249
f 248/248/248 249/249/249 313/313/313
f 313/313/313 249/249/249 314/314/314
f 313/313/313 314/314/314 378/378/378
f 378/378/378 314/314/314 379/379/379
f 378/378/378 379/379/379 443/443/443
f 443/443/443 379/379/379 444/444/444
f 443/443/443 444/444/444 508/508/508
f 508/508/508 444/444/444 509/509/509
f 508/508/508 509/509/509 573/573/573
f 573/573/573 509/509/509 574/574/574
f 54/54/54 55/55/55 119/119/119
f 119/119/119 55/55/55 120/120/120
f 119/119/119 120/120/120 184/184/184
f 184/184/184 120/120/120 185/185/185
f 184/184/184 185/185/185 249/249/249
f 249/249/249 185/185/185 250/250/250
f 249/249/249 250/250/250 314/314/314
f 314/314/314 250/250/250 315/315/315
f 314/314/314 315/315/315 379/379/379
f 379/379/379 315/315/315 380/380/380
f 379/379/379 380/380/380 444/444/444
f 444/444/444 380/380/380 445/445/445
f 444/444/444 445/445/445 509/509/509
f 509/509/509 445/445/445 510/510/510
f 509/509/509 510/510/510 574/574/574
f 574/574/574 510/510/510 575/575/575
f 55/55/55 56/56/56 120/120/120
f 120/120/120 56/56/56 121/121/121
f 120/120/120 121/121/121 185/185/185
f 185/185/185 121/121/121 186/186/186
f 185/185/185 186/186/186 250/250/250
f 250/250/250 186/186/186 251/251/251
f 250/250/250 251/251/251 315/315/315
f 315/315/315 251/251/251 316/316/316
f 315/315/315 316/316/316 380/380/380
f 380/380/380 316/316/316 381/381/381
f 380/380/380 381/381/381 445/445/445
f 445/445/445 381/381/381 446/446/446
f 445/445/445 446/446/446 510/510/510
f 510/510/510 446/446/446 511/511/511
f 510/510/510 511/511/511 575/575/575
f 575/575/575 511/511/511 576/576/576
f 56/56/56 57/57/57 121/121/121
f 121/121/121 57/57/57 122/122/122
f 121/121/121 122/122/122 186/186/186
f 186/186/186 122/122/122 187/187/187
f 186/186/186 187/187/187 251/251/251
f 251/251/251 187/187/187 252/252/252
f 251/251/251 252/252/252 316/316/316
f 316/316/316 252/252/252 317/317/317
f 316/316/316 317/317/317 381/381/381
f 381/381/381 317/317/317 382/382/382
f 381/381/381 382/382/382 446/446/446
f 446/446/446 382/382/382 447/447/447
f 446/446/446 447/447/447 511/511/511
f 511/511/511 447/447/447 512/512/512
f 511/511/511 512/512/512 576/576/576
f 576/576/576 512/512/512 577/577/577
f 57/57/57 58/58/58 122/122/122
f 122/122/122 58/58/58 123/123/123
f 122/122/122 123/123/123 187/187/187
f 187/187/187 123/123/123 188/188/188
f 187/187/187 188/188/188 252/252/252
f 252/252/252 188/188/188 253/253/253
f 252/252/252 253/253/253 317/317/317
f 317/317/317 253/253/253 318/318/318
f 317/317/317 318/318/318 382/382/382
f 382/382/382 318/318/318 383/383/383
f 382/382/382 383/383/383 447/447/447
f 447/447/447 383/383/383 448/448/448
f 447/447/447 448/448/448 512/512/512
f 512/512/512 448/448/448 513/513/513
f 512/512/512 513/513/513 577/577/577
f 577/577/577 513/513/513 578/578/578
f 58/58/58 59/59/59 123/123/123
f 123/123/123 59/59/59 124/124/124
f 123/123/123 124/124/124 188/188/188
f 188/188/188 124/124/124 189/189/189
f 188/188/188 189/189/189 253/253/253
f 253/253/253 189/189/189 254/254/254
f 253/253/253 254/254/254 318/318/318
f 318/318/318 254/254/254 319/319/319
f 318/318/318 319/319/319 383/383/383
f 383/383/383 319/319/319 384/384/384
f 383/383/383 384/384/384 448/448/448
f 448/448/448 384/384/384 449/449/449
f 448/448/448 449/449/449 513/513/513
f 513/513/513 449/449/449 514/514/514
f 513/513/513 514/514/514 578/578/578
f 578/578/578 514/514/514 579/579/579
f 59/59/59 60/60/60 124/124/124
f 124/124/124 60/60/60 125/125/125
f 124/124/124 125/125/125 189/189/189
f 189/189/189 125/125/125 190/190/190
f 189/189/189 190/190/190 254/254/254
f 254/254/254 190/190/190 255/255/255
f 254/254/254 255/255/255 319/319/319
f 319/319/319 255/255/255 320/320/320
f 319/319/319 320/320/320 384/384/384
f 384/384/384 320/320/320 385/385/385
f 384/384/384 385/385/385 449/449/449
f 449/449/449 385/385/385 450/450/450
f 449/449/449 450/450/450 514/514/514
f 514/514/514 450/450/450 515/515/515
f 514/514/514 515/515/515 579/579/579
f 579/579/579 515/515/515 580/580/580
f 60/60/60 61/61/61 125/125/125
f 125/125/125 61/61/61 126/126/126
f 125/125/125 126/126/126 190/190/190
f 190/190/190 126/126/126 191/191/191
f 190/190/190 191/191/191 255/255/255
f 255/255/255 191/191/191 256/256/256
f 255/255/255 256/256/256 320/320/320
f 320/320/320 256/256/256 321/321/321
f 320/320/320 321/321/321 385/385/385
f 385/385/385 321/321/321 386/386/386
f 385/385/385 386/386/386 450/450/450
f 450/450/450 386/386/386 451/451/451
f 450/450/450 451/451/451 515/515/515
f 515/515/515 451/451/451 516/516/516
f 515/515/515 516/516/516 580/580/580
f 580/580/580 516/516/516 581/581/581
f 61/61/61 62/62/62 126/126/126
f 126/126/126 62/62/62 127/127/127
f 126/126/126 127/127/127 191/191/191
f 191/191/191 127/127/127 192/192/192
f 191/191/191 192/192/192 256/256/256
f 256/256/256 192/192/192 257/257/257
f 256/256/256 257/257/257 321/321/321
f 321/321/321 257/257/257 322/322/322
f 321/321/321 322/322/322 386/386/386
f 386/386/386 322/322/322 387/387/387
f 386/386/386 387/387/387 451/451/451
f 451/451/451 387/387/387 452/452/452
f 451/451/451 452/452/452 516/516/516
f 516/516/516 452/452/452 517/517/517
f 516/516/516 517/517/517 581/581/581
f 581/581/581 517/517/517 582/582/582
f 62/62/62 63/63/63 127/127/127
f 127/127/127 63/63/63 128/128/128
f 127/127/127 128/128/128 192/192/192
f 192/192/192 128/128/128 193/193/193
f 192/192/192 193/193/193 257/257/257
f 257/257/257 193/193/193 258/258/258
f 257/257/257 258/258/258 322/322/322
f 322/322/322 258/258/258 323/323/323
f 322/322/322 323/323/323 387/387/387
f 387/387/387 323/323/323 388/388/388
f 387/387/387 388/388/388 452/452/452
f 452/452/452 388/388/388 453/453/453
f 452/452/452 453/453/453 517/517/517
f 517/517/517 453/453/453 518/518/518
f 517/517/517 518/518/518 582/582/582
f 582/582/582 518/518/518 583/583/583
f 63/63/63 64/64/64 128/128/128
f 128/128/128 64/64/64 129/129/129
f 128/128/128 129/129/129 193/193/193
f 193/193/193 129/129/129 194/194/194
f 193/193/193 194/194/194 258/258/258
f 258/258/258 194/194/194 259/259/259
f 258/258/258 259/259/259 323/323/323
f 323/323/323 259/259/259 324/324/324
f 323/323/323 324/324/324 388/388/388
f 388/388/388 324/324/324 389/389/389
f 388/388/388 389/389/389 453/453/453
f 453/453/453 389/389/389 454/454/454
f 453/453/453 454/454/454 518/518/518
f 518/518/518 454/454/454 519/519/519
f 518/518/518 519/519/519 583/583/583
f 583/583/583 519/519/519 584/584/584
f 64/64/64 65/65/65 129/129/129
f 129/129/129 65/65/65 130/130/130
f 129/129/129 130/130/130 194/194/194
f 194/194/194 130/130/130 195/195/195
f 194/194/194 195/195/195 259/259/259
f 259/259/259 195/195/195 260/260/260
f 259/259/259 260/260/260 324/324/324
f 324/324/324 260/260/260 325/325/325
f 324/324/324 325/325/325 389/389/389
f 389/389/389 325/325/325 390/390/390
f 389/389/389 390/390/390 454/454/454
f 454/454/454 390/390/390 455/455/455
f 454/454/454 455/455/455 519/519/519
f 519/519/519 455/455/455 520/520/520
f 519/519/519 520/520/520 584/584/584
f 584/584/584 520/520/520 585/585/585
