# Sancta editable mesh extracted from the approved reference, cm, Z up
v 0.0 -50.0 50.0
v 0.0 -49.5833337 50.0
v 0.0 -49.1666675 50.0
v 0.0 -48.7500012 50.0
v 0.0 -48.3333319 50.0
v 0.0 -47.9166657 50.0
v 0.0 -47.4999994 50.0
v 0.0 -47.0833331 50.0
v 0.0 -46.6666669 50.0
v 0.0 -46.2500006 50.0
v 0.0 -45.8333343 50.0
v 0.0 -45.4166681 50.0
v 0.0 -44.9999988 50.0
v 0.0 -44.5833325 50.0
v 0.0 -44.1666663 50.0
v 0.0 -43.75 50.0
v 0.0 -43.3333337 50.0
v 0.0 -42.9166675 50.0
v 0.0 -42.5000012 50.0
v 0.0 -42.0833319 50.0
v 0.0 -41.6666657 50.0
v 0.0 -41.2499994 50.0
v 0.0 -40.8333331 50.0
v 0.0 -40.4166669 50.0
v 0.0 -40.0000006 50.0
v 0.0 -39.5833343 50.0
v 0.0 -39.1666681 50.0
v 0.0 -38.7499988 50.0
v 0.0 -38.3333325 50.0
v 0.0 -37.9166663 50.0
v 0.0 -37.5 50.0
v 0.0 -37.0833337 50.0
v 0.0 -36.6666675 50.0
v 0.0 -36.2500012 50.0
v 0.0 -35.8333319 50.0
v 0.0 -35.4166657 50.0
v 0.0 -34.9999994 50.0
v 0.0 -34.5833331 50.0
v 0.0 -34.1666669 50.0
v 0.0 -33.7500006 50.0
v 0.0 -33.3333343 50.0
v 0.0 -32.9166681 50.0
v 0.0 -32.4999988 50.0
v 0.0 -32.0833325 50.0
v 0.0 -31.6666663 50.0
v 0.0 -31.25 50.0
v 0.0 -30.8333337 50.0
v 0.0 -30.4166675 50.0
v 0.0 -30.0000012 50.0
v 0.0 -29.5833319 50.0
v 0.0 -29.1666657 50.0
v 0.0 -28.7499994 50.0
v 0.0 -28.3333331 50.0
v 0.0 -27.9166669 50.0
v 0.0 -27.5000006 50.0
v 0.0 -27.0833343 50.0
v 0.0 -26.6666681 50.0
v 0.0 -26.2499988 50.0
v 0.0 -25.8333325 50.0
v 0.0 -25.4166663 50.0
v 0.0 -25.0 50.0
v 0.0 -24.5833337 50.0
v 0.0 -24.166666 50.0
v 0.0 -23.7499997 50.0
v 0.0 -23.3333334 50.0
v 0.0 -22.9166672 50.0
v 0.0 -22.4999994 50.0
v 0.0 -22.0833331 50.0
v 0.0 -21.6666669 50.0
v 0.0 -21.2500006 50.0
v 0.0 -20.8333328 50.0
v 0.0 -20.4166666 50.0
v 0.0 -20.0000003 50.0
v 0.0 -19.583334 50.0
v 0.0 -19.1666663 50.0
v 0.0 -18.75 50.0
v 0.0 -18.3333337 50.0
v 0.0 -17.916666 50.0
v 0.0 -17.4999997 50.0
v 0.0 -17.0833334 50.0
v 0.0 -16.6666672 50.0
v 0.0 -16.2499994 50.0
v 0.0 -15.8333331 50.0
v 0.0 -15.4166669 50.0
v 0.0 -15.0000006 50.0
v 0.0 -14.5833328 50.0
v 0.0 -14.1666666 50.0
v 0.0 -13.7500003 50.0
v 0.0 -13.333334 50.0
v 0.0 -12.9166663 50.0
v 0.0 -12.5 50.0
v 0.0 -12.083333 50.0
v 0.0 -11.6666667 50.0
v 0.0 -11.2499997 50.0
v 0.0 -10.8333334 50.0
v 0.0 -10.4166664 50.0
v 0.0 -10.0000001 50.0
v 0.0 -9.58333313 50.0
v 0.0 -9.16666687 50.0
v 0.0 -8.74999985 50.0
v 0.0 -8.33333358 50.0
v 0.0 -7.91666657 50.0
v 0.0 -7.5000003 50.0
v 0.0 -7.08333328 50.0
v 0.0 -6.66666701 50.0
v 0.0 -6.25 50.0
v 0.0 -5.83333336 50.0
v 0.0 -5.41666672 50.0
v 0.0 -5.00000007 50.0
v 0.0 -4.58333343 50.0
v 0.0 -4.16666679 50.0
v 0.0 -3.75000015 50.0
v 0.0 -3.33333351 50.0
v 0.0 -2.91666668 50.0
v 0.0 -2.50000004 50.0
v 0.0 -2.0833334 50.0
v 0.0 -1.66666675 50.0
v 0.0 -1.25000002 50.0
v 0.0 -0.833333377 50.0
v 0.0 -0.416666688 50.0
v 0.0 0.0 50.0
v 0.0 0.416666688 50.0
v 0.0 0.833333377 50.0
v 0.0 1.25000002 50.0
v 0.0 1.66666675 50.0
v 0.0 2.0833334 50.0
v 0.0 2.50000004 50.0
v 0.0 2.91666668 50.0
v 0.0 3.33333351 50.0
v 0.0 3.75000015 50.0
v 0.0 4.16666679 50.0
v 0.0 4.58333343 50.0
v 0.0 5.00000007 50.0
v 0.0 5.41666672 50.0
v 0.0 5.83333336 50.0
v 0.0 6.25 50.0
v 0.0 6.66666701 50.0
v 0.0 7.08333328 50.0
v 0.0 7.5000003 50.0
v 0.0 7.91666657 50.0
v 0.0 8.33333358 50.0
v 0.0 8.74999985 50.0
v 0.0 9.16666687 50.0
v 0.0 9.58333313 50.0
v 0.0 10.0000001 50.0
v 0.0 10.4166664 50.0
v 0.0 10.8333334 50.0
v 0.0 11.2499997 50.0
v 0.0 11.6666667 50.0
v 0.0 12.083333 50.0
v 0.0 12.5 50.0
v 0.0 12.9166663 50.0
v 0.0 13.333334 50.0
v 0.0 13.7500003 50.0
v 0.0 14.1666666 50.0
v 0.0 14.5833328 50.0
v 0.0 15.0000006 50.0
v 0.0 15.4166669 50.0
v 0.0 15.8333331 50.0
v 0.0 16.2499994 50.0
v 0.0 16.6666672 50.0
v 0.0 17.0833334 50.0
v 0.0 17.4999997 50.0
v 0.0 17.916666 50.0
v 0.0 18.3333337 50.0
v 0.0 18.75 50.0
v 0.0 19.1666663 50.0
v 0.0 19.583334 50.0
v 0.0 20.0000003 50.0
v 0.0 20.4166666 50.0
v 0.0 20.8333328 50.0
v 0.0 21.2500006 50.0
v 0.0 21.6666669 50.0
v 0.0 22.0833331 50.0
v 0.0 22.4999994 50.0
v 0.0 22.9166672 50.0
v 0.0 23.3333334 50.0
v 0.0 23.7499997 50.0
v 0.0 24.166666 50.0
v 0.0 24.5833337 50.0
v 0.0 25.0 50.0
v 0.0 25.4166663 50.0
v 0.0 25.8333325 50.0
v 0.0 26.2499988 50.0
v 0.0 26.6666681 50.0
v 0.0 27.0833343 50.0
v 0.0 27.5000006 50.0
v 0.0 27.9166669 50.0
v 0.0 28.3333331 50.0
v 0.0 28.7499994 50.0
v 0.0 29.1666657 50.0
v 0.0 29.5833319 50.0
v 0.0 30.0000012 50.0
v 0.0 30.4166675 50.0
v 0.0 30.8333337 50.0
v 0.0 31.25 50.0
v 0.0 31.6666663 50.0
v 0.0 32.0833325 50.0
v 0.0 32.4999988 50.0
v 0.0 32.9166681 50.0
v 0.0 33.3333343 50.0
v 0.0 33.7500006 50.0
v 0.0 34.1666669 50.0
v 0.0 34.5833331 50.0
v 0.0 34.9999994 50.0
v 0.0 35.4166657 50.0
v 0.0 35.8333319 50.0
v 0.0 36.2500012 50.0
v 0.0 36.6666675 50.0
v 0.0 37.0833337 50.0
v 0.0 37.5 50.0
v 0.0 37.9166663 50.0
v 0.0 38.3333325 50.0
v 0.0 38.7499988 50.0
v 0.0 39.1666681 50.0
v 0.0 39.5833343 50.0
v 0.0 40.0000006 50.0
v 0.0 40.4166669 50.0
v 0.0 40.8333331 50.0
v 0.0 41.2499994 50.0
v 0.0 41.6666657 50.0
v 0.0 42.0833319 50.0
v 0.0 42.5000012 50.0
v 0.0 42.9166675 50.0
v 0.0 43.3333337 50.0
v 0.0 43.75 50.0
v 0.0 44.1666663 50.0
v 0.0 44.5833325 50.0
v 0.0 44.9999988 50.0
v 0.0 45.4166681 50.0
v 0.0 45.8333343 50.0
v 0.0 46.2500006 50.0
v 0.0 46.6666669 50.0
v 0.0 47.0833331 50.0
v 0.0 47.4999994 50.0
v 0.0 47.9166657 50.0
v 0.0 48.3333319 50.0
v 0.0 48.7500012 50.0
v 0.0 49.1666675 50.0
v 0.0 49.5833337 50.0
v 0.0 50.0 50.0
v 0.0 -50.0 -50.0
v 0.0 -49.5833337 -50.0
v 0.0 -49.1666675 -50.0
v 0.0 -48.7500012 -50.0
v 0.0 -48.3333319 -50.0
v 0.0 -47.9166657 -50.0
v 0.0 -47.4999994 -50.0
v 0.0 -47.0833331 -50.0
v 0.0 -46.6666669 -50.0
v 0.0 -46.2500006 -50.0
v 0.0 -45.8333343 -50.0
v 0.0 -45.4166681 -50.0
v 0.0 -44.9999988 -50.0
v 0.0 -44.5833325 -50.0
v 0.0 -44.1666663 -50.0
v 0.0 -43.75 -50.0
v 0.0 -43.3333337 -50.0
v 0.0 -42.9166675 -50.0
v 0.0 -42.5000012 -50.0
v 0.0 -42.0833319 -50.0
v 0.0 -41.6666657 -50.0
v 0.0 -41.2499994 -50.0
v 0.0 -40.8333331 -50.0
v 0.0 -40.4166669 -50.0
v 0.0 -40.0000006 -50.0
v 0.0 -39.5833343 -50.0
v 0.0 -39.1666681 -50.0
v 0.0 -38.7499988 -50.0
v 0.0 -38.3333325 -50.0
v 0.0 -37.9166663 -50.0
v 0.0 -37.5 -50.0
v 0.0 -37.0833337 -50.0
v 0.0 -36.6666675 -50.0
v 0.0 -36.2500012 -50.0
v 0.0 -35.8333319 -50.0
v 0.0 -35.4166657 -50.0
v 0.0 -34.9999994 -50.0
v 0.0 -34.5833331 -50.0
v 0.0 -34.1666669 -50.0
v 0.0 -33.7500006 -50.0
v 0.0 -33.3333343 -50.0
v 0.0 -32.9166681 -50.0
v 0.0 -32.4999988 -50.0
v 0.0 -32.0833325 -50.0
v 0.0 -31.6666663 -50.0
v 0.0 -31.25 -50.0
v 0.0 -30.8333337 -50.0
v 0.0 -30.4166675 -50.0
v 0.0 -30.0000012 -50.0
v 0.0 -29.5833319 -50.0
v 0.0 -29.1666657 -50.0
v 0.0 -28.7499994 -50.0
v 0.0 -28.3333331 -50.0
v 0.0 -27.9166669 -50.0
v 0.0 -27.5000006 -50.0
v 0.0 -27.0833343 -50.0
v 0.0 -26.6666681 -50.0
v 0.0 -26.2499988 -50.0
v 0.0 -25.8333325 -50.0
v 0.0 -25.4166663 -50.0
v 0.0 -25.0 -50.0
v 0.0 -24.5833337 -50.0
v 0.0 -24.166666 -50.0
v 0.0 -23.7499997 -50.0
v 0.0 -23.3333334 -50.0
v 0.0 -22.9166672 -50.0
v 0.0 -22.4999994 -50.0
v 0.0 -22.0833331 -50.0
v 0.0 -21.6666669 -50.0
v 0.0 -21.2500006 -50.0
v 0.0 -20.8333328 -50.0
v 0.0 -20.4166666 -50.0
v 0.0 -20.0000003 -50.0
v 0.0 -19.583334 -50.0
v 0.0 -19.1666663 -50.0
v 0.0 -18.75 -50.0
v 0.0 -18.3333337 -50.0
v 0.0 -17.916666 -50.0
v 0.0 -17.4999997 -50.0
v 0.0 -17.0833334 -50.0
v 0.0 -16.6666672 -50.0
v 0.0 -16.2499994 -50.0
v 0.0 -15.8333331 -50.0
v 0.0 -15.4166669 -50.0
v 0.0 -15.0000006 -50.0
v 0.0 -14.5833328 -50.0
v 0.0 -14.1666666 -50.0
v 0.0 -13.7500003 -50.0
v 0.0 -13.333334 -50.0
v 0.0 -12.9166663 -50.0
v 0.0 -12.5 -50.0
v 0.0 -12.083333 -50.0
v 0.0 -11.6666667 -50.0
v 0.0 -11.2499997 -50.0
v 0.0 -10.8333334 -50.0
v 0.0 -10.4166664 -50.0
v 0.0 -10.0000001 -50.0
v 0.0 -9.58333313 -50.0
v 0.0 -9.16666687 -50.0
v 0.0 -8.74999985 -50.0
v 0.0 -8.33333358 -50.0
v 0.0 -7.91666657 -50.0
v 0.0 -7.5000003 -50.0
v 0.0 -7.08333328 -50.0
v 0.0 -6.66666701 -50.0
v 0.0 -6.25 -50.0
v 0.0 -5.83333336 -50.0
v 0.0 -5.41666672 -50.0
v 0.0 -5.00000007 -50.0
v 0.0 -4.58333343 -50.0
v 0.0 -4.16666679 -50.0
v 0.0 -3.75000015 -50.0
v 0.0 -3.33333351 -50.0
v 0.0 -2.91666668 -50.0
v 0.0 -2.50000004 -50.0
v 0.0 -2.0833334 -50.0
v 0.0 -1.66666675 -50.0
v 0.0 -1.25000002 -50.0
v 0.0 -0.833333377 -50.0
v 0.0 -0.416666688 -50.0
v 0.0 0.0 -50.0
v 0.0 0.416666688 -50.0
v 0.0 0.833333377 -50.0
v 0.0 1.25000002 -50.0
v 0.0 1.66666675 -50.0
v 0.0 2.0833334 -50.0
v 0.0 2.50000004 -50.0
v 0.0 2.91666668 -50.0
v 0.0 3.33333351 -50.0
v 0.0 3.75000015 -50.0
v 0.0 4.16666679 -50.0
v 0.0 4.58333343 -50.0
v 0.0 5.00000007 -50.0
v 0.0 5.41666672 -50.0
v 0.0 5.83333336 -50.0
v 0.0 6.25 -50.0
v 0.0 6.66666701 -50.0
v 0.0 7.08333328 -50.0
v 0.0 7.5000003 -50.0
v 0.0 7.91666657 -50.0
v 0.0 8.33333358 -50.0
v 0.0 8.74999985 -50.0
v 0.0 9.16666687 -50.0
v 0.0 9.58333313 -50.0
v 0.0 10.0000001 -50.0
v 0.0 10.4166664 -50.0
v 0.0 10.8333334 -50.0
v 0.0 11.2499997 -50.0
v 0.0 11.6666667 -50.0
v 0.0 12.083333 -50.0
v 0.0 12.5 -50.0
v 0.0 12.9166663 -50.0
v 0.0 13.333334 -50.0
v 0.0 13.7500003 -50.0
v 0.0 14.1666666 -50.0
v 0.0 14.5833328 -50.0
v 0.0 15.0000006 -50.0
v 0.0 15.4166669 -50.0
v 0.0 15.8333331 -50.0
v 0.0 16.2499994 -50.0
v 0.0 16.6666672 -50.0
v 0.0 17.0833334 -50.0
v 0.0 17.4999997 -50.0
v 0.0 17.916666 -50.0
v 0.0 18.3333337 -50.0
v 0.0 18.75 -50.0
v 0.0 19.1666663 -50.0
v 0.0 19.583334 -50.0
v 0.0 20.0000003 -50.0
v 0.0 20.4166666 -50.0
v 0.0 20.8333328 -50.0
v 0.0 21.2500006 -50.0
v 0.0 21.6666669 -50.0
v 0.0 22.0833331 -50.0
v 0.0 22.4999994 -50.0
v 0.0 22.9166672 -50.0
v 0.0 23.3333334 -50.0
v 0.0 23.7499997 -50.0
v 0.0 24.166666 -50.0
v 0.0 24.5833337 -50.0
v 0.0 25.0 -50.0
v 0.0 25.4166663 -50.0
v 0.0 25.8333325 -50.0
v 0.0 26.2499988 -50.0
v 0.0 26.6666681 -50.0
v 0.0 27.0833343 -50.0
v 0.0 27.5000006 -50.0
v 0.0 27.9166669 -50.0
v 0.0 28.3333331 -50.0
v 0.0 28.7499994 -50.0
v 0.0 29.1666657 -50.0
v 0.0 29.5833319 -50.0
v 0.0 30.0000012 -50.0
v 0.0 30.4166675 -50.0
v 0.0 30.8333337 -50.0
v 0.0 31.25 -50.0
v 0.0 31.6666663 -50.0
v 0.0 32.0833325 -50.0
v 0.0 32.4999988 -50.0
v 0.0 32.9166681 -50.0
v 0.0 33.3333343 -50.0
v 0.0 33.7500006 -50.0
v 0.0 34.1666669 -50.0
v 0.0 34.5833331 -50.0
v 0.0 34.9999994 -50.0
v 0.0 35.4166657 -50.0
v 0.0 35.8333319 -50.0
v 0.0 36.2500012 -50.0
v 0.0 36.6666675 -50.0
v 0.0 37.0833337 -50.0
v 0.0 37.5 -50.0
v 0.0 37.9166663 -50.0
v 0.0 38.3333325 -50.0
v 0.0 38.7499988 -50.0
v 0.0 39.1666681 -50.0
v 0.0 39.5833343 -50.0
v 0.0 40.0000006 -50.0
v 0.0 40.4166669 -50.0
v 0.0 40.8333331 -50.0
v 0.0 41.2499994 -50.0
v 0.0 41.6666657 -50.0
v 0.0 42.0833319 -50.0
v 0.0 42.5000012 -50.0
v 0.0 42.9166675 -50.0
v 0.0 43.3333337 -50.0
v 0.0 43.75 -50.0
v 0.0 44.1666663 -50.0
v 0.0 44.5833325 -50.0
v 0.0 44.9999988 -50.0
v 0.0 45.4166681 -50.0
v 0.0 45.8333343 -50.0
v 0.0 46.2500006 -50.0
v 0.0 46.6666669 -50.0
v 0.0 47.0833331 -50.0
v 0.0 47.4999994 -50.0
v 0.0 47.9166657 -50.0
v 0.0 48.3333319 -50.0
v 0.0 48.7500012 -50.0
v 0.0 49.1666675 -50.0
v 0.0 49.5833337 -50.0
v 0.0 50.0 -50.0
vt 0.0 0.0
vn -1.0 0.0 0.0
vt 0.00416666688 0.0
vn -1.0 0.0 0.0
vt 0.00833333377 0.0
vn -1.0 0.0 0.0
vt 0.0125000002 0.0
vn -1.0 0.0 0.0
vt 0.0166666675 0.0
vn -1.0 0.0 0.0
vt 0.020833334 0.0
vn -1.0 0.0 0.0
vt 0.0250000004 0.0
vn -1.0 0.0 0.0
vt 0.0291666668 0.0
vn -1.0 0.0 0.0
vt 0.0333333351 0.0
vn -1.0 0.0 0.0
vt 0.0375000015 0.0
vn -1.0 0.0 0.0
vt 0.0416666679 0.0
vn -1.0 0.0 0.0
vt 0.0458333343 0.0
vn -1.0 0.0 0.0
vt 0.0500000007 0.0
vn -1.0 0.0 0.0
vt 0.0541666672 0.0
vn -1.0 0.0 0.0
vt 0.0583333336 0.0
vn -1.0 0.0 0.0
vt 0.0625 0.0
vn -1.0 0.0 0.0
vt 0.0666666701 0.0
vn -1.0 0.0 0.0
vt 0.0708333328 0.0
vn -1.0 0.0 0.0
vt 0.075000003 0.0
vn -1.0 0.0 0.0
vt 0.0791666657 0.0
vn -1.0 0.0 0.0
vt 0.0833333358 0.0
vn -1.0 0.0 0.0
vt 0.0874999985 0.0
vn -1.0 0.0 0.0
vt 0.0916666687 0.0
vn -1.0 0.0 0.0
vt 0.0958333313 0.0
vn -1.0 0.0 0.0
vt 0.100000001 0.0
vn -1.0 0.0 0.0
vt 0.104166664 0.0
vn -1.0 0.0 0.0
vt 0.108333334 0.0
vn -1.0 0.0 0.0
vt 0.112499997 0.0
vn -1.0 0.0 0.0
vt 0.116666667 0.0
vn -1.0 0.0 0.0
vt 0.12083333 0.0
vn -1.0 0.0 0.0
vt 0.125 0.0
vn -1.0 0.0 0.0
vt 0.129166663 0.0
vn -1.0 0.0 0.0
vt 0.13333334 0.0
vn -1.0 0.0 0.0
vt 0.137500003 0.0
vn -1.0 0.0 0.0
vt 0.141666666 0.0
vn -1.0 0.0 0.0
vt 0.145833328 0.0
vn -1.0 0.0 0.0
vt 0.150000006 0.0
vn -1.0 0.0 0.0
vt 0.154166669 0.0
vn -1.0 0.0 0.0
vt 0.158333331 0.0
vn -1.0 0.0 0.0
vt 0.162499994 0.0
vn -1.0 0.0 0.0
vt 0.166666672 0.0
vn -1.0 0.0 0.0
vt 0.170833334 0.0
vn -1.0 0.0 0.0
vt 0.174999997 0.0
vn -1.0 0.0 0.0
vt 0.17916666 0.0
vn -1.0 0.0 0.0
vt 0.183333337 0.0
vn -1.0 0.0 0.0
vt 0.1875 0.0
vn -1.0 0.0 0.0
vt 0.191666663 0.0
vn -1.0 0.0 0.0
vt 0.19583334 0.0
vn -1.0 0.0 0.0
vt 0.200000003 0.0
vn -1.0 0.0 0.0
vt 0.204166666 0.0
vn -1.0 0.0 0.0
vt 0.208333328 0.0
vn -1.0 0.0 0.0
vt 0.212500006 0.0
vn -1.0 0.0 0.0
vt 0.216666669 0.0
vn -1.0 0.0 0.0
vt 0.220833331 0.0
vn -1.0 0.0 0.0
vt 0.224999994 0.0
vn -1.0 0.0 0.0
vt 0.229166672 0.0
vn -1.0 0.0 0.0
vt 0.233333334 0.0
vn -1.0 0.0 0.0
vt 0.237499997 0.0
vn -1.0 0.0 0.0
vt 0.24166666 0.0
vn -1.0 0.0 0.0
vt 0.245833337 0.0
vn -1.0 0.0 0.0
vt 0.25 0.0
vn -1.0 0.0 0.0
vt 0.254166663 0.0
vn -1.0 0.0 0.0
vt 0.258333325 0.0
vn -1.0 0.0 0.0
vt 0.262499988 0.0
vn -1.0 0.0 0.0
vt 0.266666681 0.0
vn -1.0 0.0 0.0
vt 0.270833343 0.0
vn -1.0 0.0 0.0
vt 0.275000006 0.0
vn -1.0 0.0 0.0
vt 0.279166669 0.0
vn -1.0 0.0 0.0
vt 0.283333331 0.0
vn -1.0 0.0 0.0
vt 0.287499994 0.0
vn -1.0 0.0 0.0
vt 0.291666657 0.0
vn -1.0 0.0 0.0
vt 0.295833319 0.0
vn -1.0 0.0 0.0
vt 0.300000012 0.0
vn -1.0 0.0 0.0
vt 0.304166675 0.0
vn -1.0 0.0 0.0
vt 0.308333337 0.0
vn -1.0 0.0 0.0
vt 0.3125 0.0
vn -1.0 0.0 0.0
vt 0.316666663 0.0
vn -1.0 0.0 0.0
vt 0.320833325 0.0
vn -1.0 0.0 0.0
vt 0.324999988 0.0
vn -1.0 0.0 0.0
vt 0.329166681 0.0
vn -1.0 0.0 0.0
vt 0.333333343 0.0
vn -1.0 0.0 0.0
vt 0.337500006 0.0
vn -1.0 0.0 0.0
vt 0.341666669 0.0
vn -1.0 0.0 0.0
vt 0.345833331 0.0
vn -1.0 0.0 0.0
vt 0.349999994 0.0
vn -1.0 0.0 0.0
vt 0.354166657 0.0
vn -1.0 0.0 0.0
vt 0.358333319 0.0
vn -1.0 0.0 0.0
vt 0.362500012 0.0
vn -1.0 0.0 0.0
vt 0.366666675 0.0
vn -1.0 0.0 0.0
vt 0.370833337 0.0
vn -1.0 0.0 0.0
vt 0.375 0.0
vn -1.0 0.0 0.0
vt 0.379166663 0.0
vn -1.0 0.0 0.0
vt 0.383333325 0.0
vn -1.0 0.0 0.0
vt 0.387499988 0.0
vn -1.0 0.0 0.0
vt 0.391666681 0.0
vn -1.0 0.0 0.0
vt 0.395833343 0.0
vn -1.0 0.0 0.0
vt 0.400000006 0.0
vn -1.0 0.0 0.0
vt 0.404166669 0.0
vn -1.0 0.0 0.0
vt 0.408333331 0.0
vn -1.0 0.0 0.0
vt 0.412499994 0.0
vn -1.0 0.0 0.0
vt 0.416666657 0.0
vn -1.0 0.0 0.0
vt 0.420833319 0.0
vn -1.0 0.0 0.0
vt 0.425000012 0.0
vn -1.0 0.0 0.0
vt 0.429166675 0.0
vn -1.0 0.0 0.0
vt 0.433333337 0.0
vn -1.0 0.0 0.0
vt 0.4375 0.0
vn -1.0 0.0 0.0
vt 0.441666663 0.0
vn -1.0 0.0 0.0
vt 0.445833325 0.0
vn -1.0 0.0 0.0
vt 0.449999988 0.0
vn -1.0 0.0 0.0
vt 0.454166681 0.0
vn -1.0 0.0 0.0
vt 0.458333343 0.0
vn -1.0 0.0 0.0
vt 0.462500006 0.0
vn -1.0 0.0 0.0
vt 0.466666669 0.0
vn -1.0 0.0 0.0
vt 0.470833331 0.0
vn -1.0 0.0 0.0
vt 0.474999994 0.0
vn -1.0 0.0 0.0
vt 0.479166657 0.0
vn -1.0 0.0 0.0
vt 0.483333319 0.0
vn -1.0 0.0 0.0
vt 0.487500012 0.0
vn -1.0 0.0 0.0
vt 0.491666675 0.0
vn -1.0 0.0 0.0
vt 0.495833337 0.0
vn -1.0 0.0 0.0
vt 0.5 0.0
vn -1.0 0.0 0.0
vt 0.504166663 0.0
vn -1.0 0.0 0.0
vt 0.508333325 0.0
vn -1.0 0.0 0.0
vt 0.512499988 0.0
vn -1.0 0.0 0.0
vt 0.516666651 0.0
vn -1.0 0.0 0.0
vt 0.520833313 0.0
vn -1.0 0.0 0.0
vt 0.524999976 0.0
vn -1.0 0.0 0.0
vt 0.529166639 0.0
vn -1.0 0.0 0.0
vt 0.533333361 0.0
vn -1.0 0.0 0.0
vt 0.537500024 0.0
vn -1.0 0.0 0.0
vt 0.541666687 0.0
vn -1.0 0.0 0.0
vt 0.545833349 0.0
vn -1.0 0.0 0.0
vt 0.550000012 0.0
vn -1.0 0.0 0.0
vt 0.554166675 0.0
vn -1.0 0.0 0.0
vt 0.558333337 0.0
vn -1.0 0.0 0.0
vt 0.5625 0.0
vn -1.0 0.0 0.0
vt 0.566666663 0.0
vn -1.0 0.0 0.0
vt 0.570833325 0.0
vn -1.0 0.0 0.0
vt 0.574999988 0.0
vn -1.0 0.0 0.0
vt 0.579166651 0.0
vn -1.0 0.0 0.0
vt 0.583333313 0.0
vn -1.0 0.0 0.0
vt 0.587499976 0.0
vn -1.0 0.0 0.0
vt 0.591666639 0.0
vn -1.0 0.0 0.0
vt 0.595833361 0.0
vn -1.0 0.0 0.0
vt 0.600000024 0.0
vn -1.0 0.0 0.0
vt 0.604166687 0.0
vn -1.0 0.0 0.0
vt 0.608333349 0.0
vn -1.0 0.0 0.0
vt 0.612500012 0.0
vn -1.0 0.0 0.0
vt 0.616666675 0.0
vn -1.0 0.0 0.0
vt 0.620833337 0.0
vn -1.0 0.0 0.0
vt 0.625 0.0
vn -1.0 0.0 0.0
vt 0.629166663 0.0
vn -1.0 0.0 0.0
vt 0.633333325 0.0
vn -1.0 0.0 0.0
vt 0.637499988 0.0
vn -1.0 0.0 0.0
vt 0.641666651 0.0
vn -1.0 0.0 0.0
vt 0.645833313 0.0
vn -1.0 0.0 0.0
vt 0.649999976 0.0
vn -1.0 0.0 0.0
vt 0.654166639 0.0
vn -1.0 0.0 0.0
vt 0.658333361 0.0
vn -1.0 0.0 0.0
vt 0.662500024 0.0
vn -1.0 0.0 0.0
vt 0.666666687 0.0
vn -1.0 0.0 0.0
vt 0.670833349 0.0
vn -1.0 0.0 0.0
vt 0.675000012 0.0
vn -1.0 0.0 0.0
vt 0.679166675 0.0
vn -1.0 0.0 0.0
vt 0.683333337 0.0
vn -1.0 0.0 0.0
vt 0.6875 0.0
vn -1.0 0.0 0.0
vt 0.691666663 0.0
vn -1.0 0.0 0.0
vt 0.695833325 0.0
vn -1.0 0.0 0.0
vt 0.699999988 0.0
vn -1.0 0.0 0.0
vt 0.704166651 0.0
vn -1.0 0.0 0.0
vt 0.708333313 0.0
vn -1.0 0.0 0.0
vt 0.712499976 0.0
vn -1.0 0.0 0.0
vt 0.716666639 0.0
vn -1.0 0.0 0.0
vt 0.720833361 0.0
vn -1.0 0.0 0.0
vt 0.725000024 0.0
vn -1.0 0.0 0.0
vt 0.729166687 0.0
vn -1.0 0.0 0.0
vt 0.733333349 0.0
vn -1.0 0.0 0.0
vt 0.737500012 0.0
vn -1.0 0.0 0.0
vt 0.741666675 0.0
vn -1.0 0.0 0.0
vt 0.745833337 0.0
vn -1.0 0.0 0.0
vt 0.75 0.0
vn -1.0 0.0 0.0
vt 0.754166663 0.0
vn -1.0 0.0 0.0
vt 0.758333325 0.0
vn -1.0 0.0 0.0
vt 0.762499988 0.0
vn -1.0 0.0 0.0
vt 0.766666651 0.0
vn -1.0 0.0 0.0
vt 0.770833313 0.0
vn -1.0 0.0 0.0
vt 0.774999976 0.0
vn -1.0 0.0 0.0
vt 0.779166639 0.0
vn -1.0 0.0 0.0
vt 0.783333361 0.0
vn -1.0 0.0 0.0
vt 0.787500024 0.0
vn -1.0 0.0 0.0
vt 0.791666687 0.0
vn -1.0 0.0 0.0
vt 0.795833349 0.0
vn -1.0 0.0 0.0
vt 0.800000012 0.0
vn -1.0 0.0 0.0
vt 0.804166675 0.0
vn -1.0 0.0 0.0
vt 0.808333337 0.0
vn -1.0 0.0 0.0
vt 0.8125 0.0
vn -1.0 0.0 0.0
vt 0.816666663 0.0
vn -1.0 0.0 0.0
vt 0.820833325 0.0
vn -1.0 0.0 0.0
vt 0.824999988 0.0
vn -1.0 0.0 0.0
vt 0.829166651 0.0
vn -1.0 0.0 0.0
vt 0.833333313 0.0
vn -1.0 0.0 0.0
vt 0.837499976 0.0
vn -1.0 0.0 0.0
vt 0.841666639 0.0
vn -1.0 0.0 0.0
vt 0.845833361 0.0
vn -1.0 0.0 0.0
vt 0.850000024 0.0
vn -1.0 0.0 0.0
vt 0.854166687 0.0
vn -1.0 0.0 0.0
vt 0.858333349 0.0
vn -1.0 0.0 0.0
vt 0.862500012 0.0
vn -1.0 0.0 0.0
vt 0.866666675 0.0
vn -1.0 0.0 0.0
vt 0.870833337 0.0
vn -1.0 0.0 0.0
vt 0.875 0.0
vn -1.0 0.0 0.0
vt 0.879166663 0.0
vn -1.0 0.0 0.0
vt 0.883333325 0.0
vn -1.0 0.0 0.0
vt 0.887499988 0.0
vn -1.0 0.0 0.0
vt 0.891666651 0.0
vn -1.0 0.0 0.0
vt 0.895833313 0.0
vn -1.0 0.0 0.0
vt 0.899999976 0.0
vn -1.0 0.0 0.0
vt 0.904166639 0.0
vn -1.0 0.0 0.0
vt 0.908333361 0.0
vn -1.0 0.0 0.0
vt 0.912500024 0.0
vn -1.0 0.0 0.0
vt 0.916666687 0.0
vn -1.0 0.0 0.0
vt 0.920833349 0.0
vn -1.0 0.0 0.0
vt 0.925000012 0.0
vn -1.0 0.0 0.0
vt 0.929166675 0.0
vn -1.0 0.0 0.0
vt 0.933333337 0.0
vn -1.0 0.0 0.0
vt 0.9375 0.0
vn -1.0 0.0 0.0
vt 0.941666663 0.0
vn -1.0 0.0 0.0
vt 0.945833325 0.0
vn -1.0 0.0 0.0
vt 0.949999988 0.0
vn -1.0 0.0 0.0
vt 0.954166651 0.0
vn -1.0 0.0 0.0
vt 0.958333313 0.0
vn -1.0 0.0 0.0
vt 0.962499976 0.0
vn -1.0 0.0 0.0
vt 0.966666639 0.0
vn -1.0 0.0 0.0
vt 0.970833361 0.0
vn -1.0 0.0 0.0
vt 0.975000024 0.0
vn -1.0 0.0 0.0
vt 0.979166687 0.0
vn -1.0 0.0 0.0
vt 0.983333349 0.0
vn -1.0 0.0 0.0
vt 0.987500012 0.0
vn -1.0 0.0 0.0
vt 0.991666675 0.0
vn -1.0 0.0 0.0
vt 0.995833337 0.0
vn -1.0 0.0 0.0
vt 1.0 0.0
vn -1.0 0.0 0.0
vt 0.0 1.0
vn -1.0 0.0 0.0
vt 0.00416666688 1.0
vn -1.0 0.0 0.0
vt 0.00833333377 1.0
vn -1.0 0.0 0.0
vt 0.0125000002 1.0
vn -1.0 0.0 0.0
vt 0.0166666675 1.0
vn -1.0 0.0 0.0
vt 0.020833334 1.0
vn -1.0 0.0 0.0
vt 0.0250000004 1.0
vn -1.0 0.0 0.0
vt 0.0291666668 1.0
vn -1.0 0.0 0.0
vt 0.0333333351 1.0
vn -1.0 0.0 0.0
vt 0.0375000015 1.0
vn -1.0 0.0 0.0
vt 0.0416666679 1.0
vn -1.0 0.0 0.0
vt 0.0458333343 1.0
vn -1.0 0.0 0.0
vt 0.0500000007 1.0
vn -1.0 0.0 0.0
vt 0.0541666672 1.0
vn -1.0 0.0 0.0
vt 0.0583333336 1.0
vn -1.0 0.0 0.0
vt 0.0625 1.0
vn -1.0 0.0 0.0
vt 0.0666666701 1.0
vn -1.0 0.0 0.0
vt 0.0708333328 1.0
vn -1.0 0.0 0.0
vt 0.075000003 1.0
vn -1.0 0.0 0.0
vt 0.0791666657 1.0
vn -1.0 0.0 0.0
vt 0.0833333358 1.0
vn -1.0 0.0 0.0
vt 0.0874999985 1.0
vn -1.0 0.0 0.0
vt 0.0916666687 1.0
vn -1.0 0.0 0.0
vt 0.0958333313 1.0
vn -1.0 0.0 0.0
vt 0.100000001 1.0
vn -1.0 0.0 0.0
vt 0.104166664 1.0
vn -1.0 0.0 0.0
vt 0.108333334 1.0
vn -1.0 0.0 0.0
vt 0.112499997 1.0
vn -1.0 0.0 0.0
vt 0.116666667 1.0
vn -1.0 0.0 0.0
vt 0.12083333 1.0
vn -1.0 0.0 0.0
vt 0.125 1.0
vn -1.0 0.0 0.0
vt 0.129166663 1.0
vn -1.0 0.0 0.0
vt 0.13333334 1.0
vn -1.0 0.0 0.0
vt 0.137500003 1.0
vn -1.0 0.0 0.0
vt 0.141666666 1.0
vn -1.0 0.0 0.0
vt 0.145833328 1.0
vn -1.0 0.0 0.0
vt 0.150000006 1.0
vn -1.0 0.0 0.0
vt 0.154166669 1.0
vn -1.0 0.0 0.0
vt 0.158333331 1.0
vn -1.0 0.0 0.0
vt 0.162499994 1.0
vn -1.0 0.0 0.0
vt 0.166666672 1.0
vn -1.0 0.0 0.0
vt 0.170833334 1.0
vn -1.0 0.0 0.0
vt 0.174999997 1.0
vn -1.0 0.0 0.0
vt 0.17916666 1.0
vn -1.0 0.0 0.0
vt 0.183333337 1.0
vn -1.0 0.0 0.0
vt 0.1875 1.0
vn -1.0 0.0 0.0
vt 0.191666663 1.0
vn -1.0 0.0 0.0
vt 0.19583334 1.0
vn -1.0 0.0 0.0
vt 0.200000003 1.0
vn -1.0 0.0 0.0
vt 0.204166666 1.0
vn -1.0 0.0 0.0
vt 0.208333328 1.0
vn -1.0 0.0 0.0
vt 0.212500006 1.0
vn -1.0 0.0 0.0
vt 0.216666669 1.0
vn -1.0 0.0 0.0
vt 0.220833331 1.0
vn -1.0 0.0 0.0
vt 0.224999994 1.0
vn -1.0 0.0 0.0
vt 0.229166672 1.0
vn -1.0 0.0 0.0
vt 0.233333334 1.0
vn -1.0 0.0 0.0
vt 0.237499997 1.0
vn -1.0 0.0 0.0
vt 0.24166666 1.0
vn -1.0 0.0 0.0
vt 0.245833337 1.0
vn -1.0 0.0 0.0
vt 0.25 1.0
vn -1.0 0.0 0.0
vt 0.254166663 1.0
vn -1.0 0.0 0.0
vt 0.258333325 1.0
vn -1.0 0.0 0.0
vt 0.262499988 1.0
vn -1.0 0.0 0.0
vt 0.266666681 1.0
vn -1.0 0.0 0.0
vt 0.270833343 1.0
vn -1.0 0.0 0.0
vt 0.275000006 1.0
vn -1.0 0.0 0.0
vt 0.279166669 1.0
vn -1.0 0.0 0.0
vt 0.283333331 1.0
vn -1.0 0.0 0.0
vt 0.287499994 1.0
vn -1.0 0.0 0.0
vt 0.291666657 1.0
vn -1.0 0.0 0.0
vt 0.295833319 1.0
vn -1.0 0.0 0.0
vt 0.300000012 1.0
vn -1.0 0.0 0.0
vt 0.304166675 1.0
vn -1.0 0.0 0.0
vt 0.308333337 1.0
vn -1.0 0.0 0.0
vt 0.3125 1.0
vn -1.0 0.0 0.0
vt 0.316666663 1.0
vn -1.0 0.0 0.0
vt 0.320833325 1.0
vn -1.0 0.0 0.0
vt 0.324999988 1.0
vn -1.0 0.0 0.0
vt 0.329166681 1.0
vn -1.0 0.0 0.0
vt 0.333333343 1.0
vn -1.0 0.0 0.0
vt 0.337500006 1.0
vn -1.0 0.0 0.0
vt 0.341666669 1.0
vn -1.0 0.0 0.0
vt 0.345833331 1.0
vn -1.0 0.0 0.0
vt 0.349999994 1.0
vn -1.0 0.0 0.0
vt 0.354166657 1.0
vn -1.0 0.0 0.0
vt 0.358333319 1.0
vn -1.0 0.0 0.0
vt 0.362500012 1.0
vn -1.0 0.0 0.0
vt 0.366666675 1.0
vn -1.0 0.0 0.0
vt 0.370833337 1.0
vn -1.0 0.0 0.0
vt 0.375 1.0
vn -1.0 0.0 0.0
vt 0.379166663 1.0
vn -1.0 0.0 0.0
vt 0.383333325 1.0
vn -1.0 0.0 0.0
vt 0.387499988 1.0
vn -1.0 0.0 0.0
vt 0.391666681 1.0
vn -1.0 0.0 0.0
vt 0.395833343 1.0
vn -1.0 0.0 0.0
vt 0.400000006 1.0
vn -1.0 0.0 0.0
vt 0.404166669 1.0
vn -1.0 0.0 0.0
vt 0.408333331 1.0
vn -1.0 0.0 0.0
vt 0.412499994 1.0
vn -1.0 0.0 0.0
vt 0.416666657 1.0
vn -1.0 0.0 0.0
vt 0.420833319 1.0
vn -1.0 0.0 0.0
vt 0.425000012 1.0
vn -1.0 0.0 0.0
vt 0.429166675 1.0
vn -1.0 0.0 0.0
vt 0.433333337 1.0
vn -1.0 0.0 0.0
vt 0.4375 1.0
vn -1.0 0.0 0.0
vt 0.441666663 1.0
vn -1.0 0.0 0.0
vt 0.445833325 1.0
vn -1.0 0.0 0.0
vt 0.449999988 1.0
vn -1.0 0.0 0.0
vt 0.454166681 1.0
vn -1.0 0.0 0.0
vt 0.458333343 1.0
vn -1.0 0.0 0.0
vt 0.462500006 1.0
vn -1.0 0.0 0.0
vt 0.466666669 1.0
vn -1.0 0.0 0.0
vt 0.470833331 1.0
vn -1.0 0.0 0.0
vt 0.474999994 1.0
vn -1.0 0.0 0.0
vt 0.479166657 1.0
vn -1.0 0.0 0.0
vt 0.483333319 1.0
vn -1.0 0.0 0.0
vt 0.487500012 1.0
vn -1.0 0.0 0.0
vt 0.491666675 1.0
vn -1.0 0.0 0.0
vt 0.495833337 1.0
vn -1.0 0.0 0.0
vt 0.5 1.0
vn -1.0 0.0 0.0
vt 0.504166663 1.0
vn -1.0 0.0 0.0
vt 0.508333325 1.0
vn -1.0 0.0 0.0
vt 0.512499988 1.0
vn -1.0 0.0 0.0
vt 0.516666651 1.0
vn -1.0 0.0 0.0
vt 0.520833313 1.0
vn -1.0 0.0 0.0
vt 0.524999976 1.0
vn -1.0 0.0 0.0
vt 0.529166639 1.0
vn -1.0 0.0 0.0
vt 0.533333361 1.0
vn -1.0 0.0 0.0
vt 0.537500024 1.0
vn -1.0 0.0 0.0
vt 0.541666687 1.0
vn -1.0 0.0 0.0
vt 0.545833349 1.0
vn -1.0 0.0 0.0
vt 0.550000012 1.0
vn -1.0 0.0 0.0
vt 0.554166675 1.0
vn -1.0 0.0 0.0
vt 0.558333337 1.0
vn -1.0 0.0 0.0
vt 0.5625 1.0
vn -1.0 0.0 0.0
vt 0.566666663 1.0
vn -1.0 0.0 0.0
vt 0.570833325 1.0
vn -1.0 0.0 0.0
vt 0.574999988 1.0
vn -1.0 0.0 0.0
vt 0.579166651 1.0
vn -1.0 0.0 0.0
vt 0.583333313 1.0
vn -1.0 0.0 0.0
vt 0.587499976 1.0
vn -1.0 0.0 0.0
vt 0.591666639 1.0
vn -1.0 0.0 0.0
vt 0.595833361 1.0
vn -1.0 0.0 0.0
vt 0.600000024 1.0
vn -1.0 0.0 0.0
vt 0.604166687 1.0
vn -1.0 0.0 0.0
vt 0.608333349 1.0
vn -1.0 0.0 0.0
vt 0.612500012 1.0
vn -1.0 0.0 0.0
vt 0.616666675 1.0
vn -1.0 0.0 0.0
vt 0.620833337 1.0
vn -1.0 0.0 0.0
vt 0.625 1.0
vn -1.0 0.0 0.0
vt 0.629166663 1.0
vn -1.0 0.0 0.0
vt 0.633333325 1.0
vn -1.0 0.0 0.0
vt 0.637499988 1.0
vn -1.0 0.0 0.0
vt 0.641666651 1.0
vn -1.0 0.0 0.0
vt 0.645833313 1.0
vn -1.0 0.0 0.0
vt 0.649999976 1.0
vn -1.0 0.0 0.0
vt 0.654166639 1.0
vn -1.0 0.0 0.0
vt 0.658333361 1.0
vn -1.0 0.0 0.0
vt 0.662500024 1.0
vn -1.0 0.0 0.0
vt 0.666666687 1.0
vn -1.0 0.0 0.0
vt 0.670833349 1.0
vn -1.0 0.0 0.0
vt 0.675000012 1.0
vn -1.0 0.0 0.0
vt 0.679166675 1.0
vn -1.0 0.0 0.0
vt 0.683333337 1.0
vn -1.0 0.0 0.0
vt 0.6875 1.0
vn -1.0 0.0 0.0
vt 0.691666663 1.0
vn -1.0 0.0 0.0
vt 0.695833325 1.0
vn -1.0 0.0 0.0
vt 0.699999988 1.0
vn -1.0 0.0 0.0
vt 0.704166651 1.0
vn -1.0 0.0 0.0
vt 0.708333313 1.0
vn -1.0 0.0 0.0
vt 0.712499976 1.0
vn -1.0 0.0 0.0
vt 0.716666639 1.0
vn -1.0 0.0 0.0
vt 0.720833361 1.0
vn -1.0 0.0 0.0
vt 0.725000024 1.0
vn -1.0 0.0 0.0
vt 0.729166687 1.0
vn -1.0 0.0 0.0
vt 0.733333349 1.0
vn -1.0 0.0 0.0
vt 0.737500012 1.0
vn -1.0 0.0 0.0
vt 0.741666675 1.0
vn -1.0 0.0 0.0
vt 0.745833337 1.0
vn -1.0 0.0 0.0
vt 0.75 1.0
vn -1.0 0.0 0.0
vt 0.754166663 1.0
vn -1.0 0.0 0.0
vt 0.758333325 1.0
vn -1.0 0.0 0.0
vt 0.762499988 1.0
vn -1.0 0.0 0.0
vt 0.766666651 1.0
vn -1.0 0.0 0.0
vt 0.770833313 1.0
vn -1.0 0.0 0.0
vt 0.774999976 1.0
vn -1.0 0.0 0.0
vt 0.779166639 1.0
vn -1.0 0.0 0.0
vt 0.783333361 1.0
vn -1.0 0.0 0.0
vt 0.787500024 1.0
vn -1.0 0.0 0.0
vt 0.791666687 1.0
vn -1.0 0.0 0.0
vt 0.795833349 1.0
vn -1.0 0.0 0.0
vt 0.800000012 1.0
vn -1.0 0.0 0.0
vt 0.804166675 1.0
vn -1.0 0.0 0.0
vt 0.808333337 1.0
vn -1.0 0.0 0.0
vt 0.8125 1.0
vn -1.0 0.0 0.0
vt 0.816666663 1.0
vn -1.0 0.0 0.0
vt 0.820833325 1.0
vn -1.0 0.0 0.0
vt 0.824999988 1.0
vn -1.0 0.0 0.0
vt 0.829166651 1.0
vn -1.0 0.0 0.0
vt 0.833333313 1.0
vn -1.0 0.0 0.0
vt 0.837499976 1.0
vn -1.0 0.0 0.0
vt 0.841666639 1.0
vn -1.0 0.0 0.0
vt 0.845833361 1.0
vn -1.0 0.0 0.0
vt 0.850000024 1.0
vn -1.0 0.0 0.0
vt 0.854166687 1.0
vn -1.0 0.0 0.0
vt 0.858333349 1.0
vn -1.0 0.0 0.0
vt 0.862500012 1.0
vn -1.0 0.0 0.0
vt 0.866666675 1.0
vn -1.0 0.0 0.0
vt 0.870833337 1.0
vn -1.0 0.0 0.0
vt 0.875 1.0
vn -1.0 0.0 0.0
vt 0.879166663 1.0
vn -1.0 0.0 0.0
vt 0.883333325 1.0
vn -1.0 0.0 0.0
vt 0.887499988 1.0
vn -1.0 0.0 0.0
vt 0.891666651 1.0
vn -1.0 0.0 0.0
vt 0.895833313 1.0
vn -1.0 0.0 0.0
vt 0.899999976 1.0
vn -1.0 0.0 0.0
vt 0.904166639 1.0
vn -1.0 0.0 0.0
vt 0.908333361 1.0
vn -1.0 0.0 0.0
vt 0.912500024 1.0
vn -1.0 0.0 0.0
vt 0.916666687 1.0
vn -1.0 0.0 0.0
vt 0.920833349 1.0
vn -1.0 0.0 0.0
vt 0.925000012 1.0
vn -1.0 0.0 0.0
vt 0.929166675 1.0
vn -1.0 0.0 0.0
vt 0.933333337 1.0
vn -1.0 0.0 0.0
vt 0.9375 1.0
vn -1.0 0.0 0.0
vt 0.941666663 1.0
vn -1.0 0.0 0.0
vt 0.945833325 1.0
vn -1.0 0.0 0.0
vt 0.949999988 1.0
vn -1.0 0.0 0.0
vt 0.954166651 1.0
vn -1.0 0.0 0.0
vt 0.958333313 1.0
vn -1.0 0.0 0.0
vt 0.962499976 1.0
vn -1.0 0.0 0.0
vt 0.966666639 1.0
vn -1.0 0.0 0.0
vt 0.970833361 1.0
vn -1.0 0.0 0.0
vt 0.975000024 1.0
vn -1.0 0.0 0.0
vt 0.979166687 1.0
vn -1.0 0.0 0.0
vt 0.983333349 1.0
vn -1.0 0.0 0.0
vt 0.987500012 1.0
vn -1.0 0.0 0.0
vt 0.991666675 1.0
vn -1.0 0.0 0.0
vt 0.995833337 1.0
vn -1.0 0.0 0.0
vt 1.0 1.0
vn -1.0 0.0 0.0
f 1/1/1 2/2/2 242/242/242
f 242/242/242 2/2/2 243/243/243
f 2/2/2 3/3/3 243/243/243
f 243/243/243 3/3/3 244/244/244
f 3/3/3 4/4/4 244/244/244
f 244/244/244 4/4/4 245/245/245
f 4/4/4 5/5/5 245/245/245
f 245/245/245 5/5/5 246/246/246
f 5/5/5 6/6/6 246/246/246
f 246/246/246 6/6/6 247/247/247
f 6/6/6 7/7/7 247/247/247
f 247/247/247 7/7/7 248/248/248
f 7/7/7 8/8/8 248/248/248
f 248/248/248 8/8/8 249/249/249
f 8/8/8 9/9/9 249/249/249
f 249/249/249 9/9/9 250/250/250
f 9/9/9 10/10/10 250/250/250
f 250/250/250 10/10/10 251/251/251
f 10/10/10 11/11/11 251/251/251
f 251/251/251 11/11/11 252/252/252
f 11/11/11 12/12/12 252/252/252
f 252/252/252 12/12/12 253/253/253
f 12/12/12 13/13/13 253/253/253
f 253/253/253 13/13/13 254/254/254
f 13/13/13 14/14/14 254/254/254
f 254/254/254 14/14/14 255/255/255
f 14/14/14 15/15/15 255/255/255
f 255/255/255 15/15/15 256/256/256
f 15/15/15 16/16/16 256/256/256
f 256/256/256 16/16/16 257/257/257
f 16/16/16 17/17/17 257/257/257
f 257/257/257 17/17/17 258/258/258
f 17/17/17 18/18/18 258/258/258
f 258/258/258 18/18/18 259/259/259
f 18/18/18 19/19/19 259/259/259
f 259/259/259 19/19/19 260/260/260
f 19/19/19 20/20/20 260/260/260
f 260/260/260 20/20/20 261/261/261
f 20/20/20 21/21/21 261/261/261
f 261/261/261 21/21/21 262/262/262
f 21/21/21 22/22/22 262/262/262
f 262/262/262 22/22/22 263/263/263
f 22/22/22 23/23/23 263/263/263
f 263/263/263 23/23/23 264/264/264
f 23/23/23 24/24/24 264/264/264
f 264/264/264 24/24/24 265/265/265
f 24/24/24 25/25/25 265/265/265
f 265/265/265 25/25/25 266/266/266
f 25/25/25 26/26/26 266/266/266
f 266/266/266 26/26/26 267/267/267
f 26/26/26 27/27/27 267/267/267
f 267/267/267 27/27/27 268/268/268
f 27/27/27 28/28/28 268/268/268
f 268/268/268 28/28/28 269/269/269
f 28/28/28 29/29/29 269/269/269
f 269/269/269 29/29/29 270/270/270
f 29/29/29 30/30/30 270/270/270
f 270/270/270 30/30/30 271/271/271
f 30/30/30 31/31/31 271/271/271
f 271/271/271 31/31/31 272/272/272
f 31/31/31 32/32/32 272/272/272
f 272/272/272 32/32/32 273/273/273
f 32/32/32 33/33/33 273/273/273
f 273/273/273 33/33/33 274/274/274
f 33/33/33 34/34/34 274/274/274
f 274/274/274 34/34/34 275/275/275
f 34/34/34 35/35/35 275/275/275
f 275/275/275 35/35/35 276/276/276
f 35/35/35 36/36/36 276/276/276
f 276/276/276 36/36/36 277/277/277
f 36/36/36 37/37/37 277/277/277
f 277/277/277 37/37/37 278/278/278
f 37/37/37 38/38/38 278/278/278
f 278/278/278 38/38/38 279/279/279
f 38/38/38 39/39/39 279/279/279
f 279/279/279 39/39/39 280/280/280
f 39/39/39 40/40/40 280/280/280
f 280/280/280 40/40/40 281/281/281
f 40/40/40 41/41/41 281/281/281
f 281/281/281 41/41/41 282/282/282
f 41/41/41 42/42/42 282/282/282
f 282/282/282 42/42/42 283/283/283
f 42/42/42 43/43/43 283/283/283
f 283/283/283 43/43/43 284/284/284
f 43/43/43 44/44/44 284/284/284
f 284/284/284 44/44/44 285/285/285
f 44/44/44 45/45/45 285/285/285
f 285/285/285 45/45/45 286/286/286
f 45/45/45 46/46/46 286/286/286
f 286/286/286 46/46/46 287/287/287
f 46/46/46 47/47/47 287/287/287
f 287/287/287 47/47/47 288/288/288
f 47/47/47 48/48/48 288/288/288
f 288/288/288 48/48/48 289/289/289
f 48/48/48 49/49/49 289/289/289
f 289/289/289 49/49/49 290/290/290
f 49/49/49 50/50/50 290/290/290
f 290/290/290 50/50/50 291/291/291
f 50/50/50 51/51/51 291/291/291
f 291/291/291 51/51/51 292/292/292
f 51/51/51 52/52/52 292/292/292
f 292/292/292 52/52/52 293/293/293
f 52/52/52 53/53/53 293/293/293
f 293/293/293 53/53/53 294/294/294
f 53/53/53 54/54/54 294/294/294
f 294/294/294 54/54/54 295/295/295
f 54/54/54 55/55/55 295/295/295
f 295/295/295 55/55/55 296/296/296
f 55/55/55 56/56/56 296/296/296
f 296/296/296 56/56/56 297/297/297
f 56/56/56 57/57/57 297/297/297
f 297/297/297 57/57/57 298/298/298
f 57/57/57 58/58/58 298/298/298
f 298/298/298 58/58/58 299/299/299
f 58/58/58 59/59/59 299/299/299
f 299/299/299 59/59/59 300/300/300
f 59/59/59 60/60/60 300/300/300
f 300/300/300 60/60/60 301/301/301
f 60/60/60 61/61/61 301/301/301
f 301/301/301 61/61/61 302/302/302
f 61/61/61 62/62/62 302/302/302
f 302/302/302 62/62/62 303/303/303
f 62/62/62 63/63/63 303/303/303
f 303/303/303 63/63/63 304/304/304
f 63/63/63 64/64/64 304/304/304
f 304/304/304 64/64/64 305/305/305
f 64/64/64 65/65/65 305/305/305
f 305/305/305 65/65/65 306/306/306
f 65/65/65 66/66/66 306/306/306
f 306/306/306 66/66/66 307/307/307
f 66/66/66 67/67/67 307/307/307
f 307/307/307 67/67/67 308/308/308
f 67/67/67 68/68/68 308/308/308
f 308/308/308 68/68/68 309/309/309
f 68/68/68 69/69/69 309/309/309
f 309/309/309 69/69/69 310/310/310
f 69/69/69 70/70/70 310/310/310
f 310/310/310 70/70/70 311/311/311
f 70/70/70 71/71/71 311/311/311
f 311/311/311 71/71/71 312/312/312
f 71/71/71 72/72/72 312/312/312
f 312/312/312 72/72/72 313/313/313
f 72/72/72 73/73/73 313/313/313
f 313/313/313 73/73/73 314/314/314
f 73/73/73 74/74/74 314/314/314
f 314/314/314 74/74/74 315/315/315
f 74/74/74 75/75/75 315/315/315
f 315/315/315 75/75/75 316/316/316
f 75/75/75 76/76/76 316/316/316
f 316/316/316 76/76/76 317/317/317
f 76/76/76 77/77/77 317/317/317
f 317/317/317 77/77/77 318/318/318
f 77/77/77 78/78/78 318/318/318
f 318/318/318 78/78/78 319/319/319
f 78/78/78 79/79/79 319/319/319
f 319/319/319 79/79/79 320/320/320
f 79/79/79 80/80/80 320/320/320
f 320/320/320 80/80/80 321/321/321
f 80/80/80 81/81/81 321/321/321
f 321/321/321 81/81/81 322/322/322
f 81/81/81 82/82/82 322/322/322
f 322/322/322 82/82/82 323/323/323
f 82/82/82 83/83/83 323/323/323
f 323/323/323 83/83/83 324/324/324
f 83/83/83 84/84/84 324/324/324
f 324/324/324 84/84/84 325/325/325
f 84/84/84 85/85/85 325/325/325
f 325/325/325 85/85/85 326/326/326
f 85/85/85 86/86/86 326/326/326
f 326/326/326 86/86/86 327/327/327
f 86/86/86 87/87/87 327/327/327
f 327/327/327 87/87/87 328/328/328
f 87/87/87 88/88/88 328/328/328
f 328/328/328 88/88/88 329/329/329
f 88/88/88 89/89/89 329/329/329
f 329/329/329 89/89/89 330/330/330
f 89/89/89 90/90/90 330/330/330
f 330/330/330 90/90/90 331/331/331
f 90/90/90 91/91/91 331/331/331
f 331/331/331 91/91/91 332/332/332
f 91/91/91 92/92/92 332/332/332
f 332/332/332 92/92/92 333/333/333
f 92/92/92 93/93/93 333/333/333
f 333/333/333 93/93/93 334/334/334
f 93/93/93 94/94/94 334/334/334
f 334/334/334 94/94/94 335/335/335
f 94/94/94 95/95/95 335/335/335
f 335/335/335 95/95/95 336/336/336
f 95/95/95 96/96/96 336/336/336
f 336/336/336 96/96/96 337/337/337
f 96/96/96 97/97/97 337/337/337
f 337/337/337 97/97/97 338/338/338
f 97/97/97 98/98/98 338/338/338
f 338/338/338 98/98/98 339/339/339
f 98/98/98 99/99/99 339/339/339
f 339/339/339 99/99/99 340/340/340
f 99/99/99 100/100/100 340/340/340
f 340/340/340 100/100/100 341/341/341
f 100/100/100 101/101/101 341/341/341
f 341/341/341 101/101/101 342/342/342
f 101/101/101 102/102/102 342/342/342
f 342/342/342 102/102/102 343/343/343
f 102/102/102 103/103/103 343/343/343
f 343/343/343 103/103/103 344/344/344
f 103/103/103 104/104/104 344/344/344
f 344/344/344 104/104/104 345/345/345
f 104/104/104 105/105/105 345/345/345
f 345/345/345 105/105/105 346/346/346
f 105/105/105 106/106/106 346/346/346
f 346/346/346 106/106/106 347/347/347
f 106/106/106 107/107/107 347/347/347
f 347/347/347 107/107/107 348/348/348
f 107/107/107 108/108/108 348/348/348
f 348/348/348 108/108/108 349/349/349
f 108/108/108 109/109/109 349/349/349
f 349/349/349 109/109/109 350/350/350
f 109/109/109 110/110/110 350/350/350
f 350/350/350 110/110/110 351/351/351
f 110/110/110 111/111/111 351/351/351
f 351/351/351 111/111/111 352/352/352
f 111/111/111 112/112/112 352/352/352
f 352/352/352 112/112/112 353/353/353
f 112/112/112 113/113/113 353/353/353
f 353/353/353 113/113/113 354/354/354
f 113/113/113 114/114/114 354/354/354
f 354/354/354 114/114/114 355/355/355
f 114/114/114 115/115/115 355/355/355
f 355/355/355 115/115/115 356/356/356
f 115/115/115 116/116/116 356/356/356
f 356/356/356 116/116/116 357/357/357
f 116/116/116 117/117/117 357/357/357
f 357/357/357 117/117/117 358/358/358
f 117/117/117 118/118/118 358/358/358
f 358/358/358 118/118/118 359/359/359
f 118/118/118 119/119/119 359/359/359
f 359/359/359 119/119/119 360/360/360
f 119/119/119 120/120/120 360/360/360
f 360/360/360 120/120/120 361/361/361
f 120/120/120 121/121/121 361/361/361
f 361/361/361 121/121/121 362/362/362
f 121/121/121 122/122/122 362/362/362
f 362/362/362 122/122/122 363/363/363
f 122/122/122 123/123/123 363/363/363
f 363/363/363 123/123/123 364/364/364
f 123/123/123 124/124/124 364/364/364
f 364/364/364 124/124/124 365/365/365
f 124/124/124 125/125/125 365/365/365
f 365/365/365 125/125/125 366/366/366
f 125/125/125 126/126/126 366/366/366
f 366/366/366 126/126/126 367/367/367
f 126/126/126 127/127/127 367/367/367
f 367/367/367 127/127/127 368/368/368
f 127/127/127 128/128/128 368/368/368
f 368/368/368 128/128/128 369/369/369
f 128/128/128 129/129/129 369/369/369
f 369/369/369 129/129/129 370/370/370
f 129/129/129 130/130/130 370/370/370
f 370/370/370 130/130/130 371/371/371
f 130/130/130 131/131/131 371/371/371
f 371/371/371 131/131/131 372/372/372
f 131/131/131 132/132/132 372/372/372
f 372/372/372 132/132/132 373/373/373
f 132/132/132 133/133/133 373/373/373
f 373/373/373 133/133/133 374/374/374
f 133/133/133 134/134/134 374/374/374
f 374/374/374 134/134/134 375/375/375
f 134/134/134 135/135/135 375/375/375
f 375/375/375 135/135/135 376/376/376
f 135/135/135 136/136/136 376/376/376
f 376/376/376 136/136/136 377/377/377
f 136/136/136 137/137/137 377/377/377
f 377/377/377 137/137/137 378/378/378
f 137/137/137 138/138/138 378/378/378
f 378/378/378 138/138/138 379/379/379
f 138/138/138 139/139/139 379/379/379
f 379/379/379 139/139/139 380/380/380
f 139/139/139 140/140/140 380/380/380
f 380/380/380 140/140/140 381/381/381
f 140/140/140 141/141/141 381/381/381
f 381/381/381 141/141/141 382/382/382
f 141/141/141 142/142/142 382/382/382
f 382/382/382 142/142/142 383/383/383
f 142/142/142 143/143/143 383/383/383
f 383/383/383 143/143/143 384/384/384
f 143/143/143 144/144/144 384/384/384
f 384/384/384 144/144/144 385/385/385
f 144/144/144 145/145/145 385/385/385
f 385/385/385 145/145/145 386/386/386
f 145/145/145 146/146/146 386/386/386
f 386/386/386 146/146/146 387/387/387
f 146/146/146 147/147/147 387/387/387
f 387/387/387 147/147/147 388/388/388
f 147/147/147 148/148/148 388/388/388
f 388/388/388 148/148/148 389/389/389
f 148/148/148 149/149/149 389/389/389
f 389/389/389 149/149/149 390/390/390
f 149/149/149 150/150/150 390/390/390
f 390/390/390 150/150/150 391/391/391
f 150/150/150 151/151/151 391/391/391
f 391/391/391 151/151/151 392/392/392
f 151/151/151 152/152/152 392/392/392
f 392/392/392 152/152/152 393/393/393
f 152/152/152 153/153/153 393/393/393
f 393/393/393 153/153/153 394/394/394
f 153/153/153 154/154/154 394/394/394
f 394/394/394 154/154/154 395/395/395
f 154/154/154 155/155/155 395/395/395
f 395/395/395 155/155/155 396/396/396
f 155/155/155 156/156/156 396/396/396
f 396/396/396 156/156/156 397/397/397
f 156/156/156 157/157/157 397/397/397
f 397/397/397 157/157/157 398/398/398
f 157/157/157 158/158/158 398/398/398
f 398/398/398 158/158/158 399/399/399
f 158/158/158 159/159/159 399/399/399
f 399/399/399 159/159/159 400/400/400
f 159/159/159 160/160/160 400/400/400
f 400/400/400 160/160/160 401/401/401
f 160/160/160 161/161/161 401/401/401
f 401/401/401 161/161/161 402/402/402
f 161/161/161 162/162/162 402/402/402
f 402/402/402 162/162/162 403/403/403
f 162/162/162 163/163/163 403/403/403
f 403/403/403 163/163/163 404/404/404
f 163/163/163 164/164/164 404/404/404
f 404/404/404 164/164/164 405/405/405
f 164/164/164 165/165/165 405/405/405
f 405/405/405 165/165/165 406/406/406
f 165/165/165 166/166/166 406/406/406
f 406/406/406 166/166/166 407/407/407
f 166/166/166 167/167/167 407/407/407
f 407/407/407 167/167/167 408/408/408
f 167/167/167 168/168/168 408/408/408
f 408/408/408 168/168/168 409/409/409
f 168/168/168 169/169/169 409/409/409
f 409/409/409 169/169/169 410/410/410
f 169/169/169 170/170/170 410/410/410
f 410/410/410 170/170/170 411/411/411
f 170/170/170 171/171/171 411/411/411
f 411/411/411 171/171/171 412/412/412
f 171/171/171 172/172/172 412/412/412
f 412/412/412 172/172/172 413/413/413
f 172/172/172 173/173/173 413/413/413
f 413/413/413 173/173/173 414/414/414
f 173/173/173 174/174/174 414/414/414
f 414/414/414 174/174/174 415/415/415
f 174/174/174 175/175/175 415/415/415
f 415/415/415 175/175/175 416/416/416
f 175/175/175 176/176/176 416/416/416
f 416/416/416 176/176/176 417/417/417
f 176/176/176 177/177/177 417/417/417
f 417/417/417 177/177/177 418/418/418
f 177/177/177 178/178/178 418/418/418
f 418/418/418 178/178/178 419/419/419
f 178/178/178 179/179/179 419/419/419
f 419/419/419 179/179/179 420/420/420
f 179/179/179 180/180/180 420/420/420
f 420/420/420 180/180/180 421/421/421
f 180/180/180 181/181/181 421/421/421
f 421/421/421 181/181/181 422/422/422
f 181/181/181 182/182/182 422/422/422
f 422/422/422 182/182/182 423/423/423
f 182/182/182 183/183/183 423/423/423
f 423/423/423 183/183/183 424/424/424
f 183/183/183 184/184/184 424/424/424
f 424/424/424 184/184/184 425/425/425
f 184/184/184 185/185/185 425/425/425
f 425/425/425 185/185/185 426/426/426
f 185/185/185 186/186/186 426/426/426
f 426/426/426 186/186/186 427/427/427
f 186/186/186 187/187/187 427/427/427
f 427/427/427 187/187/187 428/428/428
f 187/187/187 188/188/188 428/428/428
f 428/428/428 188/188/188 429/429/429
f 188/188/188 189/189/189 429/429/429
f 429/429/429 189/189/189 430/430/430
f 189/189/189 190/190/190 430/430/430
f 430/430/430 190/190/190 431/431/431
f 190/190/190 191/191/191 431/431/431
f 431/431/431 191/191/191 432/432/432
f 191/191/191 192/192/192 432/432/432
f 432/432/432 192/192/192 433/433/433
f 192/192/192 193/193/193 433/433/433
f 433/433/433 193/193/193 434/434/434
f 193/193/193 194/194/194 434/434/434
f 434/434/434 194/194/194 435/435/435
f 194/194/194 195/195/195 435/435/435
f 435/435/435 195/195/195 436/436/436
f 195/195/195 196/196/196 436/436/436
f 436/436/436 196/196/196 437/437/437
f 196/196/196 197/197/197 437/437/437
f 437/437/437 197/197/197 438/438/438
f 197/197/197 198/198/198 438/438/438
f 438/438/438 198/198/198 439/439/439
f 198/198/198 199/199/199 439/439/439
f 439/439/439 199/199/199 440/440/440
f 199/199/199 200/200/200 440/440/440
f 440/440/440 200/200/200 441/441/441
f 200/200/200 201/201/201 441/441/441
f 441/441/441 201/201/201 442/442/442
f 201/201/201 202/202/202 442/442/442
f 442/442/442 202/202/202 443/443/443
f 202/202/202 203/203/203 443/443/443
f 443/443/443 203/203/203 444/444/444
f 203/203/203 204/204/204 444/444/444
f 444/444/444 204/204/204 445/445/445
f 204/204/204 205/205/205 445/445/445
f 445/445/445 205/205/205 446/446/446
f 205/205/205 206/206/206 446/446/446
f 446/446/446 206/206/206 447/447/447
f 206/206/206 207/207/207 447/447/447
f 447/447/447 207/207/207 448/448/448
f 207/207/207 208/208/208 448/448/448
f 448/448/448 208/208/208 449/449/449
f 208/208/208 209/209/209 449/449/449
f 449/449/449 209/209/209 450/450/450
f 209/209/209 210/210/210 450/450/450
f 450/450/450 210/210/210 451/451/451
f 210/210/210 211/211/211 451/451/451
f 451/451/451 211/211/211 452/452/452
f 211/211/211 212/212/212 452/452/452
f 452/452/452 212/212/212 453/453/453
f 212/212/212 213/213/213 453/453/453
f 453/453/453 213/213/213 454/454/454
f 213/213/213 214/214/214 454/454/454
f 454/454/454 214/214/214 455/455/455
f 214/214/214 215/215/215 455/455/455
f 455/455/455 215/215/215 456/456/456
f 215/215/215 216/216/216 456/456/456
f 456/456/456 216/216/216 457/457/457
f 216/216/216 217/217/217 457/457/457
f 457/457/457 217/217/217 458/458/458
f 217/217/217 218/218/218 458/458/458
f 458/458/458 218/218/218 459/459/459
f 218/218/218 219/219/219 459/459/459
f 459/459/459 219/219/219 460/460/460
f 219/219/219 220/220/220 460/460/460
f 460/460/460 220/220/220 461/461/461
f 220/220/220 221/221/221 461/461/461
f 461/461/461 221/221/221 462/462/462
f 221/221/221 222/222/222 462/462/462
f 462/462/462 222/222/222 463/463/463
f 222/222/222 223/223/223 463/463/463
f 463/463/463 223/223/223 464/464/464
f 223/223/223 224/224/224 464/464/464
f 464/464/464 224/224/224 465/465/465
f 224/224/224 225/225/225 465/465/465
f 465/465/465 225/225/225 466/466/466
f 225/225/225 226/226/226 466/466/466
f 466/466/466 226/226/226 467/467/467
f 226/226/226 227/227/227 467/467/467
f 467/467/467 227/227/227 468/468/468
f 227/227/227 228/228/228 468/468/468
f 468/468/468 228/228/228 469/469/469
f 228/228/228 229/229/229 469/469/469
f 469/469/469 229/229/229 470/470/470
f 229/229/229 230/230/230 470/470/470
f 470/470/470 230/230/230 471/471/471
f 230/230/230 231/231/231 471/471/471
f 471/471/471 231/231/231 472/472/472
f 231/231/231 232/232/232 472/472/472
f 472/472/472 232/232/232 473/473/473
f 232/232/232 233/233/233 473/473/473
f 473/473/473 233/233/233 474/474/474
f 233/233/233 234/234/234 474/474/474
f 474/474/474 234/234/234 475/475/475
f 234/234/234 235/235/235 475/475/475
f 475/475/475 235/235/235 476/476/476
f 235/235/235 236/236/236 476/476/476
f 476/476/476 236/236/236 477/477/477
f 236/236/236 237/237/237 477/477/477
f 477/477/477 237/237/237 478/478/478
f 237/237/237 238/238/238 478/478/478
f 478/478/478 238/238/238 479/479/479
f 238/238/238 239/239/239 479/479/479
f 479/479/479 239/239/239 480/480/480
f 239/239/239 240/240/240 480/480/480
f 480/480/480 240/240/240 481/481/481
f 240/240/240 241/241/241 481/481/481
f 481/481/481 241/241/241 482/482/482
