# Sancta editable mesh extracted from the approved reference, cm, Z up
v 0.0 -100.0 100.0
v 0.0 -87.5 100.0
v 0.0 -75.0 100.0
v 0.0 -62.5 100.0
v 0.0 -50.0 100.0
v 0.0 -37.5 100.0
v 0.0 -25.0 100.0
v 0.0 -12.5 100.0
v 0.0 0.0 100.0
v 0.0 12.5 100.0
v 0.0 25.0 100.0
v 0.0 37.5 100.0
v 0.0 50.0 100.0
v 0.0 62.5 100.0
v 0.0 75.0 100.0
v 0.0 87.5 100.0
v 0.0 100.0 100.0
v 0.0 -100.0 -100.0
v 0.0 -87.5 -100.0
v 0.0 -75.0 -100.0
v 0.0 -62.5 -100.0
v 0.0 -50.0 -100.0
v 0.0 -37.5 -100.0
v 0.0 -25.0 -100.0
v 0.0 -12.5 -100.0
v 0.0 0.0 -100.0
v 0.0 12.5 -100.0
v 0.0 25.0 -100.0
v 0.0 37.5 -100.0
v 0.0 50.0 -100.0
v 0.0 62.5 -100.0
v 0.0 75.0 -100.0
v 0.0 87.5 -100.0
v 0.0 100.0 -100.0
vt 0.0 0.0
vn -1.0 0.0 0.0
vt 0.0625 0.0
vn -1.0 0.0 0.0
vt 0.125 0.0
vn -1.0 0.0 0.0
vt 0.1875 0.0
vn -1.0 0.0 0.0
vt 0.25 0.0
vn -1.0 0.0 0.0
vt 0.3125 0.0
vn -1.0 0.0 0.0
vt 0.375 0.0
vn -1.0 0.0 0.0
vt 0.4375 0.0
vn -1.0 0.0 0.0
vt 0.5 0.0
vn -1.0 0.0 0.0
vt 0.5625 0.0
vn -1.0 0.0 0.0
vt 0.625 0.0
vn -1.0 0.0 0.0
vt 0.6875 0.0
vn -1.0 0.0 0.0
vt 0.75 0.0
vn -1.0 0.0 0.0
vt 0.8125 0.0
vn -1.0 0.0 0.0
vt 0.875 0.0
vn -1.0 0.0 0.0
vt 0.9375 0.0
vn -1.0 0.0 0.0
vt 1.0 0.0
vn -1.0 0.0 0.0
vt 0.0 1.0
vn -1.0 0.0 0.0
vt 0.0625 1.0
vn -1.0 0.0 0.0
vt 0.125 1.0
vn -1.0 0.0 0.0
vt 0.1875 1.0
vn -1.0 0.0 0.0
vt 0.25 1.0
vn -1.0 0.0 0.0
vt 0.3125 1.0
vn -1.0 0.0 0.0
vt 0.375 1.0
vn -1.0 0.0 0.0
vt 0.4375 1.0
vn -1.0 0.0 0.0
vt 0.5 1.0
vn -1.0 0.0 0.0
vt 0.5625 1.0
vn -1.0 0.0 0.0
vt 0.625 1.0
vn -1.0 0.0 0.0
vt 0.6875 1.0
vn -1.0 0.0 0.0
vt 0.75 1.0
vn -1.0 0.0 0.0
vt 0.8125 1.0
vn -1.0 0.0 0.0
vt 0.875 1.0
vn -1.0 0.0 0.0
vt 0.9375 1.0
vn -1.0 0.0 0.0
vt 1.0 1.0
vn -1.0 0.0 0.0
f 1/1/1 2/2/2 18/18/18
f 18/18/18 2/2/2 19/19/19
f 2/2/2 3/3/3 19/19/19
f 19/19/19 3/3/3 20/20/20
f 3/3/3 4/4/4 20/20/20
f 20/20/20 4/4/4 21/21/21
f 4/4/4 5/5/5 21/21/21
f 21/21/21 5/5/5 22/22/22
f 5/5/5 6/6/6 22/22/22
f 22/22/22 6/6/6 23/23/23
f 6/6/6 7/7/7 23/23/23
f 23/23/23 7/7/7 24/24/24
f 7/7/7 8/8/8 24/24/24
f 24/24/24 8/8/8 25/25/25
f 8/8/8 9/9/9 25/25/25
f 25/25/25 9/9/9 26/26/26
f 9/9/9 10/10/10 26/26/26
f 26/26/26 10/10/10 27/27/27
f 10/10/10 11/11/11 27/27/27
f 27/27/27 11/11/11 28/28/28
f 11/11/11 12/12/12 28/28/28
f 28/28/28 12/12/12 29/29/29
f 12/12/12 13/13/13 29/29/29
f 29/29/29 13/13/13 30/30/30
f 13/13/13 14/14/14 30/30/30
f 30/30/30 14/14/14 31/31/31
f 14/14/14 15/15/15 31/31/31
f 31/31/31 15/15/15 32/32/32
f 15/15/15 16/16/16 32/32/32
f 32/32/32 16/16/16 33/33/33
f 16/16/16 17/17/17 33/33/33
f 33/33/33 17/17/17 34/34/34
