# Sancta editable mesh extracted from the approved reference, cm, Z up
v 0.0 -100.0 -100.0
v 0.0 -96.875 -100.0
v 0.0 -93.75 -100.0
v 0.0 -90.625 -100.0
v 0.0 -87.5 -100.0
v 0.0 -84.375 -100.0
v 0.0 -81.25 -100.0
v 0.0 -78.125 -100.0
v 0.0 -75.0 -100.0
v 0.0 -71.875 -100.0
v 0.0 -68.75 -100.0
v 0.0 -65.625 -100.0
v 0.0 -62.5 -100.0
v 0.0 -59.375 -100.0
v 0.0 -56.25 -100.0
v 0.0 -53.125 -100.0
v 0.0 -50.0 -100.0
v 0.0 -46.875 -100.0
v 0.0 -43.75 -100.0
v 0.0 -40.625 -100.0
v 0.0 -37.5 -100.0
v 0.0 -34.375 -100.0
v 0.0 -31.25 -100.0
v 0.0 -28.125 -100.0
v 0.0 -25.0 -100.0
v 0.0 -21.875 -100.0
v 0.0 -18.75 -100.0
v 0.0 -15.625 -100.0
v 0.0 -12.5 -100.0
v 0.0 -9.375 -100.0
v 0.0 -6.25 -100.0
v 0.0 -3.125 -100.0
v 0.0 0.0 -100.0
v 0.0 3.125 -100.0
v 0.0 6.25 -100.0
v 0.0 9.375 -100.0
v 0.0 12.5 -100.0
v 0.0 15.625 -100.0
v 0.0 18.75 -100.0
v 0.0 21.875 -100.0
v 0.0 25.0 -100.0
v 0.0 28.125 -100.0
v 0.0 31.25 -100.0
v 0.0 34.375 -100.0
v 0.0 37.5 -100.0
v 0.0 40.625 -100.0
v 0.0 43.75 -100.0
v 0.0 46.875 -100.0
v 0.0 50.0 -100.0
v 0.0 53.125 -100.0
v 0.0 56.25 -100.0
v 0.0 59.375 -100.0
v 0.0 62.5 -100.0
v 0.0 65.625 -100.0
v 0.0 68.75 -100.0
v 0.0 71.875 -100.0
v 0.0 75.0 -100.0
v 0.0 78.125 -100.0
v 0.0 81.25 -100.0
v 0.0 84.375 -100.0
v 0.0 87.5 -100.0
v 0.0 90.625 -100.0
v 0.0 93.75 -100.0
v 0.0 96.875 -100.0
v 0.0 100.0 -100.0
v 0.0 -100.0 100.0
v 0.0 -96.875 100.0
v 0.0 -93.75 100.0
v 0.0 -90.625 100.0
v 0.0 -87.5 100.0
v 0.0 -84.375 100.0
v 0.0 -81.25 100.0
v 0.0 -78.125 100.0
v 0.0 -75.0 100.0
v 0.0 -71.875 100.0
v 0.0 -68.75 100.0
v 0.0 -65.625 100.0
v 0.0 -62.5 100.0
v 0.0 -59.375 100.0
v 0.0 -56.25 100.0
v 0.0 -53.125 100.0
v 0.0 -50.0 100.0
v 0.0 -46.875 100.0
v 0.0 -43.75 100.0
v 0.0 -40.625 100.0
v 0.0 -37.5 100.0
v 0.0 -34.375 100.0
v 0.0 -31.25 100.0
v 0.0 -28.125 100.0
v 0.0 -25.0 100.0
v 0.0 -21.875 100.0
v 0.0 -18.75 100.0
v 0.0 -15.625 100.0
v 0.0 -12.5 100.0
v 0.0 -9.375 100.0
v 0.0 -6.25 100.0
v 0.0 -3.125 100.0
v 0.0 0.0 100.0
v 0.0 3.125 100.0
v 0.0 6.25 100.0
v 0.0 9.375 100.0
v 0.0 12.5 100.0
v 0.0 15.625 100.0
v 0.0 18.75 100.0
v 0.0 21.875 100.0
v 0.0 25.0 100.0
v 0.0 28.125 100.0
v 0.0 31.25 100.0
v 0.0 34.375 100.0
v 0.0 37.5 100.0
v 0.0 40.625 100.0
v 0.0 43.75 100.0
v 0.0 46.875 100.0
v 0.0 50.0 100.0
v 0.0 53.125 100.0
v 0.0 56.25 100.0
v 0.0 59.375 100.0
v 0.0 62.5 100.0
v 0.0 65.625 100.0
v 0.0 68.75 100.0
v 0.0 71.875 100.0
v 0.0 75.0 100.0
v 0.0 78.125 100.0
v 0.0 81.25 100.0
v 0.0 84.375 100.0
v 0.0 87.5 100.0
v 0.0 90.625 100.0
v 0.0 93.75 100.0
v 0.0 96.875 100.0
v 0.0 100.0 100.0
vt 0.0 1.0
vn -1.0 0.0 0.0
vt 0.015625 1.0
vn -1.0 0.0 0.0
vt 0.03125 1.0
vn -1.0 0.0 0.0
vt 0.046875 1.0
vn -1.0 0.0 0.0
vt 0.0625 1.0
vn -1.0 0.0 0.0
vt 0.078125 1.0
vn -1.0 0.0 0.0
vt 0.09375 1.0
vn -1.0 0.0 0.0
vt 0.109375 1.0
vn -1.0 0.0 0.0
vt 0.125 1.0
vn -1.0 0.0 0.0
vt 0.140625 1.0
vn -1.0 0.0 0.0
vt 0.15625 1.0
vn -1.0 0.0 0.0
vt 0.171875 1.0
vn -1.0 0.0 0.0
vt 0.1875 1.0
vn -1.0 0.0 0.0
vt 0.203125 1.0
vn -1.0 0.0 0.0
vt 0.21875 1.0
vn -1.0 0.0 0.0
vt 0.234375 1.0
vn -1.0 0.0 0.0
vt 0.25 1.0
vn -1.0 0.0 0.0
vt 0.265625 1.0
vn -1.0 0.0 0.0
vt 0.28125 1.0
vn -1.0 0.0 0.0
vt 0.296875 1.0
vn -1.0 0.0 0.0
vt 0.3125 1.0
vn -1.0 0.0 0.0
vt 0.328125 1.0
vn -1.0 0.0 0.0
vt 0.34375 1.0
vn -1.0 0.0 0.0
vt 0.359375 1.0
vn -1.0 0.0 0.0
vt 0.375 1.0
vn -1.0 0.0 0.0
vt 0.390625 1.0
vn -1.0 0.0 0.0
vt 0.40625 1.0
vn -1.0 0.0 0.0
vt 0.421875 1.0
vn -1.0 0.0 0.0
vt 0.4375 1.0
vn -1.0 0.0 0.0
vt 0.453125 1.0
vn -1.0 0.0 0.0
vt 0.46875 1.0
vn -1.0 0.0 0.0
vt 0.484375 1.0
vn -1.0 0.0 0.0
vt 0.5 1.0
vn -1.0 0.0 0.0
vt 0.515625 1.0
vn -1.0 0.0 0.0
vt 0.53125 1.0
vn -1.0 0.0 0.0
vt 0.546875 1.0
vn -1.0 0.0 0.0
vt 0.5625 1.0
vn -1.0 0.0 0.0
vt 0.578125 1.0
vn -1.0 0.0 0.0
vt 0.59375 1.0
vn -1.0 0.0 0.0
vt 0.609375 1.0
vn -1.0 0.0 0.0
vt 0.625 1.0
vn -1.0 0.0 0.0
vt 0.640625 1.0
vn -1.0 0.0 0.0
vt 0.65625 1.0
vn -1.0 0.0 0.0
vt 0.671875 1.0
vn -1.0 0.0 0.0
vt 0.6875 1.0
vn -1.0 0.0 0.0
vt 0.703125 1.0
vn -1.0 0.0 0.0
vt 0.71875 1.0
vn -1.0 0.0 0.0
vt 0.734375 1.0
vn -1.0 0.0 0.0
vt 0.75 1.0
vn -1.0 0.0 0.0
vt 0.765625 1.0
vn -1.0 0.0 0.0
vt 0.78125 1.0
vn -1.0 0.0 0.0
vt 0.796875 1.0
vn -1.0 0.0 0.0
vt 0.8125 1.0
vn -1.0 0.0 0.0
vt 0.828125 1.0
vn -1.0 0.0 0.0
vt 0.84375 1.0
vn -1.0 0.0 0.0
vt 0.859375 1.0
vn -1.0 0.0 0.0
vt 0.875 1.0
vn -1.0 0.0 0.0
vt 0.890625 1.0
vn -1.0 0.0 0.0
vt 0.90625 1.0
vn -1.0 0.0 0.0
vt 0.921875 1.0
vn -1.0 0.0 0.0
vt 0.9375 1.0
vn -1.0 0.0 0.0
vt 0.953125 1.0
vn -1.0 0.0 0.0
vt 0.96875 1.0
vn -1.0 0.0 0.0
vt 0.984375 1.0
vn -1.0 0.0 0.0
vt 1.0 1.0
vn -1.0 0.0 0.0
vt 0.0 0.0
vn -1.0 0.0 0.0
vt 0.015625 0.0
vn -1.0 0.0 0.0
vt 0.03125 0.0
vn -1.0 0.0 0.0
vt 0.046875 0.0
vn -1.0 0.0 0.0
vt 0.0625 0.0
vn -1.0 0.0 0.0
vt 0.078125 0.0
vn -1.0 0.0 0.0
vt 0.09375 0.0
vn -1.0 0.0 0.0
vt 0.109375 0.0
vn -1.0 0.0 0.0
vt 0.125 0.0
vn -1.0 0.0 0.0
vt 0.140625 0.0
vn -1.0 0.0 0.0
vt 0.15625 0.0
vn -1.0 0.0 0.0
vt 0.171875 0.0
vn -1.0 0.0 0.0
vt 0.1875 0.0
vn -1.0 0.0 0.0
vt 0.203125 0.0
vn -1.0 0.0 0.0
vt 0.21875 0.0
vn -1.0 0.0 0.0
vt 0.234375 0.0
vn -1.0 0.0 0.0
vt 0.25 0.0
vn -1.0 0.0 0.0
vt 0.265625 0.0
vn -1.0 0.0 0.0
vt 0.28125 0.0
vn -1.0 0.0 0.0
vt 0.296875 0.0
vn -1.0 0.0 0.0
vt 0.3125 0.0
vn -1.0 0.0 0.0
vt 0.328125 0.0
vn -1.0 0.0 0.0
vt 0.34375 0.0
vn -1.0 0.0 0.0
vt 0.359375 0.0
vn -1.0 0.0 0.0
vt 0.375 0.0
vn -1.0 0.0 0.0
vt 0.390625 0.0
vn -1.0 0.0 0.0
vt 0.40625 0.0
vn -1.0 0.0 0.0
vt 0.421875 0.0
vn -1.0 0.0 0.0
vt 0.4375 0.0
vn -1.0 0.0 0.0
vt 0.453125 0.0
vn -1.0 0.0 0.0
vt 0.46875 0.0
vn -1.0 0.0 0.0
vt 0.484375 0.0
vn -1.0 0.0 0.0
vt 0.5 0.0
vn -1.0 0.0 0.0
vt 0.515625 0.0
vn -1.0 0.0 0.0
vt 0.53125 0.0
vn -1.0 0.0 0.0
vt 0.546875 0.0
vn -1.0 0.0 0.0
vt 0.5625 0.0
vn -1.0 0.0 0.0
vt 0.578125 0.0
vn -1.0 0.0 0.0
vt 0.59375 0.0
vn -1.0 0.0 0.0
vt 0.609375 0.0
vn -1.0 0.0 0.0
vt 0.625 0.0
vn -1.0 0.0 0.0
vt 0.640625 0.0
vn -1.0 0.0 0.0
vt 0.65625 0.0
vn -1.0 0.0 0.0
vt 0.671875 0.0
vn -1.0 0.0 0.0
vt 0.6875 0.0
vn -1.0 0.0 0.0
vt 0.703125 0.0
vn -1.0 0.0 0.0
vt 0.71875 0.0
vn -1.0 0.0 0.0
vt 0.734375 0.0
vn -1.0 0.0 0.0
vt 0.75 0.0
vn -1.0 0.0 0.0
vt 0.765625 0.0
vn -1.0 0.0 0.0
vt 0.78125 0.0
vn -1.0 0.0 0.0
vt 0.796875 0.0
vn -1.0 0.0 0.0
vt 0.8125 0.0
vn -1.0 0.0 0.0
vt 0.828125 0.0
vn -1.0 0.0 0.0
vt 0.84375 0.0
vn -1.0 0.0 0.0
vt 0.859375 0.0
vn -1.0 0.0 0.0
vt 0.875 0.0
vn -1.0 0.0 0.0
vt 0.890625 0.0
vn -1.0 0.0 0.0
vt 0.90625 0.0
vn -1.0 0.0 0.0
vt 0.921875 0.0
vn -1.0 0.0 0.0
vt 0.9375 0.0
vn -1.0 0.0 0.0
vt 0.953125 0.0
vn -1.0 0.0 0.0
vt 0.96875 0.0
vn -1.0 0.0 0.0
vt 0.984375 0.0
vn -1.0 0.0 0.0
vt 1.0 0.0
vn -1.0 0.0 0.0
f 1/1/1 67/67/67 2/2/2
f 1/1/1 66/66/66 67/67/67
f 2/2/2 68/68/68 3/3/3
f 2/2/2 67/67/67 68/68/68
f 3/3/3 69/69/69 4/4/4
f 3/3/3 68/68/68 69/69/69
f 4/4/4 70/70/70 5/5/5
f 4/4/4 69/69/69 70/70/70
f 5/5/5 71/71/71 6/6/6
f 5/5/5 70/70/70 71/71/71
f 6/6/6 72/72/72 7/7/7
f 6/6/6 71/71/71 72/72/72
f 7/7/7 73/73/73 8/8/8
f 7/7/7 72/72/72 73/73/73
f 8/8/8 74/74/74 9/9/9
f 8/8/8 73/73/73 74/74/74
f 9/9/9 75/75/75 10/10/10
f 9/9/9 74/74/74 75/75/75
f 10/10/10 76/76/76 11/11/11
f 10/10/10 75/75/75 76/76/76
f 11/11/11 77/77/77 12/12/12
f 11/11/11 76/76/76 77/77/77
f 12/12/12 78/78/78 13/13/13
f 12/12/12 77/77/77 78/78/78
f 13/13/13 79/79/79 14/14/14
f 13/13/13 78/78/78 79/79/79
f 14/14/14 80/80/80 15/15/15
f 14/14/14 79/79/79 80/80/80
f 15/15/15 81/81/81 16/16/16
f 15/15/15 80/80/80 81/81/81
f 16/16/16 82/82/82 17/17/17
f 16/16/16 81/81/81 82/82/82
f 17/17/17 83/83/83 18/18/18
f 17/17/17 82/82/82 83/83/83
f 18/18/18 84/84/84 19/19/19
f 18/18/18 83/83/83 84/84/84
f 19/19/19 85/85/85 20/20/20
f 19/19/19 84/84/84 85/85/85
f 20/20/20 86/86/86 21/21/21
f 20/20/20 85/85/85 86/86/86
f 21/21/21 87/87/87 22/22/22
f 21/21/21 86/86/86 87/87/87
f 22/22/22 88/88/88 23/23/23
f 22/22/22 87/87/87 88/88/88
f 23/23/23 89/89/89 24/24/24
f 23/23/23 88/88/88 89/89/89
f 24/24/24 90/90/90 25/25/25
f 24/24/24 89/89/89 90/90/90
f 25/25/25 91/91/91 26/26/26
f 25/25/25 90/90/90 91/91/91
f 26/26/26 92/92/92 27/27/27
f 26/26/26 91/91/91 92/92/92
f 27/27/27 93/93/93 28/28/28
f 27/27/27 92/92/92 93/93/93
f 28/28/28 94/94/94 29/29/29
f 28/28/28 93/93/93 94/94/94
f 29/29/29 95/95/95 30/30/30
f 29/29/29 94/94/94 95/95/95
f 30/30/30 96/96/96 31/31/31
f 30/30/30 95/95/95 96/96/96
f 31/31/31 97/97/97 32/32/32
f 31/31/31 96/96/96 97/97/97
f 32/32/32 98/98/98 33/33/33
f 32/32/32 97/97/97 98/98/98
f 33/33/33 99/99/99 34/34/34
f 33/33/33 98/98/98 99/99/99
f 34/34/34 100/100/100 35/35/35
f 34/34/34 99/99/99 100/100/100
f 35/35/35 101/101/101 36/36/36
f 35/35/35 100/100/100 101/101/101
f 36/36/36 102/102/102 37/37/37
f 36/36/36 101/101/101 102/102/102
f 37/37/37 103/103/103 38/38/38
f 37/37/37 102/102/102 103/103/103
f 38/38/38 104/104/104 39/39/39
f 38/38/38 103/103/103 104/104/104
f 39/39/39 105/105/105 40/40/40
f 39/39/39 104/104/104 105/105/105
f 40/40/40 106/106/106 41/41/41
f 40/40/40 105/105/105 106/106/106
f 41/41/41 107/107/107 42/42/42
f 41/41/41 106/106/106 107/107/107
f 42/42/42 108/108/108 43/43/43
f 42/42/42 107/107/107 108/108/108
f 43/43/43 109/109/109 44/44/44
f 43/43/43 108/108/108 109/109/109
f 44/44/44 110/110/110 45/45/45
f 44/44/44 109/109/109 110/110/110
f 45/45/45 111/111/111 46/46/46
f 45/45/45 110/110/110 111/111/111
f 46/46/46 112/112/112 47/47/47
f 46/46/46 111/111/111 112/112/112
f 47/47/47 113/113/113 48/48/48
f 47/47/47 112/112/112 113/113/113
f 48/48/48 114/114/114 49/49/49
f 48/48/48 113/113/113 114/114/114
f 49/49/49 115/115/115 50/50/50
f 49/49/49 114/114/114 115/115/115
f 50/50/50 116/116/116 51/51/51
f 50/50/50 115/115/115 116/116/116
f 51/51/51 117/117/117 52/52/52
f 51/51/51 116/116/116 117/117/117
f 52/52/52 118/118/118 53/53/53
f 52/52/52 117/117/117 118/118/118
f 53/53/53 119/119/119 54/54/54
f 53/53/53 118/118/118 119/119/119
f 54/54/54 120/120/120 55/55/55
f 54/54/54 119/119/119 120/120/120
f 55/55/55 121/121/121 56/56/56
f 55/55/55 120/120/120 121/121/121
f 56/56/56 122/122/122 57/57/57
f 56/56/56 121/121/121 122/122/122
f 57/57/57 123/123/123 58/58/58
f 57/57/57 122/122/122 123/123/123
f 58/58/58 124/124/124 59/59/59
f 58/58/58 123/123/123 124/124/124
f 59/59/59 125/125/125 60/60/60
f 59/59/59 124/124/124 125/125/125
f 60/60/60 126/126/126 61/61/61
f 60/60/60 125/125/125 126/126/126
f 61/61/61 127/127/127 62/62/62
f 61/61/61 126/126/126 127/127/127
f 62/62/62 128/128/128 63/63/63
f 62/62/62 127/127/127 128/128/128
f 63/63/63 129/129/129 64/64/64
f 63/63/63 128/128/128 129/129/129
f 64/64/64 130/130/130 65/65/65
f 64/64/64 129/129/129 130/130/130
