# Sancta editable mesh extracted from the approved reference, cm, Z up
v 0.0 -100.0 100.0
v 0.0 -96.875 100.0
v 0.0 -93.75 100.0
v 0.0 -90.625 100.0
v 0.0 -87.5 100.0
v 0.0 -84.375 100.0
v 0.0 -81.25 100.0
v 0.0 -78.125 100.0
v 0.0 -75.0 100.0
v 0.0 -71.875 100.0
v 0.0 -68.75 100.0
v 0.0 -65.625 100.0
v 0.0 -62.5 100.0
v 0.0 -59.375 100.0
v 0.0 -56.25 100.0
v 0.0 -53.125 100.0
v 0.0 -50.0 100.0
v 0.0 -46.875 100.0
v 0.0 -43.75 100.0
v 0.0 -40.625 100.0
v 0.0 -37.5 100.0
v 0.0 -34.375 100.0
v 0.0 -31.25 100.0
v 0.0 -28.125 100.0
v 0.0 -25.0 100.0
v 0.0 -21.875 100.0
v 0.0 -18.75 100.0
v 0.0 -15.625 100.0
v 0.0 -12.5 100.0
v 0.0 -9.375 100.0
v 0.0 -6.25 100.0
v 0.0 -3.125 100.0
v 0.0 0.0 100.0
v 0.0 3.125 100.0
v 0.0 6.25 100.0
v 0.0 9.375 100.0
v 0.0 12.5 100.0
v 0.0 15.625 100.0
v 0.0 18.75 100.0
v 0.0 21.875 100.0
v 0.0 25.0 100.0
v 0.0 28.125 100.0
v 0.0 31.25 100.0
v 0.0 34.375 100.0
v 0.0 37.5 100.0
v 0.0 40.625 100.0
v 0.0 43.75 100.0
v 0.0 46.875 100.0
v 0.0 50.0 100.0
v 0.0 53.125 100.0
v 0.0 56.25 100.0
v 0.0 59.375 100.0
v 0.0 62.5 100.0
v 0.0 65.625 100.0
v 0.0 68.75 100.0
v 0.0 71.875 100.0
v 0.0 75.0 100.0
v 0.0 78.125 100.0
v 0.0 81.25 100.0
v 0.0 84.375 100.0
v 0.0 87.5 100.0
v 0.0 90.625 100.0
v 0.0 93.75 100.0
v 0.0 96.875 100.0
v 0.0 100.0 100.0
v 0.0 -100.0 -100.0
v 0.0 -96.875 -100.0
v 0.0 -93.75 -100.0
v 0.0 -90.625 -100.0
v 0.0 -87.5 -100.0
v 0.0 -84.375 -100.0
v 0.0 -81.25 -100.0
v 0.0 -78.125 -100.0
v 0.0 -75.0 -100.0
v 0.0 -71.875 -100.0
v 0.0 -68.75 -100.0
v 0.0 -65.625 -100.0
v 0.0 -62.5 -100.0
v 0.0 -59.375 -100.0
v 0.0 -56.25 -100.0
v 0.0 -53.125 -100.0
v 0.0 -50.0 -100.0
v 0.0 -46.875 -100.0
v 0.0 -43.75 -100.0
v 0.0 -40.625 -100.0
v 0.0 -37.5 -100.0
v 0.0 -34.375 -100.0
v 0.0 -31.25 -100.0
v 0.0 -28.125 -100.0
v 0.0 -25.0 -100.0
v 0.0 -21.875 -100.0
v 0.0 -18.75 -100.0
v 0.0 -15.625 -100.0
v 0.0 -12.5 -100.0
v 0.0 -9.375 -100.0
v 0.0 -6.25 -100.0
v 0.0 -3.125 -100.0
v 0.0 0.0 -100.0
v 0.0 3.125 -100.0
v 0.0 6.25 -100.0
v 0.0 9.375 -100.0
v 0.0 12.5 -100.0
v 0.0 15.625 -100.0
v 0.0 18.75 -100.0
v 0.0 21.875 -100.0
v 0.0 25.0 -100.0
v 0.0 28.125 -100.0
v 0.0 31.25 -100.0
v 0.0 34.375 -100.0
v 0.0 37.5 -100.0
v 0.0 40.625 -100.0
v 0.0 43.75 -100.0
v 0.0 46.875 -100.0
v 0.0 50.0 -100.0
v 0.0 53.125 -100.0
v 0.0 56.25 -100.0
v 0.0 59.375 -100.0
v 0.0 62.5 -100.0
v 0.0 65.625 -100.0
v 0.0 68.75 -100.0
v 0.0 71.875 -100.0
v 0.0 75.0 -100.0
v 0.0 78.125 -100.0
v 0.0 81.25 -100.0
v 0.0 84.375 -100.0
v 0.0 87.5 -100.0
v 0.0 90.625 -100.0
v 0.0 93.75 -100.0
v 0.0 96.875 -100.0
v 0.0 100.0 -100.0
vt 0.0 0.0
vn -1.0 0.0 0.0
vt 0.015625 0.0
vn -1.0 0.0 0.0
vt 0.03125 0.0
vn -1.0 0.0 0.0
vt 0.046875 0.0
vn -1.0 0.0 0.0
vt 0.0625 0.0
vn -1.0 0.0 0.0
vt 0.078125 0.0
vn -1.0 0.0 0.0
vt 0.09375 0.0
vn -1.0 0.0 0.0
vt 0.109375 0.0
vn -1.0 0.0 0.0
vt 0.125 0.0
vn -1.0 0.0 0.0
vt 0.140625 0.0
vn -1.0 0.0 0.0
vt 0.15625 0.0
vn -1.0 0.0 0.0
vt 0.171875 0.0
vn -1.0 0.0 0.0
vt 0.1875 0.0
vn -1.0 0.0 0.0
vt 0.203125 0.0
vn -1.0 0.0 0.0
vt 0.21875 0.0
vn -1.0 0.0 0.0
vt 0.234375 0.0
vn -1.0 0.0 0.0
vt 0.25 0.0
vn -1.0 0.0 0.0
vt 0.265625 0.0
vn -1.0 0.0 0.0
vt 0.28125 0.0
vn -1.0 0.0 0.0
vt 0.296875 0.0
vn -1.0 0.0 0.0
vt 0.3125 0.0
vn -1.0 0.0 0.0
vt 0.328125 0.0
vn -1.0 0.0 0.0
vt 0.34375 0.0
vn -1.0 0.0 0.0
vt 0.359375 0.0
vn -1.0 0.0 0.0
vt 0.375 0.0
vn -1.0 0.0 0.0
vt 0.390625 0.0
vn -1.0 0.0 0.0
vt 0.40625 0.0
vn -1.0 0.0 0.0
vt 0.421875 0.0
vn -1.0 0.0 0.0
vt 0.4375 0.0
vn -1.0 0.0 0.0
vt 0.453125 0.0
vn -1.0 0.0 0.0
vt 0.46875 0.0
vn -1.0 0.0 0.0
vt 0.484375 0.0
vn -1.0 0.0 0.0
vt 0.5 0.0
vn -1.0 0.0 0.0
vt 0.515625 0.0
vn -1.0 0.0 0.0
vt 0.53125 0.0
vn -1.0 0.0 0.0
vt 0.546875 0.0
vn -1.0 0.0 0.0
vt 0.5625 0.0
vn -1.0 0.0 0.0
vt 0.578125 0.0
vn -1.0 0.0 0.0
vt 0.59375 0.0
vn -1.0 0.0 0.0
vt 0.609375 0.0
vn -1.0 0.0 0.0
vt 0.625 0.0
vn -1.0 0.0 0.0
vt 0.640625 0.0
vn -1.0 0.0 0.0
vt 0.65625 0.0
vn -1.0 0.0 0.0
vt 0.671875 0.0
vn -1.0 0.0 0.0
vt 0.6875 0.0
vn -1.0 0.0 0.0
vt 0.703125 0.0
vn -1.0 0.0 0.0
vt 0.71875 0.0
vn -1.0 0.0 0.0
vt 0.734375 0.0
vn -1.0 0.0 0.0
vt 0.75 0.0
vn -1.0 0.0 0.0
vt 0.765625 0.0
vn -1.0 0.0 0.0
vt 0.78125 0.0
vn -1.0 0.0 0.0
vt 0.796875 0.0
vn -1.0 0.0 0.0
vt 0.8125 0.0
vn -1.0 0.0 0.0
vt 0.828125 0.0
vn -1.0 0.0 0.0
vt 0.84375 0.0
vn -1.0 0.0 0.0
vt 0.859375 0.0
vn -1.0 0.0 0.0
vt 0.875 0.0
vn -1.0 0.0 0.0
vt 0.890625 0.0
vn -1.0 0.0 0.0
vt 0.90625 0.0
vn -1.0 0.0 0.0
vt 0.921875 0.0
vn -1.0 0.0 0.0
vt 0.9375 0.0
vn -1.0 0.0 0.0
vt 0.953125 0.0
vn -1.0 0.0 0.0
vt 0.96875 0.0
vn -1.0 0.0 0.0
vt 0.984375 0.0
vn -1.0 0.0 0.0
vt 1.0 0.0
vn -1.0 0.0 0.0
vt 0.0 1.0
vn -1.0 0.0 0.0
vt 0.015625 1.0
vn -1.0 0.0 0.0
vt 0.03125 1.0
vn -1.0 0.0 0.0
vt 0.046875 1.0
vn -1.0 0.0 0.0
vt 0.0625 1.0
vn -1.0 0.0 0.0
vt 0.078125 1.0
vn -1.0 0.0 0.0
vt 0.09375 1.0
vn -1.0 0.0 0.0
vt 0.109375 1.0
vn -1.0 0.0 0.0
vt 0.125 1.0
vn -1.0 0.0 0.0
vt 0.140625 1.0
vn -1.0 0.0 0.0
vt 0.15625 1.0
vn -1.0 0.0 0.0
vt 0.171875 1.0
vn -1.0 0.0 0.0
vt 0.1875 1.0
vn -1.0 0.0 0.0
vt 0.203125 1.0
vn -1.0 0.0 0.0
vt 0.21875 1.0
vn -1.0 0.0 0.0
vt 0.234375 1.0
vn -1.0 0.0 0.0
vt 0.25 1.0
vn -1.0 0.0 0.0
vt 0.265625 1.0
vn -1.0 0.0 0.0
vt 0.28125 1.0
vn -1.0 0.0 0.0
vt 0.296875 1.0
vn -1.0 0.0 0.0
vt 0.3125 1.0
vn -1.0 0.0 0.0
vt 0.328125 1.0
vn -1.0 0.0 0.0
vt 0.34375 1.0
vn -1.0 0.0 0.0
vt 0.359375 1.0
vn -1.0 0.0 0.0
vt 0.375 1.0
vn -1.0 0.0 0.0
vt 0.390625 1.0
vn -1.0 0.0 0.0
vt 0.40625 1.0
vn -1.0 0.0 0.0
vt 0.421875 1.0
vn -1.0 0.0 0.0
vt 0.4375 1.0
vn -1.0 0.0 0.0
vt 0.453125 1.0
vn -1.0 0.0 0.0
vt 0.46875 1.0
vn -1.0 0.0 0.0
vt 0.484375 1.0
vn -1.0 0.0 0.0
vt 0.5 1.0
vn -1.0 0.0 0.0
vt 0.515625 1.0
vn -1.0 0.0 0.0
vt 0.53125 1.0
vn -1.0 0.0 0.0
vt 0.546875 1.0
vn -1.0 0.0 0.0
vt 0.5625 1.0
vn -1.0 0.0 0.0
vt 0.578125 1.0
vn -1.0 0.0 0.0
vt 0.59375 1.0
vn -1.0 0.0 0.0
vt 0.609375 1.0
vn -1.0 0.0 0.0
vt 0.625 1.0
vn -1.0 0.0 0.0
vt 0.640625 1.0
vn -1.0 0.0 0.0
vt 0.65625 1.0
vn -1.0 0.0 0.0
vt 0.671875 1.0
vn -1.0 0.0 0.0
vt 0.6875 1.0
vn -1.0 0.0 0.0
vt 0.703125 1.0
vn -1.0 0.0 0.0
vt 0.71875 1.0
vn -1.0 0.0 0.0
vt 0.734375 1.0
vn -1.0 0.0 0.0
vt 0.75 1.0
vn -1.0 0.0 0.0
vt 0.765625 1.0
vn -1.0 0.0 0.0
vt 0.78125 1.0
vn -1.0 0.0 0.0
vt 0.796875 1.0
vn -1.0 0.0 0.0
vt 0.8125 1.0
vn -1.0 0.0 0.0
vt 0.828125 1.0
vn -1.0 0.0 0.0
vt 0.84375 1.0
vn -1.0 0.0 0.0
vt 0.859375 1.0
vn -1.0 0.0 0.0
vt 0.875 1.0
vn -1.0 0.0 0.0
vt 0.890625 1.0
vn -1.0 0.0 0.0
vt 0.90625 1.0
vn -1.0 0.0 0.0
vt 0.921875 1.0
vn -1.0 0.0 0.0
vt 0.9375 1.0
vn -1.0 0.0 0.0
vt 0.953125 1.0
vn -1.0 0.0 0.0
vt 0.96875 1.0
vn -1.0 0.0 0.0
vt 0.984375 1.0
vn -1.0 0.0 0.0
vt 1.0 1.0
vn -1.0 0.0 0.0
f 1/1/1 2/2/2 66/66/66
f 66/66/66 2/2/2 67/67/67
f 2/2/2 3/3/3 67/67/67
f 67/67/67 3/3/3 68/68/68
f 3/3/3 4/4/4 68/68/68
f 68/68/68 4/4/4 69/69/69
f 4/4/4 5/5/5 69/69/69
f 69/69/69 5/5/5 70/70/70
f 5/5/5 6/6/6 70/70/70
f 70/70/70 6/6/6 71/71/71
f 6/6/6 7/7/7 71/71/71
f 71/71/71 7/7/7 72/72/72
f 7/7/7 8/8/8 72/72/72
f 72/72/72 8/8/8 73/73/73
f 8/8/8 9/9/9 73/73/73
f 73/73/73 9/9/9 74/74/74
f 9/9/9 10/10/10 74/74/74
f 74/74/74 10/10/10 75/75/75
f 10/10/10 11/11/11 75/75/75
f 75/75/75 11/11/11 76/76/76
f 11/11/11 12/12/12 76/76/76
f 76/76/76 12/12/12 77/77/77
f 12/12/12 13/13/13 77/77/77
f 77/77/77 13/13/13 78/78/78
f 13/13/13 14/14/14 78/78/78
f 78/78/78 14/14/14 79/79/79
f 14/14/14 15/15/15 79/79/79
f 79/79/79 15/15/15 80/80/80
f 15/15/15 16/16/16 80/80/80
f 80/80/80 16/16/16 81/81/81
f 16/16/16 17/17/17 81/81/81
f 81/81/81 17/17/17 82/82/82
f 17/17/17 18/18/18 82/82/82
f 82/82/82 18/18/18 83/83/83
f 18/18/18 19/19/19 83/83/83
f 83/83/83 19/19/19 84/84/84
f 19/19/19 20/20/20 84/84/84
f 84/84/84 20/20/20 85/85/85
f 20/20/20 21/21/21 85/85/85
f 85/85/85 21/21/21 86/86/86
f 21/21/21 22/22/22 86/86/86
f 86/86/86 22/22/22 87/87/87
f 22/22/22 23/23/23 87/87/87
f 87/87/87 23/23/23 88/88/88
f 23/23/23 24/24/24 88/88/88
f 88/88/88 24/24/24 89/89/89
f 24/24/24 25/25/25 89/89/89
f 89/89/89 25/25/25 90/90/90
f 25/25/25 26/26/26 90/90/90
f 90/90/90 26/26/26 91/91/91
f 26/26/26 27/27/27 91/91/91
f 91/91/91 27/27/27 92/92/92
f 27/27/27 28/28/28 92/92/92
f 92/92/92 28/28/28 93/93/93
f 28/28/28 29/29/29 93/93/93
f 93/93/93 29/29/29 94/94/94
f 29/29/29 30/30/30 94/94/94
f 94/94/94 30/30/30 95/95/95
f 30/30/30 31/31/31 95/95/95
f 95/95/95 31/31/31 96/96/96
f 31/31/31 32/32/32 96/96/96
f 96/96/96 32/32/32 97/97/97
f 32/32/32 33/33/33 97/97/97
f 97/97/97 33/33/33 98/98/98
f 33/33/33 34/34/34 98/98/98
f 98/98/98 34/34/34 99/99/99
f 34/34/34 35/35/35 99/99/99
f 99/99/99 35/35/35 100/100/100
f 35/35/35 36/36/36 100/100/100
f 100/100/100 36/36/36 101/101/101
f 36/36/36 37/37/37 101/101/101
f 101/101/101 37/37/37 102/102/102
f 37/37/37 38/38/38 102/102/102
f 102/102/102 38/38/38 103/103/103
f 38/38/38 39/39/39 103/103/103
f 103/103/103 39/39/39 104/104/104
f 39/39/39 40/40/40 104/104/104
f 104/104/104 40/40/40 105/105/105
f 40/40/40 41/41/41 105/105/105
f 105/105/105 41/41/41 106/106/106
f 41/41/41 42/42/42 106/106/106
f 106/106/106 42/42/42 107/107/107
f 42/42/42 43/43/43 107/107/107
f 107/107/107 43/43/43 108/108/108
f 43/43/43 44/44/44 108/108/108
f 108/108/108 44/44/44 109/109/109
f 44/44/44 45/45/45 109/109/109
f 109/109/109 45/45/45 110/110/110
f 45/45/45 46/46/46 110/110/110
f 110/110/110 46/46/46 111/111/111
f 46/46/46 47/47/47 111/111/111
f 111/111/111 47/47/47 112/112/112
f 47/47/47 48/48/48 112/112/112
f 112/112/112 48/48/48 113/113/113
f 48/48/48 49/49/49 113/113/113
f 113/113/113 49/49/49 114/114/114
f 49/49/49 50/50/50 114/114/114
f 114/114/114 50/50/50 115/115/115
f 50/50/50 51/51/51 115/115/115
f 115/115/115 51/51/51 116/116/116
f 51/51/51 52/52/52 116/116/116
f 116/116/116 52/52/52 117/117/117
f 52/52/52 53/53/53 117/117/117
f 117/117/117 53/53/53 118/118/118
f 53/53/53 54/54/54 118/118/118
f 118/118/118 54/54/54 119/119/119
f 54/54/54 55/55/55 119/119/119
f 119/119/119 55/55/55 120/120/120
f 55/55/55 56/56/56 120/120/120
f 120/120/120 56/56/56 121/121/121
f 56/56/56 57/57/57 121/121/121
f 121/121/121 57/57/57 122/122/122
f 57/57/57 58/58/58 122/122/122
f 122/122/122 58/58/58 123/123/123
f 58/58/58 59/59/59 123/123/123
f 123/123/123 59/59/59 124/124/124
f 59/59/59 60/60/60 124/124/124
f 124/124/124 60/60/60 125/125/125
f 60/60/60 61/61/61 125/125/125
f 125/125/125 61/61/61 126/126/126
f 61/61/61 62/62/62 126/126/126
f 126/126/126 62/62/62 127/127/127
f 62/62/62 63/63/63 127/127/127
f 127/127/127 63/63/63 128/128/128
f 63/63/63 64/64/64 128/128/128
f 128/128/128 64/64/64 129/129/129
f 64/64/64 65/65/65 129/129/129
f 129/129/129 65/65/65 130/130/130
